<svg xmlns="http://www.w3.org/2000/svg" width="600" height="600"><circle cx="300" cy="300" r="256.35" fill="#f7fbf5" stroke="#c1121c" stroke-width="87.3"/><circle cx="300" cy="300" r="285" fill="none" stroke="#f7fbf5" stroke-width="10"/><path fill="#2a2d2f" d="M178.364 255.196c9.126-5.293 11.04-7.645 35.163-7.645 33.248 0 85.896 10.913 83.6 73.254-.894 25.518-10.595 75.296-83.79 75.296-38.8 0-83.92-24.816-84.557-24.685l21.124-35.353c.254 1.144 41.797 20.862 63.432 20.862 23.485 0 44.543-11.043 44.543-33.18 0-22.087-6.764-37.982-43.778-37.084-6.7.196-27.185 1.274-38.48 12.122l-34.46-9.181.445-103.51h137.396v39.061h-100.19zM404.72 182.58c54.69 0 86.022 43.782 86.022 106.123 0 62.407-32.226 106.45-86.023 106.45s-86.15-43.08-86.15-106.45c0-62.34 32.353-106.123 86.15-106.123m0 174.345c27.95 0 47.734-20.42 47.734-68.222 0-44.991-19.784-66.948-47.735-66.948-28.014 0-45.947 21.957-45.947 66.948 0 45.955 17.933 68.222 45.947 68.222"/></svg>
