<svg xmlns="http://www.w3.org/2000/svg" width="300" height="300"><circle cx="150" cy="150" r="128.175" fill="#f7fbf5" stroke="#c1121c" stroke-width="43.65"/><circle cx="150" cy="150" r="142.5" fill="none" stroke="#f7fbf5" stroke-width="5"/><path fill="#2a2d2f" d="M89.182 127.598c4.563-2.646 5.52-3.822 17.582-3.822 16.624 0 42.948 5.456 41.8 36.627-.447 12.759-5.298 37.648-41.895 37.648-19.4 0-41.96-12.408-42.279-12.343l10.562-17.676c.127.571 20.899 10.43 31.716 10.43 11.743 0 22.272-5.521 22.272-16.59 0-11.043-3.382-18.99-21.89-18.542-3.35.098-13.592.637-19.24 6.061l-17.23-4.59.223-51.755h68.698v19.53H89.406zM202.36 91.29c27.345 0 43.011 21.891 43.011 53.061 0 31.204-16.113 53.225-43.011 53.225s-43.075-21.54-43.075-53.225c0-31.17 16.176-53.061 43.075-53.061m0 87.172c13.975 0 23.867-10.21 23.867-34.11 0-22.496-9.892-33.475-23.868-33.475-14.007 0-22.973 10.979-22.973 33.475 0 22.977 8.966 34.11 22.973 34.11"/></svg>
