<svg xmlns="http://www.w3.org/2000/svg" width="300" height="300"><circle cx="150" cy="150" r="128.175" fill="#f7fbf5" stroke="#c1121c" stroke-width="43.65"/><circle cx="150" cy="150" r="142.5" fill="none" stroke="#f7fbf5" stroke-width="5"/><path fill="#2a2d2f" d="m103.094 109.125-.313 45.188s-1.302.847-1.531-.844c-.825-6.03-2.435-22.69-3.75-33.188H70.594L58.53 148.125l2.75 20.906h-3.468v6.75H75.25c.22-17.204 27.525-16.81 27.844-.406l58.531-.312c2.075-15.547 21.599-12.97 30.625-12.97 8.838 0 25.565-2.833 26.938 13.22h20.437v-66.188zm-28.188 17.344H91.97l.312.937.875 18.563h-25.97zm14.281 37.906c-7.022 0-12.718 5.696-12.718 12.719s5.696 12.719 12.719 12.719 12.718-5.696 12.718-12.72c0-7.022-5.696-12.718-12.719-12.718m86.907 0c-7.023 0-12.719 5.696-12.719 12.719s5.696 12.719 12.719 12.719 12.719-5.696 12.719-12.72c0-7.022-5.696-12.718-12.72-12.718m29.219 0c-7.023 0-12.72 5.696-12.72 12.719s5.697 12.719 12.72 12.719c7.022 0 12.718-5.696 12.718-12.72 0-7.022-5.696-12.718-12.719-12.718"/></svg>