<svg xmlns="http://www.w3.org/2000/svg" width="300" height="300"><circle cx="150" cy="150" r="128.175" fill="#f7fbf5" stroke="#c1121c" stroke-width="43.65"/><circle cx="150" cy="150" r="142.5" fill="none" stroke="#f7fbf5" stroke-width="5"/><path fill="#2a2d2f" d="M95.531 109.469c-15.9.004-26.931.008-28.031.031-1.324.025-1.552 3.074-1.844 3.687.612 1.325 1.688 3.938 1.688 3.938l-9.031 22.812s2.659 5.433 3.874 7.063c1.622 2.17 1.38 15.415.907 21.156-.144 1.621-2.125 2.625-2.125 2.625v4.438l24.625.03c.543-7.882 7.073-14.124 15.094-14.124s14.58 6.242 15.124 14.125l59.782.031c.528-7.897 7.063-14.156 15.094-14.156 8.01 0 14.566 6.226 15.125 14.094 4.093-.207 27.688-1.467 31.718-3.625 4.39-2.348 0-5.063 0-5.063v-24.719l-3.75-25s2.728-1.857 2.813-4.5c.076-2.246-1.688-2.812-1.688-2.812s-91.672-.044-139.375-.031m-29.875 3.719c-.326-.708-.56-1.162-.344-.407.157.543.247.61.344.406m29 3.624h24.594v25H94.656zm30.219 0h26.313v25h-26.313zm31.531 0h27.75v25h-27.75zm32.656 0h22.375v25h-22.375zm28.22 0h9.874l3.75 25h-13.625zM72.624 119.5h15.5v25.844H64.313l-.688-5.406zm28.063 43.469c-7.364 0-13.313 5.98-13.313 13.344a13.3 13.3 0 0 0 13.313 13.312c7.363 0 13.343-5.949 13.343-13.312 0-7.364-5.98-13.344-13.344-13.344m90 0c-7.364 0-13.313 5.98-13.313 13.344a13.3 13.3 0 0 0 13.313 13.312c7.363 0 13.343-5.949 13.343-13.312 0-7.364-5.98-13.344-13.344-13.344"/></svg>