<svg xmlns="http://www.w3.org/2000/svg" width="300" height="300"><circle cx="150" cy="150" r="150" style="fill:#0e518d;stroke:none"/><path d="M85.196 102.664c-19.31.004-32.704.01-34.04.038-1.607.03-1.884 3.733-2.238 4.478.742 1.608 2.049 4.781 2.049 4.781L40 139.663s3.23 6.597 4.706 8.576c1.968 2.635 1.674 18.719 1.1 25.69-.174 1.97-2.58 3.189-2.58 3.189v5.388l29.902.038c.66-9.572 8.59-17.152 18.33-17.152s17.706 7.58 18.366 17.152l72.594.038c.642-9.59 8.576-17.19 18.329-17.19 9.727 0 17.688 7.56 18.366 17.114 4.972-.251 33.624-1.782 38.517-4.402 5.332-2.85 0-6.148 0-6.148V141.94l-4.553-30.358s3.312-2.256 3.415-5.465c.092-2.727-2.05-3.415-2.05-3.415s-111.32-.054-169.246-.038m-36.278 4.516c-.396-.859-.682-1.41-.418-.494.19.66.3.742.418.494m35.215 4.402h29.865v30.358H84.133zm36.696 0h31.952v30.358h-31.952zm38.289 0h33.698v30.358h-33.698zm39.655 0h27.171v30.358h-27.17zm34.267 0h11.992l4.553 30.358H233.04zm-175.66 3.263h18.822v31.383H47.286l-.835-6.565zm34.077 52.786c-8.942 0-16.166 7.261-16.166 16.203S82.515 200 91.457 200s16.204-7.224 16.204-16.166-7.262-16.203-16.204-16.203m109.29 0c-8.942 0-16.166 7.261-16.166 16.203S191.805 200 200.747 200s16.203-7.224 16.203-16.166-7.261-16.203-16.203-16.203" style="fill:#fff;stroke:none"/><circle cx="150" cy="150" r="141.942" style="fill:none;stroke:#f7fbf5;stroke-width:6.73600006"/></svg>