<svg xmlns="http://www.w3.org/2000/svg" width="300" height="300"><path fill="#0e518d" d="M0 0h300v300H0z"/><path fill="#f7fbf5" d="M154.243 193.304h61.056v28.443c0 5.518 4 5.331 4 5.331h18.441s4 .187 4-5.33v-28.444h1.747l12.452-14.19v-45.307l-12.452-9.33-17.97-45.525c-40.193-5.332-71.502-5.778-71.502-5.55 0-.228-31.333.218-71.525 5.55l-17.97 45.526-12.453 9.33v45.306l12.452 14.19h1.772v28.443c0 5.518 4.007 5.331 4.007 5.331h18.41s3.999.187 3.999-5.33v-28.444z"/><path fill="#0e518d" d="M154.015 121.365c0-.22 52.612 1.333 78.394 3.332l.187-.097-13.745-34.758c-40.192-5.332-64.836-5.779-64.836-5.551 0-.228-24.668.22-64.86 5.55L75.41 124.6l.187.097c25.782-1.999 78.418-3.551 78.418-3.332M207.643 163.998h34.194c3.65 0 3.91-3.779 3.91-3.779v-17.65s-.26-3.772-3.91-3.772h-28.318c-3.649 0-4.958 2.568-5.429 3.682-.797 1.747-4.446 17.74-4.446 17.74 0 3.56 3.999 3.78 3.999 3.78M100.363 163.998H66.17c-3.65 0-3.877-3.779-3.877-3.779v-17.65s.228-3.772 3.877-3.772h28.318c3.649 0 4.958 2.568 5.429 3.682.797 1.747 4.446 17.74 4.446 17.74 0 3.56-3.999 3.78-3.999 3.78"/><path d="M276.315 292.093c8.738 0 15.817-7.079 15.817-15.783V23.69c0-8.704-7.08-15.783-15.817-15.783H23.685c-8.73 0-15.777 7.079-15.777 15.783v252.62c0 8.704 7.047 15.783 15.777 15.783z" style="fill:none;stroke:#f7fbf5;stroke-width:6.76193762"/></svg>