<svg xmlns="http://www.w3.org/2000/svg" width="300" height="200"><path fill="#0e518d" d="M0 0h300v200H0z"/><path fill="#f7fbf5" d="M136.86 60.632h18.19v8.464c0 1.651 1.178 1.582 1.178 1.582h5.503s1.2.07 1.2-1.582v-8.464h.522l3.718-4.23v-13.47l-3.718-2.781-5.37-13.558c-11.957-1.581-21.287-1.72-21.287-1.65 0-.07-9.336.069-21.294 1.65l-5.37 13.558-3.716 2.78v13.471l3.717 4.23h.522v8.464c0 1.651 1.2 1.582 1.2 1.582h5.48s1.2.07 1.2-1.582v-8.464z"/><path fill="#0e518d" d="M136.796 39.224c0-.07 15.674.382 23.352.996l.07-.023-4.1-10.365c-11.986-1.587-19.322-1.72-19.322-1.651 0-.07-7.341.064-19.322 1.651l-4.106 10.365.07.023c7.678-.614 23.358-1.066 23.358-.996m15.964 12.694h10.195c1.09 0 1.154-1.13 1.154-1.13v-5.25s-.064-1.135-1.154-1.135h-8.426c-1.084 0-1.496.77-1.63 1.113-.226.521-1.316 5.272-1.316 5.272 0 1.06 1.177 1.13 1.177 1.13m-31.934 0H110.63c-1.09 0-1.154-1.13-1.154-1.13v-5.25s.064-1.135 1.154-1.135h8.426c1.084 0 1.496.77 1.63 1.113.226.521 1.316 5.272 1.316 5.272 0 1.06-1.177 1.13-1.177 1.13"/><path fill="#f7fbf5" d="M62.837 62.445c-6.118 0-11.082-4.96-11.082-11.049 0-6.106 4.964-11.066 11.082-11.066 6.112 0 11.076 4.96 11.076 11.066 0 6.09-4.964 11.049-11.076 11.049m0 1.651c3.398 0 6.454 1.536 8.49 3.957l31.534 32.254-4.007 4.183-25.121-19.235c-.522 10.707-2.697 21.906-2.697 21.906l19.775 71.136h-7.388l-23.26-53.546-8.385 22.926-20.11 29.942-6.025-5.006 16.08-31.298 7.202-36.141.163-19.42-5.533 4.003-3.85 19.42-5.526.342 1.676-24.108 18.098-18.737c4.013-3.69 8.884-2.578 8.884-2.578m94.638 48.836a6.33 6.33 0 0 0-4.715 2.607l-16.376 21.09 3.514 2.693 11.372-11.767c1.287 6.113 3.213 10.319 3.213 10.319l-6.112 40.985 4.911-.29 9.766-27.932 4.528 9.392 21.567 7.358.092-7.196-14.996-5.365-5.799-18.51-1.339-11.658 2.992.093 6.93 8.847 3.758-3.192-8.699-10.684-9.667-5.203c-2.447-1.947-4.94-1.587-4.94-1.587m-2.401-1.559c4.256 0 7.747-3.464 7.747-7.74s-3.49-7.74-7.747-7.74c-4.28 0-7.77 3.464-7.77 7.74s3.49 7.74 7.77 7.74m-28.473 66.721a8.4 8.4 0 0 0 8.403-8.401c0-4.635-3.758-8.395-8.403-8.395a8.399 8.399 0 1 0 0 16.796m77.897-117.596V48.25h10.287v4.485l-.023.046 20.592-15.48 40.14 30.526v51.965H264.98V79.935h-19.594v39.855h-50.601V67.828l9.76-7.352zm1.067 48.998h29.563v-29.56h-29.563zm29.563 0"/><path fill="none" stroke="#f7fbf5" stroke-width="6.764" d="M276.306 192.103c8.721 0 15.79-7.062 15.79-15.776V23.65c0-8.714-7.069-15.77-15.79-15.77H23.67c-8.721 0-15.79 7.056-15.79 15.77v152.677c0 8.714 7.069 15.776 15.79 15.776z"/></svg>