<svg xmlns="http://www.w3.org/2000/svg" width="175.438" height="80.5"><path fill="#c1121c" stroke="#f7fbf5" stroke-width="4" d="M9.594 2A7.59 7.59 0 0 0 2 9.594v61.312A7.59 7.59 0 0 0 9.594 78.5h156.25a7.59 7.59 0 0 0 7.594-7.594V9.594A7.59 7.59 0 0 0 165.844 2H9.594"/><path fill="#f7fbf5" d="M36.406 19.625 19.25 60.5h7.344l4.156-9.75h18.406l4.094 9.75h7.313L43.436 19.625zm64.156 0-24.312 26.5v5.813h24.313V60.5h6.656v-8.562h6.062v-6.126h-6.156V19.626zm42 0-24.312 26.5v5.813h24.313V60.5h6.656v-8.562h6.062v-6.126h-6.156V19.626zm-42 9.031v17.157H84.876zm42 0v17.157h-15.656zm-102.625.094 6.344 15.219h-12.75z"/></svg>