<svg xmlns="http://www.w3.org/2000/svg" width="300" height="300"><circle cx="150" cy="150" r="150" style="fill:#0e518d;stroke:none"/><path d="m104.907 60-.309 44.658s-1.287.838-1.513-.834c-.816-5.958-2.407-22.424-3.706-32.798H72.788L60.866 98.543l2.718 20.662h-3.428v6.67H77.39c.218-17.002 27.203-16.613 27.518-.4l57.845-.31c2.05-15.364 21.346-12.817 30.267-12.817 8.734 0 25.265-2.8 26.621 13.064h20.198V60zM77.05 77.14h16.862l.309.927.865 18.345H69.42zm14.114 37.463c-6.941 0-12.57 5.63-12.57 12.57s5.629 12.57 12.57 12.57c6.94 0 12.57-5.63 12.57-12.57s-5.63-12.57-12.57-12.57m85.888 0c-6.941 0-12.57 5.63-12.57 12.57s5.629 12.57 12.57 12.57c6.94 0 12.57-5.63 12.57-12.57s-5.63-12.57-12.57-12.57m28.876 0c-6.94 0-12.57 5.63-12.57 12.57s5.63 12.57 12.57 12.57 12.57-5.63 12.57-12.57-5.63-12.57-12.57-12.57M94.768 157.045c-16.456.004-27.872.008-29.01.033-1.37.026-1.606 3.181-1.908 3.816.633 1.37 1.747 4.075 1.747 4.075l-9.347 23.609s2.752 5.622 4.01 7.309c1.678 2.246 1.427 15.953.938 21.895-.148 1.677-2.199 2.716-2.199 2.716v4.593l25.485.032c.562-8.158 7.32-14.618 15.62-14.618s15.09 6.46 15.653 14.618l61.868.032c.547-8.172 7.31-14.65 15.621-14.65 8.29 0 15.075 6.443 15.653 14.586 4.237-.214 28.656-1.519 32.826-3.752 4.544-2.43 0-5.24 0-5.24v-25.58l-3.88-25.874s2.822-1.922 2.91-4.657c.079-2.324-1.747-2.91-1.747-2.91s-94.872-.046-144.24-.033zm-30.918 3.849c-.338-.732-.58-1.202-.356-.42.162.561.255.631.356.42m30.012 3.752h25.453v25.872H93.862zm31.274 0h27.231v25.872h-27.23zm32.632 0h28.719v25.872h-28.719zm33.796 0h23.156v25.872h-23.156zm29.204 0h10.22l3.88 25.872h-14.1zm-149.706 2.78h16.041v26.747H62.46l-.711-5.595zm29.042 44.987c-7.62 0-13.777 6.19-13.777 13.81S92.484 240 100.104 240s13.81-6.157 13.81-13.777-6.19-13.81-13.81-13.81m93.142 0c-7.62 0-13.777 6.19-13.777 13.81S185.625 240 193.246 240s13.81-6.157 13.81-13.777-6.19-13.81-13.81-13.81" style="fill:#f7fbf5;fill-opacity:1"/><circle cx="150" cy="150" r="141.942" style="fill:none;stroke:#f7fbf5;stroke-width:6.73600006"/></svg>