<svg xmlns="http://www.w3.org/2000/svg" width="300" height="300"><circle cx="150" cy="150" r="150" style="fill:#0e518d;stroke:none"/><path d="M260 100.74H94.858l-.428 54.895s-1.676.966-1.96-.965c-.963-7.403-2.924-27.68-4.456-40.376h-32.58L40.82 148.09l3.35 25.426H40v8.118h21.03c.25-20.813 33.4-20.42 33.827-.429l70.72-.429c2.495-18.847 26.163-15.771 37.035-15.771 10.729 0 30.904-3.362 32.579 16.057H260zm-76.836 97.774c8.548 0 15.521-6.973 15.521-15.485 0-8.547-6.973-15.378-15.52-15.378-8.369 0-15.342 6.831-15.342 15.378 0 8.512 6.973 15.485 15.341 15.485m-105.133.286c8.501 0 15.36-6.974 15.36-15.485a15.32 15.32 0 0 0-15.36-15.378c-8.502 0-15.503 6.83-15.503 15.378 0 8.511 7.001 15.485 15.503 15.485m140.386-.286c8.512 0 15.485-6.973 15.485-15.485 0-8.547-6.973-15.378-15.485-15.378a15.31 15.31 0 0 0-15.377 15.378c0 8.512 6.83 15.485 15.377 15.485" style="fill:#fff;stroke:none"/><path d="m81.633 122.949 1.105 22.494H51.264l9.481-23.603h20.603" style="fill:#0e518d;stroke:none;fill-opacity:1"/><circle cx="150" cy="150" r="141.942" style="fill:none;stroke:#f7fbf5;stroke-width:6.73600006"/></svg>