<svg xmlns="http://www.w3.org/2000/svg" width="200" height="300"><path fill="#0e518d" d="M0 0h200v300H0z"/><path fill="#f7fbf5" d="m72.674 93.288 20.258-67.677h4.217l-4.41 67.677zm17.787 34.74L81.176 270.71H19.499l42.76-142.657zm36.865-34.74-20.258-67.677h-4.251l4.41 67.677zm-17.821 34.74 9.32 142.682h61.642l-42.726-142.657zm42.827-17.358v17.358h12.39V110.67h15.281v-8.703H19.997v8.703h15.282v17.358h12.355V110.67z"/><path d="M175.626 292.091c8.957 0 16.244-7.072 16.244-15.784V23.66c0-8.703-7.287-15.784-16.244-15.784H24.34c-8.957 0-16.235 7.08-16.235 15.784v252.647c0 8.712 7.278 15.784 16.235 15.784z" style="fill:none;stroke:#f7fbf5;stroke-width:6.72582531"/></svg>