<svg xmlns="http://www.w3.org/2000/svg" width="341" height="100"><path fill="#0e518d" d="M0 0h341v100H0z"/><path fill="#f7fbf5" d="M28.524 71.64v-43.5h6.704v17.295h20.16V28.14h6.704v43.5h-6.704v-19.6h-20.16v19.6zm73.833-5.19c-2.243 4.12-6.484 6.173-11.803 6.173-9.655 0-13.464-7.464-13.464-17.169 0-9.618 4.422-17.695 13.92-17.695 8.978.212 13.22 6.417 13.22 15.54v3.075H83.911c-.645 4.177.771 9.768 6.547 9.768 5.658 0 6.948-3.098 6.98-3.35zm-4.918-14.842c.118-4.915-1.905-8.722-6.791-8.722-4.218 0-6.736 3.933-6.736 8.722zm21.269 20.032V29.768l7.404-3.689v45.56zm31.569-28.848h-.495c2.03-4.208 5.996-5.254 9.403-5.403 4.556-.212 9.222 2.737 9.623 5.686-.456-3.319 7.074-5.686 11.009-5.686 4.115 0 11.307 2.642 11.307 10.507V71.64h-7.774V51.734c-.433-3.193.74-7.802-6.484-7.802-1.967 0-4.611 1.046-5.013 3.162-.582 3.17-.676 6.457-.676 7.251V71.64h-7.381V51.734c0-5.835-2.975-7.62-6.421-7.62-3.132 0-5.469 1.627-6.704 4.49-.732 1.746-.276 4.947-.276 5.741V71.64h-6.971V38.403h6.853zM233.45 54.81c0 10.475-3.447 17.844-14.51 17.844-11.095 0-14.935-7.369-14.935-17.845 0-10.444 3.84-17.853 14.935-17.853 11.063 0 14.51 7.409 14.51 17.853m-14.51 13.204c5.32 0 7.806-6.016 7.806-13.205 0-7.157-2.274-13.212-7.806-13.212-6.578 0-8.239 6.055-8.239 13.212 0 7.189 2.495 13.205 8.239 13.205m34.363-25.063h-.677c2.156-4.24 5.414-5.38 8.766-5.38 2.368 0 12.543-.181 12.543 10.814V71.64h-7.2V51.67c0-4.726-1.322-7.739-5.87-7.739 0 0-3.376-.739-6.051 1.967-.953.92-1.354 2.092-1.354 8.659V71.64h-7.192V37.97h7.035zm62.674 22.422c.063 2.06.22 4.09 0 6.268h-7.373l.032-2.517h-.032c-1.11 1.353-3.383 3.382-8.112 3.413-10.513.087-13.007-8.847-13.007-18.128 0-8.785 5.413-16.988 13.156-17.113 3.163-.063 5.194.338 7.743 3.869h.252V29.398l7.341-3.806zm-7.341-17.751c-1.015-1.597-4.092-3.846-7.995-3.232-2.337.4-6.177 3.72-6.177 10.145 0 6.386 2.03 11.27 6.114 11.27 4.029 0 7.074-1.077 8.058-3.043z"/><path d="M317.7 92.23c8.578 0 15.526-6.945 15.526-15.517V23.287c0-8.572-6.948-15.517-15.525-15.517H23.299c-8.608 0-15.556 6.945-15.556 15.517v53.426c0 8.572 6.948 15.517 15.556 15.517z" style="fill:none;stroke:#f7fbf5;stroke-width:5.93152094"/></svg>