<svg xmlns="http://www.w3.org/2000/svg" width="586.86" height="400"><path fill="#73a0ca" d="M0 0h586.86v400H0z"/><path fill="#fff" d="M0 0h202.921v400H0z"/><path fill="#154273" d="M59.362 0h85.723v199.808H59.362z"/><path fill="#fff" d="M85.872 190.63a59 59 0 0 1-2.688-.607c-5.272-1.294-7.449-1.42-9.884-.579-.724.254-.819.263-.814.09 0-.112.154-1.208.344-2.434.271-1.72.393-2.272.543-2.399 1.118-.982 6.005-1.004 8.974-.045l.846.272.073 1.56c.063 1.318.108 1.603.285 1.811.203.249.203.249.48-.068.583-.665 1.878-1.118 3.665-1.28l.973-.087-.072 1.422c-.077 1.583-.186 1.887-.801 2.262-.38.227-.887.254-1.924.086zm31.24.018c-.688-.136-.937-.511-1.059-1.63a18 18 0 0 1-.104-1.538v-.61l.95.09c1.766.153 3.069.61 3.644 1.267.271.307.271.307.52.063.24-.226.253-.326.285-1.81l.036-1.566.385-.122c1.837-.588 3.326-.801 5.594-.801 2.47-.005 3.738.312 4 .996.095.257.846 4.493.846 4.792 0 .054-.212-.009-.47-.145-.878-.466-1.969-.647-3.856-.647-1.928 0-2.706.127-6.408 1.018-1.122.272-2.317.525-2.661.57l-.937.118a3.2 3.2 0 0 1-.76-.045zm-32.96-6.562c0-1.457.046-2.652.105-2.788.366-.814 4.095-1.502 10.318-1.892 3.1-.194 12.798-.19 15.69.01 5.385.366 8.979.986 9.93 1.71.23.181.234.217.234 2.851v2.67l-.592-.316q-1.168-.616-3.996-.973c-3.173-.399-5.766-.494-13.55-.494s-10.377.095-13.55.498q-2.823.349-3.996.969l-.588.316zm43.894-1.9c-.344-.797-.244-1.245.403-1.811l.348-.317-.28-.127c-.39-.176-.485-.162-.842.123a1.4 1.4 0 0 1-.407.249c-.181 0 .063-.946.334-1.29.25-.317.33-.349.801-.294a3.2 3.2 0 0 1 .702.149c.15.072.181.027.181-.226a.74.74 0 0 0-.697-.706c-.498 0-.1-.498.53-.68.235-.063.443.023 1 .426.724.525 1.674.801 1.814.525.105-.199-.199-1.792-.457-2.398a6 6 0 0 0-.769-1.177c-.475-.57-.706-.724-2.15-1.403-1.756-.828-2.163-1.14-2.443-1.837l-.181-.453-.25.276c-.493.557-1.457.317-1.891-.475-.15-.271-.145-.271.362-.244.62.031 1.118-.322 1.534-1.086.38-.702.507-1.367.448-2.354-.163-2.76-2.833-5.611-5.793-6.177-1.312-.25-3.262.271-4.421 1.176-.439.349-.462.435-.226.874l.172.303h-.385a1.4 1.4 0 0 1-.566-.113c-.461-.294-.651.63-.24 1.154.127.154.227.33.227.385 0 .226-.693-.086-1.014-.453-.181-.217-.367-.362-.403-.317a27 27 0 0 0-.135 2.49c-.077 2.348-.091 2.43-.385 3.086-.367.814-1.299 1.964-2.082 2.561-.317.245-2.222 1.448-4.245 2.688s-3.824 2.358-4.005 2.494l-.34.244-4.118-2.552c-2.262-1.403-4.39-2.779-4.729-3.055-.855-.692-1.738-1.896-2.014-2.742-.199-.607-.235-1.005-.271-3.096l-.046-2.398-.38.502c-.285.38-.484.525-.796.58l-.417.076.218-.298c.384-.516.457-.779.312-1.118-.072-.168-.2-.28-.28-.25-.277.1-1.032.16-1.032.078 0-.046.072-.208.158-.371.15-.267.145-.313-.027-.516-.258-.317-1.738-1.114-2.426-1.313-.317-.09-.996-.163-1.512-.154-3.489.046-7.1 4.064-6.525 7.26a3.7 3.7 0 0 0 .891 1.982c.462.484.801.593 1.208.389q.666-.34.095.425c-.51.697-1.312.847-1.81.34-.172-.177-.203-.177-.249-.018a3.6 3.6 0 0 1-.534.746c-.393.462-.724.68-1.81 1.177-2.525 1.158-3.299 2.127-3.575 4.458-.063.56-.054.588.217.67.358.108.95-.105 1.471-.526.66-.543.932-.606 1.403-.353.434.236.552.557.194.557-.226 0-.724.516-.724.747 0 .095.218.113.71.054.662-.077.725-.059 1.028.244.294.29.557 1.11.417 1.281-.028.032-.227-.059-.448-.203-.453-.29-.589-.308-.883-.123-.195.127-.181.163.235.602.362.39.444.552.444.91 0 .434-.272 1.095-.453 1.095-.045 0-.135-.163-.194-.362a1.36 1.36 0 0 0-.371-.57c-.25-.195-.326-.195-1.136 0-.833.194-.892.194-1.385-.027l-.516-.236-.24.344c-.253.367-.783.602-1.362.602h-.353l.43-.556c.448-.58.48-.657.353-.887-.145-.254-.39-.258-.964-.023-.534.222-.606.226-1.005.045a1.8 1.8 0 0 1-.615-.443c-.181-.24-.177-.245.19-.245 1.032 0 1.177-.384 1.04-2.715-.149-2.412 0-3.697.499-4.335l.208-.258-.417-.195c-.688-.326-1.013-1.267-.737-2.145.13-.407.316-.412.316-.014 0 .62.693 1.046 1.43.883.73-.163 1.62-1.177 1.956-2.231.294-.919.262-.946-1.041-.996q-3.78-.163-3.743-3.693c.018-1.457.23-1.9 2.172-4.548.503-.683 1.055-1.525 1.222-1.869.272-.543.303-.724.272-1.398-.027-.611-.09-.842-.294-1.105-1.005-1.303-3.209-.588-4.001 1.295-.348.828-.507-.023-.217-1.168l.158-.61-.977.04c-1.123.045-1.507-.113-1.842-.77-.208-.407-.263-1.208-.136-2.104l.063-.457.485.634.488.633 2.132.095c1.177.054 2.39.163 2.706.245 1.494.38 2.408 1.692 2.43 3.493.014 1.086-.316 1.874-1.47 3.458-1.539 2.122-1.856 2.85-1.77 4.082.059.833.317 1.208 1.05 1.493.575.231 1.68.2 2.435-.072.412-.15.42-.168.597-1.041.39-1.991 1.448-4.57 2.308-5.643.484-.607.575-.625 1.584-.34.385.113 1.154.204 1.697.208 1.159.01 1.498-.104 3.544-1.203 1.312-.702 1.457-.752 2.19-.756.928 0 1.086.086 3.073 1.674.747.593 1.57 1.231 1.833 1.412.896.625.828 1.1.828-5.648v-5.978h-.249c-.357 0-.452.208-.502 1.095-.036.589-.104.851-.272 1.055-.185.217-.226.23-.226.072 0-.294-.28-.516-.552-.434-.127.04-.702.498-1.267 1.009a9 9 0 0 1-1.127.941 2.3 2.3 0 0 1-.444-.67 7.2 7.2 0 0 0-.955-1.298l-.597-.63.462-.14c1.547-.475 2.987-1.24 3.444-1.828a3.2 3.2 0 0 0 .407-.833c.122-.403.253-.579.58-.77a4.5 4.5 0 0 0 .832-.655c.407-.408.878-.52 1.186-.285.122.09.09.194-.181.56-.33.449-.458 1.024-.204.906.072-.032.588-.181 1.154-.34.787-.217 1.05-.248 1.145-.135.081.095.136.778.163 1.946l.036 1.8h1.335v-2.117c0-1.163.036-2.118.077-2.118.04 0 .548-.082 1.122-.177 2.159-.362 4.119-.48 6.761-.407 3.254.082 5.191.362 8.382 1.213.765.204 1.407.371 1.434.371.163 0 0-.561-.271-.932-.349-.466-.358-.44.194-.634.209-.081.774.25 1.05.607.136.18.376.357.539.398.357.09.552.357.738.977a2.3 2.3 0 0 0 .452.801c.498.498 1.969 1.272 2.987 1.566a4.5 4.5 0 0 1 .923.33 1.8 1.8 0 0 1-.416.345c-.417.285-1.122 1.249-1.417 1.927-.09.209-.217.335-.294.3a14 14 0 0 1-1.009-.86 14 14 0 0 0-1.231-1.023l-.362-.222-.226.34-.227.339-.167-.29a2.3 2.3 0 0 1-.172-.95c0-.67-.23-1.154-.557-1.154-.194 0-.276 2.308-.276 7.698v4.299l.385-.077c.249-.045 1.005-.575 2.163-1.503 2.068-1.66 2.399-1.846 3.236-1.855.507-.014.796.081 1.512.462 2.552 1.348 2.76 1.439 3.688 1.52.656.064 1.204.018 2.036-.145 1.358-.271 1.453-.24 2.064.706.778 1.209 1.131 2.055 1.693 4.028.389 1.371.62 2.005.773 2.127a3.2 3.2 0 0 0 .982.321c1.756.344 2.852-.556 2.684-2.194-.09-.856-.507-1.675-1.715-3.377a13.6 13.6 0 0 1-1.276-2.127 2.7 2.7 0 0 1-.272-1.638q.122-2.172 1.801-3.09c.466-.254.77-.3 2.815-.408 1.258-.063 2.417-.177 2.57-.244a2.3 2.3 0 0 0 .643-.602c.2-.258.399-.43.444-.376s.081.525.081 1.059c.005 1.05-.126 1.435-.647 1.855-.226.182-.484.227-1.299.227-.977 0-1.018.013-.954.249.212.787.285 1.434.19 1.697-.1.262-.118.249-.385-.294-.634-1.295-1.828-2.082-2.87-1.901-.918.163-1.312.642-1.443 1.756-.09.77.285 1.584 1.385 3.04 1.846 2.445 2.33 3.431 2.335 4.721 0 .44-.054 1.018-.122 1.29a3.62 3.62 0 0 1-1.675 2.032c-.574.317-.805.362-1.937.407l-1.28.054.063.39c.19 1.131.978 2.335 1.756 2.688.77.348 1.63.018 1.779-.679.036-.172.108-.312.163-.312.09 0 .316.77.316 1.095 0 .376-.344.91-.783 1.222l-.47.326.253.362c.43.606.52 1.511.39 3.887-.087 1.557-.082 2.154.004 2.322.168.317.638.629.95.629.408 0 .43.217.05.498-.402.29-.886.316-1.547.072-.498-.181-.828-.09-.828.235 0 .095.163.43.362.743l.366.57h-.357c-.489 0-.887-.2-1.263-.634l-.317-.362-.407.249c-.498.299-.606.303-1.462.045-.855-.253-1.199-.117-1.493.602l-.208.498zm-24.194-10.048v-2.303h-1.56v4.611h1.56zm3.132-.868a.9.9 0 0 1 .385-.449c.158-.072.42-.212.588-.312.204-.122.466-.15.883-.09l.588.077-.231-.308q-.475-.611.072-.602c.181 0 .43-.127.598-.308l.294-.312-.317.068c-.452.1-.624-.127-.982-1.308-.28-.937-.299-1.073-.158-1.254.158-.208.208-.642.09-.782-.036-.041-.194.045-.357.18-.227.2-.376.24-.661.177-.448-.1-1.172-.738-1.493-1.312-.39-.688-.34-.756.57-.756 1.362-.01 1.905-.258 2.398-1.118.453-.805.267-1.797-.62-3.2-.837-1.33-.896-1.678-.348-2.104.249-.199.294-.199.738 0a2.26 2.26 0 0 1 .85.77 2.3 2.3 0 0 0 .466.543c.046 0 .086-.245.086-.544v-.543l.43-.068c.652-.104.969-.443 1.01-1.068.018-.285 0-.515-.037-.515a1.4 1.4 0 0 0-.38.312c-.357.353-.624.38-2.122.18-.892-.121-1.028-.112-1.448.11-.602.32-.842.769-.842 1.583 0 .589.05.724.588 1.566.95 1.503 1.032 1.87.516 2.49-.249.293-.394.361-.792.361-.606 0-1.163-.303-1.344-.733a9 9 0 0 1-.321-1.009 14 14 0 0 0-.498-1.403l-.317-.715h-1.118c-1.072 0-1.172-.018-2.19-.516-1.552-.742-1.625-.724-3.697.932l-1.666 1.33-.032-.388a2.7 2.7 0 0 1 .077-.77 4.5 4.5 0 0 0 .109-.891l-.005-.507-.195.434-.194.435-.131-.34c-.163-.43-.308-.443-.308-.031 0 .393-.05.389-.376-.032l-.262-.344.054.39c.077.565-.032.601-.425.149-.39-.453-.408-.44-.181.208.09.253.135.493.108.53-.027.036-.226-.06-.434-.204l-.38-.272.226.444c.253.484.167.552-.38.303l-.294-.136.285.362c.366.457.362.53-.046.53q-.71-.005.507.37c.634.195.715.259.742.548.037.362.136.399.453.195.299-.19.335-.086.122.362q-.344.72.272.34l.321-.2v.616c0 .688.081.77.615.624a1.67 1.67 0 0 0 1.055-.91c.14-.312.136-.352-.045-.52a.8.8 0 0 0-.457-.18c-.399 0-.136-.272.715-.739 1.357-.75 2.878-.963 3.892-.552.688.28 1.638 1.358 2.036 2.317.543 1.304.407 2.675-.321 3.205l-.317.235.253.199q.254.195.566.122c.235-.054.38 0 .616.236.235.235.552.352 1.403.51.882.168 1.158.272 1.448.553.751.724.665 1.077-.222.937-.539-.082-1.023.018-1.023.208 0 .068.09.122.2.122.108 0 .307.109.443.245l.244.244-.267.004a.634.634 0 0 0-.633.566q-.041.258.117.199c.475-.145.63-.154.63-.036a.28.28 0 0 1-.105.208c-.136.104-.136.516 0 .819.145.317.19.303.313-.073zm-8.567-1.313c-.095-.335-.081-.425.131-.692a1.18 1.18 0 0 1 1.268-.403q.398.109.624-.04l.226-.146-.235-.104c-.511-.226-.724-1.873-.344-2.724q.407-.905 1.878-1.63l.833-.407-.208-.316a1.22 1.22 0 0 1-.177-.815c.027-.425 0-.52-.226-.656a2.3 2.3 0 0 0-.842-.159c-.783 0-1.403.385-2.597 1.62-.525.544-1.046.996-1.154.996-.358 0-.222.38.203.58.403.19.407.199.58 1.244.203 1.222.176 1.312-.548 1.693l-.453.24-.407-.322c-.57-.452-1.131-.407-.67.05q.362.371-.176.376c-.34 0-.71.294-.71.565 0 .113.121.136.416.09.452-.072.543.064.208.313-.136.1-.208.29-.208.525 0 .434.022.443.362.176.298-.226 1.294-.153 1.733.136.136.09.33.168.425.177.154.009.163-.046.068-.371zm6.064-12.31.57-.217-.036-.534a2.7 2.7 0 0 1 .091-.882l.118-.349.389.254c.271.18.47.226.679.167l.298-.09-.235-.299a1.8 1.8 0 0 1-.285-.864l-.054-.57h.407c.226 0 .502-.077.61-.172.19-.163.186-.181-.085-.467-.29-.307-.285-.262-.516-3.222-.023-.271.068-.362.634-.701.574-.335.633-.398.416-.466a2.7 2.7 0 0 0-.607-.077c-.497-.01-.588-.104-.733-.783a2.3 2.3 0 0 0-.199-.647c-.045-.032-.326.054-.633.194l-.553.25-.488-.576-.494-.579.055.86.045.869-.421.068c-.434.068-2.208 1.353-2.208 1.597 0 .073.072.29.158.49.15.343.181.361.679.289.588-.086.833.072.833.534 0 .217-.073.312-.286.366-.516.136-.547.168-.547.543 0 .362.018.376.34.295.601-.145.75-.114.787.171.05.44-.349.743-1.467 1.11q-2.059.678-2.059 2.104c0 .258.05.316.263.316a3.2 3.2 0 0 1 .86.263l1.43.62c.95.407 1.43.439 2.244.136m-1.9-7.209c-.453-.135.036-.574.574-.511l.335.04-.235.281c-.23.276-.326.304-.679.195zm-3.661 5.25c.149-.39.226-.742.18-.801-.208-.23-1.701-.665-2.344-.674-.416-.01-.755-.077-.86-.181-.208-.208-.226-.39-.027-.39.077 0 .204-.09.28-.203.105-.145.259-.181.598-.136.507.068.71-.172.38-.462-.221-.194-.28-.067 1.032-2.19 1.358-2.195 1.63-2.715 1.63-3.14 0-.268-.046-.35-.209-.35-.335 0-1.04.874-2.38 2.938-1.222 1.878-1.245 1.905-1.43 1.665-.163-.217-.208-.226-.34-.067-.131.153-.117.226.082.56.122.213.203.435.172.494s-.322.136-.647.181c-.702.086-.924.267-.467.376.38.09.43.334.073.334-.136 0-.362.11-.498.245l-.244.244h.34c.397.014.406.036.117.589q-.34.674.068.868.172.082.66-.502l.498-.58 1.503.933c.828.516 1.52.937 1.538.937s.15-.308.3-.692zm11.608-4.227v-2.308h-1.458v4.616h1.458zm-9.35.788c.814-.408.8-.462-.15-.44a4 4 0 0 1-1.108-.076c-.186-.082-.236-.059-.236.113 0 .344.317.674.647.674a2.7 2.7 0 0 0 .847-.271m-14.835 25.5c0-.095.045-.208.104-.253a1.4 1.4 0 0 0 .263-.444c.144-.326.144-.403 0-.733-.172-.394-.906-1.059-1.403-1.267-.227-.09-.444-.073-.851.072q-1.118.394-1.738-.054c-.416-.308-.425-.434-.032-.453.408-.013.797-.33 1-.805.231-.53.462-1.9.467-2.743 0-1.199-.308-1.484-3.023-2.796a36 36 0 0 1-1.765-.878c-.028-.027.113-.245.303-.48.344-.43.375-.688.194-1.557-.022-.108.236-.362.693-.683l.724-.507h1.253c1.62 0 1.507-.072 5.16 3.272q.955.864 1.312.525c.122-.122.154-.118.163.018.054.742-.349 1.267-.932 1.208-.362-.036-.371-.031-.543.643-.213.86-.408 1.299-.892 2.064l-.385.601.353.353c.426.426 1.512 1.096 1.774 1.096.104 0 .421-.245.702-.543.615-.657.932-.77 1.42-.525.453.226.467.38.046.556-.362.15-.606.462-.61.779 0 .194.026.194.406.018.752-.353 1.399.009 1.652.918.136.498.073.58-.298.349a1.3 1.3 0 0 0-1.077-.104c-.127.059-.073.154.24.425.556.48.674.932.416 1.616l-.2.534-.307-.516c-.172-.28-.417-.543-.548-.58a3.6 3.6 0 0 0-1.054.118c-.724.163-.856.168-1.113.01-.272-.168-.3-.164-.358.045-.118.452-1.516 1.108-1.516.71zm26.904-.108c-.393-.566-.153-1.562.457-1.91.195-.113.335-.245.308-.294-.108-.213-.756-.24-1.136-.05-.217.108-.416.167-.443.136-.113-.136.208-.964.47-1.209.281-.267.76-.285 1.358-.054.213.086.24.059.208-.2-.022-.207-.167-.375-.475-.547-.24-.136-.439-.285-.443-.326 0-.04.153-.172.348-.298.453-.29.71-.204 1.462.497a3.2 3.2 0 0 0 .724.562c.226 0 1.376-.724 1.738-1.096l.362-.375-.34-.543a6.8 6.8 0 0 1-.905-2.037c-.194-.647-.253-.742-.461-.706a.95.95 0 0 1-.928-.516c-.29-.733-.226-.936.226-.692.317.172.516.032 2.245-1.566 1.534-1.416 1.937-1.724 2.77-2.122a3.08 3.08 0 0 1 2.99.167c.929.525 1.078.747.92 1.326-.159.584 0 1.095.43 1.34.307.18.303.18-1.652 1.131-2.602 1.272-2.797 1.417-2.933 2.172-.172.96.082 2.793.498 3.603a.82.82 0 0 0 .634.497c.543.127.574.29.104.57a1.63 1.63 0 0 1-1.526.032 1.8 1.8 0 0 0-.597-.185c-.647.009-1.837 1.081-1.837 1.656 0 .186.136.516.321.77l.326.438h-.38c-.494 0-1.032-.276-1.24-.633-.145-.249-.2-.267-.44-.136-.212.118-.46.104-1.198-.059-.865-.19-.95-.185-1.195.01a1.36 1.36 0 0 0-.385.515c-.136.349-.217.376-.38.136zm-33.941-20.415c.1-.95-.055-1.019-.665-.299-.602.706-.946.742-1.86.2-.92-.548-.95-.62-.616-1.426a3.3 3.3 0 0 0 .177-2.11l-.105-.316-.443.303a2.04 2.04 0 0 1-1.824.177l-.294-.136.317-.208c1.027-.666 1.185-1.245.697-2.471-.154-.394-.204-.426-.503-.362-.47.108-1.208-.118-1.42-.435-.3-.434-.236-.615.212-.615.299 0 .466-.086.652-.322.235-.298.249-.398.208-1.276-.104-2.177-.072-2.66.217-3.321l.272-.625.72-.063c.814-.073 1.149-.254 1.294-.702q.253-.783-.195-.253c-.498.565-1.322.38-1.783-.403-.47-.788-.208-1.06 1.167-1.2.688-.072.801-.045 1.326.272a2.9 2.9 0 0 1 .937.95c.294.476.371.544.398.349.046-.367-.217-.873-.86-1.625-.56-.656-.651-.882-.515-1.303.09-.276.353-.244.353.045 0 .136.045.276.1.317.054.04.723.127 1.484.195 1.706.144 1.968.23 2.525.846.24.267.692.634 1.005.824.76.452 1.244.905 1.244 1.167 0 .272-.317 1.267-.52 1.63-.154.27-.172.27-.548.08-.76-.38-1.385-.474-1.729-.266-.262.167-.543.72-.543 1.086 0 .2.58.453 1.209.543l.633.086.01.801c.004.44-.028.797-.069.797a5 5 0 0 1-.588-.181 3.6 3.6 0 0 0-1.01-.19c-.479 0-.497.013-.497.362 0 .583.453.914 2.127 1.556 2.236.86 3.077 1.634 3.81 3.499.231.583.525 1.968.525 2.452 0 .037-.362.095-.814.136-.688.054-1.027.177-2.213.779-1.928.986-2.43 1.176-3.313 1.267l-.765.077zm1.724-13.744c.172-.104.308-.272.308-.38 0-.38-1.335-.76-1.507-.43-.1.19.126.601.443.805.362.235.385.235.756.005m42.735 14.219c-.616-.168-.996-.344-2.734-1.25-.869-.452-1.294-.601-1.928-.669l-.814-.09.032-.62c.045-1.096.651-2.643 1.389-3.548.66-.815 1.285-1.209 2.887-1.829 1.657-.633 2.105-.968 2.105-1.548 0-.348-.018-.362-.498-.362a3.6 3.6 0 0 0-1.005.186 5 5 0 0 1-.588.186c-.045 0-.077-.358-.073-.797l.01-.796.529-.077c.706-.109 1.204-.308 1.222-.49a1.67 1.67 0 0 0-.181-.922c-.127-.236-.245-.28-.724-.28a3.2 3.2 0 0 0-1.114.253l-.552.248-.154-.271a5.9 5.9 0 0 1-.52-1.63c0-.253.484-.71 1.24-1.162.317-.186.77-.557 1.01-.824.556-.615.814-.701 2.52-.846a9 9 0 0 0 1.489-.195c.054-.04.1-.18.1-.308 0-.34.18-.42.307-.135.226.506.127.814-.466 1.43q-.941.968-.864 1.61c.027.227.081.182.344-.325.244-.466.452-.679.964-.982.601-.358.71-.38 1.362-.308 1.321.145 1.606.416 1.204 1.15-.19.344-.95.923-1.218.923-.09 0-.335-.172-.538-.385q-.562-.61-.245.19c.195.525.543.71 1.25.68.56-.024.655.008.827.27.408.62.512 1.404.444 3.169l-.068 1.638.299.28q.298.272.61.24c.227-.027.327.018.35.159.09.543-.838 1.086-1.585.918-.298-.068-.344-.031-.498.362-.493 1.227-.33 1.806.693 2.471l.317.204-.295.136a2.04 2.04 0 0 1-1.819-.172l-.448-.308-.1.317a3.3 3.3 0 0 0 .177 2.109c.33.81.299.878-.615 1.425-.92.543-1.263.512-1.865-.199-.606-.715-.765-.647-.665.28l.068.67-.498-.009a6 6 0 0 1-1.082-.167zm.756-14.495c.466-.534.384-.702-.295-.616-.95.118-1.33.588-.742.937.317.18.693.068 1.037-.321m-39.952 3.656-1.2-.42a9 9 0 0 0-1.14-.34c-.344-.068-.384-.104-.226-.208q.181-.122 1.643.013c1.652.154 2.145.068 2.48-.443.244-.371.425-.294.425.18-.005.517-.226.933-.629 1.178-.42.248-.701.257-1.353.045zm34.123 0c-.43-.23-.661-.651-.661-1.217q-.01-.905.403-.226c.34.552.814.651 2.308.488 1.294-.144 2.158-.077 1.869.14a.9.9 0 0 1-.421.114c-.15 0-.733.172-1.303.375-1.331.476-1.784.543-2.19.326m-23.534-4.887c-.122-1.856-.407-2.661-.95-2.661-.204 0-.249-.1-.349-.77-.095-.66-.19-.873-.742-1.647-1.335-1.878-1.466-2.127-1.593-2.987-.145-1.018 0-1.656.49-2.172.542-.566.968-.607 1.823-.154a4.5 4.5 0 0 0 .896.38c.285 0 .154.643-.181.864-.263.182-.317.172-.742-.108-.684-.448-.838-.317-.77.647a5.5 5.5 0 0 0 1.014 2.733c.362.498.407.516.67.376.416-.226.747-.185 1.059.136.222.226.29.43.335.964.027.37.104.72.167.77.226.18.77.09 1.041-.164.226-.208.272-.362.272-.814 0-.648-.195-1.15-1.236-3.15-.792-1.525-1.158-2.525-1.158-3.168 0-.634.33-1.575.697-1.96a3.03 3.03 0 0 1 1.638-.737c.362 0 1.018.43 1.602 1.036a2.44 2.44 0 0 0 .914.652c.443.1.462.326.054.81-.48.575-.8.498-1.615-.385-.38-.407-.752-.747-.829-.747s-.226.118-.334.263c-.286.38-.245 1.53.104 2.815.34 1.249.466 1.43.905 1.28.403-.135.928.091 1.176.516.213.363.218 1.1.014 1.693-.208.588-.136.806.353 1.131.47.317.815.344 1.312.1.743-.371.76-1.027.055-2.082-.435-.647-.52-.86-.52-1.28 0-.304.08-.634.194-.81.18-.286.249-.3 1.42-.3 1.173 0 1.236.014 1.422.3.113.18.19.506.19.814 0 .448-.072.634-.53 1.285-.33.475-.534.883-.534 1.077 0 .643.906 1.313 1.526 1.123a1.8 1.8 0 0 0 .633-.462l.362-.38-.203-.453c-.385-.86-.172-1.864.466-2.23.344-.195.393-.195.733 0 .34.194.366.19.452-.01.281-.638.652-2.14.706-2.869.055-.738.037-.873-.163-1.177-.126-.19-.294-.343-.38-.343-.081 0-.452.334-.823.746-.797.887-1.132.969-1.625.385-.403-.484-.39-.71.05-.81.208-.045.66-.38 1.109-.815.43-.416.896-.765 1.095-.805.905-.204 2.005.439 2.43 1.425.195.453.23.697.195 1.308-.055.86-.362 1.661-1.39 3.62-.783 1.494-.995 2.069-.995 2.662 0 .724.687 1.217 1.312.927q.167-.068.163-.565c0-1.077.588-1.652 1.376-1.344.42.167.42.167.72-.263.556-.81.968-1.946 1.013-2.806.054-.986-.09-1.113-.778-.665-.426.28-.476.285-.743.109-.534-.358-.425-.634.417-1.073.416-.217.837-.42.927-.457.326-.127 1.005.185 1.358.62.335.412.349.47.349 1.39 0 1.149-.181 1.579-1.304 3.14-.887 1.235-.964 1.394-1.036 2.172-.05.543-.09.625-.353.706-.647.208-.828.715-.96 2.698-.045.642-.113 1.027-.185 1.027-.068 0-.462-.086-.873-.19-2.177-.543-6.029-.797-8.613-.57-1.416.126-2.158.248-4.299.715l-.326.072zm6.716-9.776c-.638-.307-.878-1.027-.575-1.728.38-.883 1.503-.933 1.933-.09a1.8 1.8 0 0 1 .204.624 1.5 1.5 0 0 1-.68 1.154c-.407.203-.524.208-.882.036zm-.172-3.516c-.597-.493-.977-1.109-.977-1.588 0-.344.407-.937.927-1.358.19-.158.24-.349.295-1.113.058-.87.054-.919-.136-.847-.973.376-1.06.385-1.335.168-.349-.272-.358-.729-.018-.95.244-.154.43-.14 1.244.076.29.077.299.068.231-.28a14 14 0 0 1-.131-.878c-.054-.453-.032-.543.208-.724.204-.163.312-.181.475-.073.376.24.44.543.263 1.25a2.3 2.3 0 0 0-.113.71c.027.032.23 0 .452-.072.593-.2 1.023-.168 1.222.09q.348.475-.063.824c-.299.249-.611.244-1.068-.018-.408-.231-.476-.204-.498.226-.04.837.036 1.367.226 1.552.806.815.946 1.032.946 1.462 0 .53-.362 1.09-1.036 1.602a2.7 2.7 0 0 1-.539.353 3.2 3.2 0 0 1-.575-.416z"/></svg>