<svg xmlns="http://www.w3.org/2000/svg" width="600" height="400"><path fill="#018a2d" d="M0 400V200h600v200"/><path fill="#0645b1" d="M0 200V0h599.999L600 200Z"/><path fill="#fcde02" d="M0 164.428v52.802c20.594-9.972 41.19-9.73 61.785.92q31.906 16.5 63.813 0t63.816 0 63.815 0 63.814 0c10.636 5.5 23.272 8.25 33.908 8.25H600v-52.8H348.951q-15.954-.001-31.908-8.252-31.908-16.5-63.814 0-31.907 16.5-63.815 0-31.909-16.5-63.816 0-31.906 16.5-63.813 0-15.954-8.249-31.908-8.248c-9.959 0-19.918 2.506-29.877 7.328"/><path fill="#fff" d="M83.691 100.469h20c3.047 0 5.5 2.453 5.5 5.5s-2.453 5.5-5.5 5.5h-20a5.49 5.49 0 0 1-5.5-5.5c0-3.047 2.453-5.5 5.5-5.5m6.734 12.494s-.042.943-.05 1.367c-.14 3.18-1.033 6.818-2.23 9.827-2.043 4.924-2.414 7.957-.43 11.972 1.984 4.016 5.976 9.494 5.976 9.494s3.993-5.478 5.977-9.494c1.984-4.015 1.613-7.048-.43-11.972-1.198-3.009-2.09-6.648-2.23-9.827a79 79 0 0 0-.05-1.368zm8.015-.001c.902 7 4.046 15.606 9.116 19.954 7.52 5.61 14.038-3.227 12.392-9.81-2.094 1.34-5.639 1.127-7.974.315-1.635-.6-3.098-1.838-4.758-3.82-2.249-2.898-3.25-6.627-6.133-6.64zm-9.498.002c-.902 7-4.046 15.606-9.115 19.954-7.52 5.61-14.038-3.227-12.393-9.81 2.095 1.34 5.64 1.127 7.975.315 1.634-.6 3.097-1.838 4.757-3.82 2.25-2.897 3.251-6.627 6.133-6.64zm4.75-84.989S75.085 45.49 75.043 58.635c-.018 6.012 2.532 12.633 8.117 22.162 6.307 10.761 6.899 12.31 6.899 15.084v3.094h7.265V95.88c0-2.774.592-4.323 6.899-15.084 5.585-9.53 8.135-16.15 8.117-22.162-.042-13.145-18.648-30.66-18.648-30.66M68.521 72.116c8.348.605 12.41 8.758 15.004 12.914 4.23 6.827 5.003 8.991 5.003 11.26v2.685h-2.683c-2.567 0-2.23.161-4.063-2.843s-5.092-5.61-8.858-5.786c-9.13-.425-14.66 9.847-14.66 9.847s-1.488-1.164-2.895-2.622c-6.26-6.49-6.752-13.213-1.339-19.085 3.737-4.055 9.396-6.451 14.491-6.37m50.34 0c-8.348.605-12.41 8.758-15.003 12.914-4.23 6.827-5.003 8.991-5.003 11.26v2.685h2.683c2.567 0 2.23.161 4.063-2.843s5.091-5.61 8.857-5.786c9.131-.425 14.66 9.847 14.66 9.847s1.49-1.164 2.896-2.622c6.26-6.49 6.752-13.213 1.339-19.085-3.738-4.055-9.396-6.451-14.492-6.37"/></svg>