<svg xmlns="http://www.w3.org/2000/svg" width="129.3" height="88.136"><path d="M164.11 539.675h129.3v88.136h-129.3z" style="fill:#6a9dcc;fill-rule:evenodd;stroke:none" transform="translate(-164.11 -539.675)"/><path d="M163.733 539.676h44.839v88.308h-44.839z" style="fill:#f9f9f9;fill-rule:evenodd;stroke:none" transform="translate(-164.11 -539.675)"/><path d="M176.85 539.597h18.942v44.151H176.85z" style="fill:#154273;fill-rule:evenodd;stroke:none" transform="translate(-164.11 -539.675)"/><path d="M182.708 581.72a13 13 0 0 1-.594-.134c-1.165-.286-1.646-.314-2.184-.128-.16.056-.181.058-.18.02 0-.025.034-.267.076-.538.06-.38.087-.502.12-.53.247-.217 1.327-.222 1.983-.01l.187.06.016.345c.014.291.024.354.063.4.045.055.045.055.106-.015.129-.147.415-.247.81-.283l.215-.019-.016.314c-.017.35-.041.417-.177.5-.084.05-.196.056-.425.019zm6.903.004c-.152-.03-.207-.113-.234-.36a4 4 0 0 1-.023-.34v-.135l.21.02c.39.034.678.135.805.28.06.068.06.068.115.014.053-.05.056-.072.063-.4l.008-.346.085-.027c.406-.13.735-.177 1.236-.177.546-.001.826.069.884.22.021.057.187.993.187 1.059 0 .012-.047-.002-.104-.032-.194-.103-.435-.143-.852-.143-.426 0-.598.028-1.416.225-.248.06-.512.116-.588.126l-.207.026a.7.7 0 0 1-.168-.01zm-7.283-1.45c0-.322.01-.586.023-.616.081-.18.905-.332 2.28-.418.685-.043 2.828-.042 3.467.002 1.19.081 1.984.218 2.194.378.051.04.052.048.052.63v.59l-.131-.07q-.258-.136-.883-.215c-.701-.088-1.274-.109-2.994-.109s-2.293.021-2.994.11q-.624.077-.883.214l-.13.07zm9.699-.42c-.076-.176-.054-.275.089-.4l.077-.07-.062-.028c-.086-.039-.107-.036-.186.027a.3.3 0 0 1-.09.055c-.04 0 .014-.209.074-.285.055-.07.073-.077.177-.065a.7.7 0 0 1 .155.033c.033.016.04.006.04-.05a.164.164 0 0 0-.154-.156c-.11 0-.022-.11.117-.15.052-.014.098.005.221.094.16.116.37.177.401.116.023-.044-.044-.396-.101-.53a1.3 1.3 0 0 0-.17-.26c-.105-.126-.156-.16-.475-.31-.388-.183-.478-.252-.54-.406l-.04-.1-.055.061c-.109.123-.322.07-.418-.105-.033-.06-.032-.06.08-.054.137.007.247-.071.339-.24.084-.155.112-.302.099-.52-.036-.61-.626-1.24-1.28-1.365-.29-.055-.721.06-.977.26-.097.077-.102.096-.05.193l.038.067h-.085a.3.3 0 0 1-.125-.025c-.102-.065-.144.139-.053.255.028.034.05.073.05.085 0 .05-.153-.019-.224-.1-.04-.048-.081-.08-.089-.07a6 6 0 0 0-.03.55c-.017.519-.02.537-.085.682-.081.18-.287.434-.46.566-.07.054-.491.32-.938.594s-.845.521-.885.551l-.075.054-.91-.564c-.5-.31-.97-.614-1.045-.675-.189-.153-.384-.419-.445-.606-.044-.134-.052-.222-.06-.684l-.01-.53-.084.111c-.063.084-.107.116-.176.128l-.092.017.048-.066c.085-.114.101-.172.069-.247-.016-.037-.044-.062-.062-.055-.061.022-.228.035-.228.017 0-.01.016-.046.035-.082.033-.059.032-.069-.006-.114-.057-.07-.384-.246-.536-.29-.07-.02-.22-.036-.334-.034-.771.01-1.569.898-1.442 1.604a.82.82 0 0 0 .197.438c.102.107.177.131.267.086q.147-.075.021.094c-.113.154-.29.187-.4.075-.038-.039-.045-.039-.055-.004a.8.8 0 0 1-.118.165c-.087.102-.16.15-.4.26-.558.256-.729.47-.79.985-.014.124-.012.13.048.148.079.024.21-.023.325-.116.146-.12.206-.134.31-.078.096.052.122.123.043.123-.05 0-.16.114-.16.165 0 .021.048.025.157.012.146-.017.16-.013.227.054.065.064.123.245.092.283-.006.007-.05-.013-.099-.045-.1-.064-.13-.068-.195-.027-.043.028-.04.036.052.133.08.086.098.122.098.201 0 .096-.06.242-.1.242-.01 0-.03-.036-.043-.08a.3.3 0 0 0-.082-.126c-.055-.043-.072-.043-.251 0-.184.043-.197.043-.306-.006l-.114-.052-.053.076c-.056.081-.173.133-.301.133h-.078l.095-.123c.099-.128.106-.145.078-.196-.032-.056-.086-.057-.213-.005-.118.049-.134.05-.222.01a.4.4 0 0 1-.136-.098c-.04-.053-.039-.054.042-.054.228 0 .26-.085.23-.6-.033-.533 0-.817.11-.958l.046-.057-.092-.043c-.152-.072-.224-.28-.163-.474.029-.09.07-.091.07-.003 0 .137.153.231.316.195.161-.036.358-.26.432-.493.065-.203.058-.209-.23-.22q-.835-.036-.827-.816c.004-.322.051-.42.48-1.005.111-.151.233-.337.27-.413.06-.12.067-.16.06-.309-.006-.135-.02-.186-.065-.244-.222-.288-.709-.13-.884.286-.077.183-.112-.005-.048-.258l.035-.135-.216.009c-.248.01-.333-.025-.407-.17-.046-.09-.058-.267-.03-.465l.014-.101.107.14.108.14.471.021c.26.012.528.036.598.054.33.084.532.374.537.772.003.24-.07.414-.325.764-.34.469-.41.63-.391.902.013.184.07.267.232.33.127.051.371.044.538-.016.091-.033.093-.037.132-.23.086-.44.32-1.01.51-1.247.107-.134.127-.138.35-.075.085.025.255.045.375.046.256.002.331-.023.783-.266.29-.155.322-.166.484-.167.205 0 .24.019.679.37.165.131.347.272.405.312.198.138.183.243.183-1.248v-1.321h-.055c-.079 0-.1.046-.111.242-.008.13-.023.188-.06.233-.041.048-.05.051-.05.016 0-.065-.062-.114-.122-.096-.028.009-.155.11-.28.223a2 2 0 0 1-.249.208.5.5 0 0 1-.098-.148 1.6 1.6 0 0 0-.211-.287l-.132-.139.102-.031c.342-.105.66-.274.761-.404a.7.7 0 0 0 .09-.184c.027-.089.056-.128.128-.17a1 1 0 0 0 .184-.145c.09-.09.194-.115.262-.063.027.02.02.043-.04.124-.073.099-.101.226-.045.2.016-.007.13-.04.255-.075.174-.048.232-.055.253-.03.018.021.03.172.036.43l.008.398h.295v-.468c0-.257.008-.468.017-.468s.121-.018.248-.039c.477-.08.91-.106 1.494-.09.719.018 1.147.08 1.852.268.169.045.311.082.317.082.036 0 0-.124-.06-.206-.077-.103-.079-.097.043-.14.046-.018.171.055.232.134.03.04.083.079.119.088.079.02.122.079.163.216a.5.5 0 0 0 .1.177c.11.11.435.281.66.346a1 1 0 0 1 .204.073.4.4 0 0 1-.092.076c-.092.063-.248.276-.313.426-.02.046-.048.074-.065.066a3 3 0 0 1-.223-.19 3 3 0 0 0-.272-.226l-.08-.049-.05.075-.05.075-.037-.064a.5.5 0 0 1-.038-.21c0-.148-.051-.255-.123-.255-.043 0-.061.51-.061 1.701v.95l.085-.017c.055-.01.222-.127.478-.332.457-.367.53-.408.715-.41.112-.003.176.018.334.102.564.298.61.318.815.336.145.014.266.004.45-.032.3-.06.321-.053.456.156.172.267.25.454.374.89.086.303.137.443.171.47a.7.7 0 0 0 .217.071c.388.076.63-.123.593-.485-.02-.189-.112-.37-.379-.746a3 3 0 0 1-.282-.47.6.6 0 0 1-.06-.362q.027-.48.398-.683c.103-.056.17-.066.622-.09.278-.014.534-.039.568-.054a.5.5 0 0 0 .142-.133c.044-.057.088-.095.098-.083s.018.116.018.234c.001.232-.028.317-.143.41-.05.04-.107.05-.287.05-.216 0-.225.003-.211.055.047.174.063.317.042.375-.022.058-.026.055-.085-.065-.14-.286-.404-.46-.634-.42-.203.036-.29.142-.319.388-.02.17.063.35.306.672.408.54.515.758.516 1.043 0 .097-.012.225-.027.285a.8.8 0 0 1-.37.449c-.127.07-.178.08-.428.09l-.283.012.014.086c.042.25.216.516.388.594.17.077.36.004.393-.15.008-.038.024-.069.036-.069.02 0 .07.17.07.242 0 .083-.076.201-.173.27l-.104.072.056.08c.095.134.115.334.086.859-.019.344-.018.476.001.513.037.07.141.139.21.139.09 0 .095.048.011.11-.089.064-.196.07-.342.016-.11-.04-.183-.02-.183.052 0 .021.036.095.08.164l.081.126h-.079c-.108 0-.196-.044-.279-.14l-.07-.08-.09.055c-.11.066-.134.067-.323.01-.189-.056-.265-.026-.33.133l-.046.11zm-5.346-2.22v-.509h-.345v1.019h.345zm.692-.192a.2.2 0 0 1 .085-.099c.035-.016.093-.047.13-.069.045-.027.103-.033.195-.02l.13.017-.051-.068q-.105-.135.016-.133c.04 0 .095-.028.132-.068l.065-.069-.07.015c-.1.022-.138-.028-.217-.289-.062-.207-.066-.237-.035-.277.035-.046.046-.142.02-.173-.008-.009-.043.01-.079.04-.05.044-.083.053-.146.039-.099-.022-.259-.163-.33-.29-.086-.152-.075-.167.126-.167.301-.002.421-.057.53-.247.1-.178.059-.397-.137-.707-.185-.294-.198-.371-.077-.465.055-.044.065-.044.163 0a.5.5 0 0 1 .188.17.5.5 0 0 0 .103.12c.01 0 .019-.054.019-.12v-.12l.095-.015c.144-.023.214-.098.223-.236.004-.063 0-.114-.008-.114a.3.3 0 0 0-.084.069c-.079.078-.138.084-.469.04-.197-.027-.227-.025-.32.024-.133.071-.186.17-.186.35 0 .13.011.16.13.346.21.332.228.413.114.55-.055.065-.087.08-.175.08-.134 0-.257-.067-.297-.162a2 2 0 0 1-.071-.223 3 3 0 0 0-.11-.31l-.07-.158h-.247c-.237 0-.259-.004-.484-.114-.343-.164-.359-.16-.817.206l-.368.294-.007-.086a.6.6 0 0 1 .017-.17 1 1 0 0 0 .024-.197l-.001-.112-.043.096-.043.096-.029-.075c-.036-.095-.068-.098-.068-.007 0 .087-.011.086-.083-.007l-.058-.076.012.086c.017.125-.007.133-.094.033-.086-.1-.09-.097-.04.046.02.056.03.109.024.117s-.05-.013-.096-.045l-.084-.06.05.098c.056.107.037.122-.084.067l-.065-.03.063.08c.081.101.08.117-.01.117q-.157-.001.112.082c.14.043.158.057.164.121.008.08.03.088.1.043.066-.042.074-.019.027.08q-.076.159.06.075l.071-.044v.136c0 .152.018.17.136.138a.37.37 0 0 0 .233-.201c.031-.069.03-.078-.01-.115a.18.18 0 0 0-.101-.04c-.088 0-.03-.06.158-.163.3-.166.636-.213.86-.122.152.062.362.3.45.512.12.288.09.591-.071.708l-.07.052.056.044q.056.043.125.027c.052-.012.084 0 .136.052s.122.078.31.113c.195.037.256.06.32.122.166.16.147.238-.049.207-.119-.018-.226.004-.226.046 0 .015.02.027.044.027s.068.024.098.054l.054.054-.059.001a.14.14 0 0 0-.14.125q-.009.057.026.044c.105-.032.139-.034.139-.008 0 .016-.01.037-.023.046-.03.023-.03.114 0 .181.032.07.042.067.069-.016zm-1.893-.29c-.021-.074-.018-.094.029-.153a.26.26 0 0 1 .28-.089q.088.024.138-.009l.05-.032-.052-.023c-.113-.05-.16-.414-.076-.602q.09-.2.415-.36l.184-.09-.046-.07a.27.27 0 0 1-.039-.18c.006-.094 0-.115-.05-.145a.5.5 0 0 0-.186-.035c-.173 0-.31.085-.574.358-.116.12-.231.22-.255.22-.079 0-.049.084.045.128.089.042.09.044.128.275.045.27.039.29-.121.374l-.1.053-.09-.071c-.126-.1-.25-.09-.148.011q.08.082-.039.083c-.075 0-.157.065-.157.125 0 .025.027.03.092.02.1-.016.12.014.046.069-.03.022-.046.064-.046.116 0 .096.005.098.08.039.066-.05.286-.034.383.03.03.02.073.037.094.039.034.002.036-.01.015-.082zm1.34-2.72.126-.048-.008-.118a.6.6 0 0 1 .02-.195l.026-.077.086.056c.06.04.104.05.15.037l.066-.02-.052-.066a.4.4 0 0 1-.063-.191l-.012-.126h.09c.05 0 .111-.017.135-.038.042-.036.041-.04-.019-.103-.064-.068-.063-.058-.114-.712-.005-.06.015-.08.14-.155.127-.074.14-.088.092-.103a.6.6 0 0 0-.134-.017c-.11-.002-.13-.023-.162-.173a.5.5 0 0 0-.044-.143c-.01-.007-.072.012-.14.043l-.122.055-.108-.127-.109-.128.012.19.01.192-.093.015c-.096.015-.488.299-.488.353 0 .016.016.064.035.108.033.076.04.08.15.064.13-.019.184.016.184.118 0 .048-.016.069-.063.081-.114.03-.121.037-.121.12 0 .08.004.083.075.065.133-.032.166-.025.174.038.011.097-.077.164-.324.245q-.455.15-.455.465c0 .057.011.07.058.07a.7.7 0 0 1 .19.058l.316.137c.21.09.316.097.496.03zm-.42-1.593c-.1-.03.008-.127.127-.113l.074.009-.052.062c-.051.061-.072.067-.15.043zm-.809 1.16c.033-.086.05-.164.04-.177-.046-.051-.376-.147-.518-.149-.092-.002-.167-.017-.19-.04-.046-.046-.05-.086-.006-.086.017 0 .045-.02.062-.045.023-.032.057-.04.132-.03.112.015.157-.038.084-.102-.049-.043-.062-.015.228-.484.3-.485.36-.6.36-.694 0-.059-.01-.077-.046-.077-.074 0-.23.193-.526.649-.27.415-.275.421-.316.368-.036-.048-.046-.05-.075-.015-.029.034-.026.05.018.124.027.047.045.096.038.109s-.071.03-.143.04c-.155.019-.204.059-.103.083.084.02.095.074.016.074-.03 0-.08.024-.11.054l-.054.054h.075c.088.003.09.008.026.13q-.075.149.015.192.038.018.146-.111l.11-.128.332.206c.183.114.336.207.34.207s.033-.068.066-.153zm2.565-.934v-.51h-.322v1.02h.322zm-2.066.174c.18-.09.177-.102-.033-.097a.9.9 0 0 1-.245-.017c-.041-.018-.052-.013-.052.025 0 .076.07.149.143.149a.6.6 0 0 0 .187-.06zm-3.278 5.635c0-.021.01-.046.023-.056a.3.3 0 0 0 .058-.098c.032-.072.032-.089 0-.162-.038-.087-.2-.234-.31-.28-.05-.02-.098-.016-.188.016q-.247.087-.384-.012c-.092-.068-.094-.096-.007-.1.09-.003.176-.073.221-.178.051-.117.102-.42.103-.606 0-.265-.068-.328-.668-.618a8 8 0 0 1-.39-.194c-.006-.006.025-.054.067-.106.076-.095.083-.152.043-.344-.005-.024.052-.08.153-.151l.16-.112h.277c.358 0 .333-.016 1.14.723q.211.191.29.116c.027-.027.034-.026.036.004.012.164-.077.28-.206.267-.08-.008-.082-.007-.12.142-.047.19-.09.287-.197.456l-.085.133.078.078c.094.094.334.242.392.242.023 0 .093-.054.155-.12.136-.145.206-.17.314-.116.1.05.103.084.01.123-.08.033-.134.102-.135.172 0 .043.006.043.09.004.166-.078.309.002.365.203.03.11.016.128-.066.077a.29.29 0 0 0-.238-.023c-.028.013-.016.034.053.094.123.106.149.206.092.357l-.044.118-.068-.114c-.038-.062-.092-.12-.121-.128a.8.8 0 0 0-.233.026c-.16.036-.189.037-.246.002-.06-.037-.066-.036-.079.01-.026.1-.335.245-.335.157zm5.945-.024c-.087-.125-.034-.345.101-.422.043-.025.074-.054.068-.065-.024-.047-.167-.053-.251-.011-.048.024-.092.037-.098.03-.025-.03.046-.213.104-.267.062-.059.168-.063.3-.012.047.019.053.013.046-.044-.005-.046-.037-.083-.105-.121-.053-.03-.097-.063-.098-.072 0-.009.034-.038.077-.066.1-.064.157-.045.323.11a.7.7 0 0 0 .16.124c.05 0 .304-.16.384-.242l.08-.083-.075-.12a1.5 1.5 0 0 1-.2-.45c-.043-.143-.056-.164-.102-.156a.21.21 0 0 1-.205-.114c-.064-.162-.05-.207.05-.153.07.038.114.007.496-.346.339-.313.428-.381.612-.469a.68.68 0 0 1 .661.037c.205.116.238.165.203.293-.035.129 0 .242.095.296.068.04.067.04-.365.25-.575.281-.618.313-.648.48-.038.212.018.617.11.796a.18.18 0 0 0 .14.11c.12.028.127.064.023.126a.36.36 0 0 1-.337.007.4.4 0 0 0-.132-.041c-.143.002-.406.239-.406.366 0 .041.03.114.071.17l.072.097h-.084c-.109 0-.228-.061-.274-.14-.032-.055-.044-.059-.097-.03-.047.026-.102.023-.265-.013-.191-.042-.21-.041-.264.002a.3.3 0 0 0-.085.114c-.03.077-.048.083-.084.03zm-7.5-4.511c.022-.21-.012-.225-.147-.066-.133.156-.209.164-.411.044-.203-.121-.21-.137-.136-.315a.73.73 0 0 0 .039-.466l-.023-.07-.098.067a.45.45 0 0 1-.403.039l-.065-.03.07-.046c.227-.147.262-.275.154-.546-.034-.087-.045-.094-.111-.08-.104.024-.267-.026-.314-.096-.066-.096-.052-.136.047-.136.066 0 .103-.019.144-.071.052-.066.055-.088.046-.282-.023-.481-.016-.588.048-.734l.06-.138.159-.014c.18-.016.254-.056.286-.155q.056-.173-.043-.056c-.11.125-.292.084-.394-.089-.104-.174-.046-.234.258-.265.152-.016.177-.01.293.06a.64.64 0 0 1 .207.21c.065.105.082.12.088.077.01-.081-.048-.193-.19-.359-.124-.145-.144-.195-.114-.288.02-.061.078-.054.078.01 0 .03.01.061.022.07s.16.028.328.043c.377.032.435.051.558.187.053.059.153.14.222.182.168.1.275.2.275.258 0 .06-.07.28-.115.36-.034.06-.038.06-.121.018-.168-.084-.306-.105-.382-.059-.058.037-.12.159-.12.24 0 .044.128.1.267.12l.14.019.002.177c.001.097-.006.176-.015.176a1 1 0 0 1-.13-.04.8.8 0 0 0-.223-.042c-.106 0-.11.003-.11.08 0 .129.1.202.47.344.494.19.68.361.842.773.051.129.116.435.116.542 0 .008-.08.021-.18.03-.152.012-.227.039-.489.172-.426.218-.537.26-.732.28l-.169.017zm.381-3.037c.038-.023.068-.06.068-.084 0-.084-.295-.168-.333-.095-.022.042.028.133.098.178.08.052.085.052.167.001zm9.443 3.142c-.136-.037-.22-.076-.604-.276-.192-.1-.286-.133-.426-.148l-.18-.02.007-.137c.01-.242.144-.584.307-.784.146-.18.284-.267.638-.404.366-.14.465-.214.465-.342 0-.077-.004-.08-.11-.08a.8.8 0 0 0-.222.041 1 1 0 0 1-.13.041c-.01 0-.017-.079-.016-.176l.002-.176.117-.017c.156-.024.266-.068.27-.108a.37.37 0 0 0-.04-.204c-.028-.052-.054-.062-.16-.062a.7.7 0 0 0-.246.056l-.122.055-.034-.06a1.3 1.3 0 0 1-.115-.36c0-.056.107-.157.274-.257.07-.041.17-.123.223-.182.123-.136.18-.155.557-.187a2 2 0 0 0 .329-.043c.012-.009.022-.04.022-.068 0-.075.04-.093.068-.03.05.112.028.18-.103.316q-.208.214-.191.356c.006.05.018.04.076-.072.054-.103.1-.15.213-.217.133-.079.157-.084.301-.068.292.032.355.092.266.254-.042.076-.21.204-.269.204-.02 0-.074-.038-.119-.085q-.124-.135-.054.042c.043.116.12.157.276.15.124-.005.145.002.183.06.09.137.113.31.098.7l-.015.362.066.062q.066.06.135.053c.05-.006.072.004.077.035.02.12-.185.24-.35.203-.066-.015-.076-.007-.11.08-.109.271-.073.399.153.546l.07.045-.065.03a.45.45 0 0 1-.402-.038l-.099-.068-.022.07a.73.73 0 0 0 .039.466c.073.179.066.194-.136.315-.203.12-.279.113-.412-.044-.134-.158-.169-.143-.147.062l.015.148-.11-.002a1.3 1.3 0 0 1-.239-.037zm.167-3.203c.103-.118.085-.155-.065-.136-.21.026-.294.13-.164.207.07.04.153.015.229-.071m-8.828.808-.265-.093a2 2 0 0 0-.252-.075c-.076-.015-.085-.023-.05-.046q.04-.027.363.003c.365.034.474.015.548-.098.054-.082.094-.065.094.04-.001.114-.05.206-.139.26-.093.055-.155.057-.299.01zm7.54 0c-.095-.051-.146-.144-.146-.269q-.002-.2.089-.05c.075.122.18.144.51.108.286-.032.477-.017.413.031a.2.2 0 0 1-.093.025c-.033 0-.162.038-.288.083-.294.105-.394.12-.484.072m-5.2-1.08c-.027-.41-.09-.588-.21-.588-.045 0-.055-.022-.077-.17-.021-.146-.042-.193-.164-.364-.295-.415-.324-.47-.352-.66-.032-.225 0-.366.108-.48.12-.125.214-.134.403-.034a1 1 0 0 0 .198.084c.063 0 .034.142-.04.191-.058.04-.07.038-.164-.024-.151-.099-.185-.07-.17.143.014.204.1.438.224.604.08.11.09.114.148.083.092-.05.165-.041.234.03.049.05.064.095.074.213.006.082.023.159.037.17.05.04.17.02.23-.036.05-.046.06-.08.06-.18 0-.143-.043-.254-.273-.696-.175-.337-.256-.558-.256-.7 0-.14.073-.348.154-.433a.67.67 0 0 1 .362-.163c.08 0 .225.095.354.229a.54.54 0 0 0 .202.144c.098.022.102.072.012.179-.106.127-.177.11-.357-.085-.084-.09-.166-.165-.183-.165s-.05.026-.074.058c-.063.084-.054.338.023.622.075.276.103.316.2.283.089-.03.205.02.26.114.047.08.048.243.003.374-.046.13-.03.178.078.25.104.07.18.076.29.022.164-.082.168-.227.012-.46-.096-.143-.115-.19-.115-.283 0-.067.018-.14.043-.179.04-.063.055-.066.314-.066s.273.003.314.066c.025.04.042.112.042.18 0 .099-.016.14-.117.284-.073.105-.118.195-.118.238 0 .142.2.29.337.248a.4.4 0 0 0 .14-.102l.08-.084-.045-.1c-.085-.19-.038-.412.103-.493.076-.043.087-.043.162 0s.081.042.1-.002c.062-.141.144-.473.156-.634.012-.163.008-.193-.036-.26-.028-.042-.065-.076-.084-.076-.018 0-.1.074-.182.165-.176.196-.25.214-.359.085-.089-.107-.086-.157.011-.179.046-.01.146-.084.245-.18.095-.092.198-.169.242-.178.2-.045.443.097.537.315.043.1.051.154.043.289-.012.19-.08.367-.307.8-.173.33-.22.457-.22.588 0 .16.152.269.29.205q.037-.015.036-.125c0-.238.13-.365.304-.297.093.037.093.037.159-.058.123-.179.214-.43.224-.62.012-.218-.02-.246-.172-.147-.094.062-.105.063-.164.024-.118-.079-.094-.14.092-.237.092-.048.185-.093.205-.101.072-.028.222.041.3.137.074.091.077.104.077.307 0 .254-.04.349-.288.694-.196.273-.213.308-.229.48-.011.12-.02.138-.078.156-.143.046-.183.158-.212.596-.01.142-.025.227-.041.227-.015 0-.102-.019-.193-.042-.481-.12-1.332-.176-1.903-.126-.313.028-.477.055-.95.158l-.072.016zm1.484-2.16c-.141-.068-.194-.227-.127-.382.084-.195.332-.206.427-.02a.4.4 0 0 1 .045.138.33.33 0 0 1-.15.255c-.09.045-.116.046-.195.008zm-.038-.777c-.132-.109-.216-.245-.216-.351 0-.076.09-.207.205-.3.042-.035.053-.077.065-.246.013-.192.012-.203-.03-.187-.215.083-.234.085-.295.037-.077-.06-.079-.161-.004-.21.054-.034.095-.031.275.017.064.017.066.015.051-.062a3 3 0 0 1-.029-.194c-.012-.1-.007-.12.046-.16.045-.036.069-.04.105-.016.083.053.097.12.058.276a.5.5 0 0 0-.025.157c.006.007.051 0 .1-.016.131-.044.226-.037.27.02q.077.105-.014.182c-.066.055-.135.054-.236-.004-.09-.051-.105-.045-.11.05-.009.185.008.302.05.343.178.18.209.228.209.323 0 .117-.08.241-.229.354a.6.6 0 0 1-.119.078.7.7 0 0 1-.127-.092z" style="fill:#fff" transform="translate(-164.11 -539.675)"/></svg>
