<svg xmlns="http://www.w3.org/2000/svg" xmlns:xlink="http://www.w3.org/1999/xlink" width="577.778" height="400"><defs><path id="a" fill="#ef3c31" d="M0 12A16.14 16.14 0 0 1-14-4a7 8 0 0 1 7-8 6 8 0 0 1 6 7 1 1 0 1 0 2 0 6 8 0 0 1 6-7 7 8 0 0 1 7 8A16.14 16.14 0 0 1 0 12" transform="rotate(34.695)scale(4.625)"/></defs><path fill="#0054a6" d="M0 0h577.778v400H0z"/><path fill="#fff" d="M0 171.429v114.285L165.08 400h165.079zM82.54 0H0v57.143L495.238 400h82.54v-57.143zm165.079 0h165.08l165.079 114.286V228.57z"/><use xlink:href="#a" width="100%" height="100%" x="455" y="315" transform="scale(.63492)"/><use xlink:href="#a" width="100%" height="100%" x="91" y="423" transform="scale(.63492)"/><use xlink:href="#a" width="100%" height="100%" x="819" y="207" transform="scale(.63492)"/><use xlink:href="#a" width="100%" height="100%" x="212.333" y="147" transform="scale(.63492)"/><use xlink:href="#a" width="100%" height="100%" x="697.667" y="483" transform="scale(.63492)"/><use xlink:href="#a" width="100%" height="100%" x="661.315" y="97.834" transform="scale(.63492)"/><use xlink:href="#a" width="100%" height="100%" x="248.685" y="532.166" transform="scale(.63492)"/></svg>