<svg xmlns="http://www.w3.org/2000/svg" width="600" height="400"><path fill="#fff" d="M0 0h600v400H0"/><path fill="#db0a13" d="M0 264h600v48H0zM0 88h600v48H0z"/><path d="M253.688 154.5v21h10v56h-10v14h92.624v-14h-10v-56h10v-21H322v22h-10v-22h-24v22h-10v-22zm37.312 55h18v22h-18z"/><path fill="#db0a13" d="m64.27 175 6.206 19.097h20.081l-16.245 11.805L80.516 225 64.27 213.197 48.025 225l6.204-19.098-16.245-11.804 20.08-.001zm62.573 0 6.206 19.097h20.08l-16.244 11.805L143.089 225l-16.246-11.803L110.597 225l6.204-19.098-16.244-11.804 20.08-.001zm62.574 0 6.206 19.097h20.08l-16.245 11.805L205.663 225l-16.246-11.803L173.17 225l6.204-19.098-16.245-11.804 20.08-.001zm221.166 0 6.206 19.097h20.08l-16.244 11.805L426.829 225l-16.246-11.803L394.337 225l6.204-19.098-16.244-11.804 20.08-.001zm62.573 0 6.206 19.097h20.08l-16.245 11.805L489.402 225l-16.246-11.803L456.91 225l6.204-19.098-16.245-11.804 20.08-.001zm62.574 0 6.205 19.097h20.081l-16.245 11.805L551.975 225l-16.245-11.803L519.484 225l6.204-19.098-16.245-11.804 20.08-.001z"/></svg>
