<svg xmlns="http://www.w3.org/2000/svg" width="750" height="500" version="1.0"><path d="M0 0h750v500H0z" style="fill:#fff;fill-opacity:1;fill-rule:nonzero;stroke:none"/><path d="M0 330h750v60H0zm0-220h750v60H0z" style="fill:#da121a;fill-opacity:1;fill-rule:nonzero;stroke:none"/><path d="M317.11 193.125v26.25h12.5v70h-12.5v17.5h115.78v-17.5h-12.5v-70h12.5v-26.25H402.5v27.5H390v-27.5h-30v27.5h-12.5v-27.5zm46.64 68.75h22.5v27.5h-22.5z" style="fill:#000;fill-opacity:1;fill-rule:nonzero;stroke:none"/><path d="m963.078 293.678 13.324 41.003 43.114.002-34.879 25.343 13.321 41.004-34.88-25.34-34.88 25.34 13.32-41.004-34.878-25.343 43.113-.002z" style="fill:#da121a;fill-opacity:1;fill-rule:nonzero;stroke:none" transform="translate(-480.366 47.77)scale(.5822)"/><path d="m963.078 293.678 13.324 41.003 43.114.002-34.879 25.343 13.321 41.004-34.88-25.34-34.88 25.34 13.32-41.004-34.878-25.343 43.113-.002z" style="fill:#da121a;fill-opacity:1;fill-rule:nonzero;stroke:none" transform="translate(-402.15 47.77)scale(.5822)"/><path d="m963.078 293.678 13.324 41.003 43.114.002-34.879 25.343 13.321 41.004-34.88-25.34-34.88 25.34 13.32-41.004-34.878-25.343 43.113-.002z" style="fill:#da121a;fill-opacity:1;fill-rule:nonzero;stroke:none" transform="translate(-323.933 47.77)scale(.5822)"/><path d="m963.078 293.678 13.324 41.003 43.114.002-34.879 25.343 13.321 41.004-34.88-25.34-34.88 25.34 13.32-41.004-34.878-25.343 43.113-.002z" style="fill:#da121a;fill-opacity:1;fill-rule:nonzero;stroke:none" transform="translate(-47.475 47.77)scale(.5822)"/><path d="m963.078 293.678 13.324 41.003 43.114.002-34.879 25.343 13.321 41.004-34.88-25.34-34.88 25.34 13.32-41.004-34.878-25.343 43.113-.002z" style="fill:#da121a;fill-opacity:1;fill-rule:nonzero;stroke:none" transform="translate(30.741 47.77)scale(.5822)"/><path d="m963.078 293.678 13.324 41.003 43.114.002-34.879 25.343 13.321 41.004-34.88-25.34-34.88 25.34 13.32-41.004-34.878-25.343 43.113-.002z" style="fill:#da121a;fill-opacity:1;fill-rule:nonzero;stroke:none" transform="translate(108.958 47.77)scale(.5822)"/></svg>