<svg xmlns="http://www.w3.org/2000/svg" width="600" height="400"><path fill="#fdfd00" d="M0 0h600v400H0"/><path fill="#f90000" d="M258.52 41.517c.628-.044 1.114.327 1.522 1.088 1.486 2.778-.13 9.516-3.379 14.058-1.867 2.61-2.003 3.013-1.201 3.904 1.716 1.906 3.397 7.28 3.397 10.867 0 3.42.05 3.521 2.084 4.486 2.765 1.312 4.98 4.312 5.48 7.432.396 2.476-.426 3.605-1.183 1.633-.512-1.337-2.573-1.093-3.641.432-1.8 2.57-.948 11.146 1.426 14.358 1.495 2.02 1.53 2.327.283 2.327-1.742 0-4.299 2.346-5.313 4.88-1.203 3.01-.825 5.221 1.277 7.489 1.21 1.304 1.4 1.872.883 2.609-.641.91-.993 1.643-4.092 8.276-1.722 3.686-4.241 5.97-7.133 6.514-1.873.351-2.083.6-2.083 2.364 0 2.66-1.313 5.618-3.847 8.653-1.163 1.391-2.721 3.595-3.454 4.898-1.499 2.667-2.294 3.013-2.327 1.014-.012-.743-.968-2.433-2.122-3.754l-2.102-2.402-1.482 1.802c-2.626 3.189-3.885 6.622-3.885 10.567 0 4.528 1.305 6.625 4.748 7.657 2.363.708 3.392.494 7.414-1.576.777-.4.497 4.61-.375 6.7-1.04 2.488-3.526 4.3-7.17 5.218-1.546.39-2.815.922-2.815 1.182s1.205 2.426 2.684 4.823c3.099 5.027 5.058 10.033 6.925 17.68 1.63 6.675 3.837 10.415 10.586 17.982 3.93 4.406 5.43 5.69 6.268 5.423 1.596-.506 5.377 1.626 12.425 6.983 6.79 5.16 9.511 6.256 14.34 5.762 7.42-.76 12.315-6.917 11.43-14.415-.87-7.369-6.22-13.693-17.736-20.946-8.88-5.592-15.134-11.675-18.412-17.905-2.362-4.488-2.385-4.53-2.384-11.412 0-5.53.217-7.314 1.088-8.915 1.013-1.862 1.027-2.177.15-4.748-2.012-5.907-.475-12.25 4.637-19.07 5.775-7.705 6.128-8.475 6.08-13.513-.027-2.965-.39-5.153-1.05-6.419-1.257-2.41-1.234-2.59.112-2.59 1.124 0 6.68 3.4 6.72 4.11.011.217.672 1.19 1.463 2.16 1.195 1.46 1.596 1.635 2.346 1.012.498-.412 1.077-1.575 1.295-2.57.341-1.554.613-1.759 1.858-1.446 2.115.53 7.632-1.257 9.272-3.003 1.094-1.165 1.454-2.345 1.634-5.237.21-3.406.078-3.964-1.615-6.287-1.02-1.401-1.858-2.685-1.858-2.853 0-.83 4.26-.121 7.02 1.164 2.843 1.324 4.737 3.255 7.131 7.282.47.79 1.43 1.092 3.66 1.126 3.565.054 5.994-1.084 7.17-3.36.973-1.882 1.141-7.459.244-8.014-1.318-.814-.582-2.102 1.201-2.102 2.924 0 7.4 4.787 8.69 9.29.948 3.308.948 3.878.076 7.414-1.099 4.45-3.996 8.751-7.564 11.224-2.398 1.662-2.424 1.716-2.046 4.56.593 4.477-.112 6.86-2.797 9.442l-2.383 2.29 1.538 1.426c2.89 2.714 4.166 7.277 2.703 9.59-.477.754-.903.688-2.928-.45-5.345-3.004-11.166-1.232-18.731 5.687-6.425 5.874-8.187 7.063-12.594 8.577-3.23 1.11-4.678 1.277-8.352.976l-4.43-.356.376 3.979c.502 5.384 3.342 10.158 7.732 12.988 2.515 1.62 2.872 1.327 2.872-2.29 0-4.198 1.806-8.035 3.81-8.07.284-.006.357.674.15 1.5-.522 2.08 1.272 7.332 3.472 10.155 1.008 1.293 4.55 4.36 7.865 6.813s7.202 5.589 8.633 6.963c2.588 2.484 4.899 6.171 4.899 7.808 0 .89 1.934 1.467 6.606 1.97 2.37.256 2.981.053 4.955-1.595 1.879-1.567 2.253-2.242 2.253-4.147 0-1.292-.396-2.622-.901-3.041-.492-.409-.764-.956-.6-1.22.506-.82 3.976.827 5.48 2.609 2.611 3.094 1.651 9.179-2.046 12.969-.697.714-.538 1.015 1.032 2.008 1.899 1.203 2.419 2.175 1.089 2.027-.954-.106-1.14.654-.714 2.928.187.995 0 2.616-.413 3.604l-.732 1.801-.262-1.501c-.407-2.482-2.443-4.204-4.993-4.204-2.71 0-4.148 1.256-4.148 3.641 0 1.562.205 1.764 1.84 1.764 3.616 0 5.759 2.296 5.067 5.443-.464 2.115-1 2.233-1.802.413-1.007-2.29-2.402-1.922-4.673 1.24-1.66 2.31-2.787 3.185-5.2 4.053-2.372.853-2.978 1.332-2.645 2.046.594 1.275.472 3.922-.376 7.808-.709 3.25-.618 5.947.263 7.976.843 1.943-.81 1.102-4.692-2.402-4.686-4.23-6.886-4.955-15.072-4.955-3.457 0-7.674-.294-9.365-.657-1.69-.362-3.174-.562-3.303-.432-.13.13.13.95.581 1.82.452.872 1.007 2.387 1.22 3.36.537 2.447 3.406 5.514 5.18 5.537 1.425.02 1.427.038.245.957-.91.709-2.184.864-5.256.657l-4.054-.263v2.31c0 2.236.075 2.326 2.027 2.326 4.964 0 9.89 3.128 11.6 7.358.966 2.39 1.546 2.615 4.128 1.633.89-.339 3.916-.677 6.72-.75l5.105-.132 2.234-2.61 2.252-2.627.675 1.915c.543 1.556.444 2.454-.506 4.955-.64 1.681-1.89 3.821-2.778 4.748l-1.615 1.69 2.197 2.42c1.206 1.335 2.196 2.945 2.196 3.585s.27 1.335.6 1.54c.33.203.6 1.137.6 2.064s.533 2.345 1.183 3.171 1.027 1.658.845 1.84c-.183.182-1.796.185-3.585 0-3.612-.373-4.316.478-2.064 2.515 2.326 2.106 4.762 11.13 3.003 11.13-.343 0-1.26-.416-2.028-.92-1.275-.835-1.512-.81-2.815.244-1.233.999-1.414 1.637-1.333 4.674.096 3.588 1.365 7.478 3.06 9.384 1.282 1.442.303 2.355-3.003 2.797-2.124.283-2.61.58-2.778 1.764-.368 2.604.544 5.485 2.402 7.601l1.841 2.084h-2.647c-2.022 0-3.256-.454-5.217-1.896-1.694-1.246-3.311-1.91-4.768-1.952-2.065-.06-2.212.059-2.214 1.745-.001.991-.22 2.138-.488 2.553-.944 1.465-4.36 2.82-7.92 3.135l-3.604.318.206 2.29c.563 6.463-5.449 10.289-12.519 7.977-3.02-.988-5.405-.606-5.405.863 0 .934-1.047.66-1.445-.375-.2-.523-.357-1.571-.357-2.346 0-1.615-2.79-4.107-4.054-3.622-.964.37-3.785-.982-4.918-2.347-1.02-1.229-3.55-1.198-4.935.057-1.044.944-1.108.89-1.108-1.07 0-1.134.36-2.595.807-3.247s.814-2.476.807-4.054c-.008-1.993.377-3.387 1.258-4.58 1.493-2.02 1.239-2.458-1.464-2.458-1.101 0-2.008-.27-2.008-.601 0-1.035 2.35-3.003 3.585-3.003.649 0 2.096-.915 3.209-2.027 3.033-3.033 5.598-3.688 8.878-2.27 1.453.627 3.522 2.11 4.598 3.302 2.337 2.589 4.338 3.216 7.62 2.346 1.34-.355 3.164-.51 4.054-.337 1.394.271 1.895-.081 3.603-2.497 3.021-4.269 4.619-8.968 4.655-13.7.043-5.578-1.443-8.486-5.16-10.08-2.5-1.071-2.968-1.091-5.52-.319-1.534.465-4.688 1.706-7 2.76-3.493 1.59-4.764 1.862-7.526 1.67l-3.322-.226-1.577 2.516c-1.223 1.965-2.48 2.955-5.687 4.466-5.02 2.367-6.212 3.361-6.212 5.162 0 1.065-.246 1.299-1.051 1.014-2.983-1.059-5.515-5.44-5.537-9.573l-.02-2.477-2.965-.282c-1.633-.157-3.636-.726-4.448-1.258-1.914-1.253-3.678-5.816-3.116-8.051l.413-1.67.807 1.895c.954 2.265 2.487 3.21 5.256 3.21 4.195 0 5.776-4.295 3.81-10.342-2.587-7.955-3.355-10.87-4.073-15.484-.876-5.628-1.033-14.53-.338-18.394.398-2.216.295-2.589-.995-3.435-.795-.52-3.262-1.243-5.461-1.595-15.01-2.397-26.841 10.148-25.207 26.708.497 5.04 1.075 6.319 2.853 6.344 1.594.023 2.991 1.013 3.941 2.796 1.954 3.67.128 6.403-8.708 13.045-4.237 3.184-5.109 5.128-3.36 7.47 1.793 2.402 2.872 2.863 4.936 2.084 2.938-1.11 2.14.345-.938 1.707-3.334 1.475-6.011 1.138-8.634-1.07-2.174-1.83-3.384-1.68-5.067.582-1 1.342-1.23 2.463-1.145 5.33.11 3.713-.359 3.96-1.84 1.014-.374-.745-.985-1.456-1.351-1.577-.964-.317-2.653 2.55-4.166 7.039l-1.315 3.904-.976-2.328c-.535-1.279-.975-3.003-.975-3.828 0-1.264-.146-1.378-.901-.751-.494.41-1.718 2.186-2.722 3.942-3.289 5.747-9.56 10.458-13.945 10.472-.892.003-1.007.37-.694 2.328.478 2.992-.45 4.654-3.247 5.874-1.224.533-2.751 1.81-3.416 2.834-1.69 2.603-3.304 2.825-3.304.45 0-1.518-.443-2.076-2.665-3.378-1.465-.859-3.194-2.476-3.848-3.585-1.164-1.973-1.242-2-3.79-1.445-1.433.313-3.894.991-5.463 1.502-3.21 1.045-5.701.733-8.67-1.07-1.904-1.156-1.933-1.165-3.098 0-1.167 1.168-1.19 1.17-1.501-.018-.173-.66-.003-2.666.375-4.468.682-3.249.679-3.286-1.088-4.73-1.954-1.597-3.858-1.903-4.974-.787-1.091 1.09-.9-3.117.206-4.58.486-.642.883-1.744.883-2.44 0-.697.232-1.526.525-1.84.293-.313.733-1.17.958-1.914.331-1.097.163-1.351-.845-1.351-1.667 0-1.554-.957.281-2.572a152 152 0 0 0 3.153-2.871c3.322-3.128 5.032-3.828 9.084-3.642 1.578.073 6.063 4.367 6.063 5.8 0 1.235 2.51 1.69 6.663 1.22 2.71-.307 4.825-.095 8.577.845 4.484 1.123 5.175 1.154 7.039.375 1.137-.476 2.51-1.346 3.059-1.952 1.562-1.727 3.3-6.27 3.772-9.853.504-3.827 1.847-8.606 3.06-10.868 1.84-3.434.226-3.883-4.092-1.144-2.825 1.79-6.386 3.05-8.559 3.02-1.103-.014-1.078-.126.3-1.218.827-.655 1.915-1.507 2.422-1.915 1-.806 3.212-4.078 2.89-4.28-.109-.067-1.558-.465-3.21-.882-3.348-.844-5.694-2.496-3.546-2.496 1.938 0 4.8-3.582 6.25-7.808.978-2.853 2-4.495 3.791-6.118l2.458-2.234-1.483-.563c-2.634-1.007-3.866-2.963-3.866-6.118 0-3.607 1.918-5.999 4.768-5.97l1.839.02-1.652 1.239c-3.056 2.28-1.347 7.732 2.421 7.732 1.26 0 5.537-3.696 5.537-4.786 0-.3 1.459-3.658 3.247-7.451 7.475-15.846 13.705-22.635 24.982-27.252 3.54-1.45 11.642-2.636 16.46-2.403 2.908.141 2.965.12 3.51-1.952.303-1.156.997-2.587 1.539-3.19.92-1.026.882-1.177-.507-2.271-.817-.644-3.694-2.234-6.4-3.529-5.348-2.559-8.034-5.315-12.67-13.063-1.23-2.059-2.592-3.748-3.02-3.754-.43-.006-1.568.383-2.535.882-1.855.96-8.99 1.958-8.99 1.258 0-.226.554-.993 1.22-1.708s1.493-2.354 1.84-3.64c1.865-6.93-3.896.203-6.851 8.483-.864 2.42-2.635 6.311-3.923 8.633-2.173 3.917-2.357 4.099-2.722 2.647-.512-2.042-1.698-1.987-2.627.112-.407.919-2.219 3.418-4.036 5.555s-3.317 4.223-3.321 4.636-.27.751-.601.751-.6-1.333-.6-2.965-.291-3.145-.639-3.36c-.347-.214-3.928 2.821-7.957 6.738-5.533 5.377-7.958 7.324-9.948 7.976-1.963.645-2.841 1.342-3.416 2.703-1.19 2.822-4.598 5.745-7.432 6.382-2.605.585-6.857-.13-7.564-1.276-.6-.97-2.424-.662-3.567.6-1.51 1.669-2.12 1.008-2.12-2.327 0-1.583-.295-3.727-.657-4.767-.532-1.526-1.001-1.896-2.384-1.896-1.183 0-2.374-.679-3.848-2.196-2.027-2.088-2.205-2.156-3.772-1.37-.907.454-1.854.93-2.102 1.051-.768.374-.493-1.908.45-3.716.494-.946.901-2.755.901-4.016 0-3.011.842-5.094 2.76-6.87 1.839-1.706 1.464-2.703-.995-2.703-2.628 0-2.138-.955 1.088-2.14 1.57-.575 3.123-1.375 3.454-1.764 1.132-1.332 3.225-2.102 5.705-2.102 3.045 0 4.4.673 7.564 3.717 2.036 1.958 2.896 2.373 4.955 2.402 4.782.066 8.91-4.124 14.452-14.697 4.128-7.873 5.368-9.794 8.99-13.757 1.693-1.852 3.078-3.497 3.078-3.66 0-.162-.54-.428-1.2-.6-1.327-.347-1.65-1.633-.414-1.633.429 0 1.736-1.013 2.91-2.252 1.744-1.842 2.306-3.12 3.134-7.02.556-2.623 1.298-5.096 1.633-5.5.415-.5.393-.873-.075-1.163-.39-.24-1.772.6-3.191 1.952-4.815 4.59-9.564 6.408-13.026 4.974-1.737-.72-2.434-1.802-1.164-1.802.345 0 1.928-1.204 3.51-2.684 3.155-2.951 5.836-7.526 5.274-8.99-.196-.513-2.054-1.752-4.129-2.759-4.327-2.099-5.476-2.76-8.09-4.636-2.638-1.895-3.19-1.718-3.19 1.051 0 2.485-.202 2.961-3.378 7.92l-1.877 2.929-.995-2.46c-.543-1.356-2.13-3.981-3.528-5.836l-2.534-3.379v-13.607l-2.89-2.477-2.89-2.46-1.803 1.727c-1.587 1.52-2.254 1.734-5.517 1.746-2.043.007-4.31.345-5.03.75-1.618.91-4.773.966-5.312.094-.22-.354.193-1.291.92-2.064l1.313-1.408-1.557-2.29c-.996-1.465-1.558-3.095-1.558-4.542 0-1.56-.272-2.27-.863-2.27-1.602 0-5.003-3.867-5.706-6.476-.632-2.346-.834-2.534-2.703-2.534-1.76 0-1.976-.159-1.69-1.257.19-.721 1.305-1.687 2.61-2.252 2.49-1.08 5.483-4.757 6.193-7.602.247-.988.895-2.298 1.445-2.909.944-1.047.91-1.195-.676-2.459-1.317-1.05-1.515-1.474-.9-1.952 1.567-1.215 3-1.365 5.01-.525 1.803.753 2.283.743 3.923-.075 1.257-.627 2.64-.797 4.224-.545 2.537.406 3.221-.57 1.445-2.045-.496-.412-.901-.986-.901-1.277 0-.957 3.421-.55 4.88.582.788.612 2.581 1.26 3.997 1.446 3.008.392 5.098 1.638 6.57 3.885.846 1.291 1.028 2.674.9 7.075-.153 5.313-.095 5.566 1.746 8.109 1.045 1.442 2.727 3.388 3.754 4.335 2.288 2.11 8.24 5.017 11.486 5.612 1.322.242 4.295 1.214 6.607 2.158 3.88 1.586 4.418 1.671 7.02 1.014 2.366-.598 3.209-.555 5.292.263l2.496.976.901-2.234c1.188-2.882 2.937-4.73 5.913-6.287 4.128-2.16 12.928-1.575 20.42 1.37 5.003 1.967 14.187 4.805 15.56 4.805 2.13 0 5.761-1.703 5.761-2.703 0-.42-1.887-1.903-4.204-3.303-3.587-2.169-4.769-2.567-7.958-2.703l-3.754-.169.132-2.609c.255-5.237 3.127-8.934 6.944-8.934.783 0 2.004-.675 2.721-1.501 1.733-1.993 2.567-1.907 2.14.225-.514 2.57.629 2.75 2.44.375.88-1.153 1.846-2.102 2.14-2.102s.61 1.006.713 2.234c.34 4.068 4.898 5.004 7.846 1.614 1.452-1.67 3.003-6.128 2.44-7.039-.439-.71-10.69-.169-12.8.676-4.481 1.793-11.17 3.193-15.298 3.21-5.464.021-9.18-1.545-11.993-5.087-1.55-1.954-1.811-2.803-1.802-5.706.018-5.239 2.684-8.756 7.17-9.44 2.905-.443 5.246.36 7.226 2.496 1.84 1.984 1.92 3.684.188 3.942-.71.105-1.835.912-2.496 1.802-1.138 1.528-1.133 1.71-.188 3.153 1.765 2.694 3.7 2.624 17.793-.6 2.477-.568 6.261-1.208 8.408-1.409 2.147-.2 3.866-.491 3.81-.657a51 51 0 0 1-.525-1.97c-.84-3.343-5.523-5.134-8.803-3.379-.955.51-1.135 1.042-.863 2.403.203 1.015.093 1.745-.263 1.745-.973 0-3.566-2.852-3.566-3.922 0-.602-.4-.894-1.051-.77-.726.138-1.144.935-1.351 2.59l-.3 2.402-1.652-1.633c-.918-.901-1.652-2.273-1.652-3.096 0-.843-.771-2.254-1.783-3.266l-1.783-1.784.375-6.006c.333-5.463.252-6.213-.919-8.108-1.716-2.776-1.66-4.97.206-6.7 2.014-1.867 4.01-2.174 10.83-1.726l5.743.375 1.914-1.858c2.752-2.647 4.505-2.9 9.591-1.351 2.393.728 5.436 1.619 6.757 1.97 1.321.352 3.007 1.011 3.754 1.465 1.049.636 1.657.66 2.646.13.767-.41 2.407-.523 4.092-.3 4.217.56 6.527-.144 9.046-2.74 1.4-1.442 2.442-2.178 3.247-2.233"/><path d="M253.818 347.999c-.2-.523-.364-1.584-.364-2.359 0-1.614-2.789-4.109-4.051-3.624-.965.37-3.793-.972-4.925-2.337-1.02-1.228-3.554-1.2-4.94.054-1.045.945-1.1.892-1.1-1.067 0-1.134.366-2.595.813-3.247s.807-2.476.8-4.055c-.007-1.993.377-3.394 1.258-4.587 1.494-2.019 1.234-2.452-1.47-2.452-1.1 0-2.001-.27-2.001-.601 0-1.035 2.348-3.003 3.584-3.003.649 0 2.091-.91 3.203-2.023 3.033-3.033 5.61-3.692 8.89-2.275 1.453.628 3.522 2.118 4.599 3.31 2.337 2.59 4.334 3.201 7.617 2.332 1.34-.355 3.166-.504 4.057-.33 1.394.271 1.894-.075 3.603-2.49 3.021-4.27 4.62-8.98 4.656-13.713.043-5.577-1.446-8.481-5.165-10.075-2.499-1.071-2.976-1.1-5.526-.327-1.535.465-4.683 1.707-6.995 2.76-3.494 1.591-4.767 1.876-7.529 1.683l-3.325-.232-1.57 2.523c-1.224 1.965-2.48 2.95-5.685 4.462-5.02 2.366-6.216 3.359-6.216 5.16 0 1.065-.245 1.302-1.05 1.017-2.984-1.058-5.521-5.44-5.543-9.574l-.013-2.476-2.97-.285c-1.632-.156-3.633-.72-4.445-1.252-1.913-1.254-3.68-5.814-3.117-8.048l.422-1.679.801 1.905c.954 2.265 2.491 3.2 5.26 3.2 4.196 0 5.778-4.293 3.813-10.339-2.587-7.954-3.354-10.872-4.072-15.486-.875-5.628-1.045-14.54-.35-18.402.398-2.216.29-2.589-1-3.434-.796-.521-3.247-1.235-5.446-1.587-15.009-2.397-26.847 10.139-25.213 26.698.497 5.04 1.076 6.328 2.854 6.354 1.594.022 2.985 1.01 3.935 2.794 1.954 3.668.128 6.403-8.708 13.045-4.237 3.185-5.113 5.132-3.364 7.474 1.794 2.402 2.884 2.861 4.948 2.082 2.938-1.109 2.132.34-.947 1.701-3.335 1.475-5.998 1.147-8.621-1.06-2.174-1.83-3.385-1.694-5.068.569-.999 1.342-1.242 2.465-1.157 5.333.11 3.712-.348 3.968-1.83 1.023-.374-.745-.98-1.453-1.348-1.574-.964-.318-2.663 2.542-4.177 7.032l-1.316 3.904-.974-2.326c-.536-1.28-.974-3.001-.974-3.827 0-1.264-.142-1.384-.897-.757-.493.41-1.718 2.18-2.722 3.935-3.29 5.748-9.57 10.465-13.955 10.479-.892.003-1 .368-.687 2.326.479 2.993-.44 4.662-3.239 5.883-1.223.532-2.767 1.807-3.432 2.831-1.69 2.603-3.296 2.818-3.296.444 0-1.519-.441-2.08-2.663-3.382-1.465-.858-3.199-2.468-3.853-3.576-1.164-1.973-1.244-2.004-3.793-1.448-1.432.313-3.887.986-5.455 1.498-3.21 1.045-5.71.738-8.68-1.064-1.904-1.156-1.932-1.156-3.098.009-1.167 1.167-1.178 1.167-1.489-.022-.172-.659-.004-2.672.374-4.474.682-3.249.673-3.287-1.094-4.73-1.954-1.598-3.848-1.894-4.963-.778-1.091 1.09-.908-3.126.199-4.59.485-.64.882-1.735.882-2.432s.24-1.524.533-1.837c.293-.314.716-1.179.941-1.922.332-1.097.175-1.351-.834-1.351-1.666 0-1.565-.96.27-2.575a153 153 0 0 0 3.154-2.875c3.321-3.128 5.039-3.812 9.092-3.626 1.578.073 6.063 4.353 6.063 5.786 0 1.236 2.512 1.699 6.665 1.228 2.71-.306 4.819-.1 8.57.84 4.484 1.124 5.182 1.162 7.046.383 1.137-.475 2.516-1.36 3.063-1.964 1.563-1.727 3.298-6.257 3.77-9.84.504-3.827 1.852-8.612 3.065-10.873 1.84-3.435.227-3.887-4.091-1.149-2.825 1.791-6.396 3.05-8.569 3.02-1.103-.015-1.078-.115.3-1.206.826-.655 1.917-1.524 2.423-1.933 1.001-.806 3.203-4.072 2.881-4.273-.11-.068-1.55-.464-3.201-.881-3.35-.844-5.698-2.495-3.55-2.495 1.938 0 4.811-3.582 6.26-7.808.979-2.853 1.998-4.502 3.788-6.125l2.45-2.222-1.471-.562c-2.635-1.007-3.874-2.965-3.874-6.12 0-3.607 1.91-6.002 4.76-5.973l1.847.02-1.652 1.232c-3.056 2.28-1.347 7.738 2.421 7.738 1.26 0 5.537-3.7 5.537-4.79 0-.3 1.464-3.649 3.253-7.441 7.474-15.847 13.7-22.64 24.976-27.258 3.54-1.45 11.648-2.63 16.465-2.397 2.908.141 2.96.113 3.505-1.958.303-1.156.995-2.596 1.537-3.2.92-1.025.887-1.173-.502-2.267-.817-.643-3.7-2.23-6.406-3.524-5.348-2.559-8.026-5.323-12.66-13.071-1.232-2.058-2.591-3.748-3.02-3.754-.43-.006-1.572.399-2.538.899-1.855.96-8.994 1.955-8.994 1.254 0-.227.545-.997 1.211-1.712.667-.715 1.496-2.353 1.842-3.639 1.865-6.93-3.892.21-6.847 8.49-.865 2.42-2.625 6.3-3.913 8.622-2.172 3.917-2.37 4.108-2.734 2.656-.512-2.04-1.689-1.994-2.618.105-.407.92-2.225 3.419-4.042 5.556s-3.307 4.223-3.311 4.636-.279.75-.61.75-.6-1.335-.6-2.967-.284-3.143-.632-3.358c-.347-.214-3.927 2.814-7.958 6.731-5.531 5.377-7.97 7.333-9.96 7.986-1.963.643-2.832 1.33-3.407 2.693-1.19 2.821-4.606 5.756-7.44 6.392-2.604.586-6.842-.132-7.55-1.276-.599-.97-2.438-.66-3.58.602-1.51 1.668-2.115 1.001-2.115-2.334 0-1.583-.297-3.73-.66-4.769-.531-1.526-.99-1.892-2.373-1.892-1.184 0-2.375-.68-3.848-2.197-2.028-2.088-2.217-2.156-3.783-1.37-.907.454-1.851.925-2.1 1.045-.767.375-.488-1.894.455-3.702.494-.947.897-2.753.897-4.015 0-3.011.834-5.093 2.75-6.87 1.841-1.706 1.476-2.71-.983-2.71-2.629 0-2.14-.965 1.086-2.149 1.57-.576 3.123-1.365 3.453-1.754 1.133-1.331 3.226-2.103 5.706-2.103 3.045 0 4.403.666 7.568 3.71 2.035 1.957 2.893 2.374 4.952 2.402 4.782.067 8.902-4.126 14.445-14.698 4.128-7.875 5.375-9.778 8.997-13.741 1.692-1.852 3.077-3.5 3.077-3.664 0-.162-.54-.437-1.2-.61-1.327-.347-1.659-1.628-.423-1.628.428 0 1.74-1.013 2.913-2.252 1.744-1.841 2.318-3.122 3.146-7.021.556-2.623 1.286-5.1 1.621-5.502.416-.502.39-.867-.078-1.157-.39-.24-1.763.603-3.182 1.956-4.814 4.59-9.555 6.397-13.017 4.963-1.738-.72-2.436-1.798-1.165-1.798.344 0 1.92-1.21 3.502-2.69 3.156-2.952 5.84-7.52 5.277-8.985-.196-.513-2.056-1.757-4.13-2.764-4.327-2.099-5.471-2.753-8.084-4.63-2.639-1.894-3.198-1.709-3.198 1.06 0 2.485-.202 2.959-3.379 7.918l-1.877 2.931-.987-2.467c-.543-1.357-2.13-3.985-3.528-5.84l-2.541-3.371v-13.61l-2.889-2.472-2.889-2.472-1.806 1.73c-1.587 1.519-2.256 1.73-5.52 1.742-2.042.007-4.303.345-5.025.75-1.618.91-4.783.965-5.322.093-.22-.354.196-1.277.922-2.051l1.321-1.405-1.558-2.294c-.996-1.465-1.558-3.109-1.558-4.555 0-1.562-.266-2.263-.859-2.263-1.6 0-5.009-3.862-5.711-6.471-.632-2.346-.837-2.538-2.707-2.538-1.76 0-1.98-.164-1.692-1.263.188-.72 1.31-1.687 2.614-2.252 2.49-1.079 5.487-4.755 6.198-7.601.246-.988.899-2.297 1.45-2.908.943-1.046.904-1.187-.681-2.451-1.318-1.051-1.512-1.472-.898-1.95 1.567-1.215 2.995-1.366 5.005-.526 1.802.753 2.28.744 3.92-.074 1.257-.627 2.638-.81 4.221-.557 2.538.406 3.228-.565 1.452-2.04-.496-.411-.901-.985-.901-1.274 0-.958 3.415-.548 4.874.584.788.611 2.591 1.263 4.008 1.448 3.007.392 5.097 1.622 6.569 3.87.846 1.29 1.022 2.686.895 7.087-.154 5.314-.101 5.562 1.741 8.105 1.045 1.443 2.74 3.398 3.768 4.345 2.289 2.109 8.231 5.012 11.478 5.607 1.322.242 4.295 1.213 6.607 2.158 3.88 1.585 4.421 1.662 7.022 1.005 2.368-.598 3.216-.556 5.3.263l2.48.974.915-2.221c1.187-2.882 2.93-4.741 5.905-6.298 4.128-2.16 12.928-1.566 20.42 1.378 5.003 1.967 14.19 4.801 15.562 4.801 2.132 0 5.76-1.702 5.76-2.703 0-.419-1.897-1.908-4.214-3.308-3.587-2.169-4.769-2.57-7.958-2.705l-3.745-.16.128-2.619c.256-5.236 3.125-8.925 6.942-8.925.782 0 2.01-.676 2.728-1.502 1.733-1.993 2.565-1.904 2.139.228-.514 2.57.63 2.742 2.442.367.88-1.153 1.839-2.096 2.132-2.096s.618 1.004.72 2.233c.34 4.068 4.903 5.01 7.85 1.62 1.453-1.67 2.992-6.137 2.429-7.047-.439-.71-10.683-.166-12.795.678-4.48 1.793-11.173 3.2-15.3 3.216-5.464.021-9.175-1.557-11.986-5.098-1.552-1.954-1.821-2.804-1.812-5.706.018-5.24 2.69-8.753 7.176-9.438 2.905-.443 5.25.37 7.23 2.506 1.84 1.984 1.92 3.673.188 3.93-.71.106-1.832.92-2.494 1.81-1.138 1.529-1.148 1.7-.203 3.144 1.765 2.693 3.71 2.628 17.802-.597 2.477-.567 6.261-1.195 8.408-1.396s3.858-.501 3.803-.666a57 57 0 0 1-.518-1.962c-.84-3.343-5.514-5.144-8.794-3.388-.954.51-1.148 1.041-.876 2.402.203 1.015.093 1.747-.263 1.747-.973 0-3.562-2.85-3.562-3.921 0-.602-.4-.896-1.051-.773-.726.139-1.144.943-1.351 2.597l-.3 2.397-1.652-1.625c-.918-.901-1.652-2.283-1.652-3.107 0-.842-.769-2.25-1.78-3.263l-1.782-1.78.367-6.013c.332-5.464.248-6.2-.922-8.096-1.716-2.776-1.643-4.973.222-6.702 2.014-1.867 4.004-2.187 10.824-1.738l5.736.376 1.926-1.852c2.75-2.647 4.501-2.893 9.587-1.346 2.393.728 5.432 1.612 6.753 1.963 1.321.352 3.013 1.01 3.76 1.464 1.049.637 1.648.668 2.636.14.767-.412 2.406-.536 4.092-.313 4.217.56 6.534-.14 9.052-2.736 2.489-2.564 3.832-2.888 4.763-1.147 1.487 2.777-.136 9.52-3.384 14.06-1.867 2.612-1.99 3.015-1.188 3.905 1.717 1.906 3.392 7.27 3.392 10.857 0 3.42.055 3.539 2.088 4.504 2.766 1.312 4.97 4.304 5.468 7.424.397 2.476-.41 3.603-1.167 1.631-.513-1.336-2.584-1.09-3.652.435-1.8 2.57-.949 11.14 1.426 14.353 1.494 2.02 1.531 2.33.284 2.33-1.742 0-4.294 2.348-5.309 4.881-1.203 3.01-.826 5.229 1.275 7.496 1.21 1.305 1.399 1.864.88 2.6-.64.91-.999 1.635-4.098 8.268-1.722 3.686-4.231 5.985-7.122 6.528-1.874.35-2.085.588-2.085 2.352 0 2.66-1.318 5.62-3.853 8.654-1.162 1.392-2.713 3.596-3.445 4.9-1.499 2.666-2.3 3.016-2.334 1.017-.012-.743-.966-2.432-2.12-3.753L233 142.642l-1.484 1.802c-2.626 3.19-3.887 6.618-3.887 10.562 0 4.529 1.305 6.637 4.748 7.67 2.363.707 3.392.487 7.414-1.583.777-.4.49 4.616-.383 6.705-1.039 2.487-3.522 4.293-7.167 5.21-1.546.39-2.81.92-2.81 1.18s1.21 2.435 2.687 4.833c3.1 5.025 5.06 10.028 6.926 17.676 1.63 6.674 3.827 10.409 10.576 17.975 3.931 4.407 5.427 5.705 6.267 5.439 1.595-.507 5.392 1.624 12.44 6.98 6.79 5.16 9.51 6.253 14.34 5.758 7.419-.76 12.301-6.929 11.416-14.427-.87-7.369-6.216-13.68-17.732-20.933-8.88-5.592-15.14-11.68-18.418-17.91-2.361-4.487-2.37-4.53-2.37-11.41 0-5.53.217-7.306 1.089-8.908 1.012-1.861 1.022-2.19.146-4.761-2.012-5.906-.47-12.244 4.642-19.064 5.775-7.706 6.12-8.476 6.073-13.514-.028-2.965-.384-5.16-1.045-6.426-1.256-2.411-1.25-2.583.097-2.583 1.124 0 6.692 3.4 6.731 4.11.012.217.67 1.186 1.46 2.154 1.195 1.462 1.591 1.633 2.342 1.01.497-.413 1.083-1.565 1.302-2.561.341-1.553.604-1.759 1.85-1.446 2.114.53 7.634-1.257 9.275-3.003 1.094-1.164 1.465-2.347 1.644-5.238.21-3.407.068-3.958-1.625-6.282-1.02-1.401-1.855-2.685-1.855-2.853 0-.83 4.261-.127 7.02 1.158 2.845 1.323 4.736 3.256 7.13 7.283.47.79 1.432 1.083 3.661 1.117 3.565.054 5.988-1.08 7.165-3.356.973-1.882 1.147-7.454.25-8.009-1.319-.814-.582-2.102 1.202-2.102 2.924 0 7.4 4.784 8.69 9.288.948 3.308.954 3.877.081 7.414-1.098 4.45-3.994 8.747-7.562 11.22-2.399 1.661-2.425 1.72-2.047 4.566.593 4.475-.116 6.868-2.801 9.448l-2.38 2.287 1.522 1.432c2.89 2.714 4.182 7.267 2.719 9.58-.477.753-.9.688-2.925-.45-5.346-3.004-11.173-1.238-18.739 5.681-6.425 5.874-8.188 7.078-12.596 8.591-3.23 1.11-4.67 1.278-8.345.977l-4.44-.364.37 3.974c.503 5.384 3.35 10.163 7.74 12.993 2.514 1.62 2.873 1.335 2.873-2.283 0-4.197 1.816-8.033 3.82-8.069.283-.005.345.668.137 1.494-.521 2.08 1.277 7.335 3.477 10.157 1.008 1.293 4.545 4.358 7.86 6.811s7.199 5.585 8.63 6.96c2.588 2.483 4.905 6.174 4.905 7.81 0 .89 1.934 1.468 6.607 1.971 2.37.256 2.98.06 4.955-1.588 1.879-1.567 2.252-2.258 2.252-4.164 0-1.292-.389-2.609-.894-3.027-.492-.409-.761-.959-.598-1.222.507-.82 3.961.831 5.465 2.613 2.61 3.095 1.652 9.167-2.046 12.957-.696.714-.54 1.017 1.03 2.01 1.898 1.203 2.428 2.185 1.097 2.037-.953-.105-1.137.652-.71 2.926.186.995.003 2.616-.408 3.604l-.748 1.795-.246-1.501c-.406-2.482-2.457-4.204-5.007-4.204-2.709 0-4.142 1.261-4.142 3.646 0 1.563.206 1.76 1.841 1.76 3.616 0 5.75 2.293 5.058 5.44-.464 2.114-1.001 2.238-1.802.419-1.007-2.291-2.389-1.924-4.66 1.237-1.66 2.31-2.787 3.19-5.199 4.057-2.372.853-2.98 1.32-2.648 2.034.594 1.276.463 3.926-.384 7.812-.709 3.251-.622 5.95.26 7.98.842 1.942-.794 1.101-4.676-2.403-4.687-4.23-6.893-4.955-15.078-4.955-3.458 0-7.67-.297-9.36-.66-1.691-.362-3.18-.552-3.31-.422s.133.948.584 1.82c.453.87.997 2.38 1.211 3.353.537 2.446 3.41 5.514 5.183 5.538 1.426.018 1.43.033.247.953-.91.708-2.184.868-5.255.662l-4.054-.273v2.323c0 2.236.074 2.321 2.026 2.321 4.964 0 9.9 3.128 11.609 7.358.965 2.39 1.54 2.618 4.122 1.636.89-.338 3.914-.676 6.717-.75l5.097-.135 2.251-2.615 2.251-2.614.664 1.903c.543 1.556.451 2.46-.499 4.961-.639 1.682-1.888 3.816-2.775 4.742l-1.614 1.685 2.192 2.426c1.206 1.336 2.193 2.952 2.193 3.592s.27 1.331.6 1.535c.331.204.601 1.13.601 2.057s.532 2.361 1.182 3.187 1.032 1.652.85 1.834-1.796.181-3.585-.004c-3.611-.372-4.314.487-2.063 2.524 2.327 2.106 4.754 11.123 2.995 11.123-.343 0-1.25-.412-2.018-.915-1.275-.836-1.521-.815-2.824.24-1.233.999-1.414 1.633-1.333 4.67.096 3.587 1.363 7.476 3.058 9.382 1.282 1.442.3 2.355-3.006 2.797-2.125.283-2.6.588-2.767 1.772-.369 2.604.538 5.475 2.396 7.592l1.834 2.09h-2.646c-2.023 0-3.252-.446-5.213-1.889-1.695-1.245-3.317-1.909-4.773-1.951-2.066-.06-2.207.05-2.21 1.737 0 .991-.22 2.142-.487 2.557-.945 1.465-4.357 2.815-7.918 3.13l-3.604.32.2 2.292c.562 6.462-5.437 10.288-12.507 7.976-3.02-.988-5.41-.606-5.41.863 0 .934-1.04.666-1.438-.37m14.445-4.796c1.555-1.555 1.595-2.097.45-6.114-.328-1.153-.002-1.523 2.239-2.54 1.442-.654 3.749-1.195 5.125-1.203 3.604-.019 4.315-.455 5.021-3.08.362-1.341 1.263-2.756 2.112-3.312 1.482-.971 5.251-1.235 7.49-.525 1.064.338 1.192.098 1.195-2.215.002-2.574 1.793-6.496 2.966-6.496.364 0 .448-2.236.224-5.92-.313-5.137-.21-6.174.776-7.85.701-1.193 1.773-2.06 2.8-2.267 2.196-.442 2.464-1.01 1.42-3.015-1.09-2.096-3.256-4.14-5.113-4.828l-1.428-.528 1.874-2.135c1.04-1.185 2.678-2.295 3.681-2.496 1.589-.318 1.806-.61 1.806-2.432 0-2.588-2.358-5.537-5.581-6.98l-2.328-1.042 2.754-1.977c1.514-1.087 2.753-2.202 2.753-2.476s-2.31-.499-5.135-.499c-5.647 0-7.327.587-10.143 3.55-.97 1.02-1.916 1.855-2.102 1.855s-.342-1.69-.347-3.756c-.016-6.513-3.28-9.88-9.336-9.627-1.507.062-3.409.368-4.227.679l-1.489.566.001-6.393c0-3.517-.207-7.428-.463-8.692l-.465-2.298 2.278 1.547c1.252.852 2.485 1.548 2.739 1.548 3.39 0-9.987-20.855-21.766-33.934-8.99-9.983-12.076-15.276-12.99-22.281-.212-1.62-.587-3.214-.833-3.545s-.647-1.528-.89-2.662c-1.116-5.213-8.243-16.084-12.077-18.423-1.141-.697-2.719-1.87-3.505-2.61l-1.43-1.343-.912 1.408c-.5.774-1.093 2.149-1.316 3.054-.223.906-1.39 2.742-2.593 4.08l-2.189 2.435-3.603-1.88c-1.982-1.035-4.06-2.29-4.617-2.788-1.267-1.136-2.033-.691-2.493 1.45-.332 1.54-2.787 6.007-4.888 8.892-.825 1.132-.63 1.616 2.645 6.606 4.356 6.635 5.73 7.937 11.586 10.982 6.823 3.546 9.844 5.933 12.86 10.16 6.814 9.548 8.89 20.152 7.549 38.568-.751 10.317-.027 19.317 2.036 25.324 3.48 10.13 3.892 15.607 1.407 18.765-1.523 1.937-.681 2.445 1.58.955.97-.64 2.492-1.165 3.38-1.167.89-.002 1.799-.298 2.02-.657.794-1.283 1.532.412.901 2.07-.42 1.103-1.192 1.728-2.443 1.978-2.58.516-4.196 2.812-4.196 5.96 0 3.158.703 3.691 2.857 2.17.906-.64 2.864-1.716 4.35-2.392 3.94-1.791 6.082-4.288 6.446-7.52l.303-2.682 2.115 1.435c3.504 2.379 7.074 1.738 15.954-2.865 1.717-.89 7.722-.68 9.747.342 2.362 1.191 4.036 3.024 5.691 6.23 1.162 2.253 1.295 3.26 1.064 8.109-.239 5.036-.486 5.975-2.74 10.412-1.362 2.68-3.282 5.68-4.266 6.664-1.654 1.654-2.21 1.817-7.344 2.15-6.343.41-9.526-.566-12.055-3.698-1.772-2.195-3.813-3.258-5.328-2.778-1.39.441-2.504 2.275-2.068 3.403.308.797 7.973 4.698 9.229 4.698.877 0 .853.778-.051 1.682-1.1 1.099-3.757.864-6.766-.598-3.161-1.536-5.564-1.085-6.405 1.203-.403 1.097-.199 1.674.98 2.767.82.759 1.901 2.365 2.404 3.568 1.097 2.626 2.98 2.952 4.007.695.88-1.934 6.06-4.512 9.063-4.512 2.034 0 2.302.16 2.134 1.28-.144.957-1.088 1.603-3.738 2.553-5.528 1.983-6.05 4.558-1.097 5.413 1.232.213 3.052 1.056 4.043 1.874 2.34 1.932 4.738 1.914 6.7-.048m-123.845-11.516c.19-.499-.333-2.392-1.164-4.208-1.874-4.093-2.01-6.76-.343-6.76.683 0 1.496.686 1.957 1.652.645 1.354 1.24 1.685 3.296 1.834 4.376.32 8.208-2.852 12.785-10.583 3.28-5.541 7.82-9.237 7.82-6.366 0 1.53 1.373.651 3.194-2.048.93-1.378 2.063-2.506 2.518-2.506s1.18-.498 1.612-1.106c1.077-1.518 3.08-2.498 5.103-2.498 1.341 0 1.868-.407 2.526-1.952 1.116-2.619 3.168-4.758 8.036-8.375 4.671-3.47 5.532-4.66 4.448-6.142-.582-.797-1.073-.895-2.248-.448-1.398.531-1.586.376-2.685-2.216-.993-2.344-1.182-4.18-1.18-11.498 0-8.291.082-8.878 1.681-12.245 3.13-6.588 9.998-12.435 17.279-14.711 2.576-.806 9.243-.887 10.66-.129.556.299 1.957.636 3.113.75 1.922.191 2.117.064 2.296-1.503.193-1.685.158-1.706-2.198-1.308-2.704.457-4.933-.436-7.231-2.896-1.331-1.425-1.397-1.82-1.004-6.02.351-3.746.23-4.926-.73-7.09-1.833-4.135-2.43-4.398-9.996-4.391-7.292.006-11.498 1.091-17.476 4.506-8.097 4.626-11.8 9.904-21.583 30.758-1.47 3.135-3.45 5.383-5.323 6.046-.52.183-.417.783.364 2.142l1.085 1.887h-2.516c-2.106 0-2.845.348-4.538 2.145-1.113 1.18-2.023 2.542-2.023 3.027s-.54 1.942-1.201 3.237c-1.698 3.328-1.577 3.728.983 3.248l2.184-.41-.408 2.178-.409 2.178 3.48-.351c3.726-.376 6.782.411 6.782 1.746 0 .446-.702 1.466-1.56 2.267-2.87 2.68-4.123 5.977-5.686 14.97-1.091 6.278-3.966 10.926-8.007 12.941-2.282 1.138-6.585 1.096-9.972-.098-2.102-.742-3.93-.865-8.234-.558-6.427.46-7.34.132-9.289-3.336-1.824-3.246-4.13-4.482-6.368-3.414-2.138 1.02-2.598 3.783-.729 4.375.702.223 2.165 1.187 3.253 2.142s3.03 2.08 4.315 2.5c1.728.564 2.39 1.137 2.54 2.196.195 1.379.089 1.421-2.839 1.14-2.525-.242-3.5-.715-5.744-2.784-1.487-1.37-2.913-2.486-3.168-2.479s-1.084.49-1.843 1.075c-1.183.91-1.323 1.407-.987 3.507.623 3.895 1.03 4.243 3.553 3.04 2.641-1.259 3.493-1.279 5.706-.135.951.492 3.142 1.004 4.867 1.14 3.227.252 4.603 1.341 3.925 3.108-.504 1.314-4.95 1.072-8.676-.472-3.084-1.278-3.258-1.29-4.013-.256-.667.912-.6 1.54.434 4.026 1.57 3.778 3.531 4.315 8.69 2.378 1.922-.722 4.641-1.332 6.042-1.356 1.968-.032 2.751-.356 3.453-1.427.499-.762.908-1.791.908-2.287 0-.892 1.73-2.144 2.963-2.144 1.078 0 .704 3.796-.56 5.706-1.287 1.943-1.545 3.92-.631 4.835.314.314 2.324.606 4.467.65 2.972.063 3.978-.133 4.244-.824m156.325-90.426c.223-2.78.056-4.408-.586-5.693l-.898-1.802 2.788-.37c2.944-.39 7.538-3.037 6.943-4-.193-.313-1.017-.568-1.83-.568h-1.478l1.213-2.379c.668-1.308 1.214-3.434 1.214-4.723 0-2.892 1.676-5.178 4.473-6.101 1.534-.506 2.15-1.118 2.435-2.419.21-.958.898-1.904 1.526-2.104 1.218-.387 3.783-3.29 3.318-3.756-.152-.152-1.305.36-2.56 1.14-2.353 1.459-2.012 1.431-12.301.975-2.018-.09-2.242-.277-2.599-2.178-.555-2.963-3.92-7.851-6.987-10.15-8.447-6.33-11.783-9.015-13.035-10.493-1.395-1.645-2.877-1.708-2.258-.094.562 1.464-2.788.972-6.7-.983-4.328-2.162-7.504-5.485-9.673-10.117-1.292-2.76-1.584-4.265-1.6-8.258-.02-5.511-.94-7.633-2.592-5.98-1.38 1.38-1.282 9.413.168 13.678 2.514 7.397 7.137 12.122 20.076 20.52 12.008 7.795 17.35 14.74 17.97 23.364.369 5.14-.9 8.786-4.301 12.36-3.807 3.999-6.396 5.084-12.136 5.084-5.578.001-9.82-1.561-13.836-5.095-4.355-3.832-7.413-5.98-7.998-5.618-.761.47 7.14 11.665 9.363 13.267 3.396 2.447 6.738 3.17 15.824 3.421 7.452.207 9.07.429 11.22 1.54 1.382.714 2.696 1.595 2.92 1.96.807 1.304 1.605-.54 1.917-4.427m-76.397-6.836c1.584-1.583.314-8.02-2.884-14.627-2.733-5.646-5.499-8.823-6.766-7.772-1.348 1.119-1.075 2.69 1.22 7.015 1.156 2.178 2.102 4.374 2.102 4.88 0 .504.329 1.825.73 2.936.573 1.584.573 2.27 0 3.188-1.054 1.689-.896 4.03.321 4.74 1.608.937 4.155.763 5.277-.36m-95.84-6.725c1.663-1.204 3.516-4.078 3.583-5.553.03-.654.804-1.096 2.359-1.345 2.754-.44 6.98-3.66 11.104-8.46 3.761-4.377 9.873-9.455 11.097-9.219.526.101 1.115.86 1.31 1.683s.612 1.493.927 1.488c.867-.016 4.427-6.268 5.125-8.999 1.11-4.35 1.122-4.36 2.575-2.552.73.908 1.604 1.651 1.94 1.651.727 0 2.364-3.646 2.966-6.606.618-3.048 2.233-5.967 5.657-10.233l3.018-3.761-1.29-2.163c-.71-1.189-1.471-2.372-1.691-2.628s-1.281.825-2.358 2.403c-2.672 3.916-6.2 6.37-9.243 6.427-2.289.043-2.439-.07-3.233-2.424-.46-1.357-1.491-3.086-2.295-3.84l-1.459-1.371-2.115 1.613c-4.703 3.587-7.766 7.64-12.072 15.977-5.852 11.326-10.202 15.85-16.37 17.024-2.62.498-5.617-.793-8.935-3.852-2.334-2.15-2.924-2.407-5.165-2.245-2.193.16-2.552.384-2.705 1.688-.14 1.204.455 1.983 2.982 3.903 4.364 3.316 5.364 3.856 7.19 3.88 1.557.021 2.654 1.393 1.982 2.478-.185.3-1.605.544-3.155.541-2.4-.006-3.35-.407-6.409-2.703-3.998-3-5.161-3.253-6.919-1.495-1.557 1.557-1.514 2.156.3 4.313.826.982 1.502 2.286 1.502 2.897s.425 1.538.944 2.056c1.031 1.032 4.181 1.283 4.74.378.192-.31 1.628-.734 3.19-.938 1.56-.205 4.145-.775 5.743-1.266 3.028-.93 4.602-.48 4.602 1.314 0 1.18-5.17 3.258-8.11 3.258-4.451 0-5.212 2.789-1.216 4.458 1.174.491 2.305 1.333 2.511 1.872.852 2.219 4.573 2.396 7.394.35m60.786-44.965c2.731-2.252 3.382-3.075 4.638-5.86 2.38-5.276 1.889-10.025-1.502-14.527-1.837-2.439-.99-3.04 2.439-1.731 3.185 1.217 4.063 2.164 6.321 6.826 1.956 4.037 3.784 5.601 6.705 5.739 1.804.085 1.998-.118 3.354-3.514 1.436-3.597 1.648-8.53.483-11.26-.693-1.628.75-1.278 2.478.6.836.908 2.373 2.987 3.415 4.62 2.519 3.944 6.04 5.866 10.905 5.95 2.584.046 4.07-.25 5.255-1.043 2.269-1.52 2.07-2.17-.662-2.17-2.752 0-5.782-1.864-7.732-4.758-2.627-3.898-1.56-12.334 2.302-18.202 1.298-1.973 5.99-5.869 7.068-5.869.317 0 .959 1.149 1.427 2.553.467 1.404 1.248 2.63 1.734 2.724.487.094 1.803-1.107 2.93-2.677 1.776-2.473 2.047-3.326 2.068-6.478.012-1.996-.22-4.133-.518-4.75-.476-.987-.37-1.06.902-.61 4.652 1.642 7.727-.407 11.083-7.383l2.088-4.342-1.207-1.98c-1.463-2.4-1.628-7.544-.324-10.067.49-.945 1.606-2.282 2.482-2.972l1.593-1.253-.98-3.494c-1.788-6.371-1.196-11.816 1.587-14.6 2.123-2.121 1.709-2.873-1.843-3.349l-2.423-.325.311-4.282c.25-3.449.06-4.944-.975-7.681-1.816-4.799-2.474-5.206-5.756-3.568-3.676 1.836-5.94 1.94-6.178.281-.15-1.045.509-1.604 3.604-3.06 4.572-2.15 8.63-6.064 9.583-9.244.386-1.287.57-2.471.409-2.632-.161-.16-1.454.27-2.875.956-1.878.907-3.505 1.202-5.96 1.08-4.076-.203-5.895.338-6.39 1.899-.511 1.611-1.02 1.465-2.215-.636-1.135-1.996-1.626-2.245-8.774-4.456-6.119-1.895-6.182-1.895-7.905-.06-1.532 1.63-1.415 1.744 2.432 2.38 2.312.38 4.096 2.022 6.79 6.247.913 1.433 2.45 3.055 3.415 3.604s1.756 1.336 1.758 1.749c.006 1.14-2.51.871-4.2-.45-1.895-1.483-2.512-1.484-4.94-.003-2.378 1.45-3.31 1.49-5.789.254-1.895-.946-3.686-3.54-3.686-5.341 0-.52-.684-1.206-1.52-1.524-1.443-.55-1.473-.65-.59-1.999l.931-1.42-5.431-.778c-4.084-.586-5.8-.61-6.918-.102-1.856.846-1.854 1.345.015 4.307 1.637 2.592 1.868 5.191.853 9.593-.77 3.344-.072 4.001 4.77 4.499 8.821.905 16.926 2.649 20.618 4.436 4.188 2.028 5.55 4.983 5.573 12.102.017 5.294-.116 5.943-1.846 8.993-1.298 2.288-2.667 3.75-4.504 4.805-2.37 1.362-3.286 1.516-8.947 1.505-5.23-.01-7.208-.3-11.596-1.698-4.956-1.58-5.381-1.626-6.757-.725-2.419 1.586-1.882 2.954 1.474 3.751 1.617.384 5.177 1.998 7.91 3.586 4.367 2.537 5.386 2.887 8.42 2.887 3.004 0 3.772-.257 5.905-1.97l2.452-1.97v2.025c0 3.29-2.18 4.852-7.171 5.134-3.702.209-4.236.403-5.387 1.96-3.365 4.552-8.767 4.868-19.574 1.147-14.107-4.856-18.618-5.613-22.9-3.844-4.364 1.802-6.187 4.451-6.78 9.85l-.365 3.303-1.167-1.942c-1.243-2.067-4.118-3.764-6.377-3.764-1.394 0-5.404 1.772-7.296 3.223-.978.75-.95.987.45 3.89.82 1.7 1.492 3.324 1.492 3.608 0 .283.668 1.237 1.486 2.118l1.485 1.604 3.17-1.748c1.742-.96 4.79-2.24 6.772-2.844 4.335-1.32 7.964-3.276 9.895-5.331 1.449-1.541 4.82-2.142 4.82-.859 0 2.702-5.636 6.724-12.95 9.242-2.622.902-5.309 1.915-5.97 2.252-3.252 1.656-5.64 5.427-6.569 10.384-.245 1.305-1.237 3.97-2.206 5.922s-1.615 3.695-1.437 3.873c.179.178 1.345-.672 2.591-1.89 2.01-1.96 2.613-2.212 5.313-2.212 2.183 0 3.5.356 4.645 1.256l1.597 1.257-2.427 2.197c-2.104 1.903-2.5 2.676-2.979 5.8a1577 1577 0 0 1-.74 4.805c-.113.714.115 1.14.56 1.051q.751-.148.752 2.231c0 1.75.45 2.905 1.7 4.355.935 1.085 1.872 2.446 2.083 3.024 1.511 4.149 9.108-5.135 10.322-12.613.228-1.404.729-2.548 1.113-2.544 1.7.023 2.426 1.292 2.875 5.025.457 3.796.91 4.95 3.636 9.279.842 1.337 1.36 3.38 1.558 6.156.346 4.826 1.11 5.258 4.445 2.508m89.385-23.014c2.059-.895 5.523-3.424 9.196-6.712 7.848-7.028 9.601-7.904 15.879-7.939 2.725-.015 4.955-.216 4.955-.447 0-.23-.992-1.177-2.205-2.102-1.969-1.501-2.696-1.682-6.772-1.682-4.835 0-7.349.798-12.712 4.034-3.078 1.858-4.271 2.057-5.254.873-1.502-1.81 7.656-7.34 13.298-8.03 3.27-.4 5.837-2.772 5.837-5.391 0-1.706-3.127-5-4.746-5-1.261 0-9.455 5.341-11.417 7.442-1.11 1.188-1.638 1.396-2.253.886-.442-.367-.803-1.14-.803-1.718 0-1.253 4.443-5.485 7.289-6.941 3.498-1.79 6.384-4.41 8.092-7.344 1.357-2.334 1.657-3.586 1.693-7.084.038-3.764-.15-4.501-1.64-6.456-.924-1.215-1.87-2.208-2.102-2.208-.23 0-.438 1.718-.462 3.818-.075 6.715-3.984 11.114-10.871 12.231-1.388.225-2.613 1.093-4.092 2.898-1.859 2.268-2.117 2.996-2.157 6.079-.048 3.614-1.097 7.487-2.122 7.829-.321.107-1.054-.15-1.63-.57-.893-.654-.945-1.053-.36-2.734.994-2.848.474-10.069-.817-11.36-.975-.974-1.031-.954-1.031.357 0 2.959-1.961 7.757-4.816 11.782-6.624 9.344-7.752 12.439-6.585 18.068.709 3.419 3.524 6.663 7.196 8.294 2.819 1.252 7.313.908 11.412-.873m-146.736-21.168c-.168-1.386-.494-3.254-.725-4.153-.351-1.364-.175-1.746 1.065-2.311 1.307-.595 1.822-.42 4.268 1.446 4.358 3.327 12.515 7.726 14.5 7.82 1.496.07 1.836-.17 2.003-1.417.11-.826.448-1.758.75-2.072.995-1.032.577-2.614-1.146-4.338-.933-.934-2.195-3.05-2.806-4.701-.61-1.652-1.874-4.165-2.809-5.586-.934-1.42-1.698-2.697-1.698-2.837s.811-.674 1.802-1.187c3.177-1.643 2.228-2.445-5.105-4.316-7.296-1.86-13.323-5.871-17.241-11.474-1.899-2.715-1.98-3.061-2.01-8.656-.025-4.801-.227-6.044-1.144-7.057-1.183-1.308-3.878-1.64-4.913-.607-.724.725.325 7.234 1.529 9.485.94 1.757.456 3.106-1.114 3.106-1.711 0-3.054-2.382-3.597-6.382-.376-2.773-.806-3.716-2.205-4.834-2.244-1.796-4.126-1.767-5.74.09-.711.816-2.172 1.776-3.247 2.13-2.04.674-3.176 2.267-1.9 2.667.408.127 1.738.538 2.956.913 1.403.43 3.605 2.108 6.006 4.579 4.302 4.423 4.487 4.742 3.463 5.976-.655.789-.927.778-2.31-.093-.861-.543-2.934-2.44-4.605-4.217-2.73-2.902-3.293-3.232-5.535-3.232-1.911 0-2.651.292-3.163 1.248-.368.687-.518 1.638-.336 2.113s-.132 1.838-.7 3.027l-1.03 2.162 2.074 1.73c2.388 1.995 3.102 2.1 5.143.762 1.367-.894 1.6-.892 3.018.038l1.537 1.006-2.533 2.248c-2.179 1.934-2.475 2.477-2.12 3.892.583 2.322 5.388 5.305 8.173 5.072 1.806-.15 2.402-.645 4.372-3.628 2.218-3.36 3.405-4.033 5.155-2.924.675.427.675.729 0 1.847-.754 1.25-.574 1.545 2.798 4.583l3.603 3.248-.174 6.945-.175 6.944 2.2 2.997c2.152 2.931 2.218 2.968 3.085 1.731.59-.842.784-2.107.58-3.784m176.595-4.547c1.795-2.126 1.835-6.146.086-8.602-1.06-1.488-1.139-1.9-.45-2.336.46-.29 1.152-.533 1.538-.538 1.225-.016 7.428-6.106 8.642-8.485 2.12-4.157 1.252-13.146-1.27-13.146-.312 0-.566 1.041-.566 2.314 0 4.823-5.073 9.022-10.961 9.073-1.57.013-2.853.11-2.853.215 0 2.136-1.658 7.75-2.769 9.375l-1.468 2.146 2.4 2.103c2.796 2.448 3.867 4.899 3.35 7.661-.204 1.083-.205 2.235-.005 2.56.499.807 2.65-.357 4.326-2.34M230.88 93.019c1.194-2.022 1.216-3.765.06-4.725-1.206-1-2.71-.332-2.71 1.205 0 .687-.535 2.354-1.187 3.704s-1.052 2.673-.888 2.939c.475.767 3.678-1.352 4.725-3.123m-37.486-6.74c0-.444-.512-1.271-1.138-1.838-2.232-2.02-1.82-6.56.792-8.727 1.285-1.066.632-1.84-1.55-1.84-2.33 0-5.31 3.019-5.31 5.376 0 2.6 1.707 5.355 4.103 6.62 2.654 1.402 3.103 1.462 3.103.41m38.692-7.312c-.635-1.182-1.762-2.547-2.505-3.034-1.275-.837-1.352-.804-1.352.59 0 2.378 1.081 4.55 2.544 5.11 2.103.807 2.618-.24 1.313-2.666m-4.824-22.254c1.045-2.724-2.667-4.349-4.728-2.07-.881.973-.94 1.355-.32 2.101 1.013 1.222 4.576 1.2 5.048-.031"/></svg>