<svg xmlns="http://www.w3.org/2000/svg" width="600.184" height="399.583"><path d="M162.413 98.11h-113.8V21.476h113.8z" style="fill:#193783;fill-rule:evenodd" transform="matrix(5.27404 0 0 5.2142 -256.388 -111.982)"/><path d="M162.767 43.068s-3.009-1.593-16.106-1.593-23.715 4.07-41.413 4.07-26.37-3.893-41.945-3.893c-9.382 0-14.866 1.593-14.866 1.593V31.211s5.484-1.593 14.866-1.593c15.574 0 24.247 3.893 41.945 3.893s28.316-4.07 41.413-4.07 16.106 1.592 16.106 1.592zM162.767 65.545s-3.009-1.593-16.106-1.593-23.715 4.07-41.413 4.07-26.37-3.893-41.945-3.893c-9.382 0-14.866 1.593-14.866 1.593V53.687s5.484-1.593 14.866-1.593c15.574 0 24.247 3.894 41.945 3.894s28.316-4.07 41.413-4.07 16.106 1.592 16.106 1.592zM162.767 88.021s-3.009-1.592-16.106-1.592-23.715 4.07-41.413 4.07-26.37-3.893-41.945-3.893c-9.382 0-14.866 1.592-14.866 1.592V76.164s5.484-1.593 14.866-1.593c15.574 0 24.247 3.893 41.945 3.893s28.316-4.07 41.413-4.07 16.106 1.593 16.106 1.593z" style="fill:#fff;fill-rule:evenodd" transform="matrix(5.24956 0 0 5.24247 -254.27 -114.598)"/><path d="M278.733 512.171c-22.897-1.32-43.784-13.15-56.513-32.009-7.318-10.841-11.46-23-12.35-36.26-.098-1.449-.157-23.031-.158-57.857V330.5H357.36v55.546c0 34.826-.059 56.408-.158 57.856-1.583 23.55-13.794 44.24-33.604 56.938-12.987 8.325-28.6 12.269-44.861 11.332z" style="fill:#fff;fill-opacity:1" transform="translate(17.235 -184)"/><path d="M209.706 330.498h147.933v101.77H209.706z" style="fill:#fff500;fill-opacity:1;fill-rule:evenodd;stroke:none" transform="translate(17.235 -184)"/><path d="M297.182 428.225c-.127-.14-.354-.407-.507-.594-.734-.903-1.16-1.317-1.795-1.747-1.588-1.074-4.357-2-8.79-2.937-1.926-.407-3.629-.718-6.72-1.226l-.14-.02v-1.942l.087-.013c.21-.032 1.59-.039 2.365-.02 1.41.046 3.622.161 5.92.31.484.033.885.06.89.053.013 0-.15-.065-.345-.129a125 125 0 0 1-4.24-1.584c-4.973-1.983-9.038-4.115-12.207-6.4-1.363-.983-2.997-2.376-3.884-3.31l-.134-.142c-.02-.02-.583.092-1.073.209-.684.163-.868.224-1.435.478-1.192.535-1.67.808-2.197 1.256-.687.583-1.116 1.29-1.43 2.36a30 30 0 0 0-.325 1.295c0 .077-.367-.778-.471-1.108-.163-.515-.229-1.146-.194-1.864.02-.45.046-.672.146-1.211.04-.204.059-.375.059-.38-.013 0-.046.077-.099.18-.143.3-.49.89-.69 1.172-.347.49-.646.809-1.124 1.203a5.4 5.4 0 0 1-1.39.844c-.333.143-.849.497-1.212.833-.345.32-.545.558-1.01 1.2-.447.616-.698.953-.712.954-.013 0-.199-.814-.243-1.076a6 6 0 0 1-.013-1.338c.101-.761.373-1.565.794-2.348.158-.292.192-.362.177-.362-.013 0-.104.104-.218.232-1.53 1.7-2.701 2.526-4.197 2.962-.49.143-.948.228-1.495.277-.362.032-1.29.026-1.704-.013a2 2 0 0 0-.47-.013c-.18.026-.761.02-1.297-.013-1.468-.1-1.945 0-2.135.46-.046.12-.053.194-.06 1.025-.006.82-.012.92-.066 1.18-.185.861-.541 1.276-1.17 1.36-.593.08-1.34-.19-2.791-1.013-.299-.17-.543-.317-.543-.328 0-.013.166-.174.369-.361.202-.188.516-.481.696-.652l.329-.31v-.137c0-.309-.131-.77-.31-1.089-.313-.56-.843-.96-1.432-1.078a2.6 2.6 0 0 0-.782 0l-.18.032-.377.393c-.43.449-.753.817-.979 1.118l-.157.209-.046-.052c-.911-.98-.734-1.841.541-2.63.111-.068.295-.173.409-.233.114-.059.207-.112.207-.116 0-.013-1.377.453-2.23.743-.25.086-.407.154-.495.217-.744.528-1.598.501-2.336-.078a3.6 3.6 0 0 1-.783-.852l-.099-.152.138-.026.478-.086.34-.065.12-.216c.222-.402.312-.745.312-1.192 0-.876-.454-1.55-1.258-1.87l-.131-.051-.367.083c-.201.046-.37.082-.375.078-.02-.02.097-.454.171-.647a2.19 2.19 0 0 1 1.277-1.29c.362-.146.622-.195 1.098-.208.222-.013.486 0 .59.013s.192.02.197.02c0 0-.04-.046-.108-.093-.579-.424-1.06-1.005-1.303-1.573-.093-.216-.204-.565-.185-.581.007-.013.147.026.312.058.297.068.301.07.365.026.71-.473 1.138-1.202 1.137-1.94 0-.463-.156-.88-.452-1.215a1 1 0 0 1-.11-.14c0-.033.397-.253.657-.361.148-.058.39-.138.536-.172.242-.058.314-.058.75-.065.438 0 .508 0 .765.059.51.11.985.293 1.48.576.33.189.465.28.862.586.146.113.256.184.245.16-.014-.026-.053-.161-.097-.302-.229-.771-.124-1.434.305-1.94.119-.14.303-.304.32-.286.007 0 .067.235.138.509s.14.51.153.524c.046.052.527.234.733.28 1.007.224 1.977-.142 2.434-.917.09-.155.206-.444.206-.518 0-.052.013-.046.17.038q.978.552 1.185 1.479c.032.154.04.272.032.507-.02.46-.12.786-.386 1.281-.352.66-.486 1.025-.508 1.385-.02.288.02.443.148.59.088.103.319.215.54.262.2.038.824.032 1.166-.013 1.001-.14 2.462-.568 3.173-.93 3.127-1.598 5.775-3.584 9.114-6.836.273-.266.506-.498.517-.517.014-.025-.007-.182-.045-.389-.09-.466-.14-.781-.189-1.184-.098-.811-.11-1.028-.108-2.055v-1.046l-.163.264c-.09.145-.202.317-.248.384-.81 1.141-1.95 1.898-3.383 2.247-1.327.324-2.884.348-5.17.08-.369-.045-2.527-.328-2.868-.379-.02-.003.194-.136.479-.296.582-.325.82-.474 1.25-.776 1.435-1.012 2.579-2.352 3.396-3.98.227-.45.463-.992.442-1.01-.013-.006-.158.052-.333.122-1.643.695-3.379.977-4.967.807-1.983-.212-3.733-1.124-5.109-2.662-.963-1.077-1.765-2.505-2.324-4.139-.144-.421-.39-1.213-.377-1.213.007 0 .187.094.406.21.536.285.782.403 1.24.596 2.605 1.096 4.874.967 7.169-.405.479-.287 1.22-.813 1.576-1.122l.157-.135-1.403-1.38a227 227 0 0 1-3.12-3.105c-4.118-4.216-6.416-7.409-8.048-11.186l-.06-.142-.191.158a5.23 5.23 0 0 1-2.401 1.114c-.382.07-1.14.076-1.541.013a5.6 5.6 0 0 1-1.763-.614l-.21-.12.102-.026c.114-.026.164-.082.306-.37a2.4 2.4 0 0 0 .158-1.684 2.3 2.3 0 0 0-.44-.766 2.1 2.1 0 0 0-.642-.434c-.241-.107-.168-.11-.799.032l-.34.078.039-.075c.15-.303.534-.62.966-.793.463-.186.919-.261 1.715-.28l.59-.02-.135-.059a7 7 0 0 1-.415-.216c-1.582-.884-2.561-2.216-2.759-3.753-.026-.23-.039-.562-.013-.562.013 0 .208.133.444.294.237.162.44.295.452.295.059 0 .45-.122.599-.184.547-.234 1.013-.668 1.24-1.157.125-.269.16-.438.158-.78 0-.328-.033-.49-.145-.738-.059-.133-.02-.103-.787-.57l-.29-.177.219-.09c.341-.139.65-.19 1.065-.177.259.013.4.026.582.072.443.11.97.355 1.351.627l.26.186.088.065-.078-.181c-.502-1.164-.486-2.364.04-3.327.177-.324.608-.854.656-.81.013.014.06.172.104.358.046.187.1.347.117.357.14.077.521.226.675.265.52.13 1.096.096 1.555-.092.517-.212.935-.648 1.099-1.147l.046-.141-.099-.32c-.052-.177-.092-.327-.084-.334.007-.006.113.013.233.032 1.564.354 2.512 1.676 2.516 3.507v.272l.172-.277c.522-.842 1.127-1.393 1.853-1.688.261-.106.66-.212.674-.18 0 .013-.039.116-.1.24-.06.123-.108.24-.108.261 0 .058.12.304.23.474.233.36.592.682.965.867.678.336 1.393.316 2.006-.058.097-.058.14-.073.155-.052.04.045.178.452.222.629.143.605.08 1.333-.167 1.95a4.5 4.5 0 0 1-.768 1.247l-.164.194-.013.52c-.026 1.907.51 3.783 1.642 5.706 1.537 2.609 4.092 5.193 8.255 8.347.891.676 1.993 1.481 2.037 1.49.02.004.172-.039.34-.094.372-.125.79-.227 1.214-.297.62-.104.787-.115 1.728-.114.776.002.96.006 1.353.052.803.09 1.764.266 2.509.458.141.033.264.066.272.066.013 0 0-.026-.007-.065-.013-.032-.083-.23-.158-.436a8 8 0 0 1-.296-.93c-.359-1.44-.207-2.765.46-4.025.135-.256.584-.964.611-.964.007 0 .13.18.269.402 2.06 3.27 4.598 5.174 7.578 5.687.984.17 2.134.161 3.193-.026 2.348-.407 4.696-1.665 6.505-3.484.131-.133.268-.275.304-.318l.066-.076-.066.032c-.393.21-1.13.513-1.648.677-1.631.516-3.073.511-4.351-.02-1.35-.555-2.435-1.713-3.033-3.236-.108-.275-.112-.3-.096-.475.078-.857.777-1.411 1.866-1.48.61-.038 1.418.18 1.92.516.188.126.464.37.536.473a.23.23 0 0 0 .143.09c.71.157 1.016.192 1.689.193.632.002.835-.026 1.318-.147 1.232-.32 2.118-1.168 2.393-2.292.087-.352.117-.904.069-1.235a3.8 3.8 0 0 0-.745-1.767c-.945-1.218-2.505-1.871-4.468-1.871-.564 0-.88.026-1.455.104l-.41.059-.18-.085a5.5 5.5 0 0 1-1.306-.858c-1.433-1.22-2.317-2.985-2.208-4.41.033-.436.123-.736.32-1.069.415-.704 1.276-1.166 2.343-1.26.303-.025.3-.019.103-.237-.51-.568-.776-1.064-.805-1.497-.02-.258.033-.462.159-.663.614-.976 2.98-1.324 6.037-.89 1.132.16 2.022.372 3.086.733l.138.045-.053-.123c-.445-1.072.789-1.845 3.366-2.106 1.164-.118 2.835-.114 4.127.013 3.364.322 5.82 1.235 6.38 2.37l.04.086.167-.27c.875-1.413 2.09-2.384 3.655-2.923 1.253-.431 2.671-.603 4.432-.537.416.02.758.025.76.032.014.02.067 1.543.067 2.011 0 2.27-.399 3.894-1.239 5.077-.297.419-.756.879-1.146 1.15a1 1 0 0 0-.177.139c.007.005.13.02.275.045 2.08.26 3.148 1.152 3.145 2.626 0 .488-.079.88-.306 1.542-.153.447-.205.717-.205 1.06 0 .394.067.674.232.99.155.296.524.655.877.852.24.135.634.284.923.35.24.058.305.058.784.058.46 0 .549-.006.737-.052.53-.125.802-.286 1.166-.688.157-.173.268-.279.269-.254 0 .026.013.256.026.518.114 2.136-.543 3.7-1.947 4.63-.564.373-1.24.617-2.073.75-.203.032-.397.038-.965.038-.619 0-.754-.006-1.058-.052-.566-.084-1.415-.284-1.793-.423q-.05-.02-.04.002c.007.013.123.174.254.361.812 1.155 1.297 2.203 1.473 3.186.06.32.067 1.079.013 1.35-.18.943-.669 1.742-1.502 2.457-.156.134-.511.4-.79.592-1.33.916-1.962 1.686-2.041 2.486-.078.781.578 1.502 1.636 1.797.341.095.593.127.978.127.336 0 .517-.02.818-.1.41-.104.84-.342 1.097-.605.083-.085.16-.155.17-.155.046 0 .327.14.327.163 0 .02-.07.199-.157.408-.387.942-.878 1.752-1.42 2.343-.243.265-.67.618-.957.791a4.2 4.2 0 0 1-1.1.448c-.383.085-.983.1-1.367.033-.899-.157-1.68-.545-2.49-1.236-1.61-1.378-2.59-3.494-2.525-5.46.013-.478.067-.82.181-1.216.068-.238.07-.253.02-.216-.162.123-.416.524-.545.859-.125.32-.173.572-.192.987-.026.635.13 1.301.329 1.378.052.026.088.092.21.416.565 1.507.847 2.662.984 4.043.04.428.04 1.547 0 1.996-.21 2.197-1.036 4.225-2.572 6.322a24 24 0 0 1-1.708 2.073c-.673.705-1.252 1.533-1.564 2.236a6 6 0 0 0-.321.996c-.119.61-.074 1.24.123 1.753.154.4.398.745.742 1.048.284.251.48.37 1.022.622l.457.212-.457.026c-.892.052-1.6.032-2.304-.052-.16-.026-.205-.087.364.527a41.6 41.6 0 0 1 6.375 9c.53 1.01.95 1.888 1.448 3.028 2.11 4.838 4.518 8.534 7.531 11.565 1.113 1.12 2.606 2.381 3.716 3.141a1 1 0 0 1 .167.135.6.6 0 0 1-.122.143c-.11.11-.128.12-.168.09-.039-.026-.758.184-6.576 1.954-6.53 1.988-6.532 1.988-6.517 2.046.013.058 0 .058-.165.106-.185.052-.225.052-.225-.013 0-.02-.013-.032-.02-.032a2.4 2.4 0 0 0-.5.18.4.4 0 0 1-.07.045c-.014 0-.115-.115-.242-.255zm29.426-4.336c-.067-.02-1.137-.1-2.379-.183-2.172-.146-2.26-.15-2.31-.111-.053.039-.06.039-.201-.059a1 1 0 0 1-.148-.107c0-.013.088-.105.197-.219.7-.738 1.354-1.748 1.86-2.872.926-2.049 1.519-4.74 1.788-8.105l.04-.519-.356-.309c-1.456-1.264-2.325-2.488-2.62-3.691a4.13 4.13 0 0 1 .078-2.13c.148-.49.442-1.095.856-1.767.252-.407 1.06-1.615 1.184-1.769.409-.507.57-1.286.395-1.928a2.65 2.65 0 0 0-.624-1.136 3.4 3.4 0 0 0-.687-.562l-.142-.082-.013.21c-.06 1.972-.17 3.026-.452 4.247-.4 1.728-1.057 3.045-1.982 3.975-.206.207-1.072.884-1.1.86-.007 0 .052-.243.135-.529.388-1.39.492-2.01.516-3.088a10.5 10.5 0 0 0-.352-2.978c-.117-.442-.101-.434-.201-.09-.751 2.586-1.895 4.267-3.605 5.299-.307.185-.93.487-.998.484a.7.7 0 0 1-.137-.124l-.116-.124.158-.165c.992-1.038 1.615-2.305 1.883-3.828.16-.91.18-2.632.04-3.435-.102-.58-.12-.73-.136-1.1a4.4 4.4 0 0 1 .242-1.665l.066-.17-.113-.143c-.576-.728-1.076-1.622-1.272-2.278-.13-.438-.17-.72-.155-1.108.033-.74.28-1.264.844-1.76.641-.565 1.636-.93 2.847-1.042.607-.058 1.6-.02 2.313.084l.103.02-.04-.078c-.02-.039-1.106-2.041-2.41-4.442-2.095-3.855-2.402-4.434-2.627-4.955-1.409-3.257-2.049-6.705-1.775-9.562.253-2.638 1.179-4.757 2.825-6.472a12.4 12.4 0 0 1 1.423-1.216c1.32-.899 2.84-1.417 4.792-1.634.601-.067 2.017-.073 2.654-.013 2.128.206 3.988.794 5.337 1.69.346.23.885.697 1.105.957.1.118.259.348.354.51.249.427.354.752.386 1.191l.02.243.24-.125c.92-.472 1.89-.683 2.748-.595.125.013.312.039.415.058 1.566.287 2.88 1.442 3.54 3.11.278.708.418 1.39.456 2.229.02.38.02.401.09.488.04.052.157.214.26.363 1.822 2.623 2.438 6.17 1.915 11.015l-.046.425.212.233c1.529 1.678 2.369 2.747 2.977 3.793 1.358 2.334 1.213 4.242-.45 5.92-.229.232-1.166 1.019-1.189 1-.013-.007.007-.167.033-.359.059-.438.059-1.042 0-1.39-.315-1.762-1.49-3.688-3.955-6.486a6 6 0 0 0-.362-.393c0 .004.094.237.217.517.77 1.73 1.13 3.098 1.181 4.48.026.732-.026 1.184-.273 2.222-.234.993-.307 1.503-.307 2.154 0 .77.152 1.38.494 1.973.079.137.381.556.67.93.368.475.6.802.768 1.082.132.222.234.403.228.403s-.191-.046-.41-.1c-1.098-.279-1.8-.565-2.547-1.038a7.4 7.4 0 0 1-1.271-1.09c-1.223-1.386-1.911-3.323-2.14-6.027a39 39 0 0 1-.08-2.336c0-.877-.067-1.475-.232-2.132-.386-1.532-1.204-2.935-2.52-4.323-.579-.611-1.68-1.577-2.146-1.881-.972-.636-1.652-1.22-2.22-1.906-1.944-2.35-1.908-5.322.11-8.947l.228-.41-.152-.253c-.67-1.109-1.408-1.888-2.234-2.36-1.195-.683-2.742-.819-4.669-.409-.428.092-.608.164-1.138.461-1.142.641-1.98 1.415-2.544 2.35a5.3 5.3 0 0 0-.473.953c-.747 1.962-.592 4.445.492 7.857.428 1.348.36 1.187 3.292 7.677l2.757 6.1.21.143c.116.079.244.163.283.188l.072.046v-.506c0-2.283 1.003-4.217 2.68-5.169a4.4 4.4 0 0 1 1.33-.51c.277-.058.325-.064.817-.064.477.002.545.006.785.058 1.36.31 2.323 1.253 2.748 2.692.291.99.311 2.24.052 3.55a26 26 0 0 1-.302 1.32c0 .003-.127-.256-.27-.577-.655-1.464-1.135-2.217-1.702-2.668-.431-.342-.819-.38-1.143-.111-.663.547-1.045 2.076-.95 3.8.13 2.332.921 4.564 2.27 6.401.252.343.553.843.874 1.452 1.414 2.684 1.77 5.086 1.033 6.97-.532 1.36-1.697 2.5-3.359 3.285-.596.282-1.338.555-1.992.734l-.277.076.02.374c.165 3.139-.612 6.74-2.295 10.63-.11.253-.205.459-.212.457-.007 0-.068-.02-.134-.032z" style="fill:red;fill-opacity:1" transform="translate(17.235 -184)"/><path d="M237.182 419.72c-.668-.537-.995-.886-1.284-1.374-.291-.49-.404-.924-.382-1.466.04-.975.56-1.867 1.89-3.248l.33-.344.185-.032c.97-.187 1.913.37 2.3 1.361.091.234.165.571.165.762v.132l-.234.22c-.129.122-.362.34-.518.483-1.265 1.157-1.637 1.658-1.865 2.506-.04.148-.046.278-.046.72v.538h-.111c-.105 0-.129-.013-.43-.255zm-9.79-5.79c-.248-.7-.35-1.068-.419-1.516a5 5 0 0 1-.013-1.115c.17-1.037.844-1.776 2.088-2.292.51-.212 1.195-.409 2.085-.6l.249-.052.193.085c.387.168.67.42.877.777.185.32.246.539.26.94a2.1 2.1 0 0 1-.156.956c-.067.17-.213.454-.252.492-.013.013-.318.069-1.075.197-1.142.193-1.465.27-1.93.454-.38.15-.615.29-.908.54-.329.28-.436.416-.721.908l-.223.383-.052-.157zm.13-9.4c0-.098.09-.9.122-1.08.092-.537.259-1.043.467-1.425a2.78 2.78 0 0 1 1.473-1.27c.483-.17.907-.225 1.61-.208.556.013 1.02.07 1.818.22.54.102.483.075.707.325.131.145.278.408.348.626.046.143.06.235.053.536 0 .318-.013.39-.07.583-.082.258-.227.53-.41.767-.14.181-.607.589-.675.589-.046 0-.595-.126-1.143-.264-1.09-.274-1.517-.338-2.106-.319-.76.026-1.198.186-1.863.68-.118.09-.241.18-.275.205-.032.026-.059.04-.059.033zm13.17-4.048a2.8 2.8 0 0 1-.647-.183 2 2 0 0 1-.272-.128 5 5 0 0 1-.153-.515c-.451-1.747-.566-2.092-.855-2.573-.37-.617-.785-.965-1.572-1.314l-.25-.11.241-.103c1.213-.52 2.137-.671 2.973-.49.362.078.787.285 1.093.529.675.537 1.152 1.382 1.643 2.912l.175.547-.046.136c-.194.591-.683 1.04-1.339 1.227-.183.052-.266.065-.575.068h-.416zm-15.15-33.536a8 8 0 0 1-.317-1.124c-.066-.34-.066-1.156 0-1.435.287-1.192 1.2-1.932 3.011-2.441.408-.115 1.284-.32 1.364-.32.075 0 .393.152.556.266.226.157.38.329.53.584.185.315.243.517.26.91.02.495-.06.864-.294 1.282-.13.236-.013.193-1.053.37-1.262.215-1.595.291-2.065.475-.486.191-.926.496-1.232.853a5 5 0 0 0-.39.583l-.23.397zm39.872-3.318c-.666-.058-1.124-.132-1.577-.248-2.634-.673-4.336-2.506-4.682-5.043-.059-.457-.039-1.371.04-1.826.25-1.382.916-2.583 1.915-3.455.905-.792 1.943-1.249 3.284-1.447.353-.051 1.503-.058 1.903-.013.582.07.996.152 1.657.327l.438.117-.02.1c-.013.06-.02.112-.026.127-.007.02-.162.025-.487.025-.402.002-.508.013-.684.052-1.417.334-2.496 1.645-2.796 3.397-.058.364-.058 1.124 0 1.473.288 1.597 1.368 2.658 3.021 2.968 1.114.208 2.412.098 3.949-.336.803-.228 1.454-.466 2.519-.922 1.281-.55 1.925-.715 2.876-.74.58-.02.908.013 1.413.118 1.804.379 3.662 1.664 5.56 3.851l.319.367-.1.085a.4.4 0 0 1-.127.085 6 6 0 0 1-.476-.28c-2.803-1.762-5.202-2.353-7.181-1.77-.398.117-.651.224-1.311.548-1.339.657-2.46 1.13-3.567 1.505-1.554.525-2.979.83-4.322.927-.3.025-1.33.025-1.54.006zm-36.168-7.258c-.174-.12-.456-.316-.625-.436-.777-.552-1.194-.803-1.648-.995a2.9 2.9 0 0 0-1.214-.253c-.34 0-.589.04-.964.145l-.274.08v-.11c0-.123.136-.406.405-.84q1.061-1.714 2.636-1.784c.9-.039 1.837.299 3.283 1.186l.503.308.072.199c.098.27.13.491.113.76-.059.888-.801 1.669-1.83 1.924l-.138.032-.318-.217zm15.909-4.34c-.591-.058-1.166-.382-1.567-.891-.145-.184-.363-.565-.363-.634 0-.026.283-.628.469-.99.364-.71.62-1.32.722-1.723.207-.817.138-1.408-.257-2.21a4 4 0 0 1-.149-.322c.013-.013.799.23 1.01.307 1.23.447 2.024 1.16 2.294 2.06q.285.95-.139 2.319c-.131.424-.64 1.707-.685 1.732 0 .003-.053.026-.103.065-.372.229-.801.33-1.233.29zm-9.527-1.662c-.354-.07-.852-.266-.881-.348-.013-.026-.106-.422-.218-.89-.243-1.019-.329-1.32-.471-1.672q-.34-.837-.902-1.307c-.253-.21-.458-.336-.83-.505a3 3 0 0 1-.286-.14c-.007-.014.142-.076.328-.15.99-.388 1.744-.534 2.423-.47 1.311.124 2.205.965 2.837 2.672.095.256.387 1.166.437 1.361.033.128-.12.479-.32.734a2.04 2.04 0 0 1-1.054.674c-.257.07-.804.092-1.063.039z" style="fill:#193783;fill-opacity:1" transform="translate(17.235 -184)"/><path d="M297.196 428.293c-.118-.128-.369-.42-.557-.651-.443-.542-.51-.617-.822-.933-.778-.788-1.895-1.42-3.612-2.044-2.603-.946-6.872-1.898-12.696-2.83l-.328-.053v-2.252l.207-.013c.764-.052 2.196-.04 3.785.032.52.026 3.512.19 3.986.221.136.013.239.013.228 0a20 20 0 0 0-.862-.325c-8.376-3.076-14.398-6.476-18.333-10.352a22 22 0 0 1-.393-.394l-.059-.064-.29.058c-.935.19-1.406.326-1.931.56-1.209.534-1.796.872-2.314 1.329-.562.495-.933 1.086-1.228 1.955-.096.283-.537 2.007-.537 2.097 0 .128-.087-.038-.37-.72-.4-.959-.462-1.16-.541-1.773-.033-.252-.04-.965-.013-1.315l.02-.227-.19.267c-.7.993-1.492 1.661-2.514 2.119a4.7 4.7 0 0 0-1.134.73 5.8 5.8 0 0 0-.987 1.094c-.138.192-.452.616-.697.944l-.446.595-.14-.595c-.178-.767-.221-1.031-.24-1.503a5.5 5.5 0 0 1 .405-2.255.6.6 0 0 0 .059-.175s-.108.097-.234.222c-.3.3-.994.874-1.343 1.109-1.07.723-2.226 1.125-3.587 1.247-.345.026-1.334.026-1.729-.013a3 3 0 0 0-.442-.013c-.204.026-.786.02-1.364-.02-.723-.045-1.293-.032-1.515.033-.18.058-.268.115-.336.23-.083.143-.09.207-.085.908.013.915-.04 1.369-.2 1.805-.197.553-.6.939-1.07 1.026-.372.068-.64.051-1.086-.08-.491-.14-.925-.341-1.845-.853l-.573-.319-.052.058c-.541.575-.817 1.025-.964 1.573-.08.301-.09.73-.026 1.385l.046.55s-.294-.213-.647-.479c-.997-.75-1.46-1.23-1.794-1.866-.517-.98-.441-1.982.233-3.098l.133-.22-.078-.085a2.2 2.2 0 0 1-.45-.777 1.7 1.7 0 0 1-.013-.702c.052-.187.25-.516.418-.688.08-.084.138-.152.127-.152-.013 0-.273.085-.581.19-.435.147-.593.212-.71.291a2.14 2.14 0 0 1-.994.382c-.855.1-1.712-.399-2.4-1.396-.025-.039-.052-.032-.495.045-1.212.218-1.775.439-2.285.897-.247.221-.436.478-.702.954l-.315.562c-.045.08-.085.138-.092.132-.026-.026-.468-1.308-.53-1.544-.135-.51-.162-.717-.162-1.27 0-.412.013-.565.046-.721.316-1.316 1.355-2.128 3.415-2.672l.273-.072.026-.127c.095-.404.288-.816.522-1.111.162-.205.514-.49.764-.622.377-.196.81-.305 1.307-.327.18-.013.328-.02.328-.026 0 0-.084-.092-.19-.194-.462-.453-.838-1.06-.988-1.6-.02-.065-.033-.119-.04-.119 0 0-.168-.038-.365-.092-1.559-.397-2.286-.433-3.01-.15-.29.115-.456.218-1.033.647a15 15 0 0 1-.525.383 42 42 0 0 1 .147-1.502c.218-1.47.93-2.496 2.021-2.914.498-.192.915-.259 1.598-.258.686 0 1 .032 2.052.228l.566.104.158-.091a3.8 3.8 0 0 1 1.349-.438 5.2 5.2 0 0 1 1.18.045c.68.131 1.396.439 2.028.87.104.073.196.13.202.13.014 0 0-.058-.013-.119a3.8 3.8 0 0 1 0-.856c.078-.358.278-.726.537-.984.086-.086.151-.172.146-.192-.1-.38-.235-.866-.276-.99q-.347-1.046-.973-1.576c-.254-.215-.437-.32-1.013-.577a15 15 0 0 1-.515-.237c-.026-.02 1.203-.518 1.54-.624.918-.289 1.812-.319 2.526-.085.604.198 1.17.636 1.587 1.228.405.575.697 1.223 1.053 2.335l.113.352.212.124c.248.146.606.45.771.656q.415.515.45 1.204c.032.58-.086.968-.555 1.86-.297.565-.416 1.074-.32 1.367.164.497 1.337.496 3.102 0 1.087-.308 1.473-.476 2.739-1.193 2.649-1.5 4.917-3.264 7.824-6.086.287-.28.536-.524.552-.544.02-.026.02-.082-.007-.22a16.5 16.5 0 0 1-.323-2.976l-.02-.732-.059.09c-.187.279-.604.727-.958 1.028q-1.931 1.644-5.579 1.493c-1.123-.045-1.87-.124-4.203-.44-1.024-.138-1.38-.194-1.353-.211.02-.013.32-.18.666-.37 1.003-.552 1.44-.84 2.1-1.384a10.4 10.4 0 0 0 2.578-3.155c.163-.306.441-.888.429-.899a.5.5 0 0 0-.144.052 10 10 0 0 1-.532.192c-1.591.538-3.101.703-4.565.501-2.102-.29-3.929-1.352-5.322-3.094-.827-1.034-1.494-2.283-2.016-3.776-.13-.368-.52-1.635-.509-1.643 0-.004.256.125.558.286.681.362 1.044.54 1.469.72a9.4 9.4 0 0 0 2.483.687c.316.039 1.276.039 1.555-.002q1.966-.271 3.885-1.69c.33-.243.63-.482.63-.5 0-.012-.62-.625-1.376-1.37a199 199 0 0 1-3.02-3.009c-2.576-2.637-4.318-4.731-5.774-6.942a38 38 0 0 1-1.395-2.367 35 35 0 0 1-.8-1.672c-.027-.066-.053-.119-.067-.119-.007 0-.127.078-.26.172-.673.479-1.431.8-2.217.94a5.8 5.8 0 0 1-1.413.033 5.3 5.3 0 0 1-1.989-.644c-.136-.076-.198-.098-.254-.09-.15.026-.944.158-1.374.236-1.26.23-1.946.57-2.444 1.212-.127.165-.239.352-.698 1.173a.5.5 0 0 1-.09.134 30 30 0 0 1-.494-1.428c-.167-.573-.199-.799-.2-1.378 0-.585.027-.753.177-1.144.339-.878 1.132-1.536 2.408-1.998.096-.032.361-.116.589-.182l.415-.12.11-.154c.427-.591 1.17-.919 2.292-1.01l.339-.025-.318-.2c-1.073-.679-1.886-1.666-2.245-2.728-.142-.42-.245-.963-.245-1.303 0-.152.014-.147-.496-.484-.906-.61-1.54-.856-2.205-.856-.308 0-.552.04-1.036.18-.22.065-.41.115-.422.115s-.02-.12-.02-.268v-.269l.147-.278c.806-1.531 1.798-2.305 3.07-2.394.727-.052 1.64.202 2.641.73l.212.112.166-.065c.407-.156.968-.217 1.422-.156.44.058.927.228 1.343.464.144.082.217.113.206.087-.04-.084-.12-.412-.161-.648a3.7 3.7 0 0 1 .16-1.944c.104-.287.413-.794.633-1.043.226-.255.222-.175.04-.918-.307-1.235-.614-1.837-1.177-2.307-.229-.19-.473-.328-1.057-.598l-.437-.202.263-.107c.654-.267 1.06-.415 1.386-.506q.94-.262 1.673-.193c1.499.141 2.477 1.106 3.157 3.113l.127.374.136.026a4 4 0 0 1 .82.295c.963.49 1.589 1.387 1.78 2.551.019.138.045.29.045.34l.013.09.17-.212c.364-.46.764-.808 1.22-1.064.258-.144.643-.293.892-.345l.11-.026.175-.345c.498-.984.7-1.497.799-2.024.045-.266.039-.776-.013-1.01-.087-.36-.12-.435-.65-1.513-.014-.026.897.23 1.325.37.343.114.77.3 1.05.457.93.521 1.442 1.153 1.654 2.039.072.303.067 1.05-.013 1.447-.123.61-.286 1.111-.62 1.906-.118.28-.214.52-.214.536 0 .02.033.124.078.244.167.465.224.875.188 1.359-.058.783-.364 1.515-.932 2.229l-.245.309v.5c0 2.756 1.14 5.405 3.52 8.18 1.675 1.952 4.101 4.073 7.545 6.599l.707.519.083-.026a9.6 9.6 0 0 1 2.276-.458c.512-.038 1.707-.02 2.27.046.594.066 1.297.183 1.925.32.285.065.523.11.528.106.013-.004-.033-.12-.084-.256-.567-1.498-.614-2.928-.14-4.24.106-.296.305-.719.458-.976.104-.177.654-1.03.676-1.05 0-.003.137.201.296.454.365.581.655 1.012.945 1.402 1.92 2.577 4.296 4.12 6.892 4.476.891.122 1.928.102 2.84-.058 1.719-.296 3.419-1.04 4.958-2.174.253-.186 1.006-.81 1.075-.891.053-.059.046-.059-.223.039a8.8 8.8 0 0 1-2.265.54c-1.366.136-2.662-.181-3.732-.911a7 7 0 0 1-.99-.879 6.8 6.8 0 0 1-1.208-2.018c-.08-.205-.087-.241-.072-.42a1.56 1.56 0 0 1 .224-.724c.102-.18.159-.244.353-.41.273-.229.487-.34.832-.433a3.1 3.1 0 0 1 1.095-.093c.84.082 1.56.4 2.054.906l.174.177.263.052c.583.11.778.127 1.375.127.494 0 .615-.006.849-.052.937-.172 1.66-.572 2.134-1.18.068-.088.125-.17.125-.179 0-.013-.167-.121-.369-.248-2.286-1.431-4.223-2.074-5.901-1.958-.853.058-1.325.205-2.465.764-2.73 1.339-5.047 2.09-7.249 2.353-1.063.126-2.204.114-3.122-.033-1.419-.229-2.663-.785-3.606-1.612-1.034-.907-1.685-2.077-1.946-3.5-.07-.382-.096-1.286-.046-1.718.175-1.613.922-3.042 2.117-4.055.944-.799 2.042-1.264 3.404-1.443.38-.052 1.455-.059 1.85-.013.358.039.905.131 1.205.198.37.083.992.258.992.281 0 .013-.033.152-.08.314-.046.162-.08.298-.08.302s-.196.006-.436.006c-.367 0-.467.006-.636.052-.866.212-1.583.788-2.075 1.666-.877 1.564-.777 3.527.238 4.67.682.77 1.642 1.158 2.95 1.194 1.533.039 3.153-.36 5.464-1.352.839-.36 1.414-.55 1.97-.65q2.638-.472 5.184 1.26c.892.607 1.84 1.46 2.691 2.42.157.177.294.322.303.323.04.003.108-.418.123-.739.046-1.118-.462-2.184-1.413-2.94-.681-.543-1.512-.88-2.56-1.04-.309-.046-.427-.052-1.084-.052-.755 0-.96.019-1.613.12l-.26.04-.268-.131a6 6 0 0 1-1.303-.848c-1.281-1.086-2.165-2.638-2.289-4.017-.026-.294 0-.752.067-1.01.216-.897.894-1.56 1.898-1.856.235-.069.67-.16.767-.16.052 0 .052-.005-.04-.107-.271-.303-.555-.768-.664-1.087-.085-.25-.084-.702 0-.907.168-.4.521-.714 1.067-.945 1.196-.507 3.386-.576 5.746-.183.832.139 1.627.33 2.375.57.02.006.033-.059.033-.213 0-.239.052-.427.18-.608.54-.786 2.208-1.266 4.676-1.346.612-.02 1.803.002 2.359.039 1.92.138 3.613.465 4.92.95.86.319 1.61.782 1.961 1.211l.107.13.149-.223c.198-.297.512-.69.763-.956.252-.267.773-.71 1.076-.916.759-.514 1.738-.928 2.708-1.146 1.097-.246 2.21-.329 3.691-.274l.807.026.013.139c.032.28.068 1.414.068 2.014 0 2.403-.433 4.093-1.36 5.324-.165.22-.477.55-.715.757-.127.11-.228.203-.224.205 0 .002.122.026.262.045.34.059.842.196 1.143.32 1.16.477 1.751 1.289 1.752 2.407 0 .5-.111 1.033-.358 1.72-.119.332-.16.614-.144.995.013.202.033.394.053.468.24.724.884 1.24 1.806 1.444.313.07.907.097 1.202.058.388-.058.732-.18.965-.351.059-.046.29-.28.508-.523s.403-.436.41-.43c.013.006.026.34.046.742.078 1.717-.113 2.695-.718 3.69-.256.42-.486.687-.88 1.02-.52.441-1.075.73-1.782.928-.652.183-1.167.24-1.983.222a8.3 8.3 0 0 1-1.963-.266c-.142-.032-.263-.065-.266-.058 0 .003.059.102.142.22.218.315.488.778.7 1.203.844 1.686.895 3.179.15 4.46-.39.673-.96 1.236-1.9 1.88-1.272.87-1.887 1.616-1.957 2.374-.07.774.686 1.473 1.827 1.684.337.065.891.052 1.222-.026.458-.102.854-.311 1.131-.598.075-.077.147-.139.162-.136.014.002.175.07.356.152.303.136.328.152.313.202a10 10 0 0 1-.165.408c-.537 1.28-1.158 2.184-1.942 2.828-.54.443-1.05.695-1.71.842a4.2 4.2 0 0 1-1.39.026c-1.165-.188-2.273-.836-3.245-1.896-.384-.419-.79-.978-1.01-1.39a1 1 0 0 0-.106-.18c0 .003.02.107.059.233.55 1.907.676 3.715.383 5.476-.313 1.88-1.138 3.706-2.543 5.624a23 23 0 0 1-1.65 1.996c-1.516 1.593-2.17 3.198-1.846 4.527.17.693.648 1.307 1.298 1.662.081.045.458.224.836.399.377.174.684.32.681.322 0 0-.393.026-.867.052-.887.045-1.7.058-2.03.026a1 1 0 0 0-.198-.013c-.007 0 .116.143.27.309 3.183 3.43 5.815 7.49 7.74 11.935 2.236 5.163 4.94 9.178 8.277 12.292a30 30 0 0 0 2.615 2.154c.19.138.38.274.42.306l.075.059-.256.255-.255.256-.072-.046c-.163-.098-.778-.555-1.332-.99a29 29 0 0 1-2.572-2.29c-3.034-3.042-5.55-6.897-7.624-11.679-1.948-4.49-4.407-8.293-7.648-11.826-.4-.435-.857-.913-.905-.945a2.4 2.4 0 0 0-.33-.108 7.3 7.3 0 0 1-2.675-1.446c-.19-.161-.347-.278-.353-.262-.013.02-.073.222-.149.46-.537 1.684-1.12 3.043-1.8 4.194-.337.57-.545.881-.896 1.334a10.2 10.2 0 0 1-1.617 1.696 10.2 10.2 0 0 1-1.757 1.223c-.161.09-.297.166-.3.17 0 0-.033.152-.06.332-.453 2.844-1.692 4.695-4.033 6.03-.29.166-1.633.88-1.64.874 0 0 .156-.346.356-.763.543-1.13.728-1.62.874-2.311.046-.234.059-.37.059-.771 0-.504-.02-.653-.127-.964a1.75 1.75 0 0 0-1.307-1.17 2.2 2.2 0 0 0-.79.013c-.207.052-.53.198-.668.304-.457.348-.691.817-.73 1.458-.02.337.02.596.17 1.162.067.247.116.454.11.46-.014.013-.651-.013-1.43-.026-1.164-.025-1.545-.032-2.128-.013-.687.026-1.422.082-1.496.117-.027.013.013.068.16.206a33 33 0 0 0 2.624 2.255c4.193 3.189 9.802 5.95 17.538 8.633.575.199 1.063.375 1.085.391.02.02.185.093.362.17 2.614 1.16 4.74 2.647 6.191 4.333a11.1 11.1 0 0 1 1.956 3.265l.14.375-.339.097-.382.108c-.032.013-.052-.013-.076-.068l-.032-.08-.233.155c-.129.085-.246.16-.263.17-.02.012-.118-.08-.244-.218zm.567-.543c-.013-.026-.088-.204-.172-.392-1.082-2.378-3.108-4.34-6.11-5.918-.443-.233-.98-.493-1.393-.674l-.336-.148-1.514-.094c-1.938-.121-4.051-.243-4.957-.285-1.028-.045-2.847-.09-3.089-.07l-.207.019v1.028l1.119.188c6.379 1.07 10.536 2.119 12.963 3.27 1.02.483 1.793 1.01 2.428 1.656.244.248.394.42.999 1.154.146.176.27.32.276.32s0-.02-.013-.052zm-60.387-8.824c0-.103.103-.51.178-.707a5 5 0 0 1 .508-.896c.295-.39.586-.691 1.35-1.394.633-.583.601-.549.595-.643-.013-.217-.122-.54-.253-.763a1.62 1.62 0 0 0-.768-.696c-.154-.065-.207-.075-.431-.081-.14 0-.268 0-.283.013-.046.025-.49.493-.726.755-1.288 1.44-1.578 2.566-.936 3.647.143.242.356.514.568.726.161.163.197.17.198.04zm5.294-1.273c.15-.075.264-.225.36-.476.148-.393.173-.611.175-1.566 0-.754.013-.881.053-1.02.157-.511.55-.798 1.26-.92.218-.04.9-.033 1.568.012.642.04.912.046 1.153.013.135-.02.275-.02.627.02.596.052 1.463.032 1.925-.033 1.367-.204 2.4-.677 3.481-1.596.534-.453.87-.794 1.777-1.808.308-.343.68-.754.827-.913.253-.274.27-.288.323-.259.033.02.186.1.345.184.237.126.283.16.264.19a85 85 0 0 0-.985 1.75c-.498.932-.734 1.638-.813 2.427-.033.303-.033.54-.013.69l.02.106.186-.244c.373-.49.811-.92 1.28-1.255.366-.263.567-.381.91-.536.555-.25.87-.452 1.314-.839.443-.386.74-.735 1.071-1.255.416-.654.63-1.111 1.356-2.914.186-.461.345-.846.355-.854.013-.013.747.152.774.172 0 0-.096.382-.222.843-.582 2.125-.701 2.747-.727 3.78-.014.348-.014.606.007.606.013 0 .066-.095.113-.21a4.83 4.83 0 0 1 1.82-2.123c.654-.421 2.134-1.127 2.659-1.269.988-.265 1.88-.443 2.76-.547.817-.097 1.007-.104 2.565-.102h1.507l-.013-.045c-.098-.383-.093-1.067.013-1.482.15-.58.579-1.148 1.11-1.469a2.83 2.83 0 0 1 2.413-.224 2.54 2.54 0 0 1 1.323 1.156c.43.814.457 1.83.084 3.06a9 9 0 0 1-.145.44c-.02.058-.04.103-.033.108a1 1 0 0 0 .182-.11c1.097-.763 1.83-1.646 2.344-2.82q.475-1.085.682-2.517c.032-.225.07-.42.082-.433.013-.013.146-.089.298-.168a10.3 10.3 0 0 0 3.232-2.61c.636-.765 1.333-1.916 1.833-3.025.39-.866.89-2.248 1.214-3.35l.071-.241-.205-.28c-.346-.471-.768-1.227-.95-1.698-.052-.13-.083-.17-.277-.33-.287-.236-.554-.44-.578-.44-.013 0-.046.07-.08.154a5.17 5.17 0 0 1-2.765 2.806c-1.81.77-4.226.757-7.504-.04a40 40 0 0 1-2.278-.641c-.766-.248-1.31-.41-1.664-.497-2.454-.603-4.943-.459-7.232.417-2.264.866-4.128 2.494-4.398 3.841-.026.147-.02.418.02.56.013.059.013.059-.333.134-.193.038-.37.075-.396.077-.052 0-.052-.013-.213-.541-.053-.175-.1-.331-.106-.347-.007-.02-.19.142-.42.362-3.185 3.065-5.813 5.016-8.852 6.573-.479.245-.67.32-1.432.557-.745.232-1.394.384-2.038.476-.402.058-1.15.058-1.407 0-.587-.13-.964-.433-1.104-.883-.066-.205-.052-.583.02-.864.08-.307.236-.678.454-1.088.307-.575.388-.842.388-1.273 0-.328-.04-.489-.175-.737a1.7 1.7 0 0 0-.447-.514l-.15-.116-.118.173c-.08.117-.204.244-.379.391-.227.19-.295.232-.539.333a2.3 2.3 0 0 1-.922.202c-.487.026-.929-.074-1.405-.3l-.209-.1-.04-.153c-.032-.142-.039-.15-.073-.101-.108.169-.142.662-.068 1.016.107.522.548 1.354 1.037 1.955.045.059.068.107.058.117-.039.032-.659.365-.665.358l-.122-.154c-.707-.899-1.663-1.725-2.447-2.114a4.8 4.8 0 0 0-.972-.351c-.231-.052-.317-.059-.667-.059-.324 0-.442.013-.606.046-.394.09-.877.315-.839.388.175.34.252.642.252.988 0 .534-.172 1.01-.533 1.475-.117.15-.503.502-.694.631l-.089.059.103.21c.421.863 1.314 1.573 2.519 2.004.166.058.302.117.302.129 0 .045-.283.59-.312.6a3 3 0 0 1-.379-.115c-.811-.289-1.539-.421-2.16-.393-.734.032-1.233.283-1.579.786-.112.165-.268.543-.21.512.033-.02.344.105.538.208.67.359 1.083 1.08 1.08 1.888 0 .475-.108.866-.36 1.319l-.135.242-.172.025c-.094.02-.17.04-.17.052 0 .04.209.282.386.443.205.188.475.347.678.404.331.09.711 0 1.03-.238.15-.112.219-.138 3.104-1.113 1.623-.548 2.96-.997 2.97-.997.013 0 .1.136.198.303l.178.303-.366.181c-.44.218-.561.272-1.492.68-.832.365-1.142.513-1.555.744q-.723.404-.958.793a.77.77 0 0 0-.06.627c.047.122.166.337.187.337.013 0 .104-.104.218-.233.114-.128.376-.407.581-.622l.373-.39.205-.038c.276-.059.706-.059.961 0 1.037.223 1.787 1.163 1.864 2.336l.013.18-.448.421c-.246.232-.48.447-.52.477-.038.026-.07.066-.07.08 0 .051 1.183.686 1.622.87.597.252.995.316 1.234.197zm7.77-11.8c-.224-.119-.278-.33-.128-.5.124-.14.118-.139 1.508-.139 1.381 0 1.344 0 1.483.136.14.141.108.365-.07.478l-.087.058-1.313.013c-1.242.013-1.317 0-1.393-.038zm2.84-1.303c-.252-.12-.279-.403-.052-.566.109-.077.297-.088 1.518-.081 1.133.013 1.193.013 1.28.052.13.065.196.15.21.275.013.122-.046.224-.19.312-.073.045-.103.045-1.366.052l-1.291.013-.107-.052zm2.7-1.31c-.12-.064-.194-.172-.194-.29 0-.121.052-.212.167-.28l.087-.052 1.287-.013c1.145-.013 1.297 0 1.383.026a.35.35 0 0 1 .233.287c.013.089 0 .125-.053.196-.13.166-.1.162-1.537.162-1.232 0-1.286 0-1.37-.046zm2.434-1.41c-.15-.065-.218-.145-.236-.273-.02-.125.033-.218.172-.305l.098-.065 1.261-.013c1.092-.013 1.276 0 1.37.026.145.045.233.149.248.291q.02.209-.18.316c-.095.052-.106.052-1.355.059l-1.26.013-.118-.052zm2.49-1.361c-.286-.123-.304-.446-.032-.588l.101-.052 1.233-.013c.832 0 1.265 0 1.332.02.148.038.25.12.29.237.025.09.025.117-.014.206a.4.4 0 0 1-.142.164l-.096.065-1.275.013-1.275.013-.121-.052zm2.333-1.327a.37.37 0 0 1-.156-.142c-.103-.164-.052-.32.138-.441.072-.046.11-.046 1.338-.059 1.358-.013 1.406 0 1.527.107.163.148.136.388-.058.512-.069.045-.118.045-1.385.052-1.21 0-1.32 0-1.405-.032zm2.625-1.214c-.147-.085-.202-.165-.197-.292 0-.084.02-.133.076-.193.132-.146.117-.144 1.522-.144h1.27l.089.052c.144.083.2.165.199.286 0 .139-.076.242-.213.298-.104.046-.17.046-1.384.046h-1.274l-.09-.052zm-37.91 14.775c.26-.297.75-.62 1.26-.83.494-.204.97-.318 2.135-.513.375-.065.708-.123.74-.135.039-.02.079-.079.14-.244.113-.302.147-.514.13-.812-.026-.447-.191-.794-.5-1.055-.273-.23-.264-.228-.68-.138-.395.086-1.052.264-1.31.355-1.57.555-2.217 1.352-2.158 2.66.013.34.09.82.128.82a.5.5 0 0 0 .115-.108zm5.248-9.143c.348-.325.585-.846.585-1.284 0-.279-.12-.626-.29-.828l-.1-.12-.335-.065a24 24 0 0 0-1.06-.168c-.484-.065-1.254-.045-1.633.033a2.8 2.8 0 0 0-.873.371c-.356.25-.67.689-.863 1.206-.098.265-.222.754-.197.775.013.013.059-.013.117-.039.46-.23 1.265-.341 1.964-.273.486.045.823.116 1.996.407.25.065.476.114.5.114.027 0 .11-.058.19-.133zm8.463-3.555a1.4 1.4 0 0 0 .963-.774l.06-.135-.125-.394c-.24-.763-.43-1.234-.679-1.686-.303-.552-.574-.875-.943-1.129-.58-.398-1.301-.481-2.193-.252-.4.102-.396.058-.033.365.76.643 1.084 1.277 1.504 2.943.245.973.232.936.345.985.299.13.746.16 1.101.077zm17.827-4.407c.59-.74 1.468-1.464 2.474-2.04 2.748-1.575 6.126-2.017 9.367-1.225.394.097.9.244 1.472.43 2.074.676 3.874 1.081 5.56 1.25.466.046 1.745.04 2.144-.012 1.737-.225 2.917-.904 3.693-2.129.433-.682.77-1.704.904-2.74.02-.13.097-.462.177-.736.403-1.373.808-2.304 1.29-2.97.523-.721 1.127-1.15 1.874-1.333.179-.045.274-.052.665-.052.388 0 .496.006.73.059.15.026.275.065.275.073 0 .032-.16.639-.171.648a1.5 1.5 0 0 1-.248-.02c-1.46-.164-2.597.752-3.035 2.444-.159.61-.176.767-.176 1.584 0 .814.02.992.178 1.69.35 1.542 1.128 2.885 2.248 3.886.822.735 1.956 1.285 3.135 1.52.34.068 1.124.159 1.124.13 0 0-.052-.058-.122-.123-.43-.405-.769-1.022-.9-1.64a4.3 4.3 0 0 1-.013-1.37c.217-1.202.948-2.474 2.096-3.652.386-.397 1.118-1.288 1.599-1.95 1.51-2.078 2.297-4.014 2.486-6.123.04-.413.04-1.441 0-1.84a14.2 14.2 0 0 0-.754-3.421c-.196-.563-.27-.73-.366-.838-.152-.167-.256-.403-.346-.784-.067-.284-.069-1.196 0-1.496.126-.565.38-1.078.725-1.463.235-.264.488-.443 1.2-.851.383-.22.702-.397.708-.392.013.005-.14.325-.323.711-.465.978-.59 1.417-.621 2.2-.053 1.36.49 2.925 1.449 4.149a6.4 6.4 0 0 0 1.719 1.535c.272.164.838.392 1.152.464.238.058.315.058.683.058.345 0 .452-.013.63-.052.805-.187 1.533-.728 2.162-1.605.201-.28.547-.865.523-.885-.007-.006-.04 0-.07.013a4.4 4.4 0 0 1-.59.152c-.287.058-1.028.058-1.35.002-1.243-.211-2.181-.882-2.462-1.762-.085-.27-.084-.782 0-1.062.264-.841.913-1.57 2.178-2.445.27-.187.602-.432.736-.545q1.073-.904 1.329-2.068c.08-.373.08-.983 0-1.398-.14-.7-.402-1.343-.882-2.154-.29-.492-.564-.876-1.263-1.779-.341-.44-.617-.804-.612-.808 0-.004.285.1.623.231.984.382 1.247.478 1.584.576 1.234.362 2.382.453 3.413.271.36-.065.556-.12.925-.271a3.5 3.5 0 0 0 1.052-.645c.488-.43.79-.879 1.028-1.532.155-.422.29-1.144.292-1.547v-.151l-.23.09c-1.038.412-2.501.273-3.496-.333-1.1-.67-1.527-1.764-1.187-3.037.02-.088.09-.291.146-.454.144-.41.236-.832.256-1.171.052-.94-.351-1.562-1.261-1.935-.662-.272-1.143-.352-2.528-.418-.477-.026-.873-.046-.878-.052a9 9 0 0 1 .61-.348c.974-.534 1.252-.726 1.643-1.137 1.14-1.2 1.622-3.025 1.554-5.882a31 31 0 0 0-.033-.842l-.013-.105-.446-.02c-.49-.02-1.362.02-1.852.07-2.228.244-3.805 1.027-4.936 2.45-.38.478-.8 1.174-.944 1.564-.033.098-.169.45-.294.78s-.247.661-.272.734c-.04.117-.052.131-.102.12-.591-.13-.714-.164-.714-.195 0-.106.303-.976.488-1.406.099-.23.113-.284.113-.455 0-.18-.007-.207-.103-.374-.213-.368-.79-.768-1.554-1.077-1.341-.542-3.203-.89-5.332-.999-.677-.032-2.131-.02-2.684.033-.978.088-1.686.225-2.26.432-.926.336-1.137.731-.691 1.295.068.085.14.176.163.202.04.046.027.059-.202.295l-.25.254c0 .003-.193-.07-.42-.162q-1.736-.706-4.232-.956c-.565-.058-1.847-.07-2.344-.02-.9.084-1.513.25-1.887.514-.373.262-.439.585-.218 1.056.175.371.415.664 1.084 1.325l.472.465-.221.02c-.122.005-.383.019-.582.019-.723.006-1.232.089-1.675.271-.522.216-.851.539-1.03 1.011-.113.3-.145.527-.13.938.027.694.263 1.382.74 2.17.197.326.57.811.834 1.089.512.538 1.49 1.22 1.688 1.177.033-.006.223-.032.416-.058 1.809-.22 3.482.039 4.723.734 1.298.727 2.132 1.856 2.353 3.188.046.287.053.846.013 1.124-.21 1.427-1.177 2.518-2.643 2.986-.6.191-1.139.258-1.921.238-.601-.02-.916-.051-1.566-.188l-.41-.086-.134-.174c-.255-.331-.654-.584-1.145-.723a2.8 2.8 0 0 0-1.139-.059q-.787.16-.948.814c-.046.197-.04.24.126.617.49 1.114 1.207 1.954 2.12 2.483 1.379.8 3.11.8 5.075 0 .56-.228.869-.375 1.392-.667l.43-.24.274.232c.15.127.275.238.275.248 0 .013-.086.12-.192.25-1.977 2.402-4.805 4.085-7.705 4.585-.68.117-.933.136-1.79.136-.702 0-.854-.006-1.194-.051-3.095-.408-5.726-2.14-7.872-5.182-.327-.463-.28-.456-.46-.07-.664 1.418-.64 2.856.076 4.59.15.36.286.577.58.919 1.443 1.678 4.126 2.733 7.555 2.971.935.065 2.226.033 3.05-.07.16-.019.295-.032.299-.025.026.026.197.644.182.656a15 15 0 0 1-.53.174c-1.927.6-3.535.92-5.17 1.028-.513.032-1.725.02-2.212-.032a12.8 12.8 0 0 1-5.98-2.192c-.194-.133-.267-.199-.3-.269-.053-.113-.053-.155-.014-.253.067-.136.207-.21.386-.204.147.005.168.02.501.238 2.455 1.648 5.229 2.304 8.293 1.963.457-.052 1.302-.18 1.595-.245l.187-.039-.134-.02c-.074-.005-.236-.025-.362-.025a19 19 0 0 1-2.532-.361c-1.498-.329-2.84-.853-3.878-1.515-.727-.464-1.399-1.064-1.82-1.627-.033-.045-.127-.078-.55-.187-3.522-.902-6.251-.675-8.176.68-.775.545-1.444 1.318-1.94 2.24-.541 1.006-.915 2.24-1.096 3.617-.106.806-.159 2.2-.114 2.993.027.433-.013 1.276-.084 1.996-.326 3.206-1.292 5.732-2.959 7.733-.69.83-1.496 1.54-2.537 2.236l-.104.07.535.071c1.435.192 2.178.255 3.194.27.856.013 1.238-.005 1.803-.085 1.227-.176 2.133-.556 2.922-1.222 1-.847 1.693-2.144 2.089-3.913.13-.58.285-.956.643-1.551a5.43 5.43 0 0 1 2.666-2.292c1.088-.447 2.213-.643 3.47-.606.432.013 1.146.07 1.174.094.02.02-.052.616-.074.647-.013.02-.147.02-.566-.002-1.069-.058-2.032.026-2.878.23a5.8 5.8 0 0 0-1.273.536 6.4 6.4 0 0 0-1.09.902c-.85.954-1.404 2.263-1.64 3.877-.101.695-.122 1.007-.122 1.86 0 1.14.075 1.938.282 3.05.075.404.067.394.19.2.059-.091.192-.273.296-.405zm28.44-26.23c-.185-.074-.576-.316-.822-.506-.652-.505-.986-1.202-.986-2.053 0-.27.126-.43.356-.457a.42.42 0 0 1 .392.142c.058.073.066.112.085.447.013.29.032.409.09.566.166.483.454.793 1.064 1.144.346.199.408.265.408.43 0 .133-.059.22-.188.281a.45.45 0 0 1-.4.006zm1.282-2.331a5.4 5.4 0 0 1-.882-.365c-.363-.2-.765-.604-.95-.952-.188-.354-.334-.879-.287-1.032.084-.282.55-.348.72-.101.027.039.073.17.105.294.122.475.319.806.627 1.05.246.195.492.312.965.461.263.083.324.115.39.208.116.161.04.39-.162.475-.133.058-.246.045-.527-.04zm3.94-.967c-.182-.098-.24-.272-.146-.436.067-.113.126-.145.539-.279.878-.284 1.667-.872 2.26-1.685.598-.817.973-1.809 1.146-3.03.052-.372.106-1.673.068-1.642-.013.006-.046.165-.084.351-.196.979-.574 1.787-1.14 2.438a5.8 5.8 0 0 1-1.085.898c-.469.28-1.112.552-1.303.552-.253 0-.44-.184-.397-.393.032-.165.078-.195.615-.414.917-.375 1.62-1.01 2.051-1.856.423-.83.609-1.777.607-3.12 0-.695-.045-1.267-.154-2.05a4 4 0 0 1-.059-.478c.013-.013.78-.148.786-.143 0 .003.052.134.113.29.46 1.192.721 2.293.838 3.52.04.449.02 1.715-.04 2.115-.166 1.132-.464 2.02-.958 2.854-.51.863-1.248 1.59-2.078 2.05-.458.253-1.148.505-1.382.504a.5.5 0 0 1-.196-.046zm-3.199-1.393c-1.187-.173-1.884-.619-2.314-1.48-.172-.347-.199-.452-.142-.578.114-.253.53-.298.7-.078.02.026.09.158.145.284.22.49.511.788.945.965.262.107.536.174.89.219.341.045.483.15.483.367 0 .122-.052.203-.198.285-.101.058-.203.064-.51.02zm.134-2.143c-.754-.052-1.285-.243-1.745-.633-.341-.29-.72-.836-.72-1.04 0-.193.137-.325.355-.34.231-.02.302.032.505.36.428.69.878.93 1.806.964.284.013.398.026.473.059.206.087.28.258.189.434-.1.194-.29.237-.863.198zm-.71-2.46a2.52 2.52 0 0 1-1.334-.646 4 4 0 0 1-.329-.34c-.116-.143-.13-.177-.13-.282q-.001-.27.328-.334c.173-.032.306.033.496.251.359.41.736.627 1.18.678.201.026.688-.005.942-.058.405-.08.652.058.624.345-.014.144-.101.236-.273.29-.32.1-1.153.152-1.503.093zm-.54-2.405a2.7 2.7 0 0 1-.794-.29 3.3 3.3 0 0 1-.806-.69c-.11-.137-.13-.178-.132-.273 0-.217.18-.361.437-.34.158.012.232.064.415.28.067.075.207.21.317.296.45.356.917.438 1.734.304.289-.046.374-.046.505.02a.35.35 0 0 1 .17.275c.013.118-.094.263-.213.309-.286.11-1.277.173-1.634.103zm-1.008-5.099c-.327-.078-.643-.365-.792-.718a1.36 1.36 0 0 1-.119-.635c0-.469.153-.802.486-1.088l.198-.17-.125-.093a2.1 2.1 0 0 0-.632-.31c-.148-.038-.242-.051-.63-.051a6 6 0 0 1-.522-.026.39.39 0 0 1-.216-.214c-.06-.152.052-.344.242-.41.214-.072.899-.064 1.273.02.207.046.552.182.758.3.261.15.61.446.857.728.483.549.923.82 1.601.987.505.125 1.209.162 1.896.103.363-.033.469-.026.583.058.158.112.201.26.117.398-.1.165-.172.189-.7.235-.947.084-1.875-.013-2.566-.268-.31-.115-.32-.115-.329-.02a1.4 1.4 0 0 1-.473.937c-.256.22-.598.309-.908.234zm-1.99 37.963a2 2 0 0 1-.046-.233c-.033-.185-.04-.184-.097.032-.033.119-.033.122.04.188q.135.12.103.013zm-37.288-1.953a11 11 0 0 0 3.074-.9c.285-.134.26-.094.423-.651.345-1.173.558-2.414.672-3.904.013-.143.02-.96.026-1.814 0-1.57.013-1.722.12-2.54.033-.261.15-.904.2-1.123.02-.087.032-.161.032-.164s-.378.354-.834.793c-1.866 1.798-2.625 2.464-3.562 3.125-1.687 1.19-3.276 1.746-4.984 1.746-1.166 0-2.344-.257-3.6-.784a8 8 0 0 0-.399-.161c-.013.013.409 1.051.566 1.387.207.443.633 1.195.892 1.576.244.357.653.868.936 1.168.282.299.926.85 1.242 1.063a7.33 7.33 0 0 0 3.27 1.203c.38.045 1.53.032 1.929-.026zm1.752-9.48a122 122 0 0 0 1.316-1.247c.44-.425 1.049-1 1.352-1.278.303-.279.559-.523.57-.544.007-.02.08-.18.157-.356.43-.99.968-1.782 1.706-2.508a6.5 6.5 0 0 1 1.394-1.03c.135-.074.246-.14.245-.147 0-.006-.218-.17-.485-.362a86 86 0 0 1-2.882-2.21c-3.926-3.16-6.304-5.932-7.522-8.766-.632-1.47-.91-2.838-.893-4.377l.013-.692.203-.226c.337-.375.544-.696.734-1.134.247-.571.297-1.308.128-1.883-.052-.179-.046-.178-.301-.111-.208.058-.73.058-.965 0a3.2 3.2 0 0 1-.767-.31c-.402-.248-.8-.677-.992-1.07l-.097-.2-.15.072c-.23.109-.407.231-.679.47q-.972.858-1.55 2.755c-.052.185-.109.344-.118.35a2.4 2.4 0 0 1-.39-.064c-.281-.058-.374-.086-.374-.112 0-.02.02-.117.052-.216.491-1.738.355-3.244-.376-4.168a3 3 0 0 0-.76-.617c-.203-.1-.345-.156-.324-.128.02.026-.127.406-.216.558-.141.238-.225.336-.475.546-.166.139-.31.235-.445.299-.8.372-1.736.32-2.591-.147-.06-.026-.06-.026-.165.157-.43.766-.481 1.68-.148 2.66.175.515.474 1.078.868 1.632.103.144.187.27.187.279 0 .02-.618.369-.649.369-.007 0-.123-.125-.25-.278-.937-1.108-1.889-1.718-2.774-1.778-.207-.013-.507.006-.506.032 0 .006.089.068.196.133l.195.116.084.235c.122.333.149.505.133.821-.013.321-.067.52-.2.785a2.3 2.3 0 0 1-.668.817c-.337.27-.684.436-1.159.556l-.24.059-.086-.059c-.045-.032-.09-.058-.096-.052-.026.026.11.522.207.774.629 1.631 2.3 2.811 4.66 3.29.229.046.423.091.433.099.026.026-.165.66-.202.66-.02 0-.25-.045-.514-.1-1.726-.359-3.125-.377-3.936-.051l-.188.075.134.059c.463.204.852.563 1.052.97.193.392.275.865.223 1.279-.033.257-.136.637-.216.795l-.046.098.102.058c.19.106.597.267.869.344.45.127.675.157 1.156.157.626 0 1.048-.085 1.632-.331.541-.228.915-.48 1.555-1.047.235-.208.435-.378.445-.378.013 0 .118.238.24.528.582 1.386 1.045 2.314 1.73 3.47 1.538 2.596 3.472 4.99 6.63 8.203.361.368 1.314 1.317 2.117 2.11l1.716 1.692.254.252.103-.083c.06-.045.335-.296.617-.558zm47.582-4.473c0-.026-.02-.118-.039-.212a6 6 0 0 1-.117-1.34c.007-.468 0-.486-.076-.16-.067.283-.067 1.025 0 1.305.059.253.145.446.195.446.02 0 .04-.02.04-.039zm-71.43-8.907c.588-.49 1.28-.773 2.383-.975.176-.032.566-.099.867-.149.3-.052.574-.1.608-.111.076-.02.21-.353.258-.634.04-.23.02-.637-.04-.83-.103-.326-.368-.655-.649-.806l-.114-.065-.354.078c-2.29.508-3.266 1.211-3.453 2.489-.033.25-.013.778.04 1.08.058.296.058.298.14.203.04-.045.18-.171.314-.283zm41.154-2.594c2.186-.254 4.46-.993 7.15-2.322.847-.419 1.173-.544 1.745-.672.517-.116.786-.144 1.39-.147a7.3 7.3 0 0 1 1.992.249c.66.167 1.562.5 2.135.789l.094.045-.083-.09c-.12-.13-.837-.716-1.122-.92-1.503-1.07-2.906-1.506-4.34-1.347-.71.08-1.19.225-2.335.71-1.087.46-1.701.684-2.502.91-1.11.314-2.03.454-2.977.454-.911 0-1.563-.112-2.263-.393-1.655-.665-2.606-2.208-2.523-4.096.078-1.776 1.02-3.371 2.41-4.076.216-.11.224-.106-.33-.144-2.349-.159-4.33.814-5.398 2.651-.915 1.571-1.018 3.569-.27 5.19a5 5 0 0 0 1.285 1.726c.506.443.936.713 1.556.976.677.288 1.347.447 2.292.547.346.032 1.645.013 2.095-.039zm-37.401-7.174c.664-.33 1.067-1.014.954-1.616-.058-.316-.052-.311-.4-.528-1.252-.784-2.108-1.119-2.859-1.118-.418 0-.74.082-1.078.276-.373.214-.78.621-1.1 1.102l-.109.164h.34c.533 0 .989.096 1.51.318.49.21.863.44 2.07 1.283.394.275.367.27.672.12zm15.68-4.413c.291-.078.33-.11.444-.371.329-.752.56-1.438.668-1.98.076-.387.082-.998.013-1.27-.172-.663-.575-1.155-1.259-1.535-.206-.116-.526-.268-.561-.268-.013 0 .013.1.04.221.164.736.039 1.555-.373 2.488-.115.257-.191.415-.645 1.327-.21.423-.209.37-.013.67.146.215.485.513.694.609q.516.235.987.109zm-9.284-1.616c.39-.068.763-.315.955-.63.059-.096.113-.201.122-.235.033-.13-.359-1.322-.632-1.91a5.5 5.5 0 0 0-.57-.932c-.332-.392-.684-.626-1.14-.759-.241-.07-.827-.088-1.152-.032a7 7 0 0 0-.716.161c0 .002.13.12.295.263.47.406.77.83 1.022 1.447.162.398.247.688.445 1.522.09.38.173.727.186.771s.033.106.04.139c.012.045.045.07.167.111.315.109.675.141.98.088zm90.11 73.89a4 4 0 0 1-.357-.12c-.007-.014.11-.31.265-.67q1.74-4.045 2.124-7.843c.06-.578.076-2.006.033-2.626-.026-.337-.026-.5-.007-.511.013-.013.227-.07.47-.138 2.305-.627 3.865-1.58 4.742-2.9 1.24-1.864 1.024-4.493-.622-7.579-.297-.555-.534-.946-.763-1.255-1.158-1.56-1.957-3.51-2.258-5.514-.321-2.13-.027-4.118.742-5.06.38-.464.89-.679 1.4-.588.35.065.638.213.983.516.362.32.654.695 1.003 1.292l.208.355.014-.095c.092-.557.089-1.711-.007-2.23-.18-.985-.578-1.74-1.183-2.252-.508-.43-1.085-.648-1.783-.673-.879-.033-1.72.27-2.475.888-.97.796-1.559 1.904-1.787 3.37-.067.43-.08 1.387-.027 1.903.093.9.27 1.685.592 2.62.067.187.33.808.588 1.381.259.573.47 1.054.47 1.07 0 .02-.026.032-.052.045-.045.013-.045.026.027.132.147.211.44.723.634 1.106a13.5 13.5 0 0 1 1.278 3.858c.07.404.066.462-.046.586-.076.083-.152.111-.302.112-.176 0-.297-.059-.36-.187a2 2 0 0 1-.094-.38c-.26-1.674-.985-3.518-1.942-4.94-.899-1.337-2.022-2.401-3.305-3.134-1.018-.58-2.038-.748-3.296-.543-1.36.222-2.549.957-3.151 1.948-.523.86-.65 1.765-.422 3.019.092.508.132 1.07.131 1.871 0 1.684-.29 2.991-.93 4.24l-.175.34.147-.136a7.1 7.1 0 0 0 1.391-1.763c.513-.897.879-1.854 1.194-3.124.224-.905.607-1.578 1.174-2.063.764-.653 1.75-.805 2.725-.42.367.144.637.309.964.587.332.282.491.464.698.796.659 1.056.61 2.222-.133 3.205a45 45 0 0 0-1.146 1.717c-.897 1.46-1.134 2.483-.837 3.614.099.375.225.667.478 1.102.466.804 1.062 1.48 2.07 2.349l.434.374-.052.646c-.233 2.884-.64 5.064-1.313 7.04-.621 1.823-1.541 3.396-2.618 4.474l-.074.074-.295-.206a4 4 0 0 1-.303-.226c0-.013.087-.118.203-.24 1.977-2.095 3.175-5.716 3.58-10.825l.04-.464-.369-.33c-.687-.614-1.178-1.135-1.574-1.667-.823-1.11-1.17-2.083-1.125-3.163.02-.49.098-.874.272-1.35l.059-.186s-.04.065-.083.147c-.354.709-.937 1.462-1.48 1.914-.235.195-1.277.969-1.29.958-.008 0 .093-.377.22-.83.265-.953.368-1.377.445-1.826a10.6 10.6 0 0 0-.097-3.873l-.046-.203-.117.34c-.628 1.822-1.47 3.123-2.64 4.08a6 6 0 0 1-.977.675c-.305.173-.825.411-.867.399-.026-.013-.483-.478-.483-.498a.8.8 0 0 1 .13-.148 6.9 6.9 0 0 0 1.614-2.761c.256-.852.343-1.463.365-2.54.02-.862-.02-1.485-.113-2.01-.185-1.02-.156-1.769.104-2.572l.066-.202-.14-.184q-1.147-1.509-1.356-2.842c-.067-.418 0-1.02.148-1.4.366-.922 1.328-1.62 2.658-1.928.856-.199 1.945-.254 2.884-.147.13.02.24.026.246.02.007-.004-1.033-1.927-2.307-4.272-2.06-3.79-2.348-4.334-2.595-4.898-1.505-3.435-2.137-7.123-1.74-10.16.375-2.883 1.67-5.26 3.775-6.932.97-.77 1.968-1.272 3.27-1.644 1.498-.429 3.319-.564 5.077-.38a14.3 14.3 0 0 1 3.107.69c2.15.76 3.591 1.977 3.91 3.301.034.124.06.273.072.331l.013.107.3-.134c1.3-.578 2.607-.623 3.837-.133 1.294.516 2.373 1.705 2.89 3.184.242.69.392 1.542.393 2.23v.165l.192.266c1.141 1.57 1.84 3.483 2.11 5.784.1.844.122 1.263.12 2.372 0 1.185-.051 2.146-.171 3.15-.04.351-.053.32.219.618 2.193 2.396 3.243 3.96 3.664 5.45.452 1.6.076 2.992-1.16 4.298-.205.218-.952.859-1.444 1.24-.213.167-.234.177-.234.125 0-.033.033-.286.07-.564.08-.565.095-1.156.04-1.492-.234-1.404-1.023-2.896-2.56-4.84-.446-.565-.876-1.084-.89-1.073 0 .004.04.134.1.289.54 1.428.772 2.455.818 3.616.032.76-.04 1.325-.295 2.382-.374 1.548-.383 2.581-.033 3.474.14.357.38.732.854 1.333.235.3.479.618.542.707.142.205.685 1.145.669 1.16-.02.019-1.254-.298-1.563-.395-3.292-1.039-5.003-3.628-5.366-8.122a41 41 0 0 1-.08-2.364c0-1.058-.108-1.77-.39-2.62-.48-1.443-1.28-2.658-2.663-4.048-.372-.374-1.507-1.332-1.811-1.53-1.294-.841-2.222-1.755-2.834-2.79a6.1 6.1 0 0 1-.788-2.2c-.068-.41-.068-1.425 0-1.893.193-1.337.7-2.74 1.504-4.161l.179-.318-.099-.17a8.7 8.7 0 0 0-1.108-1.469c-1.033-1.07-2.359-1.543-4.027-1.437a11 11 0 0 0-1.559.216c-.29.058-.416.102-.588.185-1.998.974-3.198 2.363-3.653 4.228-.442 1.816-.198 4.082.764 7.086.413 1.287.394 1.242 3.255 7.575 2.292 5.07 2.74 6.042 2.806 6.095.105.083.141.08.125-.013-.014-.09.026-.773.058-1.038.187-1.325.664-2.41 1.453-3.309.25-.284.826-.767 1.146-.96a5.4 5.4 0 0 1 1.621-.62c.297-.058.965-.069 1.298-.025 1.192.16 2.17.83 2.772 1.897.396.703.597 1.472.648 2.482.026.514-.046 1.41-.163 2.018-.095.497-.454 2.005-.472 1.98-.007-.02-.19-.412-.398-.88-.422-.946-.655-1.414-.877-1.768-.441-.706-.846-1.135-1.2-1.273-.327-.127-.604.026-.884.5-.567.952-.722 2.824-.389 4.685.318 1.776 1.047 3.49 2.08 4.89.337.457.883 1.417 1.232 2.167.53 1.136.84 2.131 1.008 3.224.069.45.082 1.447.026 1.829-.182 1.225-.617 2.16-1.413 3.039-.236.26-.862.793-1.191 1.012a12 12 0 0 1-1.126.643c-.553.27-1.405.59-1.992.75l-.238.066.02.233c.007.13.02.568.02.976 0 2.505-.628 5.436-1.83 8.54-.209.543-.683 1.632-.712 1.638a6 6 0 0 1-.363-.102zm-5.38-18.071c.396-.529.797-1.373 1.07-2.252.406-1.303.606-2.677.636-4.37.013-.836.013-.868-.032-.885-.027-.013-.19-.02-.36-.02-.251 0-.337.013-.466.052-.555.176-1.024.657-1.341 1.376l-.1.225.095.285c.553 1.68.717 3.389.485 5.07a6 6 0 0 1-.107.619c-.007.026-.007.052 0 .052.013 0 .059-.068.125-.153zm1.712-1.476c.213-.404 1.144-1.841 1.516-2.34.515-.692.594-1.48.225-2.27-.15-.322-.544-.802-.797-.971l-.104-.07-.02.515c-.059 1.729-.266 3.152-.637 4.394-.092.31-.267.823-.333.976-.045.117.027-.013.148-.234zm19.437-6.53c-.622-.797-.868-1.266-1.028-1.957-.087-.378-.111-.704-.095-1.292.02-.701.123-1.354.353-2.223.246-.932.283-1.98.105-3.016-.211-1.233-.67-2.505-1.577-4.385a10 10 0 0 1-.235-.507c0-.02.115-.094.327-.2.313-.155.338-.164.38-.129.15.132 1.401 1.532 1.988 2.227 2.073 2.454 3.202 4.478 3.37 6.043.04.38.04.379.185.224 1.409-1.512 1.477-3.184.215-5.314-.64-1.08-1.598-2.272-3.294-4.094-.458-.491-.674-.775-1.472-1.925-.403-.581-.94-1.46-1.155-1.896-.56-1.125-.813-2.219-.73-3.14.053-.595.147-.954.409-1.582.248-.596.338-.837.452-1.208.52-1.698.484-3.375-.105-4.794-.705-1.694-2.122-2.735-3.715-2.727-.562.003-.99.085-1.526.293-.374.144-.637.284-1.287.684-.48.297-.564.34-.57.3 0-.026.019-.229.058-.45.116-.68.116-.933 0-1.314-.516-1.679-3.237-3.077-6.568-3.377-2.46-.221-4.861.243-6.57 1.268-.743.446-1.512 1.108-2.14 1.839-1.846 2.153-2.628 5.142-2.271 8.686.18 1.804.645 3.696 1.363 5.556.433 1.125.436 1.13 4.075 7.829l3.452 6.354.244.13c.632.334 1.116.665 1.755 1.196.256.214.458.367.446.343-.013-.02-1.635-3.62-3.61-7.99-3.054-6.76-3.618-8.025-3.778-8.482-1.449-4.132-1.703-7.027-.815-9.268.361-.911.872-1.653 1.633-2.37.705-.665 2.026-1.47 2.656-1.618 1.7-.4 3.217-.408 4.41-.025 1.456.468 2.543 1.443 3.605 3.235l.143.242-.215.382c-1.613 2.85-2.02 5.13-1.26 7.077.507 1.302 1.492 2.404 3.031 3.395.425.273 1.397 1.102 1.995 1.701 1.89 1.894 2.887 3.819 3.124 6.033.014.15.04.88.053 1.621.026 1.527.052 1.902.188 2.835.263 1.802.798 3.222 1.62 4.296a5.9 5.9 0 0 0 1.943 1.613c.195.1.757.348.796.35 0 0-.16-.212-.362-.47zm-24.275-2.92c.205-.233.691-.644.973-.824.963-.614 2.171-.957 3.366-.956.38 0 .724.025 1.022.079.102.02.19.026.197.026.007-.006-1.457-2.729-1.483-2.754-.02-.026-.521-.094-.892-.129-.563-.052-1.429-.039-1.906.032-1.48.223-2.41.823-2.7 1.746-.06.189-.07.264-.07.591 0 .397.026.585.16.987.14.424.491 1.095.811 1.547l.116.165.123-.165c.068-.09.195-.245.283-.345zm25.223-13.686c.084-1.18.058-2.739-.06-3.822-.208-1.891-.75-3.624-1.533-4.898-.069-.113-.084-.126-.084-.076 0 .104-.155.765-.252 1.1-.121.411-.22.68-.46 1.255-.345.823-.428 1.22-.407 1.939.026.939.306 1.793.956 2.93.342.597.82 1.312 1.524 2.283l.232.32.02-.203c.013-.113.04-.485.067-.828zm-49.652 39.579c-.184-.026-.342-.251-.287-.414.04-.117.105-.172.548-.457.669-.429.808-.554 1.384-1.24.18-.216.346-.389.395-.415.192-.099.464-.026.567.139.103.17.085.211-.293.668-.58.7-.846.94-1.514 1.369-.207.133-.413.262-.458.288a.56.56 0 0 1-.342.059zm-2.325-1.205c-.106-.046-.213-.188-.214-.28 0-.083.046-.177.115-.242.032-.026.233-.167.447-.307.672-.436.813-.56 1.334-1.18.194-.23.393-.442.44-.47a.53.53 0 0 1 .434-.014c.17.094.226.3.125.463-.074.121-.685.838-.859 1.007-.08.08-.255.227-.388.33-.29.224-.957.657-1.078.7a.45.45 0 0 1-.357-.012zm-3.102-1.387q-.205-.105-.187-.307a.5.5 0 0 1 .06-.175c.026-.033.232-.175.453-.316.585-.371.912-.66 1.366-1.2.219-.262.407-.463.454-.486.258-.129.605.039.605.292 0 .107-.059.192-.46.668-.45.536-.818.856-1.434 1.248a6 6 0 0 1-.505.3.5.5 0 0 1-.354-.026zm-2.883-1.082c-.039 0-.121-.045-.177-.096-.151-.129-.17-.291-.052-.435.026-.033.252-.19.498-.35 1.058-.683 1.595-1.135 2.278-1.918.16-.184.21-.225.312-.258.21-.068.43.013.516.186.076.154.046.22-.226.54a10 10 0 0 1-1.72 1.556c-.779.537-1.217.797-1.327.787-.013 0-.059-.013-.103-.013zm-2.496-1.839a.36.36 0 0 1-.23-.168c-.06-.102-.068-.207 0-.312.045-.08.124-.13.623-.386a7 7 0 0 0 1.269-.847c.536-.453.986-.948 1.565-1.718.24-.32.318-.407.403-.446.341-.162.71.124.556.433-.052.104-.527.727-.826 1.084-.73.87-1.44 1.469-2.33 1.965-.676.379-.855.447-1.028.396zm-3.525-1.552c-.144-.083-.2-.165-.199-.286 0-.171.07-.242.334-.348 1.108-.447 1.627-.705 2.165-1.073.836-.571 1.52-1.286 2.11-2.206.24-.376.32-.444.517-.444.237 0 .406.14.406.334 0 .083-.033.155-.15.346a8 8 0 0 1-1.697 1.983c-.809.684-1.645 1.163-2.765 1.585-.472.178-.575.193-.72.11zm-2.4-1.625c-.106-.058-.19-.146-.211-.228-.027-.096.032-.239.118-.31.04-.032.273-.136.512-.227 1.79-.68 3.012-1.65 3.979-3.156.241-.377.32-.444.52-.444.235 0 .404.139.404.335 0 .08-.027.152-.137.325-1.058 1.71-2.48 2.844-4.534 3.61-.4.149-.513.166-.65.094z" style="fill:#000" transform="translate(17.235 -184)"/><path d="M303.85 421.052c-.157-.402.071-1.947.325-2.195.199-.194.278-.199.49-.026.201.164.23.375.144 1.065-.058.473-.17.98-.249 1.13-.178.334-.582.35-.709.025zm-1.602-2.204c-.314-.195-.082-2.133.279-2.322.527-.275.694.046.573 1.093-.142 1.224-.357 1.535-.851 1.229zm-1.493-2.43c-.127-.124-.107-1.181.032-1.823.079-.363.185-.461.494-.461.38 0 .39.026.34.917-.025.504-.119 1.041-.201 1.193-.153.279-.472.362-.665.174zm-1.417-2.002c-.126-.124-.107-1.18.033-1.822.078-.364.184-.462.493-.462.374 0 .39.039.357.847-.045 1.192-.16 1.54-.492 1.54-.157 0-.333-.046-.39-.103zm-1.52-2.053c-.155-.093-.18-.372-.103-1.097.118-1.115.405-1.541.813-1.21.201.163.233.37.154.987a10 10 0 0 1-.174 1.036c-.091.316-.416.45-.69.284zm-1.788-2.38c-.093-.239.13-1.83.293-2.088.132-.209.506-.19.646.033.15.236.088 1.421-.101 1.905-.162.415-.696.511-.838.15zm-1.473-3.05c.122-1.273.233-1.526.643-1.469.3.04.33.134.299.894-.052 1.313-.145 1.54-.62 1.54-.412 0-.413 0-.322-.965m-1.673-1.14c-.126-.124-.106-1.18.033-1.822.078-.363.184-.462.493-.462.383 0 .392.026.339 1.001-.033.55-.127 1.088-.216 1.193-.177.21-.483.253-.649.09zm-2.122-2.186c-.156-.097-.18-.367-.097-1.086.117-1.013.386-1.446.801-1.29.208.077.236.26.162 1.034-.136 1.423-.307 1.689-.866 1.342zm-1.893-1.696c-.325-.202-.082-2.134.292-2.33.48-.251.68.181.552 1.194-.144 1.14-.363 1.434-.844 1.136zm-36.977-25.834c-.411-.162-.174-.658.572-1.194 1.476-1.06 2.066-.43.634.676-.818.633-.864.653-1.205.518zm-1.036-1.695c-.274-.268-.033-.69.68-1.204 1.4-1.005 1.985-.37.627.68-.79.612-1.094.733-1.307.524zm-1.897-1.676c-.104-.265.415-.801 1.282-1.325.469-.283.565-.296.765-.1.314.306.164.577-.65 1.164-.754.544-1.25.636-1.397.26zm-1.409-1.403c-.276-.27-.032-.688.695-1.2.864-.607 1.298-.653 1.373-.144.032.238-.167.465-.789.884-.836.563-1.082.652-1.279.46zm-1.465-1.824c-.118-.301.122-.573 1.01-1.148.848-.55.918-.561 1.135-.165.142.262.052.388-.638.924-.841.65-1.352.782-1.507.388zm-1.574-1.54c-.119-.3.122-.573 1.01-1.148.848-.55.918-.56 1.134-.164.143.261.053.387-.638.923-.84.65-1.352.782-1.506.388z" style="fill:#000" transform="translate(17.235 -184)"/><path d="M282.143 513.467a31 31 0 0 1 2.204 0c.58.026.066.059-1.149.059-1.212 0-1.687-.026-1.055-.059m-3.47-.153a5.4 5.4 0 0 1 1.023 0c.281.032.052.065-.512.065-.562 0-.793-.026-.511-.065zm-2.125-.156c.238-.032.627-.032.866 0 .238.033.039.065-.433.065-.477 0-.672-.026-.434-.065zm-1.419-.152c.15-.039.434-.039.63 0s.073.07-.273.07-.506-.025-.357-.067zm-1.339-.152c.107-.045.319-.045.473-.013.154.039.067.075-.194.078-.26 0-.385-.026-.278-.072zm-1.259-.157c.107-.045.319-.045.472-.013.153.04.067.075-.193.078-.26 0-.385-.026-.278-.072zm7.52-13.147c-7.577-.594-11.825-1.36-21.43-3.869-8.886-2.321-16.168-3.434-24.814-3.794l-2.483-.103-1.457-1.583c-2.93-3.183-5.079-5.915-7.35-9.347l-1.594-2.408.521-.105c2.303-.46 9.816-.71 13.902-.462 7.052.43 12.319 1.313 20.542 3.45 11.648 3.026 18.117 4.012 27.467 4.188 9.948.187 18.01-.802 28.57-3.505 8.852-2.266 13.349-3.183 18.26-3.723 2.85-.313 6.865-.548 9.365-.548 2.02 0 7.176.273 7.289.385.1.099-1.887 3.15-3.444 5.29-1.742 2.393-4.137 5.288-5.925 7.163l-1.274 1.336-3.124.191c-6.877.42-13.253 1.52-21.97 3.785-8.4 2.183-12.652 2.973-19.01 3.532-2.307.202-10.04.284-12.042.128zm.078-27.86c-.303-.026-1.437-.128-2.519-.222-5.017-.434-10.41-1.44-17.184-3.201-7.071-1.839-10.444-2.549-15.557-3.274-9.53-1.351-19.805-1.301-28.725.14-.778.126-1.46.179-1.515.117-.156-.173-1.484-4.296-2.002-6.216-.843-3.12-1.713-7.375-1.542-7.545.108-.107.961-.286 3.883-.814 11.404-2.063 22.076-1.887 33.758.556 1.771.37 3.094.696 10 2.462 9.596 2.453 18.557 3.532 27.7 3.336 8.686-.187 15.568-1.171 25.027-3.579 10.883-2.77 14.896-3.498 22.352-4.058 2.995-.224 9.998-.095 13.223.246 3.164.334 6.978.91 9.382 1.416l.33.07-.278 1.608c-.554 3.197-1.28 6.102-2.47 9.88l-.732 2.325-.952-.11c-6.668-.771-11.407-.98-16.64-.734-9.172.431-14.348 1.297-26.733 4.469-6.932 1.776-11.918 2.629-17.945 3.072-1.926.141-9.516.18-10.86.058zm-.236-28.487c-7.425-.582-12.02-1.369-19.991-3.425-5.394-1.39-7.747-1.94-10.625-2.481-12.56-2.36-24.377-2.414-36.858-.17a85 85 0 0 1-2.243.385c-.052 0-.095-3.409-.095-7.575v-7.576l1.159-.256c6.563-1.452 11.691-2.088 17.967-2.228 8.526-.192 15.675.695 25.106 3.112 14.45 3.702 20.517 4.593 31.167 4.575 9.358-.02 16.376-.941 26.288-3.466 6.584-1.678 9.377-2.328 12.199-2.84 8.827-1.6 17.23-1.857 25.894-.79 2.627.323 7.435 1.144 7.717 1.317.096.058.152 2.96.152 7.754 0 6.155-.039 7.66-.203 7.66-.112 0-1.263-.175-2.558-.387a98.5 98.5 0 0 0-26.438-.777c-5.48.585-10.814 1.602-17.63 3.362-9.268 2.393-14.122 3.262-20.936 3.749-1.993.142-8.512.179-10.074.058z" style="fill:#193783;fill-opacity:1" transform="translate(17.235 -184)"/><path d="M278.844 512.469c-22.897-1.32-43.784-13.15-56.513-32.009-7.318-10.842-11.46-23-12.35-36.261-.097-1.448-.157-23.03-.158-57.856v-55.546h147.649v55.546c0 34.826-.059 56.408-.157 57.856-1.584 23.549-13.795 44.24-33.604 56.938-12.987 8.325-28.601 12.268-44.862 11.332z" style="fill:none;stroke:#000;stroke-width:1.26102674;stroke-miterlimit:4;stroke-opacity:1;stroke-dasharray:none" transform="translate(17.235 -184)"/><path d="M213.057 318.622c-.231-.033-.662-.293-.956-.573-.984-.935-.592-2.191.812-2.604l.717-.21.125-.908c.068-.5.087-1.566.039-2.37-.127-2.218-.548-3.536-1.66-5.198-.478-.715-.734-.962-.996-.962-.601 0-1.267-.453-1.503-1.023-.38-.916.059-1.69 1.045-1.85l.592-.095-1.203-1.25c-1.968-2.043-3.06-3.915-3.932-6.745-.449-1.457-.348-1.37-1.834-1.59-1.094-.164-2.725-.555-3.974-.953-3.966-1.266-6.394-2.968-8.919-6.256-2.537-3.303-4-4.136-7.323-4.168-.862-.006-1.567-.04-1.567-.07 0-.025.149-.271.332-.538 1.602-2.34 3.722-3.921 6.241-4.652 1.195-.347 4.307-.396 5.733-.092 1.572.336 3.899 1.102 5.485 1.805l1.522.675.235-.343c.64-.935 1.827-2.003 2.71-2.442.81-.402 1.136-.476 2.077-.474 1.86.004 3.257.664 6.009 2.84 1.861 1.473 2.984 2.035 4.955 2.48l1.508.34-.939.523c-.516.287-1.32.913-1.785 1.39-1.126 1.157-1.369 1.915-1.373 4.295 0 1.412-.06 1.923-.286 2.408-.545 1.19-1.298 1.617-2.855 1.617-.541 0-.984.066-.984.148s.306.328.68.548c.537.317.881.402 1.643.402h.964l.013 1.298c.013 1.17.07 1.411.576 2.444.666 1.356 1.557 2.223 3.002 2.92.848.409 1.16.477 2.14.47 1.941-.02 3.128-.852 3.859-2.716.279-.714.323-1.173.344-3.626.013-1.545.052-2.838.089-2.874.168-.168 2.22 1.823 2.6 2.524 2.268 4.178 6.125 6.636 9.445 6.02 1.59-.295 2.545-.942 3.136-2.122.817-1.632-.452-4.12-3.056-5.993-.538-.386-.977-.729-.977-.761s.215-.172.48-.31c1.286-.67 1.61-1.868.729-2.697-.714-.671-1.578-.86-2.432-.532l-1.3.497c-.417.158-.954.211-1.69.166-1.462-.092-2.715-.761-3.79-2.027-2.033-2.39-3.346-3.393-5.258-4.014-.753-.245-.803-.293-.803-.767 0-2.451 1.411-4.972 3.245-5.797 1.184-.532 3.39-.51 5.067.052l1.204.403-.868-.779c-1.261-1.133-1.766-2.096-1.768-3.375 0-1.317.494-2.312 2.12-4.253 1.575-1.882 2.036-2.839 2.13-4.415l.071-1.217.269.711c.147.391.51 1.043.805 1.448.952 1.304 1.955 1.866 4.337 2.432 4.605 1.093 5.955 2.863 4.871 6.389-.086.28.026.193.418-.315 1.435-1.872 4.026-2.905 6.243-2.49 1.914.359 3.343 1.37 5.022 3.554.497.647 1.243 1.437 1.658 1.755.77.591 2.208 1.183 2.92 1.203.298.006.208.076-.368.277-2.127.744-3.212 1.713-4.162 3.72-.34.717-.874 1.848-1.186 2.513-.76 1.612-2.083 2.988-3.366 3.496-.778.31-1.194.365-2.751.37-1.01.005-2.13-.045-2.49-.11l-.655-.119.25.489c.505.981 1.547 1.906 2.928 2.595.738.37 1.37.692 1.403.718s-.155.454-.417.95c-1.287 2.433-.85 4.615 1.342 6.696 2.283 2.168 5.702 2.997 8.074 1.959 1.041-.457 2.2-1.718 2.623-2.858.437-1.178.676-2.89.568-4.067-.077-.834-.013-1.253.384-2.618.262-.894.494-1.648.515-1.674.02-.026.574.61 1.224 1.416.801.99 1.323 1.813 1.614 2.542 1.205 3.02 3.576 5.382 6.33 6.303a8.8 8.8 0 0 0 4.026.35c4.925-.77 6.364-5.194 3.2-9.843-.249-.365-.43-.682-.4-.703.026-.026.342-.122.696-.225.852-.246 1.858-1.04 2.224-1.754.353-.69.556-2.427.283-2.427-.1 0-.504.163-.9.362-3.81 1.914-7.362 2.248-9.942.935-1.768-.9-2.783-2.075-4.208-4.873-.548-1.077-1.19-2.204-1.428-2.503-.564-.714-1.58-1.44-2.6-1.857l-.82-.336.96-.265c1.513-.416 3.628-1.512 4.373-2.266.364-.369.904-1.085 1.2-1.594.82-1.407 1.462-2.12 2.363-2.622.77-.43.916-.456 2.425-.442 1.34.013 1.795.085 2.752.435 1.857.68 1.721.68 1.577-.006-.068-.329-.121-1.153-.117-1.83.02-2.315 1.052-3.859 3.666-5.467 1.033-.636 2.102-1.971 2.756-3.446.246-.556.483-1.011.525-1.011.04 0 .278.455.525 1.011.654 1.475 1.722 2.81 2.756 3.446 2.613 1.608 3.649 3.152 3.665 5.467 0 .677-.045 1.501-.116 1.83-.144.686-.28.685 1.578.006.956-.35 1.412-.422 2.751-.435 1.509-.02 1.654.013 2.425.442.901.502 1.542 1.215 2.363 2.622.296.508.836 1.226 1.2 1.594.745.754 2.86 1.85 4.373 2.266l.96.265-.82.336c-1.02.417-2.036 1.143-2.6 1.857-.237.3-.88 1.426-1.428 2.503-1.425 2.798-2.44 3.973-4.207 4.873-2.58 1.313-6.132.979-9.942-.935-.397-.2-.802-.362-.9-.362-.273 0-.07 1.738.282 2.427.367.714 1.373 1.508 2.224 1.754.353.103.667.203.696.225.027.02-.15.338-.4.703-3.144 4.621-1.735 9.045 3.134 9.835 4.286.695 8.589-2.048 10.422-6.645.292-.73.813-1.552 1.614-2.542.651-.806 1.202-1.443 1.224-1.416.02.026.255.78.516 1.674.4 1.365.461 1.784.384 2.617-.109 1.179.13 2.89.568 4.068.423 1.14 1.581 2.401 2.622 2.857 2.372 1.04 5.791.21 8.074-1.958 2.192-2.08 2.63-4.264 1.343-6.695-.264-.497-.45-.925-.417-.951.032-.026.665-.35 1.403-.718 1.38-.69 2.423-1.614 2.927-2.596l.25-.488-.655.118c-.36.065-1.48.115-2.49.112-1.556-.006-1.972-.059-2.75-.37-1.283-.51-2.607-1.885-3.366-3.498l-1.187-2.513c-.95-2.006-2.034-2.976-4.161-3.719-.607-.211-.679-.269-.35-.277.67-.02 2.129-.625 2.894-1.205.39-.296 1.113-1.058 1.606-1.692 1.736-2.238 3.168-3.257 5.082-3.615 2.217-.416 4.808.617 6.242 2.49.39.509.505.595.418.315-1.083-3.525.267-5.296 4.872-6.389 2.382-.565 3.385-1.128 4.337-2.431.295-.405.657-1.057.805-1.448l.268-.712.072 1.217c.093 1.577.555 2.533 2.13 4.415 1.626 1.941 2.121 2.936 2.12 4.254 0 1.288-.511 2.25-1.787 3.38l-.887.785 1.223-.41c.982-.327 1.523-.41 2.751-.417 1.349-.006 1.628.039 2.37.397.462.224 1.032.592 1.266.819 1.025.994 1.725 2.625 1.89 4.403l.094 1.03-.823.268c-1.934.628-3.24 1.623-5.278 4.02a6.4 6.4 0 0 1-1.757 1.456c-.904.494-1.068.531-2.348.53-1.202-.003-1.476-.06-2.173-.424-.887-.47-1.078-.495-1.942-.253-1.833.513-1.983 2.388-.263 3.285.264.137.48.276.48.31 0 .032-.44.375-.977.761-2.662 1.914-3.88 4.367-3.011 6.068.58 1.135 1.513 1.754 3.088 2.046 3.323.617 7.18-1.84 9.448-6.02.38-.7 2.432-2.692 2.6-2.524.033.033.076 1.33.089 2.874.02 2.454.067 2.913.344 3.627.73 1.864 1.917 2.699 3.859 2.715.98.006 1.291-.059 2.14-.47 1.445-.696 2.336-1.563 3.001-2.92.507-1.032.564-1.274.577-2.443l.013-1.298H354c.762 0 1.106-.084 1.643-.402.374-.22.68-.468.68-.548 0-.082-.443-.148-.984-.148-1.557 0-2.31-.426-2.855-1.617-.223-.485-.283-.996-.285-2.407 0-2.399-.249-3.163-1.374-4.3-.465-.472-1.277-1.1-1.802-1.398l-.957-.541.987-.184c1.37-.254 3.054-.85 3.808-1.346.349-.23 1.218-.88 1.933-1.445 2.497-1.975 3.97-2.651 5.779-2.655.942-.002 1.266.072 2.077.474.884.438 2.07 1.507 2.71 2.442l.235.343 1.522-.675c1.586-.703 3.913-1.469 5.486-1.805 1.425-.304 4.537-.254 5.732.093 2.548.739 4.428 2.145 6.294 4.708l.395.543-1.625.013c-3.37.026-4.828.842-7.372 4.155-1.944 2.53-3.514 3.865-6.01 5.11-1.788.891-4.657 1.769-6.892 2.107-1.49.226-1.385.135-1.834 1.593-.872 2.83-1.964 4.702-3.932 6.746l-1.203 1.25.592.095c.988.159 1.425.933 1.045 1.85-.236.569-.902 1.022-1.503 1.022-.607 0-1.854 2.075-2.361 3.926-.276 1.009-.411 3.458-.253 4.604l.125.908.716.211c.865.254 1.347.811 1.347 1.557 0 .7-.789 1.488-1.63 1.629-.635.105-140.491.096-141.184-.013z" style="fill:#fff500;fill-opacity:1;stroke:#000;stroke-width:.93590248;stroke-miterlimit:4;stroke-opacity:1;stroke-dasharray:none" transform="translate(17.235 -184)"/><path d="M213.504 315.246h140.264" style="fill:none;stroke:#000;stroke-width:.90521711;stroke-linecap:butt;stroke-linejoin:miter;stroke-miterlimit:4;stroke-opacity:1;stroke-dasharray:none" transform="translate(17.235 -184)"/><path d="M211.332 305.775H356.5M211.156 302.85h145.087" style="fill:none;stroke:#000;stroke-width:.93590248;stroke-linecap:butt;stroke-linejoin:miter;stroke-miterlimit:4;stroke-opacity:1;stroke-dasharray:none" transform="translate(17.235 -184)"/><path d="M6080-1849.638c0 12.427-10.074 22.5-22.5 22.5s-22.5-10.073-22.5-22.5 10.074-22.5 22.5-22.5 22.5 10.074 22.5 22.5z" style="fill:red;fill-opacity:1;fill-rule:evenodd;stroke:#000;stroke-width:6.0999999;stroke-linecap:round;stroke-miterlimit:4;stroke-opacity:1;stroke-dasharray:none;stroke-dashoffset:0" transform="matrix(.15287 0 0 .15399 -670.908 379.846)"/><path d="M6080-1849.638c0 12.427-10.074 22.5-22.5 22.5s-22.5-10.073-22.5-22.5 10.074-22.5 22.5-22.5 22.5 10.074 22.5 22.5z" style="fill:red;fill-opacity:1;fill-rule:evenodd;stroke:#000;stroke-width:6.0999999;stroke-linecap:round;stroke-miterlimit:4;stroke-opacity:1;stroke-dasharray:none;stroke-dashoffset:0" transform="matrix(.15287 0 0 .15399 -625.354 376.997)"/><path d="M6080-1849.638c0 12.427-10.074 22.5-22.5 22.5s-22.5-10.073-22.5-22.5 10.074-22.5 22.5-22.5 22.5 10.074 22.5 22.5z" style="fill:red;fill-opacity:1;fill-rule:evenodd;stroke:#000;stroke-width:6.0999999;stroke-linecap:round;stroke-miterlimit:4;stroke-opacity:1;stroke-dasharray:none;stroke-dashoffset:0" transform="matrix(.15287 0 0 .15399 -580.23 381.158)"/><path d="M196.068 290.415c1.918 1.324 4.052 2.173 6.459 2.425 1.05-4.85-5.112-5.867-6.459-2.425zM371.963 290.042c-1.918 1.324-4.052 2.174-6.459 2.426-1.05-4.85 5.112-5.868 6.459-2.426z" style="fill:red;stroke:#000;stroke-width:.93590248;stroke-linecap:butt;stroke-linejoin:miter;stroke-miterlimit:4;stroke-opacity:1;stroke-dasharray:none" transform="translate(17.235 -184)"/><path d="M5975-1645.388c0 10.632-9.402 19.25-21 19.25s-21-8.618-21-19.25 9.402-19.25 21-19.25 21 8.619 21 19.25z" style="fill:#193783;fill-opacity:1;fill-rule:evenodd;stroke:#000;stroke-width:6.0999999;stroke-linecap:round;stroke-miterlimit:4;stroke-opacity:1;stroke-dasharray:none;stroke-dashoffset:0" transform="matrix(.15287 0 0 .15399 -670.908 379.846)"/><path d="M5975-1645.388c0 10.632-9.402 19.25-21 19.25s-21-8.618-21-19.25 9.402-19.25 21-19.25 21 8.619 21 19.25z" style="fill:#193783;fill-opacity:1;fill-rule:evenodd;stroke:#000;stroke-width:6.0999999;stroke-linecap:round;stroke-miterlimit:4;stroke-opacity:1;stroke-dasharray:none;stroke-dashoffset:0" transform="matrix(.15287 0 0 .15399 -629.634 379.653)"/><path d="M5975-1645.388c0 10.632-9.402 19.25-21 19.25s-21-8.618-21-19.25 9.402-19.25 21-19.25 21 8.619 21 19.25z" style="fill:#193783;fill-opacity:1;fill-rule:evenodd;stroke:#000;stroke-width:6.0999999;stroke-linecap:round;stroke-miterlimit:4;stroke-opacity:1;stroke-dasharray:none;stroke-dashoffset:0" transform="matrix(.15287 0 0 .15399 -588.999 379.758)"/><path d="M5975-1645.388c0 10.632-9.402 19.25-21 19.25s-21-8.618-21-19.25 9.402-19.25 21-19.25 21 8.619 21 19.25z" style="fill:#193783;fill-opacity:1;fill-rule:evenodd;stroke:#000;stroke-width:6.0999999;stroke-linecap:round;stroke-miterlimit:4;stroke-opacity:1;stroke-dasharray:none;stroke-dashoffset:0" transform="matrix(.15287 0 0 .15399 -547.275 379.758)"/><path d="m243.342 314.277-9.135-3.382h.243l8.892-3.995 7.834 3.995zM284.58 314.4l-9.135-3.382h.243l8.892-3.996 7.834 3.996zM323.547 314.345l-9.135-3.381h.243l8.892-3.996 7.834 3.996z" style="fill:red;stroke:#000;stroke-width:.93590248;stroke-linecap:butt;stroke-linejoin:miter;stroke-miterlimit:4;stroke-opacity:1;stroke-dasharray:none" transform="translate(17.235 -184)"/><path d="M5994.144-1775.358c0 13.669-11.555 24.749-25.809 24.749s-25.81-11.08-25.81-24.749 11.556-24.749 25.81-24.749 25.81 11.08 25.81 24.75z" style="fill:#fff;fill-opacity:1;fill-rule:evenodd;stroke:#000;stroke-width:6.0999999;stroke-linecap:round;stroke-miterlimit:4;stroke-opacity:1;stroke-dasharray:none;stroke-dashoffset:0" transform="matrix(.15287 0 0 .15399 -670.908 379.846)"/><path d="M5994.144-1775.358c0 13.669-11.555 24.749-25.809 24.749s-25.81-11.08-25.81-24.749 11.556-24.749 25.81-24.749 25.81 11.08 25.81 24.75z" style="fill:#fff;fill-opacity:1;fill-rule:evenodd;stroke:#000;stroke-width:6.0999999;stroke-linecap:round;stroke-miterlimit:4;stroke-opacity:1;stroke-dasharray:none;stroke-dashoffset:0" transform="matrix(.15287 0 0 .15399 -633.13 378.43)"/><path d="M5994.144-1775.358c0 13.669-11.555 24.749-25.809 24.749s-25.81-11.08-25.81-24.749 11.556-24.749 25.81-24.749 25.81 11.08 25.81 24.75z" style="fill:#fff;fill-opacity:1;fill-rule:evenodd;stroke:#000;stroke-width:6.0999999;stroke-linecap:round;stroke-miterlimit:4;stroke-opacity:1;stroke-dasharray:none;stroke-dashoffset:0" transform="matrix(.15287 0 0 .15399 -589.1 377.185)"/><path d="M5994.144-1775.358c0 13.669-11.555 24.749-25.809 24.749s-25.81-11.08-25.81-24.749 11.556-24.749 25.81-24.749 25.81 11.08 25.81 24.75z" style="fill:#fff;fill-opacity:1;fill-rule:evenodd;stroke:#000;stroke-width:6.0999999;stroke-linecap:round;stroke-miterlimit:4;stroke-opacity:1;stroke-dasharray:none;stroke-dashoffset:0" transform="matrix(.15287 0 0 .15399 -551.724 379.495)"/></svg>