<svg xmlns="http://www.w3.org/2000/svg" width="600" height="400"><path fill="#f6c50a" d="M0 0h600v400H0z" style="fill:#fcdd09;fill-opacity:1"/><path fill="#2d558e" d="M0 0h600v240H0z" style="fill:#0f47af;fill-opacity:1"/><path fill="#fdfdfc" d="M0 0h600v160H0z"/><path d="M84.099 377.55c-2.106-.326-3.533-1.068-4.871-2.537-1.326-1.454-2.313-3.618-2.894-6.348-.172-.809-.145-.98.27-1.698 1.18-2.038 4.493-2.69 6.744-1.328.406.246 1.212 1.099 1.29 1.364.027.096-.04.477-.154.873-.732 2.52-.626 5.387.276 7.5.314.736.84 1.601 1.185 1.953.11.113.202.237.202.275 0 .103-1.244.07-2.048-.055m122.353-3.209c-1.33-.656-2.235-1.326-3.058-2.264-1.178-1.343-1.847-2.833-2.16-4.812-.26-1.646-.095-5.045.277-5.716.254-.457 1.089-1.02 1.811-1.22.56-.156 1.755-.12 2.446.074.69.194 1.46.564 1.966.945.92.693 1.702 1.896 1.79 2.754.035.34.013.395-.33.812-1.016 1.237-1.933 3.313-2.236 5.063-.237 1.365-.12 3.242.27 4.324.106.294.121.41.053.407-.052-.003-.426-.167-.83-.367m-98.71-3.12c.616-2.702-.495-6.153-2.793-8.674l-.79-.867.074-.529c.276-1.954 2.118-3.77 4.317-4.257 1.12-.247 2.157-.044 2.991.585.402.304.493.52.84 2.012.339 1.46.445 2.517.398 3.966-.033 1.046-.083 1.475-.242 2.116-.594 2.382-1.927 4.204-4.147 5.666-.356.235-.67.427-.698.427s-.005-.2.05-.444m121.04-.002c0-.023.103-.285.23-.58.44-1.03.568-1.75.57-3.205.003-1.092-.027-1.446-.177-2.115-.343-1.534-.831-2.759-1.578-3.96l-.419-.674.13-.42c.413-1.335 1.606-2.436 3.253-3 .487-.166.745-.197 1.622-.197.892 0 1.119.028 1.565.197.632.239 1.367.814 1.659 1.296l.215.356-.004 1.826c-.004 2.028-.1 2.818-.513 4.231-.4 1.37-.914 2.34-1.786 3.364-.952 1.12-2.407 2.09-3.913 2.612-.358.123-.696.244-.752.268-.056.023-.102.024-.102 0zm-168.916-2.482c-.908-1.349-1.41-2.43-1.696-3.653-.735-3.131.131-6.31 2.647-9.718.405-.548.584-.65 1.338-.756.996-.14 2.29.434 3.284 1.458.93.958 1.546 2.108 1.786 3.335.107.548.05 1.619-.107 2.033-.099.257-.179.324-.53.446-.709.245-2.09 1.046-2.774 1.61-1.885 1.551-2.995 3.36-3.35 5.457l-.092.541zm14.993-.868c-.529-.465-1.204-1.33-1.518-1.945-.253-.495-.765-1.947-.703-1.993.014-.011.3-.188.635-.395.65-.4 1.55-1.295 1.952-1.94.31-.499.751-1.447.945-2.032.138-.414.395-1.427.395-1.553 0-.027-.14-.09-.314-.14a6 6 0 0 1-.413-.135c-.069-.029-.18.207-.35.74-.7 2.198-1.8 3.736-3.19 4.462-.78.409-1.245.52-2.169.518-.792-.001-1.407-.135-2.18-.474-.42-.184-.493-.243-.386-.308.073-.045.211-.277.308-.517.632-1.57.4-3.58-.615-5.343-.16-.28-.646-.89-1.077-1.358-.669-.726-.892-.909-1.516-1.246-1.165-.63-2.026-.78-3.087-.535-.277.064-.528.1-.56.08-.03-.022-.16-.408-.288-.86-.699-2.47-.415-4.441.913-6.358.49-.707 1.666-1.873 2.136-2.118.792-.412 2.424-.542 3.719-.295 1.55.295 3.462 1.219 4.755 2.296.59.491.807.577 1.041.409.325-.234.248-.575-.223-.984-1.366-1.19-3.427-2.252-5.158-2.66-.885-.208-2.302-.252-3.117-.096l-.683.13-.399-.279c-.475-.332-.984-.918-1.198-1.376s-.34-1.305-.277-1.852c.028-.252.076-.458.105-.458.03 0 .156.155.281.345l.227.344.696-.038c1.129-.06 2.015-.495 2.956-1.45 2.176-2.208 2.81-5.987 1.374-8.178-.15-.229-.274-.446-.274-.483 0-.123.832-.62 1.404-.84.746-.285 1.748-.349 2.49-.158 1.21.312 2.249 1.238 2.82 2.515.414.927.549 1.522.6 2.654.052 1.13-.08 2.11-.477 3.541-.152.551-.266 1.029-.254 1.06.013.033 6.456-.292 14.318-.721 7.862-.43 14.456-.783 14.654-.786l.36-.006.127-.656c.959-4.939 2.639-9.28 5.329-13.772 2.08-3.474 4.425-6.626 7.794-10.478l1.298-1.483-.766-1.678c-1.104-2.42-2.348-5.282-2.678-6.164-.75-2.004-1.324-4.197-1.562-5.963-.188-1.392-.186-4.17.003-5.63.231-1.786.86-4.247 1.578-6.182l.158-.428-.386-.238c-.212-.13-.412-.205-.444-.165s-.364.568-.738 1.173c-1.006 1.63-1.469 2.283-2.241 3.162-1.45 1.65-2.908 2.56-4.83 3.013-.368.086-1.286.165-2.514.215-3.408.138-4.713.513-6.29 1.81-.145.12-.277.204-.292.187-.048-.052.203-1.65.407-2.59.81-3.738 1.875-6.348 5.007-12.27.701-1.326 1.269-2.418 1.261-2.426-.007-.008-.43.096-.939.232-.58.155-1.127.247-1.468.246a4.1 4.1 0 0 1-3.475-1.931c-.652-1.047-.88-1.938-.942-3.696-.037-1.034-.015-1.505.118-2.54.09-.7.164-1.473.164-1.718 0-.72-.217-1.691-.576-2.575-.184-.453-.295-.798-.246-.766s.4.31.783.616c2.03 1.628 3.959 2.653 5.836 3.101.977.233 2.963.216 3.874-.032 2.913-.796 5.388-3.037 7.858-7.113 2.554-4.216 6.007-8.18 9.9-11.367 7.496-6.133 16.484-9.28 25.113-8.793 5.758.325 11.177 1.976 16.635 5.067l1.144.648-.041.303c-.236 1.723-.309 5.692-.133 7.271.196 1.765.548 3.416.992 4.654.544 1.517 1.635 3.463 2.48 4.422l.278.316-.246 1.08c-.303 1.326-.556 2.677-.556 2.96 0 .253.062.27-1.237-.31-5.608-2.505-11.65-2.792-16.685-.793-3.73 1.48-6.722 4.177-8.164 7.36-.198.438-.347.808-.331.823.016.016.182.147.368.293l.339.265.463-.444c1.69-1.615 3.23-2.733 5.273-3.824 1.588-.849 4.526-2.07 4.582-1.906.013.037-.148.443-.357.9a41 41 0 0 0-2 5.488c-.827 2.928-1.411 6.867-1.414 9.52-.003 3.402-.642 6.437-1.817 8.632-1.179 2.202-2.954 3.798-5.678 5.105-.573.275-1.07.528-1.105.562s.836.606 1.932 1.271c4.892 2.967 6.742 4.594 7.75 6.813 1.03 2.267.785 4.512-.846 7.735a16.2 16.2 0 0 0-1.778 7.413c0 1.283.117 2.269.493 4.163.592 2.977.773 4.59.77 6.881-.002 2.87-.405 5.09-1.324 7.299-.248.597-.406.813-.406.558 0-.18-.784-1.8-1.14-2.356-1.218-1.9-2.808-3.712-5.311-6.052-2.017-1.885-2.974-2.893-3.76-3.962-.967-1.315-1.485-2.336-1.735-3.42l-.142-.614h-.887l-.088.358c-.461 1.877-.495 3.792-.098 5.523.657 2.86 2.141 5.466 5.714 10.03 1.557 1.99 1.89 2.45 2.595 3.595 1.511 2.453 2.45 4.903 2.762 7.218.085.625.127 3.043.054 3.122-.022.024-.134-.16-.249-.409-1.11-2.4-3.264-4.996-5.79-6.98-1.783-1.4-4.53-3.061-7.214-4.361-1.672-.81-4.485-2.396-5.465-3.083-1.05-.735-1.185-.85-1.982-1.707-.907-.974-1.47-1.934-2.034-3.468-.124-.337-.247-.614-.274-.614-.096 0-.83 1.493-1 2.031-.224.718-.244 1.99-.043 2.793.205.818.673 1.853 1.255 2.776.675 1.07 1.107 1.615 2.695 3.401.724.815 1.55 1.824 1.836 2.243.585.857 1.224 2.2 1.41 2.962.141.583.25 2.245.146 2.237-.038-.003-.226-.273-.417-.602-.94-1.614-2.358-2.551-5.68-3.753-.934-.338-1.935-.732-2.223-.875a7.7 7.7 0 0 1-2.208-1.673c-.313-.343-.585-.623-.605-.623-.019 0-.189.116-.377.257l-.342.258.238.44c.936 1.732 1.843 4.216 2.157 5.903.22 1.177.228 1.153-.27.804-1.451-1.016-3.678-1.912-5.989-2.41-.82-.176-3.88-.691-3.911-.658-.009.01.39.414.885.899 1.3 1.27 1.72 1.907 1.98 3.008.285 1.208-.023 2.806-.788 4.085l-.113.188-.36-.323c-1.358-1.22-3.213-1.437-5.171-.605-2.03.863-3.539 2.693-3.886 4.715-.087.507-.042 1.464.07 1.464.028 0 .156.098.284.216l.231.216-1.043-.039c-1.19-.043-1.69-.167-2.603-.643-1.782-.93-2.898-2.53-3.582-5.139l-.248-.946-.55-.046c-.303-.026-.836-.06-1.184-.077-.724-.034-.662-.109-.762.915-.307 3.15-2.126 6.443-4.863 8.8-1.034.89-2.7 2.008-3.455 2.32-.2.083-.206.078-.137-.123a6 6 0 0 1 .192-.46c.114-.241.108-.278-.124-.783-.336-.733-1.18-1.62-1.929-2.027-1.014-.553-1.641-.699-2.97-.692-1.029.006-1.236.03-1.85.235-1.04.344-1.69.753-2.363 1.488-.631.69-.981 1.342-1.116 2.083l-.08.44zm135.583-2.618-.221-.06.171-.168c.154-.152.167-.223.123-.69-.17-1.828-1.37-3.473-3.227-4.427-1.726-.886-3.73-.963-5.12-.198-.99.545-1.57 1.212-1.71 1.965-.103.557-.117.559-.913.122-.97-.531-1.673-1.247-2.25-2.287-.892-1.613-.97-4.047-.198-6.165.717-1.964 1.787-3.416 3.858-5.23.567-.497.982-.904.921-.904-.318 0-1.86.184-2.263.27-.939.2-1.966.868-2.614 1.698-.516.66-1.16 1.822-1.73 3.11-.687 1.558-1.063 2.248-1.512 2.768-1.19 1.38-2.59.985-3.805-1.073-.342-.578-.801-1.585-.923-2.021-.052-.188-.04-.196.195-.14.234.057.281.024.76-.522a5.2 5.2 0 0 0 1.14-2.101c.22-.784.202-2.811-.034-3.715-.628-2.402-2.01-4.048-3.797-4.52l-.544-.143v-.472c-.001-.883.368-1.743.876-2.04.253-.15 1.116-.219 1.75-.142.319.038 1.432.3 2.473.58 2.564.692 2.966.745 4.222.558 1.364-.202 1.264-.145 1.264-.715v-.485l-.676-.15a18 18 0 0 1-1.71-.526c-1.71-.62-2.794-1.288-3.525-2.173-1.054-1.276-.954-2.633.301-4.105.423-.495 1.603-1.543 1.738-1.543.032 0 .09.235.13.522.068.495.09.535.437.796.201.151.601.364.889.473.73.276 2.352.281 3.111.01 1.8-.643 3.21-1.845 4-3.41.367-.725.495-1.239.548-2.2l.05-.888.386-.113c.212-.062.821-.133 1.353-.158.84-.04 1.05-.022 1.584.138.83.249 1.485.666 2.176 1.385 1.19 1.238 2.048 3.06 2.613 5.55.558 2.456.758 4.565.754 7.934l-.003 2.466.243.047c.134.026.921.202 1.75.391 5.668 1.293 8.424.76 10.852-2.097l.383-.45-.134-2.088c-.357-5.589 0-8.813 1.459-13.142 1.653-4.91 2.122-6.907 2.12-9.033-.004-2.072-.522-3.204-1.795-3.913-.663-.37-1.286-.504-2.57-.554-.971-.038-1.408-.01-2.692.174-3.641.523-5.645.355-7.507-.63-2.392-1.264-4.08-3.949-5.24-8.333-.808-3.052-1.276-6.43-1.64-11.827-.054-.814-.005-.749-.66-.863-.272-.048-.28-.04-.375.312-.406 1.504-1.577 2.81-3.288 3.663-1.176.587-3.941 1.48-4.585 1.48-.407 0-1.123.215-1.708.513-.68.347-1.569 1.338-1.928 2.152-.401.907-.553 1.582-.604 2.675-.067 1.456.15 2.559.77 3.926.58 1.28 1.429 2.333 2.508 3.113.264.19.473.355.464.364-.125.123-1.006.63-1.486.856-2.765 1.302-4.848.564-6.862-2.43a46 46 0 0 0-.596-.872c-.03-.038-.275.323-.545.804-1.305 2.324-2.577 3.757-4.294 4.84-.606.381-2.132 1.068-2.375 1.068-.31 0-.74-2.55-.798-4.739-.05-1.876.077-3.348.51-5.924.161-.954.283-1.748.272-1.764s-.292.196-.625.472c-2.056 1.705-3.468 2.346-5.398 2.45q-3.052.165-5.212-2.062c-.736-.758-1.242-1.551-1.587-2.49l-.262-.71.905-.105c2.466-.286 4.61-1.302 6.182-2.93 1.347-1.396 1.942-2.976 1.852-4.914-.07-1.506-.597-2.89-1.805-4.745-5.35-8.211-5.7-16.106-1.23-27.715.224-.582.781-1.953 1.239-3.046 1.267-3.03 1.702-4.316 2.074-6.136.375-1.827.469-2.821.468-4.95-.001-3.155-.382-5.634-1.353-8.818-2.698-8.848-9.377-17.53-16.72-21.734-1.423-.815-2.284-1.195-4.443-1.96-7.153-2.535-11.023-4.708-13.838-7.77-.765-.832-1.69-2.04-1.693-2.21 0-.028.478-.155 1.062-.281 6.966-1.51 12.129-3.742 15.591-6.738a20.3 20.3 0 0 0 3.743-4.259l.498-.75.12.2c.374.634 1.571 2.3 2.198 3.06.782.948 2.117 2.323 2.865 2.95 2.568 2.15 5.54 3.44 8.765 3.805 1.197.135 3.608.051 4.955-.172 1.1-.183 3.056-.684 4.168-1.067.875-.301 3.056-1.22 3.815-1.606.637-.324 1.72-.66 2.445-.759l.426-.058 3.093 3.371c5.794 6.316 9.445 10.718 13.254 15.98 4.062 5.614 7.311 11.18 9.558 16.376.547 1.265.59 1.337 1.24 2.03 1.097 1.175 2.41 2.007 4.184 2.654 1.949.71 3.507.94 5.977.88 2.672-.066 4.542-.497 6.695-1.543 3.55-1.725 5.672-4.695 5.946-8.316.243-3.226-.878-6.764-3.4-10.733a42 42 0 0 0-2.812-3.886c-2.447-2.956-4.108-5.397-4.944-7.265-.788-1.762-1.049-2.97-1.049-4.859v-1.142l-2.452 3.358c-1.348 1.847-2.463 3.32-2.477 3.275-.014-.046.063-.724.172-1.507.523-3.78.69-5.958.691-9.039.001-2.74-.095-4.01-.46-6.07-.97-5.462-3.547-9.883-7.79-13.364a26 26 0 0 0-1.372-1.06c-.25-.17-.44-.322-.425-.34.037-.04 3.295.422 4.648.66 5.487.96 8.83 3.174 11.257 7.455 1.23 2.169 2.286 5.179 2.971 8.467l.296 1.417h.402c.222 0 .426-.04.454-.09.141-.251.32-6.983.42-15.862.114-10.005.25-14.599.584-19.718.466-7.161 1.473-13.887 2.942-19.662.229-.9.416-1.655.416-1.677s.212.142.47.365c.39.336 1.015 1.042 1.863 2.108.135.169.13.217-.133 1.474-1.927 9.19-2.843 18.217-3.668 36.137-.4 8.67-.537 11.446-.74 14.962-.109 1.876-.186 3.461-.173 3.523.014.064.912-.76 2.072-1.9l2.047-2.013.094-1.13c.55-6.637 2.414-11.016 5.761-13.536 1.992-1.5 4.663-2.399 8.401-2.83l.503-.057-.162.2c-1.26 1.555-2.123 2.944-3.016 4.847-2.254 4.809-3.897 11.972-5.046 22.01-.17 1.484-.232 2.374-.229 3.306.005 1.844-.214 2.958-.766 3.895-.356.603-.682.919-1.251 1.21-.361.186-.53.218-1.12.215-1.047-.006-1.778-.294-3.053-1.203-1.801-1.286-2.929-1.596-3.43-.944-.374.487-.342 1.17.114 2.38.397 1.053.696 1.529 1.617 2.565 2.344 2.64 3.778 4.767 4.907 7.278 1.275 2.835 1.807 5.407 1.715 8.292-.109 3.41-1.195 6.66-3.224 9.651-.736 1.085-2.753 3.301-3.746 4.117-2.301 1.89-4.91 3.227-7.418 3.804-.737.17-1.07.196-2.511.195-1.461 0-1.744-.024-2.349-.19-.939-.258-1.672-.593-2.654-1.21l-.893-.56c-.034-.02-.012.09.048.245l.66 1.704c3.08 7.938 4.013 14.495 2.939 20.623-.086.489-.172.948-.19 1.02-.026.1.067.16.372.243.947.256 2.593 1.133 4.256 2.269 1.936 1.322 3.696 2.714 7.585 5.999 1.541 1.301 2.3 1.738 3.388 1.947.717.138 1.246.098 1.982-.15 1.473-.497 3.881-2.391 7.998-6.293 2.333-2.212 4.53-4.15 5.717-5.042 2.155-1.621 3.581-2.297 4.873-2.31.64-.007.743.016 1.213.27.682.368 1.294 1.096 1.29 1.535-.006.94-.297 10.094-.32 10.119-.015.016-.294-.158-.62-.389-1.117-.788-2.158-1.139-3.183-1.074-3.74.238-6.227 5.976-8.232 18.996l-.21 1.37.414.185c.229.102.425.17.437.153l1.06-1.632c2.227-3.432 3.625-4.967 5.37-5.896.343-.183.644-.333.67-.333.024 0-.157.657-.405 1.46-1.002 3.252-1.596 6.187-1.853 9.16-.161 1.867-.085 5.204.16 7.02.393 2.92 1.022 5.48 1.625 6.622 2.094 3.963 3.337 8.067 3.815 12.593.144 1.365.234 5.383.141 6.272l-.063.602-4.173-4.14c-2.295-2.278-4.537-4.453-4.983-4.834-2.138-1.824-3.615-3.31-4.696-4.723-1.323-1.729-2.632-4.255-3.35-6.463a34 34 0 0 0-.35-1.047c-.03-.049-.672.07-.782.146-.078.054-.059.366.097 1.542.234 1.766.426 2.641.804 3.67.865 2.355 2.46 4.687 5.386 7.875.94 1.024 2.143 2.28 2.672 2.792.719.695 1.13 1.178 1.623 1.904 2.675 3.946 4.031 7.339 4.21 10.53.027.493.033.895.012.895-.02 0-.168-.208-.327-.461-.386-.613-1.393-1.658-2.037-2.113a10.1 10.1 0 0 0-3.262-1.527c-1.115-.29-2.531-1.148-3.793-2.297-1.031-.938-2.258-2.647-3.063-4.265-.284-.571-2.763-4.42-3.15-4.892-.131-.158-.703.951-.826 1.6-.493 2.615 2.243 8.124 8.61 17.34l1.256 1.82.85.49c1.504.869 2.56 1.73 3.69 3.011 1.175 1.332 2.033 2.734 2.775 4.534.348.845.991 2.795.991 3.005 0 .046-.321-.147-.714-.43-1.685-1.214-3.028-1.684-4.8-1.681-1.498.003-2.29.256-4.608 1.476-3.316 1.745-4.851 2.33-6.115 2.33-1.817 0-2.142-2.138-1.002-6.586l.224-.875-.256-1.072c-.327-1.365-.482-1.842-.869-2.68s-.72-1.267-1.39-1.786a14 14 0 0 1-1.06-.94c-.298-.295-.554-.493-.57-.44s.014 1.034.067 2.181c.192 4.156.083 7.453-.316 9.607-.461 2.485-1.371 4.418-2.57 5.456-.778.674-.766.672-1.093.184a4.13 4.13 0 0 0-1.528-1.385c-.87-.47-1.456-.588-2.684-.538-1.051.043-1.525.15-2.435.548-1.718.753-3.028 2.392-3.278 4.1-.052.356-.038.42.127.59.17.175.174.195.046.25-.223.096-1.678.08-2.125-.023-.788-.183-1.475-.723-1.784-1.402-.35-.77-.424-2.339-.18-3.816.221-1.331.943-3.816 1.588-5.464l.148-.378-.383-.18c-.21-.1-.411-.161-.447-.138-.035.024-.23.454-.433.956-3.072 7.578-5.912 11.944-8.809 13.542-.87.48-1.45.63-2.55.661-.552.015-1.103.001-1.225-.03zm-30.417-11.378c-.26-1.252-.304-3.263-.093-4.38.553-2.936 2.491-5.367 5.727-7.185.747-.42.831-.447 1.198-.4 1.194.153 2.467 1.406 3.063 3.013.346.936.422 1.405.415 2.584-.005.907-.036 1.188-.174 1.601-.305.91-.882 1.732-1.14 1.624-.267-.113-2.177-.063-2.936.076-.972.178-2.21.625-2.991 1.081-1.049.612-2.184 1.727-2.663 2.614-.07.132-.15.24-.177.24s-.13-.39-.229-.868M62.89 338.387c-.821-.985-2.27-2.034-3.58-2.591-1.646-.7-3.338-.85-4.707-.415-.16.05-.311.07-.337.042-.067-.074.548-1.263 1.071-2.072 1.065-1.643 2.473-2.795 4.162-3.402 1.67-.6 3.94-.566 6.405.096.697.188.886.322 1.239.88.368.583.55 1.317.553 2.233.008 2.543-1.586 5.054-3.58 5.635-.659.192-.753.16-1.226-.406m132.59-7.885c-.773-.242-1.004-.427-1.004-.806 0-.411-.46-1.96-.844-2.847-.863-1.987-2.109-3.512-3.597-4.403a7 7 0 0 0-1.043-.502l-.504-.18.425-.27c2.938-1.868 5.742-2.04 8.5-.52 1.138.627 2.737 2.014 3.708 3.216l.502.621.027.685c.044 1.144-.319 2.077-1.213 3.115-1.091 1.267-2.596 2.015-4.03 2.004-.318-.003-.735-.053-.926-.113m-24.393-69.16c-1.173-1.54-2.155-3.88-2.565-6.121-.727-3.961-.473-8.318.89-15.255l.428-2.18-.248-.824c-.917-3.055-2.046-5.668-3.533-8.178-1.181-1.993-2.204-3.379-3.848-5.213l-.948-1.058.695-1.058c.381-.581.725-1.093.764-1.136.081-.09.488.139 1.758.988 2.538 1.695 4.72 3.564 7.726 6.615l1.258 1.277.533 1.186a33.2 33.2 0 0 1 2.721 9.688c.156 1.238.13 4.798-.043 5.966-.39 2.625-.821 4.051-2.249 7.447-1.235 2.938-1.846 4.565-2.586 6.883l-.44 1.383zM58.948 246.716c-1.487-.362-2.55-.85-3.545-1.626-.73-.57-1.115-.978-1.642-1.744-1.076-1.564-1.747-3.611-1.994-6.083-.169-1.696-.094-2.07.55-2.743.947-.99 2.25-1.402 3.83-1.21 1.76.215 3.18 1.142 3.82 2.494l.245.52-.157.246c-.209.326-.669 1.464-.87 2.15-.314 1.079-.407 1.728-.444 3.131-.032 1.196-.015 1.509.12 2.179.178.88.566 1.926.931 2.508.292.465.314.46-.844.178m23.258-5.932c-.784-.187-1.215-.36-2.033-.816-1.394-.778-2.885-2.244-4.1-4.032-.574-.845-.59-.88-.59-1.353 0-1.97 1.708-3.919 3.98-4.543 1.152-.316 2.512-.14 3.292.425.267.194.282.23.335.823.179 2.014.79 3.935 1.753 5.508.66 1.08 2.329 2.62 3.061 2.824.096.027.174.08.174.116 0 .079-1.172.599-1.788.792-1.271.4-3.017.51-4.084.256m-21.017-5.085c-.14-.024-.266-.171-.463-.547-1.703-3.233-6.792-3.953-9.138-1.291l-.404.458h-.905c-1.547 0-2.09-.212-2.371-.928-.624-1.588-.496-3.27.388-5.08.735-1.504 1.568-2.705 3.911-5.637 2.449-3.064 3.427-4.572 3.795-5.848.155-.537.421-2.31.358-2.38-.052-.056-2.146 1.973-2.704 2.619-.298.344-1.165 1.406-1.928 2.36-1.55 1.94-3.015 3.581-3.713 4.16-1.462 1.215-2.615 1.47-3.787.84-.598-.323-1.443-1.183-1.912-1.947l-.28-.455.233-.371c.128-.204.324-.646.435-.982.172-.521.202-.751.204-1.583.004-1.137-.132-1.813-.57-2.835-.918-2.15-2.548-3.644-4.305-3.947l-.62-.106-.248-.72c-.46-1.333-.71-2.571-.757-3.74-.061-1.523.131-2.3.706-2.852.491-.472 1.021-.468 2.634.022 2.293.697 4.247.977 5.695.817.452-.05 1.424-.249 2.16-.443.745-.196 1.62-.37 1.972-.393.689-.044.677-.035.76-.637.05-.367.041-.392-.18-.517-.496-.281-1.613-.567-2.504-.641-.498-.041-1.663-.053-2.589-.027-2.601.076-3.132-.081-4.128-1.225a5.96 5.96 0 0 1-1.27-2.347c-.215-.774-.2-2.493.029-3.368.253-.97.795-2.138 1.413-3.047.025-.037.262-.03.525.017 2.263.4 4.879-1.524 5.936-4.363.358-.961.435-1.502.385-2.706l-.042-1.026.477-.418c.653-.572.864-.725 1.427-1.038 1.515-.843 3.097-.876 4.537-.093 2.13 1.158 3.478 3.727 3.71 7.072.056.796-.05 2.298-.224 3.213-.084.439-.084.693.004 1.493.426 3.912 1.796 6.071 4.322 6.812.77.225 2.417.205 3.498-.044 3.97-.913 9.285-4.111 16.815-10.117 2.883-2.299 2.755-2.176 3.494-3.346 3.725-5.89 7.87-10.557 12.153-13.68 1.549-1.129 3.863-2.563 3.863-2.392 0 .05-.067.384-.15.74-.559 2.428-.77 5.747-.54 8.477.482 5.698 2.541 11.615 6.118 17.583.427.712.785 1.282.798 1.268s.253-1.033.535-2.266c1.343-5.873 2.276-8.903 3.676-11.93 2.836-6.135 7.197-10.592 13.876-14.182.729-.392 1.344-.712 1.368-.712s-.175.352-.442.782c-1.456 2.353-2.176 4.658-2.366 7.576-.113 1.727.083 4.293.463 6.062.253 1.18.404 6.164.227 7.493-.079.586-.115.689-.256.724-2.963.732-5.065 1.4-6.389 2.029-2.49 1.184-4.19 3.153-4.967 5.756-.517 1.731-.615 2.664-.631 6.051-.013 2.533-.033 2.948-.188 3.893-.5 3.033-1.708 6.178-3.352 8.735l-.323.503-.054-1.128c-.112-2.358-.818-4.452-2.345-6.96-1.49-2.446-1.657-2.878-1.717-4.417-.064-1.638.264-2.862 1.379-5.144.338-.694.603-1.274.589-1.29-.04-.044-1.69.695-2.032.911-2.185 1.38-3.444 4.323-3.128 7.312.167 1.58.526 2.7 1.481 4.617.746 1.5 1.108 2.45 1.307 3.436.52 2.574-.334 4.625-2.748 6.606-.292.24-.539.427-.548.417s.048-.271.126-.58c.534-2.11-.008-4.215-1.511-5.86-1.174-1.286-2.662-1.93-3.842-1.66-.543.123-.982.472-1.376 1.095-.708 1.117-1.914 2.195-3.023 2.7-3.58 1.633-7.881-.98-9.443-5.739-.306-.93-.492-1.85-.625-3.084-.065-.603-.13-1.11-.145-1.125-.054-.06-1.133 1.351-1.29 1.686-.352.758-.416 1.145-.405 2.48.008 1.005.06 1.58.249 2.751l.439 2.75c.11.698.206 1.273.214 1.278s.222-.019.477-.055c1.008-.143 1.684-.096 2.386.166 1.7.633 2.69 1.736 2.93 3.264.233 1.494-.616 3.375-2.07 4.587-.574.479-.658.52-.658.33 0-.15-.7-.766-1.159-1.02-.681-.377-1.216-.497-2.202-.496-1.142 0-1.83.186-2.936.79-1.754.96-2.935 2.53-3.154 4.191-.099.75-.147.806-.86 1.01-.592.168-1.524.167-2.045 0-1.37-.446-2.879-2.15-3.905-4.412-.19-.418-.638-1.733-.997-2.921-.73-2.422-1.168-3.582-1.848-4.905-.475-.923-1.715-2.836-1.816-2.8-.122.042-.396 1.614-.4 2.29-.007 1.37.35 2.474 1.536 4.744.905 1.735.974 1.914 1.209 3.155.215 1.137.263 2.5.114 3.228-.275 1.347-1.071 2.121-2.46 2.392-.557.11-1.507.14-1.948.064zm-27.695-8.77c-.89-1.787-1.233-3.175-1.227-4.965.007-2.362.828-4.437 2.676-6.759.92-1.155 1.614-1.797 2.035-1.884.939-.192 2.179.304 3.102 1.24 1.668 1.692 2.362 4.28 1.624 6.055l-.18.433-1.027.283c-2.124.584-4.18 1.979-5.333 3.617-.357.506-.956 1.72-1.096 2.22-.053.186-.122.37-.155.41s-.222-.253-.419-.65m91.982-16.665c0-.027-.09-.5-.198-1.05-.92-4.654-.832-8.355.277-11.806.701-2.183.91-3.393.975-5.655.055-1.911-.125-5.064-.36-6.305-.315-1.66-.415-2.754-.413-4.485.003-1.995.156-3.112.645-4.715.551-1.806 1.355-3.324 2.59-4.89.34-.43.649-.83.688-.888.075-.113-.315-.8-.457-.803-.162-.006-2.223.995-3.593 1.744-3.837 2.096-6.666 4.28-9.21 7.109-3.914 4.354-6.292 9.558-8.172 17.887-.173.768-.343 1.47-.377 1.559-.05.133-.16-.016-.615-.824-4.456-7.924-6.09-16.182-4.616-23.333a23.1 23.1 0 0 1 3.513-8.278c.859-1.26 2.887-3.53 4.104-4.59.448-.392.83-.744.85-.783.048-.099-2.122-1.075-3.402-1.531-2.033-.724-3.738-1.054-5.803-1.123-3.455-.115-6.157.663-8.686 2.5-1.426 1.036-3.114 3.06-4.087 4.902-.98 1.854-2.077 5.288-2.324 7.277-.03.244-.082.463-.115.485-.034.023-.271-.464-.528-1.08-1.437-3.456-2.247-6.486-2.683-10.047-.17-1.388-.234-4.445-.122-5.839.577-7.164 3.42-13.252 8.121-17.393a21 21 0 0 1 9.438-4.781c1.232-.268 3.034-.5 3.985-.514.33-.004.782-.033 1.003-.063l.402-.056-.583-.761c-2.829-3.697-4.177-6.888-4.425-10.47-.402-5.82 2.705-10.417 7.681-11.365.928-.176 2.739-.201 3.632-.049 1.271.217 2.838.68 3.992 1.179l.207.09-.501.82c-.8 1.31-1.332 2.576-1.658 3.942-.231.97-.289 2.667-.12 3.557a8 8 0 0 0 2.704 4.67c2.856 2.438 7.2 3.441 12.645 2.92 1.137-.108 3.197-.452 4.288-.715.468-.112 7.752-1.462 16.188-3a6913 6913 0 0 0 15.55-2.842c.202-.046.212-.07.212-.55 0-.42-.022-.5-.135-.5-.075 0-3.473-.398-7.553-.882l-7.418-.882-.763.412c-1 .54-1.858.76-2.958.76-1.756 0-2.946-.653-3.52-1.929-.247-.55-.253-.594-.25-1.624.005-.983.023-1.115.26-1.821.141-.42.375-1.02.52-1.336l.264-.574-.273-.535c-.89-1.745-.73-4.198.408-6.226l.164-.292.122.334c.62 1.7 1.245 2.826 2.04 3.682.633.681 1.247 1.098 2.053 1.394.56.206.696.223 1.506.19.816-.032.992-.071 2.089-.465 1.55-.555 2.145-.732 3.322-.988 1.844-.4 2.94-.498 5.061-.447 2.032.05 2.602.116 5.216.615.87.166 2.018.378 2.55.47 1.882.33 2.818.009 3.36-1.151.395-.847.354-1.707-.446-9.27-.372-3.513-.732-6.598-.799-6.854-.593-2.263-2.164-4.404-3.931-5.358-.837-.452-1.497-.595-2.528-.548-1.14.052-1.604.234-3.363 1.319-1.675 1.033-2.333 1.395-3.799 2.09-2.2 1.043-4.163 1.68-6.165 1.998-1.006.16-1.345.175-2.805.128-.914-.03-1.805-.076-1.98-.103l-.317-.05-.094.834c-.225 2.018-.685 3.869-1.337 5.381-.215.5-.42.91-.454.91-.09 0-1.302-1.508-1.834-2.283-1.865-2.71-3.02-5.99-3.444-9.776-.095-.85-.275-3.09-.276-3.437 0-.03-.217-.157-.483-.286-2.297-1.112-3.87-2.9-4.77-5.425-.297-.832-.806-2.643-.863-3.073-.024-.186.775-.772 9.082-6.66l9.109-6.458.248-.828c.63-2.11 1.632-3.76 3.065-5.052 1.44-1.296 3.058-2.024 5.01-2.251.877-.102 2.105-.014 4.83.346 8.878 1.175 20.3 4.44 30.173 8.625 2.253.956 5.723 2.576 6.821 3.185l.393.218-1.17.618c-1.854.979-2.817 1.806-3.227 2.77-.328.771-.204 1.333.294 1.333.231 0 .443-.274.443-.574 0-.108.05-.3.11-.425.12-.252.7-.877 1.133-1.222.775-.619 2.859-1.653 4.05-2.01.34-.102.948-.342 1.352-.534 1.63-.776 2.622-1.566 4.386-3.495l1.411-1.543.106.226c.058.124.244.587.414 1.03 1.538 4.01 1.645 7.72.366 12.648-.303 1.168-.41 1.451-.828 2.195-.809 1.441-1.506 2.416-2.524 3.527-.765.835-1.2 1.226-2.018 1.815-1.09.785-1.23.917-1.234 1.161-.003.192.267.487.447.487.156 0 1.224-.722 2.1-1.42.859-.683 2.332-2.372 3.104-3.559.368-.565.683-1.073.7-1.129.088-.288.434.354.65 1.205.19.752.193 2.79.004 3.825-.326 1.786-.914 3.241-1.956 4.844-.76 1.168-1.478 2.708-1.773 3.808-.274 1.016-.349 2.764-.155 3.597.387 1.665 1.345 2.8 2.744 3.25.533.17 1.734.174 2.382.007.743-.192 1.637-.596 2.341-1.06.352-.231.655-.404.674-.383.019.02-.043.43-.136.91-.827 4.237-3.02 7.767-5.759 9.273-1.762.969-4.307 1.142-6.462.439-2.311-.754-4.524-2.846-5.691-5.38-.465-1.01-.937-2.771-1.063-3.967-.055-.52-.146-.799-.297-.909-.156-.114-.407-.066-.55.106-.13.158-.133.23-.044.994.607 5.207 3.757 9.2 8.14 10.322.759.195 1.04.223 2.22.226 1.35.004 1.521-.02 3.06-.43.145-.037.173.012.25.452.494 2.803.122 6.13-1.143 10.226-.216.698-.444 1.529-.507 1.846-.298 1.506.01 3.069.818 4.142.328.435 1.087.963 1.684 1.17.668.234 1.84.252 2.561.04 1.792-.526 3.534-2.07 4.712-4.177.138-.247.27-.428.292-.404.08.088.016 2.14-.1 3.18-.429 3.856-1.754 6.825-3.822 8.563-.64.538-1.87 1.194-2.666 1.422-.34.097-1.134.24-1.765.317-2.185.266-5.579-.108-8.395-.924-4.097-1.188-7.54-3.576-9.308-6.458-.811-1.32-1.386-2.973-1.486-4.268-.04-.51-.085-.674-.231-.833q-.276-.3-.623 0c-.198.172-.03 1.597.337 2.87 1.728 6.002 8.75 10.337 17.202 10.624 1.103.037 1.526.08 1.526.152 0 .153-.88 1.992-1.372 2.865-1.348 2.397-3.315 4.829-5.35 6.613-2.032 1.783-2.712 2.571-3.311 3.84-1.57 3.326-.654 6.471 2.11 7.244.662.185 1.972.167 2.9-.04.89-.199 2.097-.643 3.003-1.106l.646-.33-.052.231c-.102.455-.611 1.685-1.065 2.57-.627 1.226-1.296 2.178-2.179 3.102-1.527 1.599-3.194 2.545-5.426 3.077-.662.159-1.077.187-3.23.22-1.568.025-2.824.005-3.439-.06-3.144-.322-5.204-1.252-6.745-3.045-1.261-1.469-2.098-3.525-2.697-6.627-.141-.733-.279-1.323-.305-1.311-.027.01-.703.7-1.502 1.532-.799.83-1.776 1.809-2.172 2.173-3.335 3.072-6.506 4.88-9.79 5.58-1.47.315-2.1.353-5.619.345-7.312-.018-11.075.471-13.372 1.738l-.36.2.873-1.966c.48-1.08 1.125-2.574 1.432-3.32 2.577-6.236 3.542-11.526 3.246-17.792-.056-1.175-.122-2.133-.148-2.13-.026.005-.478.529-1.005 1.164-1.82 2.197-3.585 4.172-4.48 5.016-2.57 2.425-5.472 3.925-8.895 4.6-1.337.265-2.108.36-3.825.47-2.661.17-4.296.445-6.143 1.035-.854.273-2.26.83-2.645 1.048-.125.07-.241.114-.257.096s.14-.286.346-.597c1.831-2.75 3.595-7.625 4.405-12.172.656-3.688 1.868-5.959 5.122-9.605.945-1.059 1.143-1.323 1.143-1.528 0-.136-.042-.293-.093-.349-.111-.121-.406-.132-.594-.022-.222.13-2.74 3.07-3.362 3.927-1.573 2.163-2.616 4.589-3.062 7.122-.36 2.042-1.147 5.038-1.81 6.897-.718 2.008-1.777 4.12-2.822 5.627-.565.816-1.892 2.277-2.494 2.747-.202.157-.367.312-.367.344 0 .078.454.76.506.76.023 0 .409-.272.857-.605a22 22 0 0 1 1.987-1.252c2.784-1.54 5.283-2.213 9.129-2.46 4.523-.291 7.559-1.15 10.43-2.953 1.967-1.235 3.48-2.626 5.763-5.3.732-.856 1.365-1.533 1.408-1.505.112.077.009 4.321-.136 5.631a38.4 38.4 0 0 1-1.478 7.086c-.74 2.408-1.597 4.54-3.474 8.65l-1.264 2.768.36.292.362.293.35-.338c1.024-.987 2.68-1.688 4.948-2.093 2.058-.367 3.38-.446 8.615-.515 2.763-.037 5.11-.088 5.216-.113s.54-.11.966-.186c1.768-.32 3.282-.875 5.185-1.9 2.415-1.303 4.907-3.284 7.273-5.784.464-.49.725-.713.748-.637.02.065.145.573.278 1.131 1.029 4.307 3.041 6.864 6.348 8.065 1.478.537 2.833.759 5.108.836l1.605.055-.046.643c-.14 1.923-.595 3.521-1.462 5.127-1.237 2.29-3.292 4.161-5.72 5.207-.616.265-.96.574-1.598 1.436-.585.793-1.228 2.13-1.384 2.878-.232 1.116-.038 2.428.507 3.418.433.788.785 1.155 1.66 1.73 2.08 1.37 4.162 3 5.837 4.57.79.741 3.13 3.28 3.13 3.398 0 .035-.222.014-.492-.048a14.3 14.3 0 0 0-3.72-.349c-1.87.071-3.042.36-4.636 1.144-2.558 1.257-5.434 2.16-7.997 2.51-1.269.174-3.558.174-4.716 0-4.928-.74-9.125-3.866-12.553-9.348a56 56 0 0 0-.744-1.169l-.135-.195-.536.872c-1.582 2.577-3.29 4.483-5.43 6.056-3.585 2.635-8.628 4.563-15.447 5.905-1.66.327-3.971 1.266-6.259 2.542-3.61 2.014-5.817 4.352-7.066 7.484-.275.688-.351.849-.351.74zm37.26-141.34c1.954-.66 3.058-3.156 2.371-5.354l-.137-.441.375.162c3.835 1.655 7.317 3.953 7.574 4.998.095.389.324.587.676.587.581 0 .84-.76.502-1.476-.495-1.05-2.483-2.567-5.39-4.113-3.63-1.93-7.128-3.085-9.273-3.062-2.12.022-3.757 1.36-4.405 3.597-.21.722-.366 1.964-.296 2.346.066.364.364.628.695.617.453-.014.574-.222.66-1.136.174-1.82.833-3.033 1.953-3.595.351-.176 1.126-.396 1.18-.336.01.012-.119.186-.288.388-1.144 1.356-1.336 3.302-.494 4.997.433.871 1.505 1.726 2.433 1.941.436.1 1.395.04 1.864-.12M41.522 191.868c-1.314-2.362-3.188-4.091-5.251-4.846-.785-.288-1.964-.473-2.57-.406-.373.042-.399.034-.33-.108.153-.312 1.648-1.953 2.15-2.359 1.456-1.178 3.125-1.789 4.895-1.79.859 0 2.287.291 3.34.683 1.237.462 2.6 1.174 2.814 1.472.261.363.48 1.247.48 1.94 0 .806-.158 1.447-.593 2.42-.309.69-.466.92-1.1 1.613-.616.67-.858.87-1.428 1.177-.646.349-.732.373-1.479.409l-.793.038zm199.728-16.263a261 261 0 0 1-2.143-3.419c-1.092-1.778-1.127-1.848-1.091-2.2.02-.2.11-1.735.2-3.41s.176-3.063.193-3.082c.044-.05-.127-.362 2.288 4.182 2.074 3.9 3.615 6.867 3.615 6.958 0 .023-.248.313-.552.646-.304.332-.762.9-1.017 1.26s-.468.654-.471.652c-.004 0-.464-.716-1.022-1.587m-7.822-13.36c-3.813-7.223-6.915-14.704-8.66-20.888-1.4-4.961-2.023-8.943-2.032-12.99-.008-3.558.492-6.26 1.64-8.843 1.788-4.022 5.16-6.947 9.676-8.391.708-.227.756-.257.862-.537.088-.234.113-.258.119-.111.004.102.043.21.087.24s.455-.045.913-.165c2.829-.74 6.074-.725 9.168.043 5.586 1.388 10.14 5.273 11.942 10.19.827 2.256 1.127 4.2 1.054 6.842-.057 2.08-.283 3.634-.828 5.682-.527 1.985-.982 3.2-2.82 7.533-3.415 8.056-4.494 11.635-4.65 15.426l-.048 1.14-.134-.286c-.242-.517-.758-2.301-.915-3.164-.655-3.591-.298-6.538 1.305-10.79.784-2.078 1.393-4.354 1.716-6.417.23-1.475.251-4.842.036-5.92-.36-1.805-1.07-3.335-1.867-4.023q-1.413-1.221-3.31-.354l-.284.13.185.401a19 19 0 0 1 1.412 4.59c.17 1.003.196 4.56.04 5.627a52 52 0 0 1-.672 3.647c-.287 1.221-1.211 4.52-1.266 4.52-.025 0-.215-.524-.422-1.164-.776-2.406-1.952-4.664-3.583-6.878-1.148-1.559-2.05-2.607-2.917-3.392-.988-.893-3.193-3.303-3.82-4.174-2.778-3.862-3.433-7.162-2.053-10.351.329-.762.503-1.063 1.44-2.484q1.152-1.748.257-2.496c-.235-.197-.321-.22-.712-.186-.385.033-.566.12-1.364.65-2.91 1.939-4.854 4.12-6.112 6.864-.47 1.027-.991 2.76-1.213 4.037-.237 1.362-.254 4.743-.033 6.372.807 5.955 3.273 12.707 8.138 22.278l.42.825-.16 2.9a160 160 0 0 0-.166 3.533c-.004.348-.03.721-.058.83-.045.176-.076.146-.31-.297zm-151.377-19.09c0-.023.054-.208.12-.412.712-2.203.436-4.921-.82-8.074-1.163-2.923-1.647-4.444-1.966-6.171-.508-2.765-.406-4.861.419-8.551.166-.745.295-1.362.285-1.373-.009-.01-.275.232-.592.538-3.485 3.368-6.719 4.385-10.052 3.162-.857-.314-1.834-.852-2.77-1.526-.78-.561-2.138-1.767-2.688-2.387l-.332-.374.602.108c.823.148 2.579.145 3.293-.004 2.914-.61 4.815-2.794 5.602-6.437.182-.841.202-1.098.204-2.666.004-2.04-.103-2.817-.621-4.554-.403-1.348-.844-2.29-1.63-3.485-2.34-3.555-3.58-6.22-4.17-8.97-.238-1.111-.325-2.946-.188-3.971.051-.385.08-.716.062-.734-.017-.02-.424.908-.905 2.06-1.836 4.396-2.632 5.934-3.672 7.09q-1.891 2.1-4.273.616c-.225-.14-.397-.28-.382-.31.265-.535.527-1.269.602-1.69.148-.821.058-1.947-.229-2.886-.895-2.927-3.374-5.03-5.654-4.798-.69.07-.725.09-.97.547-.115.217-.34.574-.497.794l-.288.4-.117-.197c-.159-.264-.468-1.1-.601-1.618-.174-.68-.136-2.076.077-2.835.488-1.745 1.406-3.116 4.128-6.166 2.178-2.44 3.075-3.512 3.675-4.39.402-.588 1.056-1.782 1.005-1.837-.017-.017-.847.465-1.846 1.072-4.255 2.586-6.364 3.467-8 3.34-1.499-.116-2.543-.984-3.286-2.732a9 9 0 0 1-.38-1.042 8 8 0 0 0-.126-.469c-.048-.136.416-.103 1.268.092l.563.128.375-.313c1.518-1.268 2.14-3.813 1.552-6.343-.086-.372-.337-1.072-.557-1.556-.32-.705-.514-1.007-.984-1.531-.605-.675-1.396-1.2-1.99-1.322-.271-.056-.273-.059-.223-.405.076-.518.541-1.994.823-2.605 1.196-2.599 2.94-3.46 5.62-2.774 1.52.389 3.562 1.46 7.148 3.75 1.887 1.204 2.107 1.323 2.441 1.323.787 0 1.542-.43 1.76-1.001.147-.385.053-.767-.32-1.303-.247-.354-.317-.397-.909-.568-4.072-1.173-7.073-3.06-8.42-5.294-.693-1.151-.988-2.225-.988-3.597 0-1.576.43-3.006 1.406-4.675.38-.651.523-.749.523-.359 0 .152.09.261.358.433 2.042 1.31 4.771.729 6.794-1.45 1.084-1.167 1.612-2.3 1.708-3.666.053-.763-.116-1.634-.377-1.938-.09-.105-.146-.212-.123-.237.123-.135 1.466-.663 2.087-.82 1.04-.264 2.568-.262 3.418.004 1.557.487 2.742 1.527 3.391 2.977.472 1.052.598 1.605.648 2.84.108 2.659-.868 5.485-2.932 8.487-.574.835-.604.9-.52 1.122.183.482.952.526 1.642.093.462-.29 1.459-1.502 2.107-2.563 1.068-1.747 1.96-4.412 2.08-6.214.135-2.04.68-3.906 1.39-4.768.795-.963 2.123-1.137 3.622-.476.565.25 1.735.917 1.865 1.065.054.062-.048.212-.327.484-.388.377-.406.413-.405.818.006 1.862 1.2 3.731 3.066 4.796 2.17 1.239 4.41 1.222 5.916-.044.202-.17.415-.31.472-.31.138 0 .758.51 1.276 1.05 1.468 1.528 1.729 3.573.732 5.748-1.182 2.579-3.718 5.39-8.62 9.553-.678.575-1.07 1.102-1.479 1.987-1.552 3.362-1.05 7.4 1.663 13.346 1.123 2.462 1.829 3.823 2.248 4.337 3.178 3.902 5.196 7.79 6.124 11.802.213.919.53 2.866.655 4.01.045.42.1.885.122 1.036.03.206 1.36 2.04 5.375 7.405 2.934 3.922 5.353 7.179 5.375 7.238.022.058-.188.37-.466.694-1.216 1.411-2.07 3.29-2.5 5.504-.196 1.005-.197 3.843 0 4.984.375 2.197 1.19 4.435 2.352 6.455.49.85 1.283 2.057 1.41 2.143.043.029.078.107.078.174 0 .09-.104.122-.409.122-.224 0-.807.054-1.295.12q-6.867.934-11.894 5.415c-.87.775-2.111 2.11-2.804 3.012-.34.443-.64.814-.668.827-.095.041-.447-.442-.536-.733-.21-.69-.015-2.072.526-3.732l.317-.973.081-2.709c.045-1.49.07-2.857.056-3.04l-.025-.332-.386.363a4.6 4.6 0 0 0-1.11 1.725c-.317.931-.41 1.718-.471 3.992-.044 1.642-.09 2.288-.178 2.545-.462 1.346-1.302 2.573-2.568 3.75-.83.772-.966.89-.966.835zm168.25-31.55a51 51 0 0 0-1.229-.694c-.038-.015.126-.711.365-1.546 3.464-12.125 3.814-22.941 1.015-31.397-.797-2.408-1.76-4.438-2.807-5.92-2.6-3.675-5.258-5.977-7.907-6.844-2.714-.89-5.326-.203-7.09 1.862-2.404 2.815-3.014 7.366-1.61 12.029.35 1.162 1.143 3.002 1.755 4.071.848 1.481 1.54 2.425 3.01 4.11 2.805 3.214 3.969 5.617 4.08 8.426.065 1.657-.274 3.13-1.08 4.69-.928 1.796-2.678 3.717-4.702 5.158-.367.262-.684.476-.703.476s.016-.2.078-.444c.157-.62.148-2.141-.017-2.983-.353-1.801-1.397-4.213-3.088-7.137-.667-1.153-2.71-4.302-4.484-6.911-2.198-3.233-3.467-5.156-3.907-5.921q-1.629-2.832-2.215-6.223c-.175-1.012-.198-4.335-.037-5.331.997-6.158 4.577-11.38 9.632-14.049 2.038-1.076 3.958-1.617 6.184-1.743 3.01-.17 6.696.941 9.063 2.733 1.783 1.35 4.044 3.406 5.159 4.693 4.513 5.209 6.98 11.327 7.575 18.775.153 1.924.111 6.22-.08 8.124-.52 5.182-1.55 10.059-3.5 16.544-1.146 3.817-2.01 6.168-2.253 6.127-.026-.004-.57-.308-1.207-.675zm-126.216-5.681c-3.463-.146-6.597-.803-8.42-1.767a14.93 14.93 0 0 1-7.651-10.283c-.197-.983-.3-2.887-.213-3.927.187-2.242 1.007-4.68 2.053-6.103 1.975-2.687 6.206-4.511 9.599-4.14 4.33.474 7.16 3.551 8.23 8.951.103.523.188.987.188 1.031 0 .045-.287-.066-.638-.245-1.329-.68-2.342-.948-3.612-.955-1.563-.01-2.642.447-3.639 1.538-1.699 1.86-1.928 4.745-.608 7.648 1.25 2.748 3.962 4.173 9.076 4.768 1.601.187 6.54.211 8.732.044 4.993-.381 9.923-.985 17.803-2.18 3.572-.542 3.735-.559 5.726-.602 2.33-.05 4.028.051 5.987.36 2.077.328 4.234.974 4.318 1.293.02.079.061.442.09.806l.054.663-.33-.184c-.576-.322-1.635-.74-2.433-.961-2.15-.596-3.873-.775-6.793-.706-3.253.076-5.056.337-12.755 1.843-1.658.324-3.11.61-3.226.637-.146.033-.214.012-.216-.065a1.4 1.4 0 0 0-.097-.35l-.093-.238-.292.42c-.335.481.02.374-3.262.985-7.45 1.386-12.87 1.916-17.578 1.718zM49.638 97.93c-2.161-.375-4.062-1.705-5.6-3.92l-.484-.696.66.06c2.042.187 4.362-.827 6.23-2.72.6-.61 1.413-1.656 1.56-2.008.118-.285.414-.345 1.11-.225 1.04.178 2.175.957 2.944 2.018.482.666 1.016 1.878 1.161 2.638.23 1.197-.01 2.6-.543 3.18-.363.394-2.225 1.16-3.694 1.52-.554.135-2.843.24-3.344.153M37.353 73.703c-.193-1.314-.134-3.036.143-4.167.744-3.035 2.924-5.406 6.447-7.013.687-.313.934-.298 1.7.102 1.264.66 2.207 2.368 2.425 4.39.114 1.054-.034 2.101-.423 2.985-.318.726-.859 1.363-1.095 1.292-.456-.137-1.716-.228-2.46-.178-1.868.125-3.402.65-4.743 1.626-.556.404-1.25 1.106-1.528 1.547-.12.189-.243.343-.274.343-.03 0-.117-.417-.192-.927m164.106-9.074c-9.28-4.532-19.971-8.247-30.164-10.482-2.995-.657-6.008-1.183-10.152-1.772-.973-.138-1.786-.27-1.808-.294-.021-.023.053-.815.166-1.759a85 85 0 0 0 .204-1.807c0-.151 5.476.65 8.77 1.283 12.947 2.488 25.614 6.857 37.2 12.831l.884.456-.653.523c-.692.555-1.913 1.267-2.63 1.534l-.434.162zm3.872-3.12c-1.88-1.002-5.615-2.756-8.422-3.956-10.765-4.602-21.867-7.757-34.45-9.792-.971-.157-1.778-.298-1.792-.314s-.05-.751-.078-1.634q-.135-4.141.709-7.937c.153-.69.266-1.263.25-1.276-.015-.013-.323-.15-.684-.306-.804-.345-2.208-1.103-2.782-1.502-1.184-.823-2.17-1.972-2.657-3.097-.299-.688-.534-1.792-.496-2.33l.024-.35.618.437c2.31 1.63 5.985 3.704 10.431 5.886.808.396 1.494.737 1.525.758.031.02-.079.33-.244.69-.91 1.969-1.27 3.455-1.276 5.263-.004 1.425.165 2.247.7 3.408 1.103 2.385 3.808 3.928 6.591 3.76 1.065-.065 1.874-.298 2.826-.814 2.642-1.432 3.996-4.488 3.686-8.319-.05-.618-.112-1.205-.137-1.304-.043-.166-.003-.189.482-.277 2.673-.49 5.388-1.492 8.278-3.056l1.492-.807.24.468c1.33 2.586 3.3 5.653 5.382 8.374.514.672.926 1.23.916 1.24-.009.01-.292.219-.627.464-1.051.768-2.017 1.87-2.442 2.785-.45.967-.589 2.306-.347 3.348.597 2.582 3.18 5.057 6.2 5.939.975.285 2.686.322 3.496.077 1.761-.534 2.939-1.941 3.445-4.115.122-.526.148-.94.148-2.401v-1.766l.656.063c1.181.112 4.256.17 5.85.11 2.22-.085 4.894-.405 6.657-.799.312-.07.582-.111.599-.092s-.17.296-.417.617c-.853 1.113-1.834 1.804-3.069 2.162-.513.149-.86.181-2.047.19-.787.007-1.708-.017-2.048-.052l-.618-.063-.54 1.326c-.64 1.578-1.78 3.94-2.711 5.623-1.006 1.818-2.27 3.8-2.418 3.79-.07-.004-.474-.192-.899-.419M186.134 50.37c.563-.302 1.9-1.788 2.848-3.162.956-1.387 2.781-4.411 2.872-4.758.093-.356.088-1.108-.01-1.576-.376-1.789-2.048-3.004-4.128-3-1.017 0-1.677.22-2.343.774-.508.424-.616.91-.99 4.459-.193 1.82-.196 5.274-.006 6.086.308 1.32.835 1.673 1.76 1.177zM85.76 44.63c-2.103-.471-3.818-2.1-4.17-3.958l-.091-.489.566-.659c1.892-2.203 2.926-5.168 2.688-7.707a10 10 0 0 0-.196-1.264c-.066-.25-.104-.47-.084-.492.058-.064 1.285.642 1.905 1.097.694.509 1.943 1.858 2.345 2.534.886 1.487 1.27 2.9 1.34 4.93.045 1.282-.08 2.656-.37 4.063-.144.7-.185.79-.502 1.116-.813.836-2.057 1.136-3.43.829m-29.665-.726c-.188-.04-.499-.16-.691-.265-.333-.183-.354-.217-.442-.7-.345-1.911-1.542-4.273-2.835-5.598-.87-.89-2.037-1.632-2.987-1.896l-.343-.096.42-.287c1.018-.696 2.422-1.323 3.511-1.568.583-.131 2.17-.134 2.782-.005 1.763.373 3.538 1.425 5.165 3.062 1.098 1.105 1.34 1.437 1.402 1.936.06.481.01.95-.17 1.574-.696 2.408-3.588 4.32-5.812 3.843z" style="fill:#d90c15;fill-opacity:1"/><path d="M83.93 378.646q-5.178-.75-7.501-6.086c-.362-.83-.921-2.52-.921-2.783 0-.07-.165-.233-.367-.36-.539-.34-1.331-.996-1.652-1.366-.686-.79-1.34-2.002-1.68-3.116l-.156-.508-.333.043c-.764.097-2.341.032-2.844-.118-.558-.166-1.78-.744-2.1-.993l-.206-.161-.605.348c-1.655.953-2.98 2.376-3.655 3.928-.46 1.058-.556 1.579-.599 3.271l-.037 1.495-.928-1.114c-1.094-1.314-1.47-1.833-2.002-2.773-1.017-1.796-1.48-3.49-1.477-5.407.004-2.559.829-4.962 2.577-7.506.335-.487.626-.916.647-.952.02-.036-.05-.31-.158-.606-.286-.79-.554-2.07-.613-2.925-.085-1.216.178-2.631.696-3.753.496-1.074 1.37-2.218 2.336-3.06l.496-.433-.455-.474c-1.11-1.157-1.394-2.365-1.065-4.536l.051-.338-.604-.443c-1.725-1.264-3.64-1.87-5.156-1.633-.836.13-1.144.237-2.317.8-.548.262-1.01.461-1.027.443-.047-.052 1.032-2.73 1.386-3.44 1.499-3 3.631-4.803 6.475-5.475.506-.12.99-.153 2.16-.152 1.562 0 2.024.059 3.503.438l.839.214.222-.18c2.264-1.833 5.18-1.794 7.069.096 1.758 1.76 2.36 4.59 1.662 7.803l-.14.642.82-.053c.452-.029 6.572-.363 13.601-.742l12.78-.69.214-1.014c1.6-7.582 5.63-14.933 12.589-22.96.701-.81 1.285-1.5 1.297-1.534.01-.035-.521-1.278-1.184-2.763-1.503-3.363-2.1-4.866-2.625-6.593-.79-2.597-1.067-4.426-1.069-7.024 0-2.114.17-3.677.612-5.581.05-.217-.01-.17-.437.338-1.163 1.386-2.182 2.259-3.355 2.874-1.572.824-2.576 1.046-5.177 1.146-3.723.143-4.576.481-6.683 2.651-.942.97-1.046 1.054-1.067.866-.036-.312.279-3.255.457-4.278.703-4.025 1.99-7.43 4.849-12.825l.628-1.185-.646-.055c-.875-.076-1.515-.263-2.251-.66-1.415-.761-2.395-2.256-2.788-4.254-.194-.984-.225-2.804-.07-4.043.21-1.671.225-2.282.076-3.018-.215-1.058-.77-2.136-2.345-4.556l-.55-.847.4-.39.402-.392 1.116 1.136c3.641 3.705 6.51 5.377 9.438 5.503 1.202.052 2.005-.077 3.045-.49 2.155-.854 4.349-3.046 6.26-6.255.696-1.17 1.835-2.841 2.827-4.149 1.035-1.363 3.844-4.44 5.161-5.654 7.25-6.677 15.72-10.455 24.47-10.914 1.685-.089 4.637.023 6.22.235 4.79.642 9.798 2.358 14.086 4.828.502.288.93.506.951.482.022-.023.086-.36.144-.75.171-1.16.406-2.467.767-4.287l.342-1.718-.332-1.074c-1.583-5.133-4.081-9.453-7.606-13.152l-.93-.976 1.253-1.913c.69-1.052 1.276-1.914 1.304-1.915.072-.004 2.08 1.245 2.847 1.771 1.556 1.065 3.131 2.334 4.823 3.883l1.152 1.055-.407-.645c-1.269-2.01-3.892-5.2-5.726-6.963-1.898-1.823-4.098-3.5-6.023-4.59-1.541-.873-1.89-1.022-5.177-2.214-5.518-2-8.843-3.739-11.699-6.12-1.215-1.013-2.798-2.824-3.416-3.907-.271-.477-.217-.482-1.884.18-5.225 2.072-8.381 4.616-9.971 8.036-.37.797-.774 2.016-.887 2.68-.068.397-.234.501-.749.468l-.399-.025-.142-.593c-.845-3.53-1.158-5.843-1.162-8.59-.003-2.43.217-3.877.954-6.26.251-.814.457-1.542.457-1.618 0-.277-4.118.93-5.636 1.653-3.013 1.432-4.503 3.591-5.034 7.29-.06.416-.101 1.729-.11 3.463-.018 3.522-.187 4.842-.937 7.305-.959 3.15-2.32 5.657-4.785 8.816-.66.847-.817 1.007-.78.804.534-2.887.55-3.02.547-4.442-.003-1.133-.036-1.535-.17-2.127-.387-1.712-1.175-3.428-2.501-5.452-.501-.763-.994-1.856-1.182-2.619-.069-.28-.145-.927-.17-1.438-.055-1.135.086-2.124.468-3.294.145-.446.236-.81.201-.81-.083 0-.767.886-1.01 1.31-.713 1.242-1.03 2.912-.853 4.492.158 1.417.43 2.192 1.702 4.838 1.878 3.906 1.593 6.963-.893 9.592-.714.754-1.465 1.373-2.597 2.14l-.821.555-.351-.428-.352-.428.236-.375c.529-.842.916-2.088.92-2.958.003-.84-.321-1.937-.802-2.713-.572-.924-1.574-1.776-2.426-2.064-.994-.336-1.46-.193-1.95.597-.437.705-1.385 1.72-2.085 2.235-4.232 3.106-9.865.606-12-5.327a15 15 0 0 1-.41-1.354c-.114-.495-.146-.558-.191-.38-.191.74.065 3.24.664 6.473.029.156.083.167.688.142 1.76-.073 3.922 1.191 4.781 2.796.51.951.69 2.345.447 3.451-.352 1.609-1.43 3.164-2.937 4.239-.502.358-.613.475-.587.619.359 1.97.932 3.412 1.857 4.679.916 1.254 1.877 1.892 3.69 2.45.584.179 1.062.345 1.062.368s-.635.392-1.41.82c-2.286 1.259-3.804 1.723-5.639 1.725-2.585 0-4.78-1.097-6.936-3.472-.66-.728-1.826-2.286-2.077-2.776-.043-.084-.156-.068-.515.07-.672.257-1.805.314-2.524.125-1.808-.476-3.395-2.14-4.725-4.954-.253-.535-.435-.878-.404-.762.031.117.075.764.098 1.439.032.952.014 1.355-.082 1.798-.364 1.696-1.402 2.79-3.004 3.166-.307.073-.993.14-1.524.15l-.965.02-.33.67c-1.153 2.35-1.362 5.47-.508 7.595.288.717.667 1.305 1.48 2.299.381.465.684.857.673.87-.047.055-2.624-.256-3.364-.406-3.571-.726-6.203-3.008-7.384-6.401-.579-1.666-.961-3.84-.961-5.471v-.54l-.908-.051c-1.755-.098-2.406-.509-2.86-1.802-.336-.955-.434-1.604-.382-2.516.084-1.479.58-2.881 1.628-4.61.767-1.264 1.324-2.03 3.06-4.207 1.861-2.334 2.639-3.385 3.121-4.217.202-.348.105-.367-.154-.032-1.035 1.343-3.644 4.5-4.289 5.189-2.473 2.641-4.385 3.272-6.324 2.087-.611-.373-1.669-1.513-2.197-2.37-.34-.549-.399-.606-.578-.56-1.604.409-3.689 1.755-4.617 2.982-.89 1.176-1.198 1.986-1.488 3.903l-.211 1.396-.873-1.438c-1.73-2.852-2.36-4.777-2.352-7.194.006-1.583.264-2.803.913-4.299.382-.88 1.21-2.224 1.915-3.107.691-.865 1.884-2.098 2.135-2.207.134-.058.167-.118.126-.226-.512-1.332-.892-3.118-.94-4.42-.062-1.668.217-2.757.905-3.528.734-.823 1.573-.97 3.052-.535 2.682.789 3.595.96 5.137.966.98.004 1.348-.032 2.028-.196.457-.11.83-.237.83-.283 0-.055-.701-.063-2.028-.024-3.134.092-3.806-.1-5.035-1.447-2.002-2.192-2.368-5.457-.957-8.535.26-.567.519-1.025 1.1-1.942.097-.154-.544-1.086-1.323-1.922-2.108-2.262-4.208-2.976-6.842-2.326-1.056.26-1.063.261-1.063.102 0-.168 1.277-2.135 1.945-2.995 1.217-1.568 2.826-2.783 4.436-3.35 2.521-.887 5.314-.502 8.496 1.17.71.373 1.067.612 1.206.806l.197.276.263-.248c1.051-.994 2.455-1.697 3.761-1.882 3.033-.431 5.822 1.8 7.018 5.616.56 1.785.682 4.323.303 6.301-.088.462-.087.688.006 1.485.378 3.215 1.43 5.014 3.31 5.66.76.26 2.294.258 3.416-.008 3.693-.873 8.8-3.946 15.886-9.56 3.125-2.477 3.064-2.42 3.618-3.311 4.69-7.54 10.364-13.287 16.3-16.513l.969-.526.26-.73c1.162-3.27 3.235-6.507 5.733-8.956l.916-.899-.304-.148c-.575-.282-2.673-.996-3.56-1.21-1.941-.472-4.53-.615-6.258-.347-5.893.914-9.771 5.417-11.232 13.04-.106.553-.283 1.71-.395 2.571-.111.861-.222 1.637-.245 1.724-.047.173-1.336-2.426-2.052-4.136-2.894-6.914-3.646-14.037-2.187-20.731.652-2.99 2.062-6.432 3.57-8.714l.333-.504-.274-.308c-.694-.778-.656-2.351.112-4.735.3-.93.316-1.03.355-2.243.023-.698.059-1.717.08-2.264.023-.546.011-.994-.025-.994-.09 0-.453.88-.592 1.439-.185.74-.273 1.871-.273 3.513 0 1.27-.027 1.629-.158 2.144-.29 1.148-.969 2.338-1.95 3.418-.439.484-2.397 2.347-3.164 3.012-.094.081-.01-.281.294-1.269.566-1.842.666-2.374.667-3.54 0-1.125-.146-2.154-.474-3.32-.226-.805-.408-1.3-1.263-3.45-1.308-3.288-1.886-6.444-1.682-9.19.076-1.032.268-2.354.493-3.399.062-.29.102-.528.087-.528s-.299.223-.63.496c-1.983 1.632-3.936 2.491-5.929 2.608-2.535.149-5.004-.907-7.656-3.275-.718-.64-2.913-2.888-2.868-2.936.019-.022.707.082 1.528.23 1.34.241 1.614.265 2.653.23 1.313-.045 1.836-.167 2.782-.651 1.252-.641 2.17-1.662 2.858-3.176.734-1.615 1.017-3.22.946-5.36-.091-2.752-.788-5.022-2.204-7.178-2.664-4.055-3.936-6.971-4.385-10.056-.067-.464-.133-.856-.146-.87s-.068.1-.122.252a69 69 0 0 1-.892 2.055c-1.81 4.054-3.266 5.628-5.21 5.628-.708 0-1.23-.156-2.02-.605l-.59-.335-.84.394c-1.99.935-3.375 1.301-5.167 1.366-1.797.065-3.001-.2-4.404-.97-1.295-.71-2.627-1.957-3.57-3.34-.48-.707-1.89-3.125-1.848-3.17.01-.012.537.134 1.172.323 1.014.302 1.264.345 2.044.354 1.358.016 2.547-.393 3.827-1.317.539-.39 1.522-1.277 1.567-1.414.013-.04-.1-.341-.25-.669-.466-1.011-.623-1.762-.615-2.93.006-.867.038-1.121.22-1.735.578-1.942 1.388-3.146 4.327-6.432 1.963-2.194 3.222-3.686 3.377-4.003.077-.158.057-.154-.254.043-2.389 1.516-4.52 2.58-6.095 3.038-.88.257-2.307.279-2.936.046-1.482-.55-2.493-1.84-3.133-3.996l-.217-.73-.508.055c-1.39.15-2.426.467-3.498 1.073-.503.285-.8.537-1.377 1.17-.645.71-.806.95-1.313 1.967-.318.637-.6 1.132-.626 1.1-.082-.103-.672-2.82-.797-3.675-.15-1.019-.156-2.663-.013-3.62.585-3.95 3.07-6.891 7.46-8.831l.654-.288.296-1.079c1.103-4.016 3.084-5.682 6.147-5.17 1.858.31 3.7 1.214 7.886 3.872 1.813 1.15 2.16 1.342 2.434 1.34.631-.004 1.288-.512 1.159-.896-.144-.424-.424-.696-.823-.798-.221-.057-.871-.265-1.445-.462-4.592-1.579-7.296-3.91-8.202-7.07-.157-.545-.181-.805-.181-1.9 0-1.046.03-1.39.17-1.952.309-1.235.98-2.726 1.68-3.73.31-.445.324-.54.151-1.107-.584-1.916-1.856-3.83-3.186-4.794-.915-.665-1.602-.913-3.09-1.118-.581-.08-1.085-.173-1.12-.207-.072-.069 1.957-1.665 2.768-2.176 3.327-2.099 6.693-2.127 9.863-.084.833.537 1.948 1.46 2.674 2.213l.502.522.832-.365c1.294-.568 2.068-.735 3.398-.73.9.004 1.241.04 1.738.187 4.398 1.307 5.803 6.554 3.245 12.12-.563 1.228-1.238 2.405-1.868 3.26-.141.191-.256.376-.256.412 0 .107.563-.043.826-.22.6-.404 1.946-2.34 2.552-3.67.66-1.451 1.211-3.401 1.29-4.57.205-3.05 1.121-5.254 2.466-5.928.758-.38 1.84-.407 2.794-.068.461.163 1.8.856 2.257 1.167l.325.222.4-.616c.564-.87 1.198-2.346 1.43-3.334.157-.664.197-1.037.195-1.81-.004-1.262-.161-1.93-.815-3.43-.28-.641-.508-1.175-.508-1.187 0-.053 2.555 1.107 3.121 1.417 4.672 2.562 6.427 7.222 5.108 13.566-.106.51-.193.97-.193 1.022 0 .051.165.222.367.38.202.157.554.477.782.712 1.672 1.717 2.007 3.922.97 6.38q-1.587 3.766-8.545 9.64c-.883.746-1.204 1.159-1.628 2.093-.566 1.247-.783 2.302-.78 3.808.003 2.452.71 5.062 2.372 8.745 1.338 2.966 1.813 3.87 2.445 4.657 4.02 5.004 5.926 9.415 6.642 15.37.09.745.188 1.441.218 1.547.03.107 2.43 3.369 5.333 7.25l5.28 7.055.555-.436c1.206-.948 2.593-1.576 4.263-1.93.724-.154 3.58-.154 4.365 0 1.45.283 2.456.604 4.077 1.299.793.34 1.161.538 1.125.604-.029.055-.25.386-.493.737-1.266 1.833-2.037 3.577-2.31 5.223-.128.771-.109 2.126.039 2.791.281 1.268 1.02 2.563 1.988 3.485 3.226 3.075 9.275 3.92 16.389 2.29.6-.137 7.054-1.335 14.342-2.662s13.356-2.446 13.483-2.489c.22-.073.222-.077.039-.088-.106-.007-2.536-.29-5.4-.631l-5.205-.62-.32.193c-.974.593-1.985.881-3.292.938-1.262.056-1.91-.07-2.823-.55-2.29-1.202-2.892-3.82-1.625-7.051l.28-.715-.228-.588c-.673-1.734-.614-3.719.171-5.708.154-.39.272-.716.263-.726s-.487.074-1.06.186c-1.633.32-5.37.94-7.07 1.174-4.141.57-6.966.761-10.277.696-3.669-.073-5.743-.37-8.363-1.195-2.008-.633-4.11-2.066-5.9-4.021-2.082-2.275-3.335-4.79-3.945-7.918-.16-.815-.182-1.158-.18-2.75 0-2.081.118-2.896.665-4.635.859-2.727 2.067-4.366 4.294-5.824 2.062-1.35 3.992-1.965 6.407-2.042 1.555-.05 2.373.056 3.528.453 3.53 1.212 5.984 4.483 6.922 9.222.183.92.493 3.208.46 3.378-.018.086-.232-.014-.759-.356-2.303-1.493-4.092-2.026-5.647-1.681-2.733.606-3.88 3.53-2.7 6.882.532 1.51 1.393 2.509 2.861 3.32 1.305.72 2.826 1.134 5.486 1.491 1.394.187 6.819.216 9.002.048 2.539-.195 6.006-.537 6.67-.657l.258-.047-.915-1.031c-1.44-1.625-2.185-2.692-3.099-4.44-1.447-2.765-2.274-6.081-2.532-10.155l-.055-.869-.623-.344c-2.122-1.172-3.642-3.016-4.567-5.541-.459-1.253-1.227-4.197-1.12-4.295.018-.017 4.136-2.935 9.15-6.485s9.174-6.517 9.242-6.593.219-.442.336-.815c1.068-3.406 3.37-5.976 6.391-7.137 1.587-.61 2.874-.744 5.023-.524 10.842 1.114 24.148 4.93 35.8 10.267 1.481.679 3.782 1.809 4.576 2.248.264.147.587.266.717.266.245 0 1.435-.465 1.504-.589.022-.038-.594-.384-1.37-.769-12.848-6.375-27.253-10.795-41.754-12.813-.786-.109-1.447-.218-1.469-.242-.022-.025-.016-.293.014-.597.053-.54.06-.552.258-.514.113.022.917.136 1.788.254 6.541.887 13.864 2.493 20.476 4.492 7.641 2.31 15.474 5.426 21.925 8.723l1.41.721.425-.32c.234-.176.425-.346.425-.378 0-.064-.768-.463-3.207-1.666-12.663-6.25-26.647-10.563-41.675-12.856-1.521-.232-1.576-.248-1.647-.453-.11-.314-.107-5.457.003-6.561.122-1.229.372-2.89.558-3.695.082-.357.149-.666.149-.687 0-.02-.165-.106-.367-.189-.673-.277-1.988-1.034-2.688-1.549-.89-.652-1.529-1.291-2.067-2.064-1.057-1.519-1.46-3.057-1.332-5.097l.055-.894h.324c.279 0 .483.113 1.452.802 2.696 1.916 6.102 3.842 11.23 6.346 1.019.499 1.878.932 1.907.963s-.14.436-.375.902c-1.065 2.106-1.571 3.91-1.571 5.6 0 .992.176 1.81.591 2.734.511 1.14 1.231 1.912 2.35 2.524 1.025.56 1.51.697 2.665.754 3.044.149 5.3-1.657 6.074-4.86.158-.654.179-.923.17-2.225-.007-1.072-.052-1.732-.162-2.393-.084-.502-.132-.926-.106-.943.025-.016.429-.093.896-.17 3.181-.524 5.802-1.508 9.364-3.516 1.072-.603 1.502-.808 1.553-.736.038.055.3.557.582 1.115 1.425 2.824 3.237 5.62 5.824 8.987.65.847 1.183 1.573 1.183 1.613s-.356.3-.79.576c-1.737 1.105-2.76 2.27-3.116 3.549-.149.537-.15 1.572 0 2.097.321 1.138 1.221 2.426 2.349 3.365.664.552 2.025 1.284 2.91 1.564 1.282.406 2.741.379 3.708-.07 1.135-.526 1.928-1.7 2.243-3.317.156-.807.162-2.669.01-3.999l-.097-.867.274.004c.15 0 .605.038 1.008.082 1.729.188 4.554.265 6.355.175 2.957-.149 4.998-.432 7.881-1.093.797-.183 1.436-.308 1.421-.278-.886 1.791-1.597 2.896-2.363 3.672-.66.668-1.217 1.058-2.016 1.406-1.045.456-1.63.548-3.522.552l-1.71.005-.485 1.145c-.975 2.306-2.417 5.098-3.76 7.28l-.65 1.058.433-.465c.239-.256.804-.932 1.256-1.503.453-.57.853-1.036.889-1.036.127 0 1.439 3.075 1.746 4.093 1.188 3.935 1.12 7.612-.229 12.532-.165.604-.3 1.143-.3 1.2s.087.216.194.356c1.087 1.415 1.143 5.157.12 8.065-.432 1.23-.733 1.815-1.799 3.5-1.207 1.907-1.806 4.031-1.602 5.678.31 2.512 2.166 3.618 4.582 2.733.802-.294 1.796-.922 2.894-1.828.577-.477 1.057-.858 1.067-.847.033.036-.274 2.545-.396 3.234-.651 3.669-2.245 6.91-4.403 8.953-.513.486-1.65 1.34-1.914 1.435-.044.016-.02.313.057.729.17.917.26 2.953.18 4.073-.14 1.93-.644 4.364-1.42 6.855-.376 1.202-.442 1.51-.476 2.206-.063 1.276.203 2.054.946 2.77.68.655 1.698.901 2.735.661 1.95-.452 3.699-2.213 4.98-5.016l.43-.937.486.095.486.095.05.423c.1.813.068 3.789-.051 4.902-.413 3.861-1.572 6.76-3.525 8.813-.894.94-1.788 1.541-3.004 2.02-.667.264-1.84.551-2.254.553h-.283l-.572 1.29c-1.642 3.704-3.857 6.669-7.15 9.57-1.547 1.363-2.093 2.03-2.646 3.23-1.055 2.29-.71 4.417.858 5.293.471.263 1.463.44 2.119.376 1.535-.15 3.14-.77 5.389-2.086.551-.323 1.019-.57 1.038-.549.056.062-.638 2.568-.934 3.372-1.267 3.442-3.341 6.087-5.88 7.497-1.665.925-3.242 1.385-5.177 1.512-.475.03-.875.096-.906.148s-.058.307-.058.569c-.003.896-.276 2.322-.673 3.502a12.92 12.92 0 0 1-6.918 7.658c-.511.23-.675.359-1.129.891-1.006 1.18-1.502 2.362-1.51 3.597-.003.66.02.778.275 1.365.382.88.702 1.236 1.71 1.898 2.88 1.891 5.364 3.984 7.518 6.335.934 1.018 3.548 4.262 3.488 4.328-.012.012-.768-.18-1.681-.428-2.024-.548-2.861-.711-4.015-.781l-.886-.054 2.07 2.23c11.302 12.178 18.886 22.889 23.266 32.858.59 1.344.683 1.503 1.141 1.973 2.439 2.498 6.897 3.688 11.363 3.033 4.835-.71 8.372-3.344 9.425-7.02.938-3.273-.107-7.391-3.015-11.883a45 45 0 0 0-2.722-3.73c-2.82-3.404-4.47-5.935-5.356-8.21-.32-.824-.565-1.655-.64-2.18-.03-.198-.078-.378-.108-.398s-1.268 1.625-2.752 3.657l-2.823 3.865c-.102.138-.07-.192.172-1.72.995-6.315 1.262-9.029 1.265-12.87.003-2.712-.056-3.547-.389-5.547-1.08-6.5-4.548-11.49-10.523-15.14-.435-.267-.792-.526-.792-.575 0-.05.059-.294.13-.543.146-.505.16-.51.88-.368.23.046 1.637.256 3.124.467 3.981.566 5.232.823 7.01 1.438 4.277 1.48 7.18 4.318 9.261 9.055.502 1.143 1.232 3.179 1.343 3.744.09.465.196.4.195-.121 0-.27.034-2.434.076-4.808s.115-7.236.162-10.806l.085-6.49-.69-1.296c-4.513-8.463-7.908-16.874-9.632-23.86-1.055-4.275-1.51-7.613-1.511-11.116-.001-2.7.236-4.683.816-6.784 1.755-6.361 6.224-10.414 13.417-12.167 1.579-.384 2.585-.498 4.425-.501 2.584-.004 4.802.376 7.012 1.202l.675.253.345-1.199c1.399-4.862 2.23-9.163 2.683-13.892.22-2.298.241-6.96.04-8.928-.455-4.453-1.43-8.145-3.04-11.51-.74-1.546-1.726-2.96-3.264-4.68-1.444-1.617-2.69-2.64-4.137-3.398-1.306-.685-1.935-.847-3.288-.848-.97 0-1.194.025-1.662.196-1.62.592-2.827 1.813-3.631 3.672-1.69 3.91-.86 9.213 2.168 13.86.63.967 1.168 1.655 2.353 3.01 2.265 2.59 3.449 4.695 3.98 7.077 1.078 4.837-1.362 9.634-6.704 13.175-.811.538-1.617.96-1.686.884a11 11 0 0 1-.33-.444l-.27-.374.293-.43c.501-.737.65-1.293.647-2.419-.003-1.319-.265-2.356-1.092-4.32-.937-2.229-3.044-5.721-6.429-10.659-1.806-2.635-3.615-5.394-4.077-6.22-1.269-2.269-2.079-4.874-2.342-7.531-.114-1.156-.05-3.6.123-4.655.915-5.6 3.841-10.434 8.2-13.54 3.087-2.202 6.825-3.3 10.24-3.01 3.045.26 5.827 1.297 8.138 3.034 7.175 5.395 11.421 12.621 12.715 21.64.36 2.51.482 6.681.275 9.45-.37 4.973-1.26 9.764-2.903 15.62-1.014 3.615-2.494 8.13-2.817 8.594l-.2.29.521.425c2.7 2.204 4.61 5.122 5.58 8.528.833 2.92.915 6.414.233 9.9-.542 2.772-1.115 4.431-3.378 9.774-2.136 5.046-3.012 7.39-3.645 9.764-.358 1.34-.664 2.913-.776 3.988-.116 1.124-.098 3.183.035 4.014.063.392.106.722.096.733-.049.054-.848.373-.933.373-.115 0-.993-1.82-1.39-2.878-.985-2.63-1.416-5.424-1.222-7.935.161-2.086.571-3.852 1.44-6.197 1.488-4.022 2.049-6.685 2.049-9.73 0-2.824-.464-4.589-1.5-5.718-.5-.544-.842-.716-1.426-.716-.36 0-.362.004-.206.335.203.43.583 1.634.774 2.46.307 1.317.433 2.327.48 3.85.084 2.697-.337 5.652-1.3 9.138-.567 2.051-1.71 5.723-1.763 5.657-.06-.077-.242-.615-1.123-3.33-.856-2.641-1.341-3.733-2.438-5.49-.839-1.345-.906-1.435-.955-1.28-.022.07-.178.832-.348 1.693-1.122 5.706-1.91 11.928-2.516 19.862l-.118 1.54 1.285 2.395a651 651 0 0 1 4.159 7.853c.372.721.759 1.47.86 1.663l.183.352.516-.37c2.37-1.706 5.247-2.564 9.93-2.962 2.235-.19 2.153-.244 1.162.755-1.512 1.524-2.468 2.776-3.386 4.433-2.58 4.654-4.363 11.881-5.673 22.995-.17 1.447-.229 2.29-.229 3.3 0 2.635-.47 4.225-1.583 5.358-1.556 1.582-3.782 1.429-6.318-.436-.597-.44-1.4-.876-1.75-.953-.295-.065-.303.019-.078.754.346 1.129.664 1.645 1.807 2.938 3.35 3.787 5.345 7.43 6.21 11.34.374 1.691.433 2.268.43 4.19-.004 1.912-.104 2.752-.539 4.498-.51 2.054-1.53 4.318-2.782 6.178-3.395 5.046-8.965 8.511-14.018 8.72-1.58.065-2.565-.076-4.303-.617-.156-.048-.136.036.25 1.107.886 2.45 1.735 5.639 2.154 8.082.404 2.356.466 3.16.464 6.008 0 2.344-.022 2.813-.175 3.882-.095.67-.18 1.254-.19 1.3-.008.046.212.186.49.312 2.386 1.075 5.684 3.43 10.215 7.294 1.858 1.585 2.404 1.986 3.099 2.28.695.295 1.28.375 1.866.257 1.413-.286 3.613-1.982 8.19-6.312 3.87-3.662 6.079-5.463 7.977-6.505 2.038-1.12 3.498-1.311 4.802-.63.572.299 1.276.985 1.63 1.591l.234.4-.185 6.406c-.102 3.524-.202 6.424-.221 6.445-.02.021-.42-.3-.888-.715-.949-.837-1.681-1.341-2.377-1.634-.373-.158-.615-.196-1.237-.196-.67 0-.829.03-1.197.22-2.282 1.177-4.163 5.854-5.63 13.997-.209 1.164-.398 2.23-.42 2.37-.047.297-.16.434.95-1.148 1.652-2.353 3.371-3.955 4.938-4.6.47-.194 1.978-.641 2.162-.641.044 0-.115.6-.352 1.332-.633 1.952-1.072 3.447-1.41 4.794-1.396 5.583-1.486 10.96-.271 16.247.364 1.585.584 2.258.976 2.998 1.024 1.928 2.139 4.73 2.75 6.913.832 2.966 1.323 6.645 1.33 9.944.002 1.311-.173 5.331-.233 5.331-.026 0-2.325-2.256-5.11-5.014-2.784-2.758-5.355-5.26-5.713-5.56-2.041-1.71-3.841-3.564-4.934-5.082-.858-1.19-.9-1.219-.253-.169 1.288 2.087 3.712 4.912 6.607 7.701.862.831 1.531 1.743 2.732 3.724 2.142 3.533 3.268 6.997 3.27 10.066.002.677-.28 3.497-.373 3.758-.043.12-.205-.18-.663-1.227-.738-1.682-1.052-2.208-1.82-3.043-1.06-1.154-2.197-1.819-4.05-2.37-2.95-.878-5.513-3.3-7.425-7.015-.203-.396-.774-1.326-1.267-2.067-.976-1.466-1.033-1.493-.86-.407.28 1.77 1.639 4.703 3.885 8.39 1.126 1.851 3.004 4.723 4.455 6.815l1.17 1.688.689.398c3.05 1.765 5.207 4.237 6.717 7.701.6 1.374.989 2.633 1.548 5.003l.458 1.94-.4-.37c-.221-.202-.759-.7-1.196-1.104-2.087-1.934-3.714-2.71-5.656-2.7-1.321.007-2.032.235-4.045 1.294-4.326 2.276-6.188 2.857-7.613 2.37-1.845-.628-2.22-3.016-1.155-7.372.222-.91.231-1.006.144-1.48-.121-.656-.596-2.273-.796-2.709-.222-.485-.654-1.113-.894-1.3l-.207-.162v3.524c0 2.928-.023 3.702-.138 4.582-.549 4.214-1.713 6.731-3.784 8.185l-.59.414-.037 1.603c-.045 2-.21 3.074-.709 4.623-.956 2.965-3.277 5.275-6.314 6.282-1.007.334-3.303.883-3.248.776.027-.05.305-.5.617-.997 1.098-1.747 1.375-2.64 1.37-4.427-.003-1.373-.192-2.342-.716-3.674-.393-.996-.527-1.22-.693-1.15-.071.03-.599.074-1.173.1-1.672.073-2.7-.263-3.53-1.155-.716-.77-1.052-1.835-1.061-3.373-.003-.527-.033-.908-.066-.846-2.409 4.512-4.161 6.756-6.315 8.087-1.475.912-3.253 1.246-4.841.91l-.606-.128-.178.234c-.29.38-1.075 2.205-1.302 3.026-.191.694-.21.887-.214 2.158-.003 1.29.013 1.447.2 2.053.112.361.47 1.175.794 1.809.326.633.581 1.16.569 1.17-.077.066-3.126-1.112-3.79-1.464-2.928-1.546-4.735-3.997-5.35-7.253-.196-1.042-.289-2.613-.216-3.669.064-.93.06-.966-.091-1.009-.387-.11-1.671-.898-2.126-1.306-.984-.881-1.75-2.19-2.105-3.593-.137-.541-.167-.892-.168-1.97-.003-1.441.127-2.204.579-3.419.123-.33.223-.62.221-.643 0-.024-.288.567-.637 1.311-.67 1.429-.98 1.934-1.485 2.421-.717.692-1.222.93-1.984.932-1.483.006-2.824-1.288-3.835-3.697-.177-.422-.37-.917-.428-1.1l-.106-.333-.803.01c-1.799.023-3.703.844-4.952 2.134-.697.72-1.04 1.278-1.576 2.57-.238.572-.461 1.074-.496 1.114-.072.084-.837-2.479-1.072-3.588-.215-1.01-.332-2.869-.237-3.742.093-.855.193-1.377.4-2.095.754-2.604 2.84-5.056 5.725-6.729l.826-.478v-.594c0-1.44.491-2.498 1.407-3.033.45-.263.551-.287 1.336-.32.98-.04 1.537.056 3.61.624.752.206 1.386.375 1.41.375.022 0-.327-.208-.776-.463-1.004-.569-1.426-.903-2.024-1.603-1.455-1.703-1.33-3.74.346-5.643.357-.406.979-.994 1.381-1.306.839-.651.813-.51.306-1.697-.905-2.117-2.334-3.676-3.966-4.328-.285-.114-1.036-.297-1.668-.408-.633-.11-1.162-.215-1.177-.23-.015-.017.52-.435 1.188-.93 2.528-1.873 4.365-2.602 6.558-2.602 2.732 0 5.031 1.196 7.615 3.962l.98 1.05.812-.178c5.826-1.285 9.39 4.588 9.405 15.496l.003 2.008.284.083c.573.167 2.32.526 3.337.685 1.297.204 2.905.217 3.796.032 1.311-.272 2.533-.967 3.383-1.924l.418-.472-.13-1.887c-.383-5.55.045-8.952 1.766-14.027 1.5-4.423 1.98-6.711 1.806-8.62-.125-1.367-.63-2.11-1.688-2.483-.708-.25-2.52-.312-3.727-.128-1.83.28-2.462.336-3.886.343-1.572.007-2.264-.08-3.353-.426-2.456-.779-4.317-2.622-5.702-5.647-1.148-2.507-1.892-5.391-2.451-9.497-.162-1.192-.509-4.506-.509-4.866 0-.053-.223.167-.496.49-.605.716-1.309 1.243-2.458 1.843-1.398.73-3.737 1.493-5.082 1.658-1.265.156-2.241.914-2.778 2.159-.38.878-.487 1.531-.447 2.702.042 1.232.32 2.276.865 3.244.757 1.342 1.488 2.049 3.006 2.9.504.283.886.543.85.578-.172.164-1.938 1.304-2.497 1.612-2.733 1.505-5.067 1.3-7.127-.627a10 10 0 0 1-.884-.967l-.39-.506-.52.801c-1.447 2.23-3.51 3.983-5.608 4.766-.544.203-1.875.605-1.899.574-.047-.06-.59-2.235-.693-2.77-.2-1.044-.343-2.598-.344-3.731 0-1.087.164-3.308.307-4.13.126-.727.136-.72-.559-.316-1.273.742-2.554 1.137-3.926 1.213-2.764.152-5.273-1.154-6.953-3.62-.606-.89-.935-1.787-1.34-3.654l-.05-.233h.923c2.752 0 5.157-.987 6.814-2.798 1.11-1.214 1.515-2.318 1.44-3.929-.065-1.363-.523-2.549-1.634-4.232-1.976-2.989-3.31-6.113-3.976-9.309-.383-1.835-.43-2.406-.437-5.242l-.005-2.704-.807-.37c-3.933-1.806-8.093-2.539-11.898-2.096-3.297.383-6.28 1.595-8.638 3.51-.688.559-1.78 1.665-2.044 2.07l-.164.252.344-.26c1.573-1.183 3.856-2.437 6.062-3.327 1.194-.482 4.055-1.468 4.104-1.414.019.02-.256.644-.61 1.386-2.012 4.204-3.053 7.38-3.686 11.242-.267 1.626-.463 3.717-.464 4.95-.003 3.253-.528 6.151-1.533 8.463-1.03 2.37-2.978 4.493-5.289 5.766-.344.19-.586.371-.548.412s.606.403 1.265.807c2.421 1.488 4.005 2.683 5.196 3.923 1.218 1.268 1.94 2.484 2.35 3.962.185.662.207.877.205 1.97 0 1.042-.032 1.35-.2 2.041-.253 1.046-.697 2.207-1.265 3.306-1.13 2.186-1.628 4.092-1.704 6.524-.05 1.597.02 2.359.376 4.124.502 2.482.714 4.003.838 6.016.213 3.438-.354 6.916-1.564 9.597-.404.894-1.33 2.578-1.383 2.515-.028-.033-.177-.569-.33-1.189-.522-2.107-1.346-3.606-3.21-5.841-.703-.842-1.85-1.996-3.984-4.006-2.14-2.016-3.508-3.645-4.27-5.083l-.366-.69-.023.842c-.073 2.687 1.057 5.551 3.586 9.094.416.582 1.381 1.857 2.146 2.835 2.24 2.864 3.265 4.486 4.224 6.683 1.468 3.36 1.803 6.28 1.153 10.051-.142.827-.28 1.503-.306 1.503s-.337-.695-.692-1.545c-.988-2.364-1.593-3.469-2.662-4.865-2.244-2.933-5.792-5.546-10.825-7.975-1.514-.73-4.48-2.402-5.448-3.069-1.536-1.059-2.845-2.432-3.571-3.748-.14-.252-.275-.459-.301-.46-.027-.001-.07.14-.096.315-.183 1.213.251 2.65 1.285 4.252.652 1.01 1.064 1.526 2.567 3.216 1.35 1.518 2.043 2.446 2.577 3.45.86 1.617 1.231 3.37 1.023 4.843-.095.669-.616 2.624-.7 2.624-.026 0-.394-.673-.817-1.494-1.38-2.68-2.169-3.3-5.915-4.638-.867-.31-1.936-.75-2.376-.98s-.781-.37-.758-.313c.488 1.216.922 2.73 1.132 3.94.132.762.4 3.236.357 3.29-.007.01-.535-.366-1.17-.835-1.748-1.288-3.325-2.066-5.445-2.683-.828-.24-1.86-.456-1.912-.4-.024.028.008.116.073.198.064.082.208.34.32.572.945 1.96.736 4.114-.62 6.42l-.343.582.198.903c.417 1.91.542 3.852.347 5.387-.177 1.388-.75 3.035-1.453 4.167-.693 1.118-1.945 2.376-3.218 3.235-.662.447-3.159 1.777-3.187 1.698-.01-.031.156-.532.37-1.112.594-1.606.74-2.51.61-3.78q-.221-2.186-1.606-4.304l-.439-.671-1.196.027c-2.037.046-3.428-.35-4.788-1.367-1.291-.965-2.427-2.757-2.98-4.7l-.22-.773h-.717l-.13.74c-.35 1.984-1.265 4.154-2.437 5.776-1.653 2.29-3.947 4.224-6.431 5.42-.717.346-.747.371-.789.665-.279 1.955-.018 4.02.696 5.519.411.862.913 1.48 1.944 2.393.52.46.927.857.905.881-.064.07-2.487.261-3.247.256a13 13 0 0 1-1.43-.111zm1.709-1.461c-1.761-2.289-2.264-5.99-1.275-9.394l.202-.698-.191-.275c-.545-.783-1.348-1.336-2.377-1.638-.803-.236-2.176-.199-3.034.083-1.194.392-2.011 1.05-2.483 2-.266.534-.267.745-.015 1.83.567 2.443 1.443 4.321 2.672 5.733 1.578 1.81 3.561 2.658 6.438 2.749l.372.012zm121.423-2.935c-.376-.988-.488-3.002-.239-4.322.353-1.87 1.356-4.092 2.375-5.263.202-.232.229-.314.19-.58-.096-.646-.498-1.396-1.093-2.036-.464-.5-.722-.696-1.37-1.038-1.049-.555-1.757-.722-2.833-.668-.596.03-.948.094-1.274.231-.501.211-1.2.788-1.34 1.107-.276.627-.439 4.026-.255 5.327.2 1.426.707 2.877 1.383 3.968.418.674 1.257 1.589 1.96 2.136.53.414 2.303 1.42 2.51 1.426.076 0 .073-.062-.013-.288zm-98.738-3.106c.862-.577 1.576-1.196 2.157-1.869 1.456-1.685 2.078-3.356 2.166-5.82.05-1.409-.072-2.547-.447-4.147-.286-1.218-.414-1.504-.802-1.793-.585-.435-1.162-.615-1.97-.614-1.502.003-2.938.695-4.065 1.96-.61.685-1.02 1.562-1.085 2.32l-.046.54.703.752c1.569 1.681 2.584 3.757 2.92 5.967.11.736.119 1.02.049 1.815-.045.518-.107 1.01-.138 1.09-.077.21-.028.192.558-.2m121.384-.335c3.448-1.32 5.327-3.806 5.909-7.82.056-.39.096-1.38.094-2.328-.004-1.87-.021-1.937-.595-2.516-.753-.76-1.704-1.082-2.988-1.01-.932.052-1.602.245-2.459.707-.995.537-2.063 1.856-2.186 2.7-.013.089.09.333.231.543.574.855 1.134 2.073 1.464 3.183.358 1.205.439 1.802.434 3.206-.005 1.46-.127 2.176-.531 3.145-.104.248-.16.451-.122.451.036 0 .373-.117.749-.26m-169.209-2.658c.276-1.117 1.036-2.517 1.9-3.5.972-1.105 2.524-2.215 3.822-2.732.69-.276.714-.294.806-.623.155-.552.108-1.944-.085-2.53-.358-1.083-1.087-2.227-1.847-2.893-.608-.534-1.562-1.026-2.202-1.134-.592-.101-1.352-.004-1.649.208-.275.198-1.272 1.653-1.793 2.618-.571 1.058-.973 2.059-1.226 3.053-.24.943-.327 2.675-.184 3.647.218 1.475.863 3.015 1.89 4.513l.315.457.064-.288c.035-.159.12-.517.19-.796m14.655-.502c.097-.566.595-1.5 1.088-2.04 2.297-2.516 6.832-2.396 8.834.232.184.242.422.627.527.855.186.401.188.425.067.755-.068.187-.107.359-.086.382.06.066 1.48-.787 2.287-1.374 2.197-1.597 3.934-3.731 4.942-6.07a11.6 11.6 0 0 0 .905-3.366c.065-.536.131-1.022.147-1.08.022-.084.297-.095 1.247-.053.67.03 1.246.08 1.279.113.033.032.149.418.258.856.247.993.581 1.89.99 2.658.384.721 1.462 1.926 2.073 2.319.892.573 2.199.942 3.332.94h.55l-.226-.197c-.194-.17-.23-.268-.257-.698-.173-2.738 2.371-5.616 5.429-6.14 1.399-.24 3.11.237 3.82 1.066.102.119.216.216.253.216s.222-.352.41-.783c.598-1.361.707-2.51.346-3.66-.296-.94-.627-1.397-1.953-2.69-.52-.508-.955-.952-.967-.987-.03-.085 3.245.443 4.457.72 2.048.466 4.097 1.29 5.552 2.232l.406.263v-.21c0-.362-.517-2.435-.815-3.268-.3-.84-1.009-2.436-1.417-3.193a7 7 0 0 1-.24-.473c0-.013.192-.17.429-.348l.43-.325.594.64c1.105 1.188 1.876 1.63 4.448 2.556 1.76.633 3.065 1.25 3.95 1.867.55.384 1.5 1.422 1.783 1.95.11.208.22.378.244.378.077 0-.049-1.338-.177-1.881-.242-1.025-.94-2.423-1.72-3.45-.195-.257-.897-1.075-1.561-1.82-2.276-2.554-3.275-4.078-3.838-5.857-.181-.572-.21-.794-.21-1.675-.002-.848.026-1.105.175-1.561.169-.52 1.006-2.201 1.097-2.204.023 0 .158.314.3.698.96 2.607 2.055 3.972 4.448 5.543.928.609 3.826 2.206 5.285 2.913 4.883 2.366 8.554 5.115 10.887 8.151.563.733 1.517 2.256 1.855 2.962l.162.339.003-1.016c.008-2.775-.8-5.504-2.493-8.42-.787-1.355-1.377-2.186-3.182-4.483-3.653-4.648-5.135-7.435-5.647-10.621-.216-1.342-.115-3.314.238-4.642l.127-.48.362.001c.539.001.705.074.754.327.099.512.45 1.528.7 2.022.756 1.495 2.052 3.014 4.739 5.553 3.516 3.323 5.15 5.336 6.227 7.67l.364.79.186-.4c.532-1.146 1.027-3.08 1.225-4.788.105-.905.123-1.544.09-3.13-.042-2.044-.175-3.36-.518-5.129-.53-2.736-.625-3.331-.68-4.24-.192-3.204.41-5.938 1.991-9.042.811-1.592 1.181-2.976 1.187-4.443.004-1.12-.122-1.748-.537-2.654-.366-.8-.624-1.192-1.308-1.989-1.301-1.515-2.943-2.726-7.009-5.173-.882-.53-1.577-.992-1.545-1.026s.51-.277 1.063-.539c3.005-1.428 4.827-3.087 6.017-5.478 1.09-2.191 1.664-5.18 1.672-8.698.004-2.425.55-6.032 1.362-9.013.473-1.734 1.305-4.035 2.026-5.604.176-.383.32-.714.32-.735s-.34.088-.754.242c-3.697 1.382-6.366 3.005-8.806 5.358l-.558.538-.424-.322c-.233-.178-.426-.353-.427-.389-.008-.176.606-1.433 1.076-2.202 1.897-3.105 5.336-5.554 9.352-6.66 1.779-.491 3.223-.677 5.254-.677 3.26 0 6.469.702 9.653 2.113.529.234.99.426 1.024.426s.063-.098.063-.218c0-.273.423-2.425.627-3.19l.153-.57-.535-.698c-1.701-2.22-2.724-4.877-3.15-8.187-.189-1.468-.225-4.444-.076-6.263.07-.86.143-1.622.161-1.692.065-.242-3.049-1.91-5.525-2.96-3.73-1.583-7.284-2.471-11.203-2.8-1.513-.128-5.143-.057-6.566.127-8.82 1.14-17.047 5.509-23.675 12.572-2.331 2.484-4.054 4.75-5.768 7.584-1.781 2.947-3.742 5.011-5.818 6.128-1.318.708-2.165.938-3.645.99-1.392.049-2.197-.08-3.523-.566-1.428-.522-3.309-1.642-4.632-2.756-.253-.214-.46-.364-.46-.334s.104.315.232.634c.495 1.234.56 2.32.274 4.568-.167 1.31-.123 2.851.109 3.85.478 2.06 1.627 3.312 3.352 3.654.78.154 1.355.104 2.51-.22.619-.173.863-.213.836-.135-.021.06-.697 1.361-1.502 2.89-1.679 3.19-2.278 4.415-2.979 6.087-.96 2.292-1.681 4.723-2.063 6.956-.211 1.235-.199 1.297.196.952.17-.149.622-.436 1.005-.638 1.257-.664 2.244-.86 4.868-.967 2.038-.084 2.79-.196 3.805-.567 2.274-.832 3.963-2.524 6.2-6.206.268-.442.497-.818.51-.834.017-.023.778.414.941.539.011.008-.132.45-.32.98-1.094 3.103-1.536 5.53-1.538 8.454-.001 2.358.261 4.148.953 6.481.584 1.97 1.307 3.753 3.222 7.947.887 1.945.956 2.13.859 2.3-.058.103-.77.946-1.582 1.874-4.293 4.909-7.415 9.496-9.544 14.022-1.504 3.2-2.412 5.907-3.042 9.083-.142.713-.273 1.314-.292 1.334-.046.05-29.515 1.648-29.557 1.603-.018-.02.09-.467.24-.993.43-1.503.537-2.181.538-3.411 0-1.842-.408-3.077-1.373-4.155-1.045-1.168-2.369-1.607-3.825-1.268-.519.12-1.222.43-1.672.733l-.257.175.296.48c.563.912.84 2.11.752 3.258-.271 3.564-2.688 6.49-5.362 6.49-.53 0-.546-.007-.784-.318l-.243-.318.028.847c.023.72.059.913.238 1.293.24.512.7 1.033 1.188 1.346.324.208.357.212.916.12.817-.132 2.133-.116 2.94.036 1.836.348 4.649 1.8 5.683 2.932.246.27.29.366.25.557-.06.289-.302.528-.534.528-.097 0-.385-.168-.639-.373-2.392-1.928-5.132-2.861-7.359-2.505-.907.145-1.264.31-1.906.877-1.548 1.369-2.38 2.823-2.625 4.582-.129.929-.048 1.94.245 3.044.278 1.052.291 1.074.597.95.138-.054.634-.1 1.101-.1.733 0 .935.033 1.468.238.842.323 1.662.9 2.363 1.663 1.26 1.368 1.901 2.822 1.98 4.487.049 1.032-.04 1.604-.361 2.35l-.224.52.436.178c1.82.746 3.626.485 5.04-.728.937-.805 1.883-2.452 2.293-3.991.082-.31.183-.529.244-.529.058 0 .296.061.53.136l.427.135-.051.348c-.125.856-.718 2.368-1.282 3.274-.546.874-1.46 1.76-2.305 2.237-.232.13-.255.174-.212.409.077.42.528 1.5.857 2.05.29.487 1.297 1.65 1.428 1.65.034 0 .085-.13.112-.29zm137.89-2.673c3.194-.986 6.093-5.01 9.54-13.242.37-.885.699-1.639.731-1.676.046-.053.883.282.986.394.012.014-.103.365-.256.78-.736 1.995-1.303 4.057-1.501 5.46-.118.83-.063 2.542.098 3.02.371 1.11 1.201 1.683 2.569 1.773.393.025.84.02.995-.012.27-.055.276-.065.169-.245-.098-.164-.099-.263-.004-.758.496-2.6 3.055-4.548 5.989-4.56.926-.004 1.373.076 2.086.374.762.318 1.484.91 1.958 1.602.12.177.247.321.281.321s.272-.17.53-.377c1.198-.966 2.17-2.894 2.63-5.219.447-2.263.576-5.748.369-9.972-.066-1.326-.105-2.425-.088-2.444s.337.268.71.638c.374.37.915.852 1.203 1.073 1.045.804 1.665 2.091 2.258 4.69l.198.872-.268 1.075c-.397 1.592-.594 2.868-.596 3.858 0 .475.024.976.054 1.113.434 1.974 2.317 1.728 7.432-.97 2.54-1.34 3.208-1.553 4.848-1.553 1.725 0 3.045.453 4.655 1.597.35.25.638.44.638.424s-.134-.463-.299-.993c-1.34-4.328-3.593-7.276-7.108-9.302l-.801-.462-1.405-2.03c-4.76-6.88-7.415-11.6-8.284-14.733-.173-.623-.21-.924-.216-1.734-.005-.973-.004-.985.286-1.608.16-.345.354-.717.43-.826l.14-.199 1.444 2.16c.794 1.187 1.606 2.476 1.803 2.864.502.982 1.314 2.281 1.892 3.027 1.297 1.672 3.387 3.175 5.01 3.603 1.154.305 2.227.807 3.23 1.512.522.367 1.56 1.419 2.013 2.04l.247.34-.048-.678c-.194-2.75-1.242-5.636-3.221-8.877-1.143-1.87-1.544-2.388-2.838-3.661a78 78 0 0 1-2.337-2.42c-3.487-3.81-5.262-6.632-5.93-9.427-.174-.724-.569-3.505-.53-3.726q.025-.14.45-.25c.594-.151.583-.155.692.244.2.735.859 2.457 1.313 3.432 1.41 3.03 3.522 5.607 6.877 8.393.358.298 2.549 2.423 4.867 4.722l4.216 4.18.048-.621c.122-1.593.03-4.494-.21-6.545-.492-4.227-1.814-8.469-3.766-12.081-.231-.429-.448-1.003-.623-1.65-1.889-7-1.649-13.722.762-21.366l.34-1.078-.284.13c-1.218.556-2.5 1.712-3.795 3.422-.603.797-1.882 2.678-2.542 3.74-.136.22-.279.42-.317.446-.039.026-.283-.054-.544-.178-.433-.206-.47-.244-.433-.445.023-.121.13-.81.24-1.532 1.282-8.462 3.002-14.2 5.026-16.773.742-.942 1.701-1.637 2.552-1.847.528-.13 1.45-.11 2 .045.543.154 1.593.685 2.087 1.058.344.259.347.26.347.068 0-.425.229-8.294.266-9.14l.04-.905-.397-.476c-.218-.26-.574-.577-.79-.702-.363-.21-.463-.227-1.282-.223-.804.004-.95.03-1.532.271-2.074.861-4.194 2.523-9.092 7.128-3.195 3.003-4.558 4.168-6.228 5.319-1.932 1.332-3.491 1.444-5.329.383-.376-.218-1.268-.89-1.981-1.492-3.165-2.675-4.797-3.984-6.436-5.16-2.129-1.53-3.952-2.562-5.119-2.9-.287-.083-.521-.18-.521-.214s.067-.422.15-.861c.36-1.922.426-2.723.427-5.229 0-2.648-.09-3.725-.508-6.05-.569-3.167-1.434-6.105-2.938-9.978-.378-.973-.672-1.786-.653-1.807.018-.02.473.235 1.01.568 1.94 1.203 2.898 1.48 5.1 1.476 1.292-.004 1.587-.03 2.46-.232 4.874-1.124 9.387-4.648 12.047-9.407 2.825-5.054 3.023-10.755.564-16.248-1.136-2.537-2.528-4.617-4.758-7.108-1.05-1.175-1.414-1.756-1.855-2.968-.409-1.12-.39-1.962.05-2.415.173-.178.271-.203.791-.203.549 0 .65.03 1.34.396.412.217 1.015.593 1.34.834 1.132.836 2 1.18 2.983 1.181.811 0 1.303-.189 1.815-.7.88-.882 1.262-2.281 1.264-4.633 0-1.387.164-3.088.619-6.471 1.536-11.419 3.857-18.832 7.202-22.997l.46-.571h-.234c-.37 0-1.984.244-2.83.428-3.128.681-5.262 1.822-7.033 3.76-2.416 2.643-3.695 6.333-4.231 12.207l-.095 1.037-2.156 2.117c-1.185 1.164-2.164 2.107-2.175 2.095-.009-.013.063-1.42.163-3.128.19-3.221.434-8.13.769-15.47.692-15.154 1.414-23.42 2.746-31.438.287-1.726 1.123-6.01 1.2-6.146.047-.084-1.318-1.724-1.842-2.212-.363-.34-.438-.38-.472-.254-1.916 7.193-2.96 14.33-3.447 23.548-.228 4.326-.297 6.82-.386 13.972-.135 10.839-.33 18.983-.457 19.128-.026.03-.275.08-.555.111l-.507.057-.175-.872c-.743-3.714-1.904-7.059-3.237-9.325-1.07-1.82-2.63-3.535-4.193-4.608-1.55-1.064-3.84-1.94-6.37-2.434-.55-.108-4.554-.712-4.717-.712-.036 0 .263.245.665.545 4.817 3.593 7.748 8.502 8.72 14.603.304 1.91.355 2.69.354 5.501 0 3.21-.165 5.466-.654 8.928a24 24 0 0 0-.156 1.26c0 .087 1.084-1.327 2.414-3.15l2.415-3.307.047 1.499c.05 1.632.192 2.456.625 3.656.781 2.164 2.453 4.756 5.239 8.124 5.15 6.226 7.272 12.059 6.057 16.652-.402 1.52-1.13 2.833-2.24 4.04-1.948 2.12-4.744 3.464-8.376 4.03-.86.134-3.805.134-4.598 0-3.482-.588-5.965-1.77-7.622-3.63-.445-.499-.58-.734-1.076-1.882-3.225-7.464-8.42-15.513-15.597-24.16-2.515-3.032-6.28-7.277-8.866-10l-1.482-1.56-.661.136c-.724.148-1.761.51-2.251.783-.547.306-2.933 1.277-4 1.629-6.098 2.01-11.452 1.522-15.95-1.452-2.217-1.466-4.836-4.244-6.51-6.908l-.271-.43-.618.901c-.78 1.138-2.318 2.881-3.323 3.768-3.525 3.11-8.466 5.318-15.395 6.878-.776.175-1.41.341-1.41.37 0 .143 1.08 1.5 1.79 2.248 1.438 1.518 3.176 2.794 5.589 4.105 2.23 1.212 3.628 1.818 7.108 3.086 4.047 1.475 5.326 2.108 7.71 3.817 2.05 1.47 3.536 2.815 5.587 5.061 2.059 2.256 3.427 4.075 4.925 6.55 3.023 4.991 4.844 10.371 5.237 15.472.108 1.409.046 4.108-.123 5.32-.365 2.616-.829 4.142-2.417 7.954-2.395 5.748-3.439 9.185-4.046 13.329-.157 1.064-.18 1.53-.181 3.512-.001 2.496.075 3.29.5 5.187.638 2.847 1.922 5.777 3.76 8.582 1.168 1.783 1.657 3.017 1.798 4.54.26 2.807-1.236 5.335-4.088 6.908-1.382.762-3.235 1.311-4.43 1.312-.448 0-.448-.013.08 1.173.634 1.422 1.946 2.726 3.396 3.373 1.032.461 1.975.645 3.013.587 1.844-.102 3.288-.74 5.214-2.304.54-.438.997-.797 1.014-.797.016 0-.1.77-.26 1.713-.781 4.629-.79 7.562-.03 10.428l.121.452.286-.086c.487-.147 1.42-.575 1.947-.893 1.704-1.029 3.121-2.6 4.371-4.847.286-.513.544-.95.574-.97s.312.35.627.825c1.458 2.199 2.827 3.151 4.512 3.139.397-.003.928-.07 1.237-.155.597-.167 1.981-.806 2.27-1.05l.186-.155-.492-.366c-2.866-2.132-4.02-6.586-2.528-9.759.715-1.518 2.252-2.671 3.566-2.676.7-.003 3.523-.912 4.735-1.525 1.684-.852 2.745-2.042 3.195-3.583l.095-.327.513.06c.282.033.526.073.541.089s.076.764.135 1.663c.559 8.583 2.028 14.256 4.488 17.324.886 1.105 2.4 2.1 3.75 2.46 1.368.366 3.606.38 5.79.033 1.332-.211 3.463-.25 4.254-.078 2.93.637 3.748 3.131 2.636 8.044-.264 1.163-.621 2.357-1.419 4.739-1.097 3.274-1.516 5.113-1.734 7.61-.18 2.049-.125 4.81.155 7.86l.045.491-.603.68c-.671.756-1.07 1.1-1.806 1.557-2.053 1.274-4.632 1.394-8.92.415l-1.719-.392-.405-.093v-2.463c0-3.447-.204-5.605-.75-7.965-.875-3.776-2.404-6.091-4.504-6.822-.723-.251-1.935-.294-2.782-.099l-.656.151-.05.89c-.033.608-.102 1.044-.221 1.385-.65 1.868-2.216 3.418-4.21 4.167-.563.211-.724.233-1.778.238-1.097.006-1.186-.007-1.653-.226a7 7 0 0 1-.865-.492c-.35-.245-.373-.286-.422-.72-.03-.253-.07-.46-.092-.46-.128 0-1.068.836-1.535 1.366-1.304 1.477-1.426 2.815-.37 4.051.492.576.94.926 1.771 1.382.875.48 2.072.938 3.166 1.21.467.115.877.24.911.276s.038.313.01.615l-.052.55-1.053.158c-1.513.228-1.74.202-4.183-.468-2.109-.579-2.775-.702-3.558-.662-.524.028-.723.077-.957.235-.384.26-.655.894-.714 1.673l-.044.576.479.116c1.753.426 3.194 2.104 3.836 4.469.276 1.014.342 2.585.149 3.546-.191.952-.662 1.902-1.268 2.557-.391.423-.535.528-.68.498-.222-.047-.206.044.163.912.977 2.298 2.332 3.361 3.496 2.744.662-.351 1.16-1.09 2.117-3.144 1.055-2.261 1.432-2.897 2.18-3.675.604-.629 1.166-1.022 1.794-1.256.333-.125 3.119-.505 3.183-.435.013.014-.454.441-1.037.95-1.293 1.127-1.887 1.728-2.441 2.471-.945 1.266-1.574 2.578-1.917 3.996-.252 1.04-.254 2.65-.004 3.593.436 1.652 1.387 2.902 2.771 3.641.306.163.59.297.629.297s.096-.198.125-.44c.05-.406.097-.487.622-1.053.313-.337.754-.716.98-.841 2.378-1.32 5.823-.38 7.65 2.087.498.672.886 1.684.963 2.512.041.436.026.56-.084.692-.128.155-.124.163.086.203.486.093 1.926-.022 2.499-.199zm-31.709-11.853c1.06-1.105 2.302-1.813 3.929-2.24 1.04-.273 2.299-.39 3.17-.295l.695.075.213-.269c.358-.452.73-1.356.833-2.018.19-1.235-.01-2.546-.593-3.866-.597-1.355-1.533-2.221-2.687-2.486l-.43-.1-.75.42c-1.322.738-2.53 1.675-3.426 2.656-1.179 1.29-1.766 2.338-2.21 3.941-.198.711-.212.868-.217 2.37-.004 1.53.054 2.105.315 3.11.03.116.114.04.372-.338.183-.268.537-.7.786-.96m15.791-2.278c.046-.093.066-.17.044-.17-.021 0-.075.077-.12.17-.046.093-.066.17-.045.17s.076-.077.121-.17m.353-.565c.119-.17.177-.284.129-.25-.1.066-.434.561-.38.561.019 0 .132-.14.25-.31M63.933 338.734c1.212-.278 2.502-1.556 3.123-3.094.387-.958.514-1.674.479-2.693-.03-.877-.052-.978-.323-1.58-.16-.354-.373-.728-.474-.832-.377-.388-2.413-.837-4.095-.903-3.633-.142-6.235 1.49-8.025 5.037-.256.507-.32.691-.223.65.074-.03.478-.118.898-.194 1.382-.248 3.042.067 4.603.876 1.027.532 2.1 1.343 2.824 2.134.34.371.66.679.711.684s.277-.033.502-.085m133.889-8.454c2.057-.744 3.583-2.583 3.69-4.444.03-.538.009-.753-.092-.99-.16-.367-1.732-2.062-2.47-2.661-1.723-1.401-3.212-2.035-4.981-2.121-1.056-.051-1.672.034-2.715.374-.65.212-1.801.764-2.314 1.11-.237.159-.25.185-.116.236 1.645.633 3.062 1.86 4.054 3.512.898 1.496 1.324 2.655 1.666 4.54.114.626 2.05.889 3.278.444m-26.27-69.519c.54-1.828 1.36-4.034 2.73-7.335 1.52-3.661 1.922-5.017 2.266-7.644.16-1.227.18-4.323.034-5.543-.407-3.41-1.277-6.547-2.71-9.774l-.526-1.185-.917-.938c-3.488-3.57-6.326-5.942-9.237-7.717l-.44-.268-.704 1.061-.705 1.062.95 1.075c3.413 3.859 5.62 7.833 7.219 13 .186.603.339 1.175.339 1.271 0 .097-.153.936-.34 1.866-.297 1.48-.53 2.782-.815 4.559a62 62 0 0 0-.233 1.82c-.646 5.568-.195 9.803 1.396 13.123.447.93 1.366 2.341 1.457 2.233.033-.04.14-.34.236-.666M59.433 246.135c-.626-1.271-.864-2.351-.87-3.95-.009-1.85.388-3.653 1.15-5.235l.341-.707-.211-.435c-1.081-2.22-4.427-3.141-6.761-1.86-.433.236-1.155 1.012-1.3 1.395-.083.22-.085.49-.01 1.461.287 3.71 1.418 6.365 3.438 8.067.888.749 2.407 1.473 3.685 1.757.909.202.89.22.538-.493m25.695-5.426c.752-.15 1.436-.368 2.196-.702l.574-.252-.406-.223c-1.411-.776-2.614-2.147-3.424-3.902-.586-1.27-1.143-3.547-1.143-4.676 0-.213-.056-.285-.383-.48-.6-.357-1.13-.496-1.866-.49-1.55.014-3.084.745-4.107 1.955-.712.842-1.063 1.726-1.06 2.67 0 .4.039.48.636 1.357 1.424 2.089 3.137 3.627 4.812 4.32 1.272.527 2.844.686 4.17.423m-21.906-5.213c1.033-.19 1.831-.912 2.137-1.933.226-.754.194-2.562-.068-3.785-.22-1.03-.328-1.292-1.234-3.017-1.15-2.187-1.617-3.759-1.49-5.004.053-.514.387-2.155.454-2.228.02-.021.274.317.567.752 1.627 2.418 2.157 3.59 3.241 7.163.682 2.248 1.054 3.187 1.686 4.258 1.504 2.55 3.17 3.562 5.06 3.074.68-.176.851-.309.851-.665 0-.405.282-1.353.566-1.905.277-.537 1.14-1.565 1.675-1.995 1.218-.98 2.945-1.56 4.322-1.452 1.125.088 2.18.55 2.846 1.25l.33.346.417-.352c.906-.765 1.601-1.787 1.894-2.783.242-.826.207-1.962-.081-2.636-.448-1.047-1.378-1.833-2.73-2.304l-.765-.267-1.005.1c-.553.055-1.02.085-1.036.066-.016-.018-.095-.465-.173-.993a110 110 0 0 0-.342-2.103c-.57-3.292-.574-5.037-.013-6.25.168-.364 1.427-1.997 1.487-1.93.011.013.075.532.141 1.156.218 2.041.517 3.205 1.178 4.587q1.363 2.847 3.829 4.133c.88.458 1.417.6 2.462.65 1.17.056 1.847-.098 2.885-.658 1.097-.592 1.93-1.402 2.72-2.645 1.003-1.58 3.418-1.23 5.232.757 1.208 1.322 1.82 2.969 1.721 4.635-.025.423-.093.967-.153 1.21l-.107.439.354-.27c.58-.441 1.813-1.84 2.125-2.41.575-1.05.8-2.176.666-3.344-.156-1.364-.523-2.428-1.503-4.366-.589-1.163-.915-2.027-1.184-3.134-.169-.696-.198-.998-.203-2.123-.004-.96.03-1.47.125-1.904.475-2.155 1.642-3.899 3.188-4.764.503-.282 2.202-1.04 2.202-.984 0 .02-.276.598-.613 1.285-1.054 2.147-1.428 3.296-1.526 4.675-.093 1.324.27 2.757.978 3.85 2.074 3.21 2.947 5.472 3.08 7.986l.056 1.069.549-.912c1.137-1.886 2.108-4.28 2.613-6.44.46-1.967.531-2.694.516-5.3-.015-2.59.057-3.65.343-5.059.586-2.88 1.853-4.848 4.069-6.32 1.402-.93 3.318-1.63 7.064-2.584l.709-.18.063-.566c.103-.912.055-4.586-.078-6.066a37 37 0 0 0-.312-2.454c-.557-3.232-.442-6.22.341-8.858.291-.98 1.022-2.653 1.517-3.472.205-.34.401-.666.435-.725.142-.243-2.528 1.239-4.073 2.26-2.46 1.627-4.135 3.042-5.963 5.037-2.152 2.348-3.653 4.68-5.05 7.845-1.332 3.02-2.132 5.69-3.45 11.516-.292 1.292-.549 2.348-.57 2.348-.073 0-1.903-3.148-2.556-4.396-4.053-7.744-5.482-15.794-4.047-22.803.103-.508.175-.938.16-.955-.016-.018-.408.192-.87.466-5.394 3.195-10.277 8.25-14.732 15.249l-.835 1.311-1.136.926c-8.425 6.86-13.995 10.342-18.304 11.44-.779.198-1.09.233-2.11.238-.778.004-1.348-.036-1.624-.111-2.628-.721-4.054-2.994-4.484-7.146-.067-.645-.057-.871.059-1.448.108-.538.136-1.052.132-2.418-.004-1.59-.021-1.802-.204-2.545-.607-2.46-1.738-4.167-3.345-5.048-.615-.336-.897-.43-1.565-.522-1.51-.208-3.05.407-4.567 1.826l-.26.243.087.617c.297 2.094-.8 4.7-2.629 6.241-1.019.859-2.361 1.369-3.35 1.273a6 6 0 0 1-.702-.101c-.13-.04-.221.05-.49.486-1.365 2.22-1.669 4.78-.796 6.712.555 1.227 1.458 2.186 2.33 2.474.363.12.84.143 3.095.15 2.176.007 2.765.034 3.209.147.701.18 1.663.57 1.706.693.019.053-.013.324-.07.601l-.105.505-.574.055c-.315.03-.904.14-1.307.243-2.016.516-2.42.596-3.284.644-1.526.087-3.27-.193-5.601-.9-.616-.186-1.251-.338-1.413-.338-.638 0-1.161.473-1.42 1.283-.111.353-.142.692-.14 1.552.004 1.352.151 2.132.748 3.946l.24.73.42.054c1.859.24 3.774 2.025 4.619 4.307.687 1.855.643 3.729-.12 5.08-.127.224-.23.44-.23.48 0 .134.89 1.305 1.28 1.684.209.204.606.49.883.635.67.35 1.489.366 2.21.04 1.14-.515 2.475-1.789 4.422-4.22 2.336-2.916 3.085-3.774 4.256-4.876.662-.623 1.222-1.132 1.246-1.132s-.018.509-.093 1.13c-.276 2.304-.887 3.405-4.163 7.513-3.317 4.159-4.228 5.72-4.561 7.816-.197 1.238.206 2.977.762 3.292.327.185 1.418.33 2.125.284l.634-.042.492-.523c.565-.6 1.292-1.035 2.163-1.294.88-.262 2.429-.259 3.372.008 1.539.434 2.9 1.457 3.542 2.66.284.532.313.559.619.583.467.038 1.415-.015 1.904-.105zm-29.07-8.931c.126-.33.398-.882.605-1.227 1.193-1.995 3.742-3.746 6.165-4.235l.503-.101.159-.43c.562-1.529.267-3.29-.84-5.018-.876-1.366-2.106-2.141-3.397-2.141-.595 0-.625.01-.987.324-.481.417-1.642 1.767-2.103 2.445-1.818 2.678-2.374 5.321-1.706 8.105.195.809.572 1.83.97 2.623.237.472.301.55.346.417.03-.09.158-.432.284-.762m31.416.494c-.092-.41-.626-1.918-.939-2.653-.4-.939-.94-1.936-.942-1.739-.004.306.248 1.205.506 1.818.241.573 1.36 2.801 1.407 2.805.011 0-.004-.103-.032-.231zm60.277-17.983c1.7-3.9 5.088-6.685 10.974-9.02a13 13 0 0 1 2.164-.648c5.225-1.05 9.216-2.335 12.384-3.984 3.751-1.953 6.122-4.14 8.403-7.749.412-.653.775-1.155.806-1.117s.38.585.775 1.213c5.098 8.107 11.267 10.981 19.502 9.086 1.696-.39 4.466-1.412 6.229-2.298 1.274-.64 2.763-.955 4.52-.955 1.136 0 2.561.147 3.32.342.169.043.322.062.34.043.054-.06-2.293-2.578-3.12-3.348-1.66-1.547-3.513-2.982-5.756-4.457-1.038-.683-1.638-1.49-2.024-2.718-.225-.717-.24-1.994-.032-2.756.293-1.072.911-2.165 1.803-3.188.488-.559.662-.697 1.167-.926 2.917-1.327 4.939-3.339 6.15-6.121.568-1.305.972-3.055.972-4.21v-.496h-1.217c-2.571 0-4.92-.495-6.632-1.397-2.57-1.354-4.267-3.864-5.178-7.658a19 19 0 0 0-.234-.92c-.012-.017-.433.384-.937.89-4.616 4.64-8.42 6.835-13.042 7.523-.744.11-1.57.135-4.249.127-7.879-.023-11.476.49-13.747 1.96a6.3 6.3 0 0 0-.857.672l-.32.323-.418-.342c-.23-.187-.418-.367-.417-.4 0-.032.579-1.335 1.286-2.894 3.276-7.225 4.35-10.69 4.891-15.783.143-1.345.24-4.748.144-5.02-.066-.182-.157-.093-1.325 1.276-3.539 4.151-6.221 6.053-10.251 7.266-1.653.498-3.364.776-5.68.922-3.222.204-5.092.586-7.417 1.516-1.02.408-2.91 1.466-3.864 2.165-.477.349-.897.634-.934.634-.076 0-.652-.918-.603-.96l.533-.44c1.825-1.506 3.566-4.184 4.826-7.418.707-1.818 1.83-5.82 2.013-7.176.029-.21.134-.743.235-1.185.55-2.423 1.409-4.327 2.875-6.376.713-.997 3.416-4.079 3.648-4.16.364-.126.769.342.65.751-.029.098-.637.835-1.352 1.636-3.03 3.396-4.265 5.724-4.9 9.238-.795 4.39-2.318 8.796-4.011 11.604-.32.53-.573.97-.563.98.009.01.365-.132.79-.315 2.25-.97 4.556-1.48 7.573-1.675 1.806-.117 2.808-.23 3.902-.439 3.408-.651 6.021-1.901 8.576-4.102.772-.665 3.519-3.682 5.061-5.56.595-.723 1.104-1.318 1.132-1.322.204-.025.237 6.617.041 8.375-.551 4.97-1.602 8.487-4.481 14.993l-.813 1.836.424-.205c1.269-.615 3.029-1.04 5.447-1.317 1.343-.154 2.319-.19 6.672-.248 2.805-.037 5.187-.089 5.293-.114s.524-.108.927-.183c2.859-.527 5.846-2.04 8.685-4.397 1.235-1.025 2.132-1.884 3.775-3.611.857-.902 1.461-1.478 1.48-1.411.017.062.159.76.315 1.55.337 1.71.71 3.015 1.163 4.08 1.176 2.765 3.191 4.428 6.179 5.1 1.478.332 2.104.38 4.867.382 2.513 0 2.766-.012 3.574-.192 3.447-.765 5.843-2.638 7.643-5.972.398-.74 1.153-2.572 1.088-2.643-.019-.02-.26.076-.538.214-.754.374-2.185.898-2.924 1.07-.985.228-2.344.211-3.085-.04-.795-.269-1.075-.44-1.605-.977-2.14-2.17-1.256-6.631 1.835-9.272 3.425-2.926 5.475-5.504 7.2-9.055.668-1.374.789-1.219-1.037-1.335-3.02-.193-5.401-.69-7.862-1.637-1.312-.505-3.366-1.643-4.439-2.46-1.09-.832-2.556-2.344-3.247-3.352-1.133-1.654-1.973-4.058-1.973-5.65 0-.508.19-.799.52-.799.332 0 .532.327.591.965.447 4.776 4.419 8.817 10.518 10.701 2.018.624 3.986.935 6.336 1.003 2.566.074 3.872-.14 5.268-.861.887-.459 1.312-.775 1.987-1.478 1.443-1.503 2.442-3.701 2.936-6.458.23-1.286.377-2.868.343-3.696l-.026-.628-.301.501c-2.378 3.957-6.334 5.286-8.656 2.906-.526-.538-.88-1.181-1.09-1.973-.103-.391-.124-.723-.096-1.524.033-.977.056-1.094.506-2.589.709-2.353.976-3.48 1.267-5.331.233-1.486.073-5.588-.213-5.468-1.134.477-3.435.62-4.922.305-3.581-.757-6.488-3.472-7.867-7.348-.32-.9-.67-2.5-.733-3.36-.062-.832.037-1.055.463-1.053.438.004.54.184.663 1.187.541 4.4 3.082 7.876 6.646 9.093.881.3 1.344.387 2.357.44 1.472.078 2.93-.242 4.142-.91 2.247-1.237 4.155-3.95 5.168-7.352.304-1.022.592-2.347.525-2.42-.02-.024-.274.108-.562.292-1.426.913-3.008 1.328-4.22 1.108-2.302-.418-3.7-2.691-3.409-5.544.17-1.657.756-3.3 1.754-4.908l.834-1.347c.372-.6.747-1.471 1.025-2.379.664-2.167.71-4.852.103-6.154-.158-.34-.17-.348-.275-.188-1.88 2.884-2.75 3.85-4.77 5.302-.601.431-.998.662-1.14.662-.471 0-.702-.645-.354-.99.096-.094.574-.461 1.063-.815 1.853-1.34 3.224-2.95 4.523-5.31.417-.758.54-1.079.808-2.115 1.31-5.065 1.196-8.702-.402-12.795l-.39-.996-.952 1.089c-2.083 2.38-3.936 3.735-5.983 4.375-1.773.555-3.687 1.566-4.695 2.481-.398.361-.713.905-.713 1.23s-.355.671-.615.6c-.34-.093-.467-.286-.466-.71.003-1.21 1.12-2.393 3.4-3.595l1.027-.542-.31-.173c-.17-.095-.931-.475-1.692-.844-11.68-5.666-26.656-10.12-37.621-11.19-1.765-.172-2.922-.076-4.239.352-2.847.925-5.204 3.58-6.124 6.897l-.213.772-9.103 6.452c-5.007 3.548-9.103 6.5-9.103 6.561 0 .2.529 2.108.801 2.89.904 2.596 2.193 4.162 4.395 5.34 1.038.555.948.387 1.028 1.924.063 1.216.29 3.158.5 4.274.414 2.197 1.423 4.863 2.515 6.643.798 1.3 2.215 3.138 2.35 3.047.106-.072.622-1.33.889-2.168.328-1.032.617-2.445.777-3.799.069-.581.13-1.064.138-1.071.007-.008.43.043.94.114 1.214.167 3.346.106 4.636-.133 2.967-.55 6.194-1.922 9.702-4.123 1.273-.799 1.867-1.067 2.694-1.218 2.477-.453 5.108 1.364 6.557 4.527.57 1.246.598 1.42 1.258 7.786.337 3.258.67 6.38.738 6.938q.5 4.05-2.188 4.25c-.644.049-1.21-.03-3.81-.534-5.725-1.11-9.055-.926-13.803.76-1.584.563-2.18.647-3.121.438-1.92-.426-3.499-2.107-4.52-4.811l-.217-.575-.205.363c-.482.859-.852 2.294-.85 3.301.002.807.192 1.641.55 2.418l.32.7-.35.823c-.563 1.315-.714 1.945-.714 2.981 0 .803.022.94.225 1.422.239.566.774 1.174 1.278 1.45.711.391 1.088.47 2.206.466 1.286-.006 1.717-.113 2.905-.728l.82-.424 7.516.893c4.135.491 7.525.904 7.535.917.009.012.04.28.069.593.049.544.043.57-.125.613-.097.025-7.078 1.302-15.513 2.839-8.436 1.537-15.829 2.906-16.428 3.044-7.365 1.687-13.763.753-17.2-2.51-3.194-3.033-3.42-7.53-.613-12.156.287-.472.33-.592.239-.655-.061-.043-.477-.21-.923-.37-1.67-.605-2.654-.806-4.25-.87-1.99-.078-3.413.228-4.983 1.07-4.395 2.361-6.1 8.006-4.24 14.036.29.939 1.082 2.717 1.643 3.693.572.992.933 1.52 1.964 2.867.42.55.745 1.02.722 1.047s-.627.079-1.341.118c-2.222.123-3.602.337-5.432.842-3.603.995-7.068 3.116-9.63 5.895-7.253 7.867-8.703 20.211-3.734 31.803.374.873.293.967.654-.761 1.348-6.456 4.534-10.843 9.156-12.607 1.722-.658 3.103-.903 5.1-.907 2.42-.004 4.464.375 6.915 1.282.949.352 3.212 1.382 3.188 1.451-.012.031-.489.47-1.062.976-4.778 4.217-7.416 9.48-7.966 15.89-.113 1.322-.051 4.345.116 5.635.492 3.81 1.521 7.35 3.224 11.086.747 1.64 2.11 4.207 2.173 4.093.022-.04.22-.854.441-1.808 1.401-6.054 3.04-10.347 5.282-13.836.955-1.486 1.745-2.503 3.058-3.939 2.496-2.728 5.096-4.733 8.776-6.768 1.388-.768 2.028-1.09 3.64-1.827.24-.11.243-.108.522.336.155.246.281.485.281.53s-.124.214-.277.375c-.152.16-.513.615-.801 1.01-2.694 3.696-3.46 7.848-2.477 13.414.215 1.219.395 3.796.4 5.754.009 2.52-.185 3.775-.98 6.347-1.087 3.517-1.193 6.719-.373 11.32.114.64.22 1.163.234 1.163.016 0 .182-.353.37-.783zm-82.327-17.323c1.04-.458 2.035-1.434 2.674-2.624.54-1.005.687-1.576.687-2.67 0-.865-.015-.969-.237-1.481l-.239-.552-.75-.405c-1.548-.836-3.04-1.335-4.502-1.506-2.702-.316-5.196.821-7.165 3.267l-.545.678.809.06c2.064.152 3.824 1.064 5.51 2.855.723.767 1.548 1.895 1.762 2.412l.1.236.736-.042c.506-.028.869-.1 1.16-.228zm194.753-2.247c.425-.415.78-.758.79-.763.01-.004.07-.558.135-1.23.327-3.413.978-6.163 2.01-8.489l.409-.92-1.208-1.876a249 249 0 0 1-1.827-2.875c-.34-.55-.626-.948-.636-.886a598 598 0 0 0-.252 5.234c-.278 6.079-.44 9.343-.542 10.959a39 39 0 0 0-.076 1.602v.418l.212-.21c.117-.115.56-.55.985-.964m4.293-12.969c.144-.22.556-.736.915-1.145l.652-.743-.136-.314c-.373-.86-5.518-10.557-5.57-10.497-.01.015-.101 1.484-.198 3.266l-.178 3.239 1.077 1.751c1.42 2.309 3.054 4.845 3.121 4.845.03 0 .173-.18.317-.402m-8.817-17.288c.087-1.697.178-3.265.203-3.485.043-.367.015-.46-.337-1.143-.708-1.372-2.233-4.536-3.06-6.35-5.42-11.878-6.674-20.163-3.983-26.332.704-1.613 1.541-2.892 2.78-4.242 1.083-1.182 2.867-2.603 4.246-3.384.701-.397 1.497-.18 1.748.479.248.651.039 1.308-.819 2.57-1.45 2.136-1.915 3.57-1.834 5.665.044 1.144.188 1.845.61 2.968.915 2.441 3.09 5.325 6.043 8.013.79.719 1.573 1.637 2.727 3.2 1.671 2.264 2.775 4.344 3.564 6.72.226.68.4 1.093.436 1.03.12-.213.913-3.143 1.204-4.45 1.192-5.35.994-9.227-.666-13.07-.19-.44-.33-.844-.311-.898.019-.053.329-.202.689-.33 2.677-.955 4.673 1.425 5.083 6.06.265 2.992-.447 6.987-1.98 11.115-1.15 3.095-1.516 4.86-1.521 7.32-.003 1.454.084 2.313.372 3.64.197.907.62 2.357.723 2.478.031.037.079-.382.105-.93.167-3.49 1.32-7.276 4.496-14.75 2.072-4.88 2.617-6.382 3.159-8.717 1.034-4.453.85-8.343-.562-11.932-1.034-2.627-2.952-5.062-5.405-6.862-1.037-.76-3.015-1.82-4.223-2.263-2.388-.875-4.337-1.227-6.8-1.23-1.862 0-3.384.2-4.963.66l-.406.117-.067-.268-.066-.267-.074.295c-.072.292-.087.3-1.15.686-3.902 1.412-6.5 3.41-8.364 6.43-2.693 4.361-3.27 10.63-1.714 18.612 1.403 7.2 4.654 15.755 9.701 25.529.125.24.234.429.243.419s.087-1.406.173-3.103m.468-6.539c0-.37.267-2.903.505-4.797.57-4.524 1.337-8.57 2.408-12.688l.361-1.39-.597-.617c-1.99-2.055-3.403-4.054-4.303-6.08-.715-1.613-1.005-2.895-1.006-4.444-.001-2.127.571-3.843 1.973-5.911.653-.964.893-1.452.713-1.45-.137 0-1.08.593-1.847 1.159-2.141 1.58-3.826 3.616-4.807 5.81-.765 1.711-1.18 3.556-1.278 5.666-.232 5.058 1.217 10.765 4.81 18.947.934 2.126 2.917 6.167 2.999 6.112.038-.026.069-.168.069-.317m-149.98-12.752c.16-.256.37-.633.464-.838.394-.848.412-.97.472-3.224.032-1.187.099-2.387.148-2.666.305-1.73.808-2.707 1.838-3.57.789-.663 1.102-.898 1.139-.858.017.018-.017 1.688-.075 3.712-.105 3.667-.106 3.68-.315 4.27-.46 1.305-.67 2.25-.682 3.065-.009.683.01.802.148.954l.159.174.572-.729c3.114-3.973 7.86-6.87 12.942-7.897.65-.131 2.8-.433 3.088-.433.023 0-.194-.352-.482-.782-2.072-3.092-3.17-6.119-3.415-9.413-.244-3.295.667-6.593 2.432-8.806l.408-.51-5.255-7.021c-2.89-3.862-5.335-7.136-5.434-7.276-.143-.204-.205-.469-.304-1.312-.267-2.275-.461-3.398-.862-4.982-.894-3.528-2.717-6.985-5.584-10.588-.776-.975-1.306-1.967-2.67-4.995-2.969-6.591-3.278-10.99-1.03-14.638.332-.54.567-.784 1.559-1.624 5.058-4.283 7.66-7.396 8.395-10.043.255-.92.199-1.898-.155-2.688-.283-.635-1.062-1.56-1.735-2.061l-.38-.284-.238.154c-.897.583-1.644.805-2.705.805-1.77 0-3.58-.88-4.85-2.358-.89-1.036-1.37-2.236-1.374-3.427 0-.432.024-.517.198-.667.251-.216.205-.27-.624-.727-3.204-1.767-4.621-.582-5.094 4.26-.254 2.592-1.22 5.262-2.617 7.235-.874 1.233-1.44 1.848-1.96 2.129-1.186.64-2.29.268-2.401-.806-.033-.32-.004-.399.307-.818 2.193-2.958 3.346-6.11 3.202-8.75-.168-3.06-1.959-5.078-4.74-5.339-.968-.09-2.45.208-3.512.707l-.358.168.112.452c.152.615.087 1.802-.14 2.525-.54 1.726-2.01 3.345-3.742 4.118-.96.428-1.626.562-2.546.51-.82-.047-1.429-.231-2.017-.609l-.329-.21-.28.503c-.404.73-.782 1.66-.983 2.425-.146.553-.176.864-.173 1.81.004 1.067.02 1.189.243 1.834.643 1.857 1.99 3.311 4.234 4.572 1.288.723 2.837 1.348 4.482 1.807.617.173.733.236 1.031.571.395.443.706 1.122.705 1.54-.004.667-.506 1.368-1.226 1.709-.196.092-.634.2-.974.238l-.618.07-2.202-1.404c-3.67-2.339-5.596-3.35-7.123-3.738-.99-.252-1.569-.29-2.198-.146-1.573.362-2.53 1.54-3.278 4.035-.366 1.223-.372 1.315-.092 1.392.895.246 2.192 1.701 2.731 3.065.604 1.528.771 3.466.423 4.892-.278 1.138-.978 2.296-1.734 2.87l-.316.24-.599-.133c-.329-.072-.61-.12-.623-.105s.06.272.164.572c.762 2.217 1.92 3.167 3.65 2.995 1.631-.162 3.15-.881 7.813-3.699 1.454-.878 2.664-1.597 2.689-1.597s-.251.638-.614 1.417c-1.005 2.163-1.544 2.895-4.837 6.576-2.576 2.879-3.351 3.961-3.915 5.462-.53 1.414-.512 2.682.06 4.099l.16.395.136-.195c.075-.107.219-.357.32-.557.224-.444.343-.485 1.388-.478.67.006.91.045 1.383.23 1.806.703 3.343 2.51 3.998 4.698.2.665.22.847.218 1.879 0 .897-.033 1.224-.142 1.523-.25.686-.248.697.16.941.636.38 1.147.523 1.714.478.683-.054 1.207-.354 1.835-1.053.968-1.075 1.685-2.456 3.384-6.512l1.138-2.718.466.159c.256.087.492.177.524.199s.03.202-.007.401c-.152.836-.17 2.538-.035 3.473.42 2.915 1.641 5.677 4.303 9.73 1.01 1.535 1.663 3.19 2.046 5.175.268 1.392.338 3.646.155 5.008-.661 4.922-3.524 7.882-7.677 7.937-.478.007-.87.015-.87.018 0 .045 1.134.974 1.664 1.364 3.601 2.647 6.933 2.606 10.545-.132.667-.506 1.14-.937 2.445-2.23.6-.594 1.11-1.081 1.13-1.081.021 0-.2 1.037-.493 2.306-.71 3.083-.921 4.479-.922 6.114 0 2.805.523 5.083 2.005 8.705 1.104 2.699 1.557 4.843 1.44 6.822l-.048.805.473-.55c.26-.302.604-.76.765-1.015zm168.022-29.603c2.842-8.465 4.367-15.158 4.92-21.596.131-1.534.13-6.251-.001-7.616-.266-2.737-.653-4.792-1.34-7.109-1.887-6.355-5.644-11.656-11.229-15.844-1.618-1.213-3.458-2.03-5.689-2.525-1.159-.257-3.636-.322-4.857-.127-4.01.641-7.74 2.948-10.41 6.437-2.027 2.648-3.288 5.598-3.855 9.013-.17 1.027-.195 4.03-.04 5.035.349 2.282 1.095 4.49 2.16 6.39.38.676 2.239 3.507 3.723 5.67 1.36 1.98 3.44 5.148 4.223 6.43 2.934 4.807 4.14 8.267 3.73 10.699-.046.269-.068.505-.05.524.05.057 1.264-.865 2.044-1.552.861-.76 1.883-1.932 2.501-2.871 1.27-1.926 1.845-4.106 1.62-6.14-.292-2.637-1.38-4.77-3.933-7.702-1.97-2.263-3.015-3.84-3.997-6.032-1.204-2.687-1.75-5.303-1.625-7.785.222-4.406 2.218-7.632 5.377-8.69.657-.221 2.247-.301 3.073-.156 1.768.313 3.802 1.44 5.58 3.092 1.657 1.539 3.707 4.167 4.612 5.912 1.721 3.32 2.91 7.658 3.402 12.409.188 1.817.184 6.856-.005 8.928-.449 4.875-1.378 9.68-2.86 14.781l-.262.903.829.439c.456.24.982.546 1.17.678l.34.24.202-.254c.117-.146.391-.814.648-1.58zm-100.1-1.33c3.19-1.128 5.482-1.558 8.325-1.562 1.768 0 3.143.163 6.433.773 2.905.538 3.424.576 3.931.289.572-.324.693-1.253.438-3.374-.066-.55-.12-1.015-.12-1.036 0-.061-1.243-.726-1.752-.936-2.105-.868-4.284-1.178-7.781-1.109-3.286.065-4.773.275-12.16 1.717-2.008.392-3.668.713-3.689.713s.049.249.153.553c.65 1.89 1.743 3.384 2.939 4.015.986.52 1.718.51 3.283-.043zm-22.524-3.297c3.782-.273 8.173-.89 12.981-1.826a55 55 0 0 1 1.792-.332c.051 0 .242-.21.424-.467.183-.256.353-.465.379-.465s.088.152.14.338c.055.204.139.339.21.339.065 0 1.463-.265 3.107-.588 8.724-1.717 11.233-2.03 14.932-1.864 2.849.127 4.878.56 6.724 1.43l.7.331-.042-.31c-.147-1.117-.094-1.005-.575-1.203-1.768-.724-4.845-1.227-8.087-1.321-2.324-.067-3.318.02-7.766.686-6.143.918-10.59 1.5-13.947 1.82-3.522.338-4.476.383-7.958.379-3.705-.006-4.892-.099-6.943-.547-3.013-.66-5.157-1.998-6.2-3.871-1.269-2.277-1.473-5.056-.52-7.069.409-.862 1.27-1.796 2.034-2.203.924-.492 1.43-.607 2.627-.597 1.204.01 2.023.208 3.256.79.393.186.731.32.751.298s-.04-.42-.136-.885c-1.009-4.95-3.6-8.005-7.354-8.672-1.567-.278-3.413-.121-5.086.433-2.454.813-4.537 2.364-5.619 4.186-1.5 2.527-2.032 6.369-1.331 9.623.68 3.16 2.473 6.112 4.974 8.193 1.1.915 2.651 1.853 3.668 2.217 1.684.602 4.468 1.102 6.839 1.226 1.397.074 4.544.038 6.026-.07m18.197-5.505c1.593-.212 4.533-.63 6.532-.928 4.662-.696 5.306-.753 7.84-.692 3.187.075 5.913.469 7.83 1.13.333.115.626.187.651.16.06-.066-.584-6.383-.718-7.036s-.546-1.644-.97-2.334c-1.299-2.118-3.08-3.21-4.8-2.947-.78.12-1.211.29-1.985.782-2.928 1.865-6.028 3.358-8.392 4.041-2.072.599-3.537.796-5.542.747l-1.416-.035-.133.896c-.336 2.258-.937 4.08-2.03 6.161l-.281.534.258-.046c.142-.026 1.562-.22 3.156-.433m-95.502-2.45c1.04-.175 2.046-.489 3.206-1l1.005-.442.221-.452c.439-.893.526-1.654.317-2.76-.226-1.199-.825-2.346-1.706-3.266-.867-.906-1.707-1.336-2.68-1.37-.419-.016-.543.01-.599.117-.392.764-1.574 2.138-2.487 2.89-1.623 1.338-3.21 1.965-4.973 1.966h-.934l.47.666c1.035 1.463 2.467 2.683 3.793 3.23a10 10 0 0 0 1.74.49c.472.083 1.957.045 2.627-.068zM39.685 72.348c.8-.493 1.756-.88 2.754-1.116.666-.157 1.05-.19 2.162-.19.874 0 1.475.039 1.7.11l.347.109.333-.411c.376-.466.736-1.23.87-1.852.148-.679.111-2.179-.071-2.935-.317-1.314-1.013-2.5-1.826-3.112a4 4 0 0 0-.849-.436c-.61-.22-.591-.225-2.033.524-2.351 1.223-3.989 2.798-4.899 4.71-.423.89-.636 1.586-.795 2.595-.18 1.147-.157 2.293.076 3.824l.04.259.791-.852c.547-.588.98-.967 1.4-1.227zm167.563-12.124c1.548-2.515 3.073-5.512 4.061-7.98.243-.605.451-1.113.464-1.13s.626.014 1.362.067c3.058.221 4.562-.246 6.04-1.874.377-.414.67-.77.65-.79-.018-.022-.552.058-1.185.175-3.1.576-6.723.811-9.9.644-1.087-.058-2.068-.125-2.181-.15l-.204-.044.074.79c.087.937-.03 2.589-.252 3.507-.479 1.995-1.666 3.395-3.372 3.977-.701.24-2.694.222-3.573-.031a9.7 9.7 0 0 1-4.364-2.63c-1.405-1.47-2.088-2.956-2.09-4.545-.004-1.44.448-2.594 1.483-3.792.334-.387 1.33-1.27 1.668-1.478.085-.052.201-.13.259-.172.08-.058-.135-.393-.915-1.42-2.147-2.828-3.754-5.352-5.444-8.553-.004-.009-.46.236-1.01.543-2.767 1.544-5.441 2.588-8 3.125l-1.091.229.044.302c.109.752.14 2.89.053 3.568-.423 3.261-2.162 5.55-4.929 6.483-.632.213-.775.23-2.07.228-1.648 0-2.166-.121-3.4-.794-2.32-1.263-3.593-3.54-3.593-6.428 0-1.576.348-3.088 1.13-4.905.23-.53.408-.974.397-.985-.012-.011-.68-.344-1.488-.74-4.44-2.177-8.369-4.41-10.693-6.08l-.262-.188.056.586c.219 2.31 1.635 4.205 4.194 5.61.673.37 1.63.833 2.294 1.11l.181.075-.256 1.142a34 34 0 0 0-.651 4.075c-.07.797-.113 5.627-.05 5.627.017 0 .738.113 1.604.25 12.428 1.976 23.787 5.2 34.612 9.822 2.775 1.185 6.204 2.794 8.261 3.876.531.28 1 .499 1.043.488s.512-.727 1.043-1.59m-22.446-9.157c-.864-.423-1.223-1.73-1.213-4.408.008-2.237.393-6.427.68-7.414.22-.758.865-1.375 1.82-1.744.495-.192.695-.22 1.572-.225.76-.005 1.127.033 1.507.153 1.656.52 2.883 1.805 3.17 3.318.05.26.077.82.061 1.245l-.028.774-.725 1.227c-3.346 5.664-5.395 7.782-6.844 7.074m1.066-1.244c.179-.098.673-.565 1.098-1.037 1.095-1.216 2.258-2.91 3.784-5.512l.596-1.015-.037-.7c-.047-.867-.284-1.443-.818-1.99-.721-.74-1.658-1.097-2.869-1.097-1.015 0-1.865.359-2.206.93-.125.207-.321 1.554-.547 3.745-.17 1.652-.193 4.941-.04 5.766.124.676.335 1.089.555 1.089.087 0 .305-.08.484-.179m-98.285-5.277a3.54 3.54 0 0 0 1.525-.796c.206-.189.271-.35.43-1.068.375-1.689.503-3.584.34-5.01-.369-3.218-1.866-5.484-4.731-7.162-.372-.218-.676-.382-.676-.364s.05.187.11.377c.062.19.152.719.2 1.176.274 2.577-.8 5.713-2.698 7.883l-.546.623.118.57c.297 1.429 1.553 2.824 3.106 3.45 1.037.418 1.955.522 2.822.32m-29.59-.845c1.046-.307 2.338-1.21 2.964-2.07.743-1.022 1.055-2.024.951-3.057-.06-.604-.065-.614-.551-1.156-3.347-3.73-6.975-4.851-10.457-3.23-.615.286-1.79.973-1.852 1.081-.022.04.066.095.197.124.384.084 1.513.697 2.032 1.102 1.104.862 2.116 2.202 2.838 3.754.395.85.819 2.165.906 2.811.049.361.068.386.437.536.825.338 1.63.371 2.535.105" style="fill:#fff"/></svg>